<svg width="800" height="469" viewBox="0 0 800 469" fill="none" xmlns="http://www.w3.org/2000/svg">
<g clip-path="url(#clip0)">
<path d="M198.234 1.66113H27.663C13.3031 1.66113 1.66211 13.3021 1.66211 27.662V440.666C1.66211 455.026 13.3031 466.667 27.663 466.667H198.234C212.593 466.667 224.234 455.026 224.234 440.666V27.662C224.234 13.3021 212.593 1.66113 198.234 1.66113Z" fill="white"/>
<path d="M198.239 468.328H27.6621C20.3278 468.321 13.2959 465.405 8.10981 460.218C2.92369 455.032 0.00703697 448 0 440.666L0 27.6621C0.00703697 20.3278 2.92369 13.2959 8.10981 8.10981C13.2959 2.92369 20.3278 0.00703697 27.6621 0L198.239 0C205.577 0.00175753 212.614 2.91607 217.804 8.10277C222.995 13.2895 225.914 20.3243 225.921 27.6621V440.666C225.914 448.004 222.995 455.039 217.804 460.225C212.614 465.412 205.577 468.326 198.239 468.328V468.328ZM27.6621 3.32237C21.2089 3.32941 15.0221 5.89602 10.4591 10.4591C5.89602 15.0221 3.32941 21.2089 3.32237 27.6621V440.666C3.32941 447.119 5.89602 453.306 10.4591 457.869C15.0221 462.432 21.2089 464.999 27.6621 465.006H198.239C204.696 465.004 210.888 462.44 215.455 457.876C220.023 453.313 222.592 447.123 222.599 440.666V27.6621C222.592 21.2055 220.023 15.0157 215.455 10.452C210.888 5.88841 204.696 3.32413 198.239 3.32237H27.6621Z" fill="#EAEBEE"/>
<path d="M112.96 460.421C108.952 460.421 105.033 459.233 101.7 457.006C98.3676 454.779 95.77 451.614 94.2361 447.91C92.7021 444.207 92.3008 440.132 93.0828 436.201C93.8648 432.27 95.795 428.658 98.6293 425.824C101.464 422.99 105.075 421.06 109.006 420.278C112.937 419.496 117.012 419.897 120.715 421.431C124.419 422.965 127.584 425.562 129.811 428.895C132.038 432.228 133.226 436.146 133.226 440.155C133.219 445.527 131.082 450.678 127.283 454.477C123.483 458.277 118.333 460.414 112.96 460.421V460.421ZM112.96 423.211C109.609 423.211 106.333 424.204 103.546 426.066C100.76 427.928 98.588 430.574 97.3055 433.67C96.0231 436.767 95.6875 440.173 96.3413 443.46C96.9951 446.747 98.6089 449.766 100.979 452.136C103.348 454.506 106.367 456.119 109.654 456.773C112.941 457.427 116.348 457.091 119.444 455.809C122.54 454.527 125.186 452.355 127.048 449.568C128.91 446.782 129.904 443.506 129.904 440.155C129.899 435.662 128.112 431.356 124.935 428.179C121.759 425.003 117.452 423.216 112.96 423.211Z" fill="#EAEBEE"/>
<path d="M131.375 34.5525H94.5228C92.9778 34.5507 91.4965 33.9362 90.4041 32.8437C89.3116 31.7513 88.6971 30.27 88.6953 28.725V28.6453C88.6971 27.1003 89.3116 25.6191 90.4041 24.5266C91.4965 23.4342 92.9778 22.8196 94.5228 22.8179H131.375C132.14 22.8179 132.898 22.9686 133.605 23.2615C134.312 23.5543 134.954 23.9836 135.495 24.5247C136.036 25.0658 136.466 25.7082 136.758 26.4152C137.051 27.1223 137.202 27.88 137.202 28.6453V28.725C137.202 29.4903 137.051 30.2481 136.758 30.9551C136.466 31.6621 136.036 32.3045 135.495 32.8457C134.954 33.3868 134.312 33.816 133.605 34.1089C132.898 34.4018 132.14 34.5525 131.375 34.5525V34.5525ZM94.5228 26.1402C93.8584 26.1402 93.2212 26.4042 92.7514 26.874C92.2816 27.3438 92.0177 27.9809 92.0177 28.6453V28.725C92.0177 29.3894 92.2816 30.0266 92.7514 30.4964C93.2212 30.9662 93.8584 31.2301 94.5228 31.2301H131.375C132.039 31.2301 132.676 30.9662 133.146 30.4964C133.616 30.0266 133.88 29.3894 133.88 28.725V28.6453C133.88 28.3163 133.815 27.9906 133.689 27.6867C133.563 27.3827 133.378 27.1066 133.146 26.874C132.913 26.6413 132.637 26.4568 132.333 26.3309C132.029 26.205 131.703 26.1402 131.375 26.1402H94.5228Z" fill="#EAEBEE"/>
<path d="M212.631 57.3174H13.2891V410.884H212.631V57.3174Z" fill="#5A478F"/>
<path fill-rule="evenodd" clip-rule="evenodd" d="M13.2891 166.783H212.631V411.31H13.2891V166.783Z" fill="#C3C7D1"/>
<path fill-rule="evenodd" clip-rule="evenodd" d="M13.2891 357.487H212.631V411.31H13.2891V357.487Z" fill="#EAEBEE"/>
<rect x="21.957" y="366.79" width="84.6714" height="34.5527" rx="17.2763" fill="#F5B33C"/>
<rect x="117.295" y="366.79" width="85.3381" height="34.5527" rx="17.2763" fill="#F5B33C"/>
<rect x="131.566" y="380.743" width="57.1448" height="6.64474" rx="3.32237" fill="#E2950C"/>
<rect x="50.9043" y="194.027" width="124.616" height="6.64474" rx="3.32237" fill="#9DA3B3"/>
<rect x="31.8945" y="225.921" width="162.635" height="6.64474" rx="3.32237" fill="#9DA3B3"/>
<rect x="31.8945" y="241.869" width="162.635" height="6.64474" rx="3.32237" fill="#9DA3B3"/>
<rect x="31.8945" y="257.816" width="162.635" height="6.64474" rx="3.32237" fill="#9DA3B3"/>
<rect x="31.8945" y="273.764" width="162.635" height="6.64474" rx="3.32237" fill="#9DA3B3"/>
<rect x="31.8945" y="289.711" width="162.635" height="6.64474" rx="3.32237" fill="#9DA3B3"/>
<rect x="35.8809" y="380.744" width="57.1448" height="6.64474" rx="3.32237" fill="#E2950C"/>
</g>
<g clip-path="url(#clip1)">
<path d="M485.284 1.66113H314.714C300.354 1.66113 288.713 13.3021 288.713 27.662V440.666C288.713 455.026 300.354 466.667 314.714 466.667H485.284C499.644 466.667 511.285 455.026 511.285 440.666V27.662C511.285 13.3021 499.644 1.66113 485.284 1.66113Z" fill="white"/>
<path d="M485.29 468.328H314.713C307.379 468.321 300.347 465.405 295.161 460.218C289.974 455.032 287.058 448 287.051 440.666V27.6621C287.058 20.3278 289.974 13.2959 295.161 8.10981C300.347 2.92369 307.379 0.00703697 314.713 0L485.29 0C492.628 0.00175753 499.665 2.91607 504.855 8.10277C510.046 13.2895 512.965 20.3243 512.972 27.6621V440.666C512.965 448.004 510.046 455.039 504.855 460.225C499.665 465.412 492.628 468.326 485.29 468.328V468.328ZM314.713 3.32237C308.26 3.32941 302.073 5.89602 297.51 10.4591C292.947 15.0221 290.38 21.2089 290.373 27.6621V440.666C290.38 447.119 292.947 453.306 297.51 457.869C302.073 462.432 308.26 464.999 314.713 465.006H485.29C491.747 465.004 497.939 462.44 502.506 457.876C507.073 453.313 509.643 447.123 509.65 440.666V27.6621C509.643 21.2055 507.073 15.0157 502.506 10.452C497.939 5.88841 491.747 3.32413 485.29 3.32237H314.713Z" fill="#EAEBEE"/>
<path d="M400.011 460.421C396.002 460.421 392.084 459.233 388.751 457.006C385.418 454.779 382.821 451.614 381.287 447.91C379.753 444.207 379.352 440.132 380.134 436.201C380.916 432.27 382.846 428.658 385.68 425.824C388.514 422.99 392.126 421.06 396.057 420.278C399.988 419.496 404.063 419.897 407.766 421.431C411.469 422.965 414.635 425.562 416.862 428.895C419.088 432.228 420.277 436.146 420.277 440.155C420.27 445.527 418.133 450.678 414.333 454.477C410.534 458.277 405.383 460.414 400.011 460.421V460.421ZM400.011 423.211C396.659 423.211 393.383 424.204 390.597 426.066C387.811 427.928 385.639 430.574 384.356 433.67C383.074 436.767 382.738 440.173 383.392 443.46C384.046 446.747 385.66 449.766 388.029 452.136C390.399 454.506 393.418 456.119 396.705 456.773C399.992 457.427 403.399 457.091 406.495 455.809C409.591 454.527 412.237 452.355 414.099 449.568C415.961 446.782 416.955 443.506 416.955 440.155C416.949 435.662 415.163 431.356 411.986 428.179C408.81 425.003 404.503 423.216 400.011 423.211Z" fill="#EAEBEE"/>
<path d="M418.425 34.5525H381.574C380.029 34.5507 378.547 33.9362 377.455 32.8437C376.362 31.7513 375.748 30.27 375.746 28.725V28.6453C375.748 27.1003 376.362 25.6191 377.455 24.5266C378.547 23.4342 380.029 22.8196 381.574 22.8179H418.425C419.191 22.8179 419.948 22.9686 420.655 23.2615C421.362 23.5543 422.005 23.9836 422.546 24.5247C423.087 25.0658 423.516 25.7082 423.809 26.4152C424.102 27.1223 424.253 27.88 424.253 28.6453V28.725C424.253 29.4903 424.102 30.2481 423.809 30.9551C423.516 31.6621 423.087 32.3045 422.546 32.8457C422.005 33.3868 421.362 33.816 420.655 34.1089C419.948 34.4018 419.191 34.5525 418.425 34.5525V34.5525ZM381.574 26.1402C380.909 26.1402 380.272 26.4042 379.802 26.874C379.332 27.3438 379.068 27.9809 379.068 28.6453V28.725C379.068 29.3894 379.332 30.0266 379.802 30.4964C380.272 30.9662 380.909 31.2301 381.574 31.2301H418.425C419.09 31.2301 419.727 30.9662 420.197 30.4964C420.666 30.0266 420.93 29.3894 420.93 28.725V28.6453C420.93 28.3163 420.866 27.9906 420.74 27.6867C420.614 27.3827 420.429 27.1066 420.197 26.874C419.964 26.6413 419.688 26.4568 419.384 26.3309C419.08 26.205 418.754 26.1402 418.425 26.1402H381.574Z" fill="#EAEBEE"/>
<path d="M499.682 57.3174H300.34V410.884H499.682V57.3174Z" fill="#5A478F"/>
<path fill-rule="evenodd" clip-rule="evenodd" d="M300.34 166.783H499.682V411.31H300.34V166.783Z" fill="#C3C7D1"/>
<path fill-rule="evenodd" clip-rule="evenodd" d="M300.34 357.487H499.682V411.31H300.34V357.487Z" fill="#EAEBEE"/>
<rect x="309.008" y="366.79" width="84.6714" height="34.5527" rx="17.2763" fill="#F5B33C"/>
<rect x="404.346" y="366.79" width="85.3381" height="34.5527" rx="17.2763" fill="#F5B33C"/>
<rect x="418.617" y="380.743" width="57.1448" height="6.64474" rx="3.32237" fill="#E2950C"/>
<rect x="337.955" y="194.027" width="124.616" height="6.64474" rx="3.32237" fill="#9DA3B3"/>
<rect x="318.945" y="225.921" width="162.635" height="6.64474" rx="3.32237" fill="#9DA3B3"/>
<rect x="318.945" y="241.869" width="162.635" height="6.64474" rx="3.32237" fill="#9DA3B3"/>
<rect x="318.945" y="257.816" width="162.635" height="6.64474" rx="3.32237" fill="#9DA3B3"/>
<rect x="318.945" y="273.764" width="162.635" height="6.64474" rx="3.32237" fill="#9DA3B3"/>
<rect x="318.945" y="289.711" width="162.635" height="6.64474" rx="3.32237" fill="#9DA3B3"/>
<rect x="322.932" y="380.744" width="57.1448" height="6.64474" rx="3.32237" fill="#E2950C"/>
</g>
<g clip-path="url(#clip2)">
<path d="M772.339 1.66113H601.768C587.409 1.66113 575.768 13.3021 575.768 27.662V440.666C575.768 455.026 587.409 466.667 601.768 466.667H772.339C786.699 466.667 798.34 455.026 798.34 440.666V27.662C798.34 13.3021 786.699 1.66113 772.339 1.66113Z" fill="white"/>
<path d="M772.345 468.328H601.768C594.433 468.321 587.401 465.405 582.215 460.218C577.029 455.032 574.113 448 574.105 440.666V27.6621C574.113 20.3278 577.029 13.2959 582.215 8.10981C587.401 2.92369 594.433 0.00703697 601.768 0L772.345 0C779.682 0.00175753 786.719 2.91607 791.91 8.10277C797.1 13.2895 800.02 20.3243 800.027 27.6621V440.666C800.02 448.004 797.1 455.039 791.91 460.225C786.719 465.412 779.682 468.326 772.345 468.328V468.328ZM601.768 3.32237C595.314 3.32941 589.128 5.89602 584.565 10.4591C580.001 15.0221 577.435 21.2089 577.428 27.6621V440.666C577.435 447.119 580.001 453.306 584.565 457.869C589.128 462.432 595.314 464.999 601.768 465.006H772.345C778.801 465.004 784.993 462.44 789.561 457.876C794.128 453.313 796.697 447.123 796.704 440.666V27.6621C796.697 21.2055 794.128 15.0157 789.561 10.452C784.993 5.88841 778.801 3.32413 772.345 3.32237H601.768Z" fill="#EAEBEE"/>
<path d="M687.065 460.421C683.057 460.421 679.139 459.233 675.806 457.006C672.473 454.779 669.875 451.614 668.342 447.91C666.808 444.207 666.406 440.132 667.188 436.201C667.97 432.27 669.9 428.658 672.735 425.824C675.569 422.99 679.18 421.06 683.112 420.278C687.043 419.496 691.118 419.897 694.821 421.431C698.524 422.965 701.689 425.562 703.916 428.895C706.143 432.228 707.332 436.146 707.332 440.155C707.325 445.527 705.187 450.678 701.388 454.477C697.589 458.277 692.438 460.414 687.065 460.421V460.421ZM687.065 423.211C683.714 423.211 680.438 424.204 677.652 426.066C674.865 427.928 672.693 430.574 671.411 433.67C670.129 436.767 669.793 440.173 670.447 443.46C671.101 446.747 672.714 449.766 675.084 452.136C677.454 454.506 680.473 456.119 683.76 456.773C687.047 457.427 690.453 457.091 693.55 455.809C696.646 454.527 699.292 452.355 701.154 449.568C703.016 446.782 704.009 443.506 704.009 440.155C704.004 435.662 702.217 431.356 699.041 428.179C695.864 425.003 691.558 423.216 687.065 423.211Z" fill="#EAEBEE"/>
<path d="M705.48 34.5525H668.628C667.083 34.5507 665.602 33.9362 664.51 32.8437C663.417 31.7513 662.803 30.27 662.801 28.725V28.6453C662.803 27.1003 663.417 25.6191 664.51 24.5266C665.602 23.4342 667.083 22.8196 668.628 22.8179H705.48C706.245 22.8179 707.003 22.9686 707.71 23.2615C708.417 23.5543 709.059 23.9836 709.601 24.5247C710.142 25.0658 710.571 25.7082 710.864 26.4152C711.157 27.1223 711.307 27.88 711.307 28.6453V28.725C711.307 29.4903 711.157 30.2481 710.864 30.9551C710.571 31.6621 710.142 32.3045 709.601 32.8457C709.059 33.3868 708.417 33.816 707.71 34.1089C707.003 34.4018 706.245 34.5525 705.48 34.5525V34.5525ZM668.628 26.1402C667.964 26.1402 667.327 26.4042 666.857 26.874C666.387 27.3438 666.123 27.9809 666.123 28.6453V28.725C666.123 29.3894 666.387 30.0266 666.857 30.4964C667.327 30.9662 667.964 31.2301 668.628 31.2301H705.48C706.144 31.2301 706.782 30.9662 707.251 30.4964C707.721 30.0266 707.985 29.3894 707.985 28.725V28.6453C707.985 28.3163 707.92 27.9906 707.794 27.6867C707.668 27.3827 707.484 27.1066 707.251 26.874C707.019 26.6413 706.743 26.4568 706.439 26.3309C706.135 26.205 705.809 26.1402 705.48 26.1402H668.628Z" fill="#EAEBEE"/>
<path d="M786.737 57.3174H587.395V410.884H786.737V57.3174Z" fill="#5A478F"/>
<path fill-rule="evenodd" clip-rule="evenodd" d="M587.395 166.783H786.737V411.31H587.395V166.783Z" fill="#C3C7D1"/>
<path fill-rule="evenodd" clip-rule="evenodd" d="M587.395 357.487H786.737V411.31H587.395V357.487Z" fill="#EAEBEE"/>
<rect x="596.062" y="366.79" width="84.6714" height="34.5527" rx="17.2763" fill="#F5B33C"/>
<rect x="691.4" y="366.79" width="85.3381" height="34.5527" rx="17.2763" fill="#F5B33C"/>
<rect x="705.672" y="380.743" width="57.1448" height="6.64474" rx="3.32237" fill="#E2950C"/>
<rect x="625.01" y="194.027" width="124.616" height="6.64474" rx="3.32237" fill="#9DA3B3"/>
<rect x="606" y="225.921" width="162.635" height="6.64474" rx="3.32237" fill="#9DA3B3"/>
<rect x="606" y="241.869" width="162.635" height="6.64474" rx="3.32237" fill="#9DA3B3"/>
<rect x="606" y="257.816" width="162.635" height="6.64474" rx="3.32237" fill="#9DA3B3"/>
<rect x="606" y="273.764" width="162.635" height="6.64474" rx="3.32237" fill="#9DA3B3"/>
<rect x="606" y="289.711" width="162.635" height="6.64474" rx="3.32237" fill="#9DA3B3"/>
<rect x="609.986" y="380.744" width="57.1448" height="6.64474" rx="3.32237" fill="#E2950C"/>
</g>
<defs>
<clipPath id="clip0">
<rect width="225.895" height="468.328" fill="white"/>
</clipPath>
<clipPath id="clip1">
<rect width="225.895" height="468.328" fill="white" transform="translate(287.051)"/>
</clipPath>
<clipPath id="clip2">
<rect width="225.895" height="468.328" fill="white" transform="translate(574.105)"/>
</clipPath>
</defs>
</svg>
