<svg width="120" height="108" viewBox="0 0 120 108" fill="none" xmlns="http://www.w3.org/2000/svg">
<rect width="107" height="85.1076" fill="#4DB3B9"/>
<rect x="6" y="19" width="97" height="59" fill="#AFDDDF"/>
<path d="M107 0H96.3007H53.5007H32.1007H0.000713333H0V12H0.000713333H107V0Z" fill="#37878B"/>
<circle cx="6.5228" cy="5.7955" r="2.7955" fill="#E566A1"/>
<circle cx="13.9774" cy="5.7955" r="2.7955" fill="#F8CC7D"/>
<circle cx="21.432" cy="5.7955" r="2.7955" fill="#3DD6C8"/>
<path d="M112.704 30.5317H87.8994C83.0599 30.5317 80.6038 33.0713 80.6038 38.0749V99.9285C80.6038 104.932 83.0599 107.472 87.8994 107.472H112.704C117.544 107.472 120 104.932 120 99.9285V38.0749C120 33.0964 117.544 30.5317 112.704 30.5317Z" fill="#7EC8CC"/>
<path d="M104.071 35.3088H96.5327C96.0706 35.3088 95.6815 35.7111 95.6815 36.1889C95.6815 36.6666 96.0706 37.0689 96.5327 37.0689H104.071C104.534 37.0689 104.923 36.6666 104.923 36.1889C104.923 35.7111 104.558 35.3088 104.071 35.3088Z" fill="#37878B"/>
<path d="M116.036 40.1616H84.3247V96.3579H116.036V40.1616Z" fill="#DFF2F2"/>
</svg>
