<svg width="392" height="310" viewBox="0 0 392 310" fill="none" xmlns="http://www.w3.org/2000/svg">
<path opacity="0.2" d="M392 295.137C392 303.031 304.235 309.319 196 309.319C87.7652 309.319 0 302.897 0 295.137C0 287.244 87.7652 280.956 196 280.956C304.235 280.956 392 287.377 392 295.137Z" fill="#C3C7D1"/>
<path d="M358.687 199.479H21.1386V20.0683C21.1386 8.96382 30.2363 0 41.2069 0H339.823C350.124 0 358.553 8.42867 358.553 18.7304V199.479H358.687Z" fill="#4A5E81"/>
<path d="M328.451 229.715H51.5085C34.785 229.715 21.2724 216.202 21.2724 199.479H358.821C358.687 216.202 345.174 229.715 328.451 229.715Z" fill="white"/>
<path d="M220.349 229.714H159.074V280.688H220.349V229.714Z" fill="#EAEBEE"/>
<path d="M220.349 229.714H159.074V245.903H220.349V229.714Z" fill="#C3C7D1"/>
<path d="M260.486 300.088H118.938V296.743C118.938 287.913 126.162 280.688 134.993 280.688H244.431C253.261 280.688 260.486 287.913 260.486 296.743V300.088Z" fill="white"/>
<path d="M40.538 14.583C37.5946 14.583 35.1864 16.9912 35.1864 19.9345V23.6806L216.336 180.213H240.418H247.375L55.7898 14.583H40.538Z" fill="#DFF2F2"/>
<path d="M35.3202 81.4774V101.947V148.372V174.995C35.3202 177.939 37.7284 180.347 40.6717 180.347H42.9461H89.5045H103.418H190.247L35.3202 46.4248V81.4774Z" fill="#DFF2F2"/>
<path d="M338.752 14.583H306.375H292.461H245.903H199.211H142.351H131.113L322.698 180.213H338.618C341.562 180.213 343.97 177.805 343.97 174.861V116.128V95.6588V19.8008C344.104 16.9912 341.696 14.583 338.752 14.583Z" fill="#DFF2F2"/>
<path d="M117.333 14.583H55.7899L247.375 180.213H265.57H322.832L131.247 14.583H117.333Z" fill="#DFF2F2"/>
<path d="M35.3202 46.4247L190.113 180.213H216.47L35.3202 23.6807V46.4247Z" fill="#DFF2F2"/>
<path d="M244.571 52.09C244.675 52.09 192.2 31.8935 190.857 31.3757C189.824 31.7899 137.04 52.09 137.143 52.09V90.2043C137.143 116.615 144.684 151.105 190.857 163.947C236.927 151.104 244.468 115.993 244.468 90.2043C244.571 77.1544 244.571 52.09 244.571 52.09Z" fill="#F8CC7D"/>
<path d="M234.208 59.1873C234.312 59.1873 191.955 42.0761 190.818 41.6614C189.889 41.9726 147.325 58.4614 147.429 58.3576V90.402C147.429 112.595 151.768 142.876 190.818 153.661C229.766 142.876 234.208 112.076 234.208 90.402C234.312 79.4096 234.312 59.1873 234.208 59.1873Z" fill="#F5B33C"/>
<path d="M211.241 87.7178C210.931 86.728 210.004 86.0351 208.87 85.837L198.15 84.3522L193.511 75.2453C192.996 74.2555 191.965 73.6614 190.831 73.6614C189.698 73.6614 188.667 74.2553 188.151 75.2453L183.513 84.3522L172.793 85.837C171.659 86.0351 170.731 86.728 170.422 87.7178C170.113 88.7075 170.319 89.7966 171.144 90.4895L178.978 97.9134L177.122 108.208C176.916 109.198 177.432 110.287 178.359 110.881C178.874 111.178 179.493 111.376 180.111 111.376C180.627 111.376 181.142 111.277 181.554 111.079L190.935 106.327L200.315 111.079C200.727 111.277 201.242 111.376 201.758 111.376C202.376 111.376 202.995 111.178 203.51 110.881C204.438 110.287 204.953 109.198 204.747 108.208L202.892 97.9134L210.725 90.4895C211.344 89.6975 211.653 88.7075 211.241 87.7178Z" fill="#FCE5BD"/>
<path d="M198.007 213.526C198.007 218.744 193.726 223.025 188.508 223.025C183.29 223.025 179.009 218.744 179.009 213.526C179.009 208.309 183.29 204.027 188.508 204.027C193.726 204.027 198.007 208.309 198.007 213.526Z" fill="#9DA3B3"/>
</svg>
