<svg width="293" height="301" viewBox="0 0 293 301" fill="none" xmlns="http://www.w3.org/2000/svg">
<path d="M27.5142 122.819C27.5142 89.5835 54.4592 62.6392 87.6966 62.6392C120.934 62.6392 147.879 89.5835 147.879 122.822L27.5142 122.819Z" fill="#6DB585"/>
<path d="M88.6178 54.6555C103.711 54.6555 115.946 42.4204 115.946 27.3278C115.946 12.2351 103.711 0 88.6178 0C73.5251 0 61.29 12.2351 61.29 27.3278C61.29 42.4204 73.5251 54.6555 88.6178 54.6555Z" fill="#6DB585"/>
<path d="M122.701 122.819C122.701 89.5835 149.646 62.6392 182.883 62.6392C216.121 62.6392 243.066 89.5835 243.066 122.822L122.701 122.819Z" fill="#E566A1"/>
<path d="M184.112 54.6555C199.035 54.6555 211.132 42.4204 211.132 27.3278C211.132 12.2351 199.035 0 184.112 0C169.189 0 157.091 12.2351 157.091 27.3278C157.091 42.4204 169.189 54.6555 184.112 54.6555Z" fill="#E566A1"/>
<path d="M76.0287 155.367C76.0287 122.131 102.974 95.1865 136.211 95.1865C169.449 95.1865 196.394 122.131 196.394 155.369L76.0287 155.367Z" fill="#3DD6C8"/>
<path d="M137.132 87.2031C152.225 87.2031 164.46 74.968 164.46 59.8754C164.46 44.7827 152.225 32.5476 137.132 32.5476C122.04 32.5476 109.805 44.7827 109.805 59.8754C109.805 74.968 122.04 87.2031 137.132 87.2031Z" fill="#3DD6C8"/>
<path d="M173.058 155.367C173.058 122.131 200.003 95.1865 233.24 95.1865C266.478 95.1865 293.423 122.131 293.423 155.369L173.058 155.367Z" fill="#A294CA"/>
<path d="M234.469 87.2031C249.392 87.2031 261.489 74.968 261.489 59.8754C261.489 44.7827 249.392 32.5476 234.469 32.5476C219.545 32.5476 207.448 44.7827 207.448 59.8754C207.448 74.968 219.545 87.2031 234.469 87.2031Z" fill="#A294CA"/>
<path d="M-21 155.367C-21 122.131 5.94501 95.1865 39.1825 95.1865C72.42 95.1865 99.365 122.131 99.365 155.369L-21 155.367Z" fill="#F1A86F"/>
<path d="M40.1036 87.2031C55.1964 87.2031 67.4314 74.968 67.4314 59.8754C67.4314 44.7827 55.1964 32.5476 40.1036 32.5476C25.0109 32.5476 12.7759 44.7827 12.7759 59.8754C12.7759 74.968 25.0109 87.2031 40.1036 87.2031Z" fill="#F1A86F"/>
<path fill-rule="evenodd" clip-rule="evenodd" d="M169.08 155.783V182.247H169.082H187.477V155.783C187.477 127.781 164.347 105 135.917 105V123.12C154.204 123.12 169.08 137.771 169.08 155.783" fill="#4A5E81"/>
<path fill-rule="evenodd" clip-rule="evenodd" d="M102.754 182.247V155.783C102.754 137.772 117.631 123.12 135.917 123.12V105C107.487 105 84.3568 127.781 84.3568 155.783V182.247H84.3583H102.754V182.247Z" fill="#4A5E81"/>
<path d="M135.917 300.57C176.188 300.57 208.835 269.328 208.835 230.789C208.835 192.25 176.188 161.008 135.917 161.008C95.6462 161.008 63 192.25 63 230.789C63 269.328 95.6462 300.57 135.917 300.57Z" fill="#677FA8"/>
<path d="M136.214 252.825C129.882 252.825 124.701 247.867 124.701 241.807V219.771C124.701 213.711 129.882 208.753 136.214 208.753C142.546 208.753 147.727 213.711 147.727 219.771V241.807C147.727 247.867 142.546 252.825 136.214 252.825Z" fill="#4A5E81"/>
</svg>
