<svg width="293" height="301" viewBox="0 0 293 301" fill="none" xmlns="http://www.w3.org/2000/svg">
<path d="M27.5142 122.819C27.5142 89.5835 54.4592 62.6392 87.6966 62.6392C120.934 62.6392 147.879 89.5835 147.879 122.822L27.5142 122.819Z" fill="#6DB585"/>
<path d="M88.6178 54.6555C103.711 54.6555 115.946 42.4204 115.946 27.3278C115.946 12.2351 103.711 0 88.6178 0C73.5251 0 61.29 12.2351 61.29 27.3278C61.29 42.4204 73.5251 54.6555 88.6178 54.6555Z" fill="#6DB585"/>
<path d="M122.701 122.819C122.701 89.5835 149.646 62.6392 182.883 62.6392C216.121 62.6392 243.066 89.5835 243.066 122.822L122.701 122.819Z" fill="#E566A1"/>
<path d="M184.112 54.6555C199.035 54.6555 211.132 42.4204 211.132 27.3278C211.132 12.2351 199.035 0 184.112 0C169.189 0 157.091 12.2351 157.091 27.3278C157.091 42.4204 169.189 54.6555 184.112 54.6555Z" fill="#E566A1"/>
<path d="M90.5483 155.367C90.5483 122.131 115.694 95.1865 146.711 95.1865C177.729 95.1865 202.874 122.131 202.874 155.369L90.5483 155.367Z" fill="#3DD6C8"/>
<path d="M147.571 87.2031C161.656 87.2031 173.073 74.968 173.073 59.8754C173.073 44.7827 161.656 32.5476 147.571 32.5476C133.486 32.5476 122.068 44.7827 122.068 59.8754C122.068 74.968 133.486 87.2031 147.571 87.2031Z" fill="#3DD6C8"/>
<path d="M181.097 155.367C181.097 122.131 206.242 95.1865 237.26 95.1865C268.277 95.1865 293.423 122.131 293.423 155.369L181.097 155.367Z" fill="#A294CA"/>
<path d="M238.406 87.2031C252.333 87.2031 263.622 74.968 263.622 59.8754C263.622 44.7827 252.333 32.5476 238.406 32.5476C224.48 32.5476 213.19 44.7827 213.19 59.8754C213.19 74.968 224.48 87.2031 238.406 87.2031Z" fill="#A294CA"/>
<path d="M0 155.367C0 122.131 25.1454 95.1865 56.163 95.1865C87.1805 95.1865 112.326 122.131 112.326 155.369L0 155.367Z" fill="#F1A86F"/>
<path d="M57.0226 87.2031C71.1073 87.2031 82.5251 74.968 82.5251 59.8754C82.5251 44.7827 71.1073 32.5476 57.0226 32.5476C42.9379 32.5476 31.52 44.7827 31.52 59.8754C31.52 74.968 42.9379 87.2031 57.0226 87.2031Z" fill="#F1A86F"/>
<path fill-rule="evenodd" clip-rule="evenodd" d="M169.08 155.783V182.247H169.082H187.477V155.783C187.477 127.781 164.347 105 135.917 105V123.12C154.204 123.12 169.08 137.771 169.08 155.783" fill="#4A5E81"/>
<path fill-rule="evenodd" clip-rule="evenodd" d="M102.754 182.247V155.783C102.754 137.772 117.631 123.12 135.917 123.12V105C107.487 105 84.3568 127.781 84.3568 155.783V182.247H84.3583H102.754V182.247Z" fill="#4A5E81"/>
<path d="M135.917 300.57C176.188 300.57 208.835 269.328 208.835 230.789C208.835 192.25 176.188 161.008 135.917 161.008C95.6462 161.008 63 192.25 63 230.789C63 269.328 95.6462 300.57 135.917 300.57Z" fill="#677FA8"/>
<path d="M136.214 252.825C129.882 252.825 124.701 247.867 124.701 241.807V219.771C124.701 213.711 129.882 208.753 136.214 208.753C142.546 208.753 147.727 213.711 147.727 219.771V241.807C147.727 247.867 142.546 252.825 136.214 252.825Z" fill="#4A5E81"/>
</svg>
