<svg width="407" height="232" viewBox="0 0 407 232" fill="none" xmlns="http://www.w3.org/2000/svg">
<path fill-rule="evenodd" clip-rule="evenodd" d="M20 144.031V209.4H169.501V144.031L94.7495 99.6726L20 144.031Z" fill="#407BA0"/>
<path fill-rule="evenodd" clip-rule="evenodd" d="M36.3511 88H153.148C155.719 88 157.82 90.101 157.82 92.6685V174.381C157.82 176.949 155.719 179.051 153.148 179.051H36.3511C33.7822 179.051 31.6796 176.949 31.6796 174.381V92.6685C31.6796 90.101 33.7822 88 36.3511 88Z" fill="#E6E6E8"/>
<path fill-rule="evenodd" clip-rule="evenodd" d="M169.499 223.407C169.499 227.26 166.347 230.412 162.493 230.412H27.0083C23.1539 230.412 20 227.26 20 223.407V144.031L94.7495 176.716L169.501 144.031V223.407H169.499Z" fill="#A6DDE0"/>
<path fill-rule="evenodd" clip-rule="evenodd" d="M169.499 223.407C169.499 227.26 166.347 230.412 162.493 230.412H27.0083C23.1539 230.412 20 227.26 20 223.407V209.4L169.499 144.031V223.407Z" fill="#73C8CC"/>
<path fill-rule="evenodd" clip-rule="evenodd" d="M47.8715 124.651H79.6244H130.008H141.596C144.458 124.651 144.463 120.206 141.596 120.206H109.843H59.4594H47.8715C45.009 120.206 45.0046 124.651 47.8715 124.651Z" fill="#BCC0CA"/>
<path fill-rule="evenodd" clip-rule="evenodd" d="M49.187 139.425H80.9399H131.323H142.911C145.774 139.425 145.778 134.979 142.911 134.979H111.158H60.7745H49.187C46.3245 134.979 46.3201 139.425 49.187 139.425Z" fill="#BCC0CA"/>
<path fill-rule="evenodd" clip-rule="evenodd" d="M47.8715 109.488H79.6244H130.008H141.596C144.458 109.488 144.463 105.042 141.596 105.042H109.843H59.4594H47.8715C45.009 105.042 45.0046 109.488 47.8715 109.488Z" fill="#BCC0CA"/>
<path d="M54.0898 48.3802C54.0898 56.4878 47.4878 63.0609 39.4091 63.0609V111.649L70.3052 72.7901C74.0695 68.0413 76.6755 62.4528 77.9206 56.5458C78.4997 53.8818 78.7893 51.131 78.7893 48.3802C78.7893 26.6632 61.1261 9 39.4091 9V33.6995C47.4878 33.6995 54.0898 40.3014 54.0898 48.3802Z" fill="#F47E6C"/>
<path d="M0 48.3802C0 51.131 0.28956 53.8818 0.86868 56.5458C2.11379 62.4528 4.71983 68.0413 8.51307 72.7901L39.3802 111.649V63.0898C31.2725 63.0898 24.6995 56.4879 24.6995 48.4091C24.6995 40.3014 31.2725 33.7284 39.3802 33.7284V9C17.6632 9 0 26.6632 0 48.3802Z" fill="#F47E6C"/>
<path fill-rule="evenodd" clip-rule="evenodd" d="M249.84 60.242V91.6356H249.842H271.664V60.242C271.664 27.0249 244.225 0 210.499 0V21.4947C232.193 21.4947 249.84 38.8749 249.84 60.242" fill="#4A5E81"/>
<path fill-rule="evenodd" clip-rule="evenodd" d="M171.159 91.6362V60.2426C171.159 38.8761 188.807 21.4953 210.5 21.4953V0C176.774 0 149.335 27.0249 149.335 60.242V91.6356H149.337H171.159V91.6362Z" fill="#4A5E81"/>
<path d="M210.5 232C258.273 232 297 194.938 297 149.221C297 103.503 258.273 66.4413 210.5 66.4413C162.727 66.4413 124 103.503 124 149.221C124 194.938 162.727 232 210.5 232Z" fill="#677FA8"/>
<path d="M210.852 175.361C203.34 175.361 197.194 169.479 197.194 162.291V136.15C197.194 128.961 203.34 123.079 210.852 123.079C218.364 123.079 224.51 128.961 224.51 136.15V162.291C224.51 169.479 218.364 175.361 210.852 175.361Z" fill="#4A5E81"/>
<path d="M307.396 78.6235L317.819 68.0767C319.124 66.7568 317.103 64.6986 315.793 66.0281L305.371 76.5774C304.066 77.8973 306.087 79.9555 307.396 78.626V78.6235Z" fill="#9DA3B3"/>
<path d="M359.224 82.6929L377.632 65.1419L380.275 62.6221C381.599 61.3599 379.593 59.3554 378.27 60.6153L359.862 78.1663L357.218 80.686C355.895 81.9483 357.901 83.9528 359.224 82.6929Z" fill="#9DA3B3"/>
<path d="M327.023 63.2073L344.528 81.6635L347.041 84.3143C348.3 85.6409 350.299 83.6297 349.043 82.3031L331.538 63.8469L329.025 61.1961C327.766 59.8695 325.767 61.8807 327.023 63.2073Z" fill="#9DA3B3"/>
<path d="M308.936 82.419C308.963 85.1042 307.913 87.6872 306.024 89.5861C304.134 91.4849 301.564 92.5398 298.892 92.5129C293.405 92.4295 289 87.9353 289 82.4201C289 76.9049 293.405 72.4107 298.892 72.3273C301.564 72.3005 304.134 73.3553 306.024 75.2542C307.913 77.153 308.963 79.736 308.936 82.4213V82.419Z" fill="#E566A1"/>
<path d="M333.473 60.8611C333.527 64.5031 331.64 67.8922 328.533 69.7293C325.427 71.5663 321.584 71.5663 318.478 69.7293C315.372 67.8922 313.484 64.5031 313.539 60.8611C313.621 55.3469 318.059 50.9204 323.506 50.9204C328.952 50.9204 333.391 55.3469 333.473 60.8611Z" fill="#7B67B3"/>
<path d="M394 56.0933C393.918 61.6922 389.479 66.1867 384.032 66.1867C378.584 66.1867 374.146 61.6922 374.063 56.0933C374.146 50.4944 378.584 46 384.032 46C389.479 46 393.918 50.4944 394 56.0933Z" fill="#6DB585"/>
<path d="M359.443 85.1119C359.443 90.6861 354.98 95.205 349.474 95.205C343.969 95.205 339.506 90.6861 339.506 85.1119C339.506 79.5376 343.969 75.0188 349.474 75.0188C352.126 74.992 354.677 76.0468 356.552 77.9454C358.427 79.8441 359.469 82.4269 359.443 85.1119Z" fill="#24AB9F"/>
<path fill-rule="evenodd" clip-rule="evenodd" d="M331.629 119.442C337.926 125.842 344.222 132.241 350.518 138.641C354.203 142.386 359.922 136.576 356.236 132.829C349.94 126.43 343.644 120.03 337.347 113.63C333.663 109.885 327.943 115.696 331.629 119.442Z" fill="#181F2B"/>
<path opacity="0.5" fill-rule="evenodd" clip-rule="evenodd" d="M348.974 80.987C348.974 93.2701 344.188 104.819 335.504 113.51H335.498C332.083 116.925 328.173 119.77 323.883 121.961C317.378 125.291 310.347 126.974 302.985 126.974C285.622 126.974 269.919 117.365 262.012 101.887C260.348 98.6314 259.094 95.2531 258.255 91.7585C257.422 88.2638 257 84.6652 257 80.987C257 76.7396 257.581 72.5228 258.739 68.4406C260.513 62.1736 263.537 56.4634 267.734 51.4571C276.504 40.9978 289.355 35 302.985 35C310.34 35 317.371 36.6892 323.883 40.0185C337.756 47.1118 347.034 60.5578 348.699 75.9807V75.9929C348.883 77.6576 348.974 79.3406 348.974 80.987Z" fill="white"/>
<path d="M348.974 80.987C348.974 93.2701 344.188 104.819 335.504 113.51H335.498C332.083 116.925 328.173 119.77 323.883 121.961C317.378 125.291 310.347 126.974 302.985 126.974C285.622 126.974 269.919 117.365 262.012 101.887C260.348 98.6314 259.094 95.2531 258.255 91.7585C257.422 88.2638 257 84.6652 257 80.987C257 76.7396 257.581 72.5228 258.739 68.4406C260.513 62.1736 263.537 56.4634 267.734 51.4571C276.504 40.9978 289.355 35 302.985 35C310.34 35 317.371 36.6892 323.883 40.0185C337.756 47.1118 347.034 60.5578 348.699 75.9807V75.9929C348.883 77.6576 348.974 79.3406 348.974 80.987" stroke="#313F56" stroke-width="7"/>
<path fill-rule="evenodd" clip-rule="evenodd" d="M407 170.412L388.568 188.982L345.505 145.609L354.556 136.5L363.943 127.045L407 170.412Z" fill="#F1A86F"/>
</svg>
