<svg width="376" height="297" viewBox="0 0 376 297" fill="none" xmlns="http://www.w3.org/2000/svg">
<path d="M293.809 122.95C297.901 117.105 300.106 110.156 300.106 102.881C300.106 83.5495 284.402 67.8232 265.099 67.8232C258.76 67.8232 252.552 69.5582 247.157 72.7812C237.031 62.0563 223.095 56 208.177 56C178.543 56 154.435 80.1442 154.435 109.821C154.435 114.677 155.081 119.462 156.36 124.105C143.811 130.588 135.699 143.632 135.699 158.071C135.699 179.148 152.82 196.293 173.864 196.293C178.896 196.293 183.878 195.292 188.499 193.37C195.669 201.01 205.77 205.46 216.338 205.46C223.008 205.46 229.453 203.746 235.183 200.474C242.617 204.799 251.019 207.068 259.698 207.068C286.676 207.068 308.623 185.088 308.623 158.071C308.623 144.658 303.286 132.142 293.809 122.95Z" fill="#4DB3B9"/>
<path fill-rule="evenodd" clip-rule="evenodd" d="M214.574 176.69C212.381 174.454 211.282 171.711 211.282 168.468C211.282 165.224 212.381 162.483 214.574 160.24C216.767 158.005 219.457 156.891 222.638 156.891C225.818 156.891 228.508 158.005 230.701 160.24C232.894 162.483 233.993 165.224 233.993 168.468C233.993 171.711 232.894 174.454 230.701 176.69C228.508 178.926 225.818 180.046 222.638 180.046C219.457 180.046 216.767 178.926 214.574 176.69ZM232.188 151.625H212.576V141.759C212.576 138.164 213.026 135.469 213.933 133.669C214.834 131.874 216.745 129.436 219.675 126.365L228.446 117.16C229.738 115.581 230.381 113.542 230.381 111.044C230.381 108.54 229.691 106.46 228.316 104.789C226.942 103.127 225.136 102.292 222.896 102.292C220.663 102.292 218.792 103.281 217.283 105.255C215.78 107.229 214.856 109.835 214.512 113.083H193.992C194.94 104.314 198.081 97.4274 203.412 92.4254C208.746 87.4301 215.435 84.9258 223.482 84.9258C231.522 84.9258 238.058 87.1616 243.092 91.6382C248.122 96.1098 250.642 102.292 250.642 110.186C250.642 113.698 250.209 116.302 249.349 118.014C248.491 119.724 247.888 120.952 247.543 121.698C247.199 122.444 246.402 123.564 245.157 125.054C243.905 126.544 243.07 127.51 242.637 127.946C240.573 130.05 238.62 132.023 236.766 133.867C234.919 135.708 233.69 137.223 233.094 138.403C232.486 139.589 232.188 141.366 232.188 143.733V151.625Z" fill="white"/>
<path d="M22.7169 250.285L35.587 237.261C37.1983 235.631 34.7033 233.09 33.086 234.732L20.216 247.758C18.6047 249.388 21.0997 251.93 22.7169 250.288V250.285Z" fill="#C3C7D1"/>
<path d="M86.7168 255.31L109.447 233.638L112.712 230.526C114.346 228.967 111.869 226.492 110.235 228.048L87.5045 249.721L84.2398 252.832C82.606 254.391 85.083 256.866 86.7168 255.31Z" fill="#C3C7D1"/>
<path d="M46.9534 231.248L68.5691 254.039L71.6724 257.313C73.227 258.951 75.6957 256.467 74.144 254.829L52.5283 232.038L49.425 228.765C47.8704 227.127 45.4017 229.61 46.9534 231.248Z" fill="#C3C7D1"/>
<path d="M24.6184 254.972C24.6513 258.288 23.3552 261.478 21.022 263.823C18.6888 266.167 15.5149 267.47 12.2154 267.437C5.43935 267.334 0 261.784 0 254.974C0 248.163 5.43935 242.613 12.2154 242.51C15.5149 242.477 18.6888 243.78 21.022 246.125C23.3552 248.469 24.6513 251.659 24.6184 254.975V254.972Z" fill="#F5B33C"/>
<path d="M54.9179 228.352C54.9851 232.849 52.654 237.034 48.8183 239.302C44.9825 241.571 40.2372 241.571 36.4014 239.302C32.5657 237.034 30.2346 232.849 30.3018 228.352C30.4035 221.542 35.8841 216.076 42.6099 216.076C49.3356 216.076 54.8162 221.542 54.9179 228.352Z" fill="#24AB9F"/>
<path d="M129.66 222.464C129.558 229.378 124.077 234.928 117.35 234.928C110.624 234.928 105.143 229.378 105.041 222.464C105.143 215.55 110.624 210 117.35 210C124.077 210 129.558 215.55 129.66 222.464Z" fill="#92A3C1"/>
<path d="M86.9865 258.298C86.9865 265.181 81.4755 270.761 74.6773 270.761C67.8791 270.761 62.3681 265.181 62.3681 258.298C62.3681 251.414 67.8791 245.834 74.6773 245.834C77.9518 245.801 81.1017 247.103 83.4173 249.448C85.7328 251.793 87.0192 254.982 86.9865 258.298Z" fill="#EB8231"/>
<path d="M162.302 236.013C164.125 232.692 168.299 231.476 171.625 233.296C174.951 235.117 176.168 239.285 174.345 242.606C172.522 245.927 168.347 247.143 165.022 245.323C161.696 243.502 160.478 239.334 162.302 236.013Z" fill="#4DB3B9"/>
<path d="M152.026 253.28C153.429 250.726 156.639 249.79 159.198 251.19C161.756 252.591 162.693 255.797 161.29 258.351C159.887 260.906 156.677 261.842 154.118 260.441C151.56 259.041 150.623 255.835 152.026 253.28Z" fill="#4DB3B9"/>
<path d="M172.831 212.073C175.461 207.285 181.494 205.538 186.307 208.173C191.12 210.808 192.89 216.826 190.261 221.615C187.632 226.403 181.598 228.15 176.785 225.515C171.972 222.88 170.202 216.862 172.831 212.073Z" fill="#4DB3B9"/>
<path d="M352.901 36.3302C352.901 43.81 346.81 49.8739 339.357 49.8739V94.699L367.86 58.8496C371.333 54.4686 373.737 49.3129 374.886 43.8634C375.42 41.4058 375.687 38.868 375.687 36.3302C375.687 16.2952 359.392 0 339.357 0V22.7865C346.81 22.7865 352.901 28.8772 352.901 36.3302Z" fill="#F9B5AB"/>
<path d="M303 36.3302C303 38.868 303.267 41.4058 303.801 43.8634C304.95 49.3129 307.354 54.4686 310.854 58.8496L339.33 94.699L347.5 74L339.33 49.9006C331.85 49.9006 325.787 43.81 325.787 36.3569C325.787 28.8772 331.85 22.8132 339.33 22.8132L343.5 12L339.33 0C319.295 0 303 16.2952 303 36.3302Z" fill="#F9B5AB"/>
<path d="M359.204 274.749C357.837 260.621 348.668 248.482 335.498 243.548L331.597 242.102L329.216 241.224C328.102 240.811 326.861 240.966 325.898 241.663C324.936 242.36 324.353 243.471 324.353 244.685V278.442C324.353 280.482 325.974 282.135 327.975 282.135H355.76C357.761 282.135 359.382 280.482 359.382 278.442C359.382 277.202 359.331 275.962 359.204 274.749Z" fill="#7692D9"/>
<path d="M329.217 241.198L323.949 239.235L317.135 236.678L313.134 235.18L306.32 232.649L297.051 229.188C294.771 228.336 292.34 229.989 292.213 232.442C291.833 239.132 286.388 244.375 279.802 244.375C274.028 244.375 269.063 240.397 267.721 234.689C266.809 230.738 263.441 228 259.54 228H259.414C254.779 228 251.005 231.848 251.005 236.575V252.485C251.005 254.577 249.992 252.976 277.523 281.05C278.207 281.748 279.119 282.135 280.081 282.135H327.976H331.597C331.597 280.482 331.597 243.987 331.597 242.128L329.217 241.198Z" fill="#ABBCE8"/>
<path d="M285.678 281.335C250.194 245.15 252.398 247.139 251.005 246.622V289.47H282.36C286.514 289.496 288.616 284.357 285.678 281.335Z" fill="#7692D9"/>
<path d="M313.133 235.206L306.573 249.076C305.712 250.909 303.559 251.684 301.761 250.806C299.963 249.928 299.203 247.733 300.064 245.899L306.32 232.649L313.133 235.206Z" fill="white"/>
<path d="M359.205 274.748H251.005V293.293C251.005 295.333 252.626 296.986 254.626 296.986H355.785C357.786 296.986 359.407 295.333 359.407 293.293V278.442C359.382 277.202 359.331 275.962 359.205 274.748Z" fill="#E0E7F7"/>
<path d="M323.948 239.235L317.388 253.105C316.527 254.939 314.349 255.714 312.576 254.835C310.778 253.957 310.018 251.762 310.879 249.928L317.135 236.704L323.948 239.235Z" fill="white"/>
<path fill-rule="evenodd" clip-rule="evenodd" d="M115.124 79.8475C110.73 51.7147 80.9942 49.5575 70.6728 75.5872C59.7136 49.5575 30.4824 50.7667 25.9388 79.8475C21.3952 108.928 70.6728 141 70.6728 141C70.6728 141 119.517 107.98 115.124 79.8475Z" fill="#E566A1"/>
<path d="M18 109.588H32.6237C32.6237 109.588 40.2375 103.582 43.3267 103.545C46.3788 103.508 49.0255 106.151 51.1002 109.231C51.1758 109.343 51.4775 109.588 51.6759 109.588C56.9975 109.588 62.067 109.588 62.067 109.588L65.9082 116.701L69.5435 57L73.2512 124.049L77.093 109.588H91.3905C91.3905 109.588 99.2708 99.2171 103.277 99.9223C107.284 100.627 109.765 109.588 110.27 109.588C118.882 109.588 125 109.588 125 109.588" stroke="#EFA0C5" stroke-width="3" stroke-linecap="round"/>
</svg>
