<svg width="385" height="318" viewBox="0 0 385 318" fill="none" xmlns="http://www.w3.org/2000/svg">
<path opacity="0.2" d="M385 304.791C385 311.698 308.205 317.2 213.5 317.2C118.795 317.2 42 311.581 42 304.791C42 297.884 118.795 292.382 213.5 292.382C308.205 292.382 385 298.001 385 304.791Z" fill="#C3C7D1"/>
<path d="M355.851 221.09H60.4963V64.1059C60.4963 54.3895 68.4567 46.5461 78.056 46.5461H339.345C348.359 46.5461 355.734 53.9212 355.734 62.9352V221.09H355.851Z" fill="#4A5E81"/>
<path d="M329.394 247.546H87.07C72.4369 247.546 60.6133 235.723 60.6133 221.09H355.968C355.851 235.723 344.027 247.546 329.394 247.546Z" fill="white"/>
<path d="M234.806 247.546H181.19V292.148H234.806V247.546Z" fill="#EAEBEE"/>
<path d="M234.806 247.546H181.19V261.711H234.806V247.546Z" fill="#C3C7D1"/>
<path d="M269.925 309.123H146.071V306.196C146.071 298.47 152.392 292.148 160.118 292.148H255.877C263.604 292.148 269.925 298.47 269.925 306.196V309.123Z" fill="white"/>
<path d="M77.4707 59.3064C74.8953 59.3064 72.7881 61.4136 72.7881 63.989V67.2668L231.294 204.233H252.366H258.453L90.8161 59.3064H77.4707Z" fill="#DFF2F2"/>
<path d="M72.9052 117.839V135.75V176.371V199.667C72.9052 202.243 75.0123 204.35 77.5878 204.35H79.5779H120.316H132.491H208.466L72.9052 87.168V117.839Z" fill="#DFF2F2"/>
<path d="M338.408 59.3064H310.079H297.904H257.165H216.31H166.557H156.724L324.36 204.233H338.291C340.867 204.233 342.974 202.126 342.974 199.55V148.159V130.248V63.8719C343.091 61.4136 340.984 59.3064 338.408 59.3064Z" fill="#DFF2F2"/>
<path d="M144.666 59.3064H90.8162L258.453 204.233H274.374H324.478L156.841 59.3064H144.666Z" fill="#AFDDDF"/>
<path d="M72.9052 87.1679L208.349 204.233H231.411L72.9052 67.2668V87.1679Z" fill="#AFDDDF"/>
<path d="M215.256 233.382C215.256 237.947 211.51 241.693 206.944 241.693C202.379 241.693 198.633 237.947 198.633 233.382C198.633 228.816 202.379 225.07 206.944 225.07C211.51 225.07 215.256 228.816 215.256 233.382Z" fill="#9DA3B3"/>
<g filter="url(#filter0_d)">
<rect x="14" y="10" width="244" height="113.682" rx="5" fill="white"/>
</g>
<path d="M252.388 24.724C252.7 25.0354 252.7 25.5025 252.388 25.8139C252.233 25.9697 252.038 26.0475 251.843 26.0475C251.649 26.0475 251.454 25.9697 251.298 25.8139L248.69 23.2058L246.082 25.8139C245.926 25.9697 245.732 26.0475 245.537 26.0475C245.342 26.0475 245.148 25.9697 244.992 25.8139C244.681 25.5025 244.681 25.0354 244.992 24.724L247.6 22.1158L244.992 19.5076C244.681 19.1962 244.681 18.7291 244.992 18.4176C245.303 18.1062 245.771 18.1062 246.082 18.4176L248.69 21.0258L251.298 18.4176C251.61 18.1062 252.077 18.1062 252.388 18.4176C252.7 18.7291 252.7 19.1962 252.388 19.5076L249.78 22.1158L252.388 24.724Z" fill="#5B95BA"/>
<path d="M28.3083 29.2744C28.389 29.2744 28.4605 29.3056 28.5228 29.3679L29.1058 30.0004C28.7832 30.4001 28.3853 30.7062 27.9123 30.9189C27.443 31.1316 26.8783 31.2379 26.2183 31.2379C25.628 31.2379 25.0963 31.1371 24.6233 30.9354C24.154 30.7337 23.7525 30.4532 23.4188 30.0939C23.0852 29.7346 22.8285 29.3056 22.6488 28.8069C22.4728 28.3082 22.3848 27.7637 22.3848 27.1734C22.3848 26.5757 22.4802 26.0294 22.6708 25.5344C22.8615 25.0357 23.1292 24.6067 23.4738 24.2474C23.8222 23.8881 24.2365 23.6094 24.7168 23.4114C25.1972 23.2097 25.7288 23.1089 26.3118 23.1089C26.8912 23.1089 27.4045 23.2042 27.8519 23.3949C28.3028 23.5856 28.686 23.8349 29.0013 24.1429L28.5063 24.8304C28.477 24.8744 28.4385 24.9129 28.3908 24.9459C28.3468 24.9789 28.2845 24.9954 28.2039 24.9954C28.1488 24.9954 28.092 24.9807 28.0333 24.9514C27.9747 24.9184 27.9105 24.8799 27.8408 24.8359C27.7712 24.7882 27.6905 24.7369 27.5989 24.6819C27.5072 24.6269 27.4008 24.5774 27.2798 24.5334C27.1588 24.4857 27.0177 24.4472 26.8563 24.4179C26.6987 24.3849 26.5153 24.3684 26.3063 24.3684C25.9507 24.3684 25.6243 24.4326 25.3273 24.5609C25.034 24.6856 24.781 24.8689 24.5683 25.1109C24.3557 25.3492 24.1907 25.6426 24.0733 25.9909C23.956 26.3356 23.8973 26.7297 23.8973 27.1734C23.8973 27.6207 23.9597 28.0186 24.0843 28.3669C24.2127 28.7152 24.385 29.0086 24.6013 29.2469C24.8177 29.4852 25.0725 29.6686 25.3658 29.7969C25.6592 29.9216 25.9745 29.9839 26.3118 29.9839C26.5135 29.9839 26.695 29.9729 26.8563 29.9509C27.0213 29.9289 27.1717 29.8941 27.3073 29.8464C27.4467 29.7987 27.5768 29.7382 27.6979 29.6649C27.8225 29.5879 27.9453 29.4944 28.0663 29.3844C28.103 29.3514 28.1415 29.3257 28.1818 29.3074C28.2222 29.2854 28.2643 29.2744 28.3083 29.2744ZM32.2836 25.4189C32.7016 25.4189 33.0811 25.4867 33.4221 25.6224C33.7668 25.7581 34.0601 25.9506 34.3021 26.1999C34.5478 26.4492 34.7366 26.7536 34.8686 27.1129C35.0006 27.4722 35.0666 27.8737 35.0666 28.3174C35.0666 28.7647 35.0006 29.1681 34.8686 29.5274C34.7366 29.8867 34.5478 30.1929 34.3021 30.4459C34.0601 30.6989 33.7668 30.8932 33.4221 31.0289C33.0811 31.1646 32.7016 31.2324 32.2836 31.2324C31.862 31.2324 31.4788 31.1646 31.1341 31.0289C30.7895 30.8932 30.4943 30.6989 30.2486 30.4459C30.0066 30.1929 29.8178 29.8867 29.6821 29.5274C29.5501 29.1681 29.4841 28.7647 29.4841 28.3174C29.4841 27.8737 29.5501 27.4722 29.6821 27.1129C29.8178 26.7536 30.0066 26.4492 30.2486 26.1999C30.4943 25.9506 30.7895 25.7581 31.1341 25.6224C31.4788 25.4867 31.862 25.4189 32.2836 25.4189ZM32.2836 30.1874C32.753 30.1874 33.0995 30.0297 33.3231 29.7144C33.5505 29.3991 33.6641 28.9371 33.6641 28.3284C33.6641 27.7197 33.5505 27.2559 33.3231 26.9369C33.0995 26.6179 32.753 26.4584 32.2836 26.4584C31.807 26.4584 31.4531 26.6197 31.2221 26.9424C30.9948 27.2614 30.8811 27.7234 30.8811 28.3284C30.8811 28.9334 30.9948 29.3954 31.2221 29.7144C31.4531 30.0297 31.807 30.1874 32.2836 30.1874ZM38.6001 25.4189C39.0181 25.4189 39.3976 25.4867 39.7386 25.6224C40.0832 25.7581 40.3766 25.9506 40.6186 26.1999C40.8642 26.4492 41.0531 26.7536 41.1851 27.1129C41.3171 27.4722 41.3831 27.8737 41.3831 28.3174C41.3831 28.7647 41.3171 29.1681 41.1851 29.5274C41.0531 29.8867 40.8642 30.1929 40.6186 30.4459C40.3766 30.6989 40.0832 30.8932 39.7386 31.0289C39.3976 31.1646 39.0181 31.2324 38.6001 31.2324C38.1784 31.2324 37.7952 31.1646 37.4506 31.0289C37.1059 30.8932 36.8107 30.6989 36.5651 30.4459C36.3231 30.1929 36.1342 29.8867 35.9986 29.5274C35.8666 29.1681 35.8006 28.7647 35.8006 28.3174C35.8006 27.8737 35.8666 27.4722 35.9986 27.1129C36.1342 26.7536 36.3231 26.4492 36.5651 26.1999C36.8107 25.9506 37.1059 25.7581 37.4506 25.6224C37.7952 25.4867 38.1784 25.4189 38.6001 25.4189ZM38.6001 30.1874C39.0694 30.1874 39.4159 30.0297 39.6396 29.7144C39.8669 29.3991 39.9806 28.9371 39.9806 28.3284C39.9806 27.7197 39.8669 27.2559 39.6396 26.9369C39.4159 26.6179 39.0694 26.4584 38.6001 26.4584C38.1234 26.4584 37.7696 26.6197 37.5386 26.9424C37.3112 27.2614 37.1976 27.7234 37.1976 28.3284C37.1976 28.9334 37.3112 29.3954 37.5386 29.7144C37.7696 30.0297 38.1234 30.1874 38.6001 30.1874ZM43.778 22.9769V27.6574H44.031C44.1226 27.6574 44.1941 27.6464 44.2455 27.6244C44.3005 27.5987 44.3555 27.5492 44.4105 27.4759L45.813 25.7434C45.8716 25.6664 45.9358 25.6077 46.0055 25.5674C46.0788 25.5271 46.1723 25.5069 46.286 25.5069H47.529L45.7745 27.6024C45.6498 27.7674 45.5141 27.8939 45.3675 27.9819C45.4445 28.0369 45.5123 28.1011 45.571 28.1744C45.6333 28.2477 45.692 28.3266 45.747 28.4109L47.628 31.1499H46.4015C46.2951 31.1499 46.2035 31.1334 46.1265 31.1004C46.0495 31.0637 45.9853 30.9996 45.934 30.9079L44.493 28.7684C44.4416 28.6841 44.3885 28.6291 44.3335 28.6034C44.2785 28.5777 44.196 28.5649 44.086 28.5649H43.778V31.1499H42.4195V22.9769H43.778ZM49.7034 25.5069V31.1499H48.3394V25.5069H49.7034ZM49.8904 23.8624C49.8904 23.9797 49.8666 24.0897 49.8189 24.1924C49.7713 24.2951 49.7071 24.3849 49.6264 24.4619C49.5494 24.5389 49.4578 24.6012 49.3514 24.6489C49.2451 24.6929 49.1314 24.7149 49.0104 24.7149C48.8931 24.7149 48.7813 24.6929 48.6749 24.6489C48.5723 24.6012 48.4824 24.5389 48.4054 24.4619C48.3284 24.3849 48.2661 24.2951 48.2184 24.1924C48.1744 24.0897 48.1524 23.9797 48.1524 23.8624C48.1524 23.7414 48.1744 23.6277 48.2184 23.5214C48.2661 23.4151 48.3284 23.3234 48.4054 23.2464C48.4824 23.1694 48.5723 23.1089 48.6749 23.0649C48.7813 23.0172 48.8931 22.9934 49.0104 22.9934C49.1314 22.9934 49.2451 23.0172 49.3514 23.0649C49.4578 23.1089 49.5494 23.1694 49.6264 23.2464C49.7071 23.3234 49.7713 23.4151 49.8189 23.5214C49.8666 23.6277 49.8904 23.7414 49.8904 23.8624ZM54.7239 27.6794C54.7239 27.5034 54.6982 27.3384 54.6469 27.1844C54.5992 27.0267 54.5259 26.8892 54.4269 26.7719C54.3279 26.6546 54.2014 26.5629 54.0474 26.4969C53.8971 26.4272 53.7211 26.3924 53.5194 26.3924C53.1271 26.3924 52.8172 26.5042 52.5899 26.7279C52.3662 26.9516 52.2232 27.2687 52.1609 27.6794H54.7239ZM52.1334 28.4989C52.1554 28.7886 52.2067 29.0397 52.2874 29.2524C52.3681 29.4614 52.4744 29.6356 52.6064 29.7749C52.7384 29.9106 52.8942 30.0132 53.0739 30.0829C53.2572 30.1489 53.4589 30.1819 53.6789 30.1819C53.8989 30.1819 54.0877 30.1562 54.2454 30.1049C54.4067 30.0536 54.5461 29.9967 54.6634 29.9344C54.7844 29.8721 54.8889 29.8152 54.9769 29.7639C55.0686 29.7126 55.1566 29.6869 55.2409 29.6869C55.3546 29.6869 55.4389 29.7291 55.4939 29.8134L55.8844 30.3084C55.7341 30.4844 55.5654 30.6329 55.3784 30.7539C55.1914 30.8712 54.9952 30.9666 54.7899 31.0399C54.5882 31.1096 54.3811 31.1591 54.1684 31.1884C53.9594 31.2177 53.7559 31.2324 53.5579 31.2324C53.1656 31.2324 52.8007 31.1682 52.4634 31.0399C52.1261 30.9079 51.8327 30.7154 51.5834 30.4624C51.3341 30.2057 51.1379 29.8904 50.9949 29.5164C50.8519 29.1387 50.7804 28.7024 50.7804 28.2074C50.7804 27.8224 50.8427 27.4612 50.9674 27.1239C51.0921 26.7829 51.2699 26.4877 51.5009 26.2384C51.7356 25.9854 52.0197 25.7856 52.3534 25.6389C52.6907 25.4922 53.0702 25.4189 53.4919 25.4189C53.8476 25.4189 54.1757 25.4757 54.4764 25.5894C54.7771 25.7031 55.0356 25.8699 55.2519 26.0899C55.4682 26.3062 55.6369 26.5739 55.7579 26.8929C55.8826 27.2082 55.9449 27.5694 55.9449 27.9764C55.9449 28.1817 55.9229 28.3211 55.8789 28.3944C55.8349 28.4641 55.7506 28.4989 55.6259 28.4989H52.1334ZM63.0547 29.9564C63.3407 29.9564 63.5955 29.9087 63.8192 29.8134C64.0465 29.7181 64.2372 29.5842 64.3912 29.4119C64.5452 29.2396 64.6625 29.0306 64.7432 28.7849C64.8275 28.5392 64.8697 28.2642 64.8697 27.9599V23.1969H66.3492V27.9599C66.3492 28.4329 66.2722 28.8711 66.1182 29.2744C65.9679 29.6741 65.7497 30.0206 65.4637 30.3139C65.1814 30.6036 64.8367 30.8309 64.4297 30.9959C64.0227 31.1572 63.5644 31.2379 63.0547 31.2379C62.5414 31.2379 62.0812 31.1572 61.6742 30.9959C61.2672 30.8309 60.9207 30.6036 60.6347 30.3139C60.3524 30.0206 60.1342 29.6741 59.9802 29.2744C59.8299 28.8711 59.7547 28.4329 59.7547 27.9599V23.1969H61.2342V27.9544C61.2342 28.2587 61.2745 28.5337 61.3552 28.7794C61.4395 29.0251 61.5587 29.2359 61.7127 29.4119C61.8704 29.5842 62.061 29.7181 62.2847 29.8134C62.512 29.9087 62.7687 29.9564 63.0547 29.9564ZM71.0099 26.6069C70.9733 26.6656 70.9348 26.7077 70.8944 26.7334C70.8541 26.7554 70.8028 26.7664 70.7404 26.7664C70.6744 26.7664 70.6029 26.7481 70.5259 26.7114C70.4526 26.6747 70.3664 26.6344 70.2674 26.5904C70.1684 26.5427 70.0548 26.5006 69.9264 26.4639C69.8018 26.4272 69.6533 26.4089 69.4809 26.4089C69.2133 26.4089 69.0024 26.4657 68.8484 26.5794C68.6981 26.6931 68.6229 26.8416 68.6229 27.0249C68.6229 27.1459 68.6614 27.2486 68.7384 27.3329C68.8191 27.4136 68.9236 27.4851 69.0519 27.5474C69.1839 27.6097 69.3324 27.6666 69.4974 27.7179C69.6624 27.7656 69.8293 27.8187 69.9979 27.8774C70.1703 27.9361 70.3389 28.0039 70.5039 28.0809C70.6689 28.1542 70.8156 28.2496 70.9439 28.3669C71.0759 28.4806 71.1804 28.6181 71.2574 28.7794C71.3381 28.9407 71.3784 29.1351 71.3784 29.3624C71.3784 29.6337 71.3289 29.8849 71.2299 30.1159C71.1346 30.3432 70.9916 30.5412 70.8009 30.7099C70.6103 30.8749 70.3738 31.0051 70.0914 31.1004C69.8128 31.1921 69.4901 31.2379 69.1234 31.2379C68.9291 31.2379 68.7384 31.2196 68.5514 31.1829C68.3681 31.1499 68.1903 31.1022 68.0179 31.0399C67.8493 30.9776 67.6916 30.9042 67.5449 30.8199C67.4019 30.7356 67.2754 30.6439 67.1654 30.5449L67.4789 30.0279C67.5193 29.9656 67.5669 29.9179 67.6219 29.8849C67.6769 29.8519 67.7466 29.8354 67.8309 29.8354C67.9153 29.8354 67.9941 29.8592 68.0674 29.9069C68.1444 29.9546 68.2324 30.0059 68.3314 30.0609C68.4304 30.1159 68.5459 30.1672 68.6779 30.2149C68.8136 30.2626 68.9841 30.2864 69.1894 30.2864C69.3508 30.2864 69.4883 30.2681 69.6019 30.2314C69.7193 30.1911 69.8146 30.1397 69.8879 30.0774C69.9649 30.0151 70.0199 29.9436 70.0529 29.8629C70.0896 29.7786 70.1079 29.6924 70.1079 29.6044C70.1079 29.4724 70.0676 29.3642 69.9869 29.2799C69.9099 29.1956 69.8054 29.1222 69.6734 29.0599C69.5451 28.9976 69.3966 28.9426 69.2279 28.8949C69.0629 28.8436 68.8924 28.7886 68.7164 28.7299C68.5441 28.6712 68.3736 28.6034 68.2049 28.5264C68.0399 28.4457 67.8914 28.3449 67.7594 28.2239C67.6311 28.1029 67.5266 27.9544 67.4459 27.7784C67.3689 27.6024 67.3304 27.3897 67.3304 27.1404C67.3304 26.9094 67.3763 26.6894 67.4679 26.4804C67.5596 26.2714 67.6934 26.0899 67.8694 25.9359C68.0491 25.7782 68.2709 25.6536 68.5349 25.5619C68.8026 25.4666 69.1106 25.4189 69.4589 25.4189C69.8476 25.4189 70.2014 25.4831 70.5204 25.6114C70.8394 25.7397 71.1053 25.9084 71.3179 26.1174L71.0099 26.6069ZM76.0364 27.6794C76.0364 27.5034 76.0107 27.3384 75.9594 27.1844C75.9117 27.0267 75.8384 26.8892 75.7394 26.7719C75.6404 26.6546 75.5139 26.5629 75.3599 26.4969C75.2096 26.4272 75.0336 26.3924 74.8319 26.3924C74.4396 26.3924 74.1297 26.5042 73.9024 26.7279C73.6787 26.9516 73.5357 27.2687 73.4734 27.6794H76.0364ZM73.4459 28.4989C73.4679 28.7886 73.5192 29.0397 73.5999 29.2524C73.6806 29.4614 73.7869 29.6356 73.9189 29.7749C74.0509 29.9106 74.2067 30.0132 74.3864 30.0829C74.5697 30.1489 74.7714 30.1819 74.9914 30.1819C75.2114 30.1819 75.4002 30.1562 75.5579 30.1049C75.7192 30.0536 75.8586 29.9967 75.9759 29.9344C76.0969 29.8721 76.2014 29.8152 76.2894 29.7639C76.3811 29.7126 76.4691 29.6869 76.5534 29.6869C76.6671 29.6869 76.7514 29.7291 76.8064 29.8134L77.1969 30.3084C77.0466 30.4844 76.8779 30.6329 76.6909 30.7539C76.5039 30.8712 76.3077 30.9666 76.1024 31.0399C75.9007 31.1096 75.6936 31.1591 75.4809 31.1884C75.2719 31.2177 75.0684 31.2324 74.8704 31.2324C74.4781 31.2324 74.1132 31.1682 73.7759 31.0399C73.4386 30.9079 73.1452 30.7154 72.8959 30.4624C72.6466 30.2057 72.4504 29.8904 72.3074 29.5164C72.1644 29.1387 72.0929 28.7024 72.0929 28.2074C72.0929 27.8224 72.1552 27.4612 72.2799 27.1239C72.4046 26.7829 72.5824 26.4877 72.8134 26.2384C73.0481 25.9854 73.3322 25.7856 73.6659 25.6389C74.0032 25.4922 74.3827 25.4189 74.8044 25.4189C75.1601 25.4189 75.4882 25.4757 75.7889 25.5894C76.0896 25.7031 76.3481 25.8699 76.5644 26.0899C76.7807 26.3062 76.9494 26.5739 77.0704 26.8929C77.1951 27.2082 77.2574 27.5694 77.2574 27.9764C77.2574 28.1817 77.2354 28.3211 77.1914 28.3944C77.1474 28.4641 77.0631 28.4989 76.9384 28.4989H73.4459Z" fill="#333333"/>
<rect x="27" y="91.8408" width="114" height="17" rx="8.5" fill="#5B95BA"/>
<path d="M36.2257 101.601V103.841H35.1537V101.601L33.0457 98.0568H33.9937C34.087 98.0568 34.1604 98.0795 34.2137 98.1248C34.2697 98.1702 34.3164 98.2275 34.3537 98.2968L35.4097 100.229C35.471 100.343 35.5244 100.451 35.5697 100.553C35.6177 100.654 35.6604 100.755 35.6977 100.857C35.7324 100.755 35.7724 100.654 35.8177 100.553C35.863 100.451 35.915 100.343 35.9737 100.229L37.0257 98.2968C37.055 98.2382 37.099 98.1835 37.1577 98.1328C37.2164 98.0822 37.291 98.0568 37.3817 98.0568H38.3337L36.2257 101.601ZM40.511 101.317C40.511 101.189 40.4923 101.069 40.455 100.957C40.4203 100.842 40.367 100.742 40.295 100.657C40.223 100.571 40.131 100.505 40.019 100.457C39.9096 100.406 39.7816 100.381 39.635 100.381C39.3496 100.381 39.1243 100.462 38.959 100.625C38.7963 100.787 38.6923 101.018 38.647 101.317H40.511ZM38.627 101.913C38.643 102.123 38.6803 102.306 38.739 102.461C38.7976 102.613 38.875 102.739 38.971 102.841C39.067 102.939 39.1803 103.014 39.311 103.065C39.4443 103.113 39.591 103.137 39.751 103.137C39.911 103.137 40.0483 103.118 40.163 103.081C40.2803 103.043 40.3816 103.002 40.467 102.957C40.555 102.911 40.631 102.87 40.695 102.833C40.7616 102.795 40.8256 102.777 40.887 102.777C40.9696 102.777 41.031 102.807 41.071 102.869L41.355 103.229C41.2456 103.357 41.123 103.465 40.987 103.553C40.851 103.638 40.7083 103.707 40.559 103.761C40.4123 103.811 40.2616 103.847 40.107 103.869C39.955 103.89 39.807 103.901 39.663 103.901C39.3776 103.901 39.1123 103.854 38.867 103.761C38.6216 103.665 38.4083 103.525 38.227 103.341C38.0456 103.154 37.903 102.925 37.799 102.653C37.695 102.378 37.643 102.061 37.643 101.701C37.643 101.421 37.6883 101.158 37.779 100.913C37.8696 100.665 37.999 100.45 38.167 100.269C38.3376 100.085 38.5443 99.9395 38.787 99.8328C39.0323 99.7262 39.3083 99.6728 39.615 99.6728C39.8736 99.6728 40.1123 99.7142 40.331 99.7968C40.5496 99.8795 40.7376 100.001 40.895 100.161C41.0523 100.318 41.175 100.513 41.263 100.745C41.3536 100.974 41.399 101.237 41.399 101.533C41.399 101.682 41.383 101.783 41.351 101.837C41.319 101.887 41.2576 101.913 41.167 101.913H38.627ZM44.6444 100.537C44.6177 100.579 44.5897 100.61 44.5604 100.629C44.5311 100.645 44.4937 100.653 44.4484 100.653C44.4004 100.653 44.3484 100.639 44.2924 100.613C44.2391 100.586 44.1764 100.557 44.1044 100.525C44.0324 100.49 43.9497 100.459 43.8564 100.433C43.7657 100.406 43.6577 100.393 43.5324 100.393C43.3377 100.393 43.1844 100.434 43.0724 100.517C42.9631 100.599 42.9084 100.707 42.9084 100.841C42.9084 100.929 42.9364 101.003 42.9924 101.065C43.0511 101.123 43.1271 101.175 43.2204 101.221C43.3164 101.266 43.4244 101.307 43.5444 101.345C43.6644 101.379 43.7857 101.418 43.9084 101.461C44.0337 101.503 44.1564 101.553 44.2764 101.609C44.3964 101.662 44.5031 101.731 44.5964 101.817C44.6924 101.899 44.7684 101.999 44.8244 102.117C44.8831 102.234 44.9124 102.375 44.9124 102.541C44.9124 102.738 44.8764 102.921 44.8044 103.089C44.7351 103.254 44.6311 103.398 44.4924 103.521C44.3537 103.641 44.1817 103.735 43.9764 103.805C43.7737 103.871 43.5391 103.905 43.2724 103.905C43.1311 103.905 42.9924 103.891 42.8564 103.865C42.7231 103.841 42.5937 103.806 42.4684 103.761C42.3457 103.715 42.2311 103.662 42.1244 103.601C42.0204 103.539 41.9284 103.473 41.8484 103.401L42.0764 103.025C42.1057 102.979 42.1404 102.945 42.1804 102.921C42.2204 102.897 42.2711 102.885 42.3324 102.885C42.3937 102.885 42.4511 102.902 42.5044 102.937C42.5604 102.971 42.6244 103.009 42.6964 103.049C42.7684 103.089 42.8524 103.126 42.9484 103.161C43.0471 103.195 43.1711 103.213 43.3204 103.213C43.4377 103.213 43.5377 103.199 43.6204 103.173C43.7057 103.143 43.7751 103.106 43.8284 103.061C43.8844 103.015 43.9244 102.963 43.9484 102.905C43.9751 102.843 43.9884 102.781 43.9884 102.717C43.9884 102.621 43.9591 102.542 43.9004 102.481C43.8444 102.419 43.7684 102.366 43.6724 102.321C43.5791 102.275 43.4711 102.235 43.3484 102.201C43.2284 102.163 43.1044 102.123 42.9764 102.081C42.8511 102.038 42.7271 101.989 42.6044 101.933C42.4844 101.874 42.3764 101.801 42.2804 101.713C42.1871 101.625 42.1111 101.517 42.0524 101.389C41.9964 101.261 41.9684 101.106 41.9684 100.925C41.9684 100.757 42.0017 100.597 42.0684 100.445C42.1351 100.293 42.2324 100.161 42.3604 100.049C42.4911 99.9342 42.6524 99.8435 42.8444 99.7768C43.0391 99.7075 43.2631 99.6728 43.5164 99.6728C43.7991 99.6728 44.0564 99.7195 44.2884 99.8128C44.5204 99.9062 44.7137 100.029 44.8684 100.181L44.6444 100.537ZM45.64 104.821C45.592 104.781 45.568 104.731 45.568 104.673C45.568 104.651 45.5747 104.627 45.588 104.601C45.604 104.574 45.6227 104.55 45.644 104.529C45.6733 104.497 45.7093 104.457 45.752 104.409C45.7947 104.363 45.8373 104.31 45.88 104.249C45.9227 104.19 45.9613 104.125 45.996 104.053C46.0333 103.983 46.0613 103.909 46.08 103.829C45.9947 103.829 45.9173 103.814 45.848 103.785C45.7787 103.753 45.7187 103.71 45.668 103.657C45.62 103.603 45.5813 103.541 45.552 103.469C45.5253 103.397 45.512 103.318 45.512 103.233C45.512 103.158 45.5253 103.089 45.552 103.025C45.5813 102.958 45.6213 102.901 45.672 102.853C45.7227 102.802 45.784 102.763 45.856 102.737C45.928 102.707 46.0067 102.693 46.092 102.693C46.1933 102.693 46.2813 102.711 46.356 102.749C46.4333 102.783 46.496 102.833 46.544 102.897C46.5947 102.958 46.632 103.03 46.656 103.113C46.6827 103.193 46.696 103.278 46.696 103.369C46.696 103.497 46.676 103.631 46.636 103.773C46.5987 103.914 46.5427 104.055 46.468 104.197C46.3933 104.338 46.3 104.475 46.188 104.609C46.0787 104.742 45.9533 104.865 45.812 104.977L45.64 104.821ZM50.7123 103.841H49.6323V98.0568H50.7123V103.841ZM59.4926 99.7368L58.1886 103.841H57.3966C57.3059 103.841 57.2432 103.782 57.2086 103.665L56.4726 101.293C56.4486 101.213 56.4259 101.134 56.4046 101.057C56.3859 100.977 56.3699 100.897 56.3566 100.817C56.3406 100.897 56.3219 100.978 56.3006 101.061C56.2819 101.141 56.2606 101.221 56.2366 101.301L55.4886 103.665C55.4566 103.782 55.3859 103.841 55.2766 103.841H54.5166L53.2166 99.7368H54.0046C54.0766 99.7368 54.1379 99.7542 54.1886 99.7888C54.2392 99.8235 54.2726 99.8675 54.2886 99.9208L54.8766 102.113C54.9059 102.233 54.9312 102.35 54.9526 102.465C54.9766 102.579 54.9966 102.694 55.0126 102.809C55.0419 102.694 55.0726 102.579 55.1046 102.465C55.1392 102.35 55.1752 102.233 55.2126 102.113L55.8926 99.9128C55.9086 99.8595 55.9392 99.8155 55.9846 99.7808C56.0326 99.7462 56.0899 99.7288 56.1566 99.7288H56.5926C56.6619 99.7288 56.7206 99.7462 56.7686 99.7808C56.8192 99.8155 56.8526 99.8595 56.8686 99.9128L57.5286 102.113C57.5632 102.233 57.5952 102.351 57.6246 102.469C57.6566 102.583 57.6872 102.698 57.7166 102.813C57.7512 102.586 57.8006 102.353 57.8646 102.113L58.4686 99.9208C58.4872 99.8675 58.5206 99.8235 58.5686 99.7888C58.6166 99.7542 58.6739 99.7368 58.7406 99.7368H59.4926ZM61.8001 99.6728C62.1041 99.6728 62.3801 99.7222 62.6281 99.8208C62.8788 99.9195 63.0921 100.059 63.2681 100.241C63.4468 100.422 63.5841 100.643 63.6801 100.905C63.7761 101.166 63.8241 101.458 63.8241 101.781C63.8241 102.106 63.7761 102.399 63.6801 102.661C63.5841 102.922 63.4468 103.145 63.2681 103.329C63.0921 103.513 62.8788 103.654 62.6281 103.753C62.3801 103.851 62.1041 103.901 61.8001 103.901C61.4935 103.901 61.2148 103.851 60.9641 103.753C60.7135 103.654 60.4988 103.513 60.3201 103.329C60.1441 103.145 60.0068 102.922 59.9081 102.661C59.8121 102.399 59.7641 102.106 59.7641 101.781C59.7641 101.458 59.8121 101.166 59.9081 100.905C60.0068 100.643 60.1441 100.422 60.3201 100.241C60.4988 100.059 60.7135 99.9195 60.9641 99.8208C61.2148 99.7222 61.4935 99.6728 61.8001 99.6728ZM61.8001 103.141C62.1415 103.141 62.3935 103.026 62.5561 102.797C62.7215 102.567 62.8041 102.231 62.8041 101.789C62.8041 101.346 62.7215 101.009 62.5561 100.777C62.3935 100.545 62.1415 100.429 61.8001 100.429C61.4535 100.429 61.1961 100.546 61.0281 100.781C60.8628 101.013 60.7801 101.349 60.7801 101.789C60.7801 102.229 60.8628 102.565 61.0281 102.797C61.1961 103.026 61.4535 103.141 61.8001 103.141ZM68.1139 99.7368V103.841H67.5099C67.3792 103.841 67.2966 103.781 67.2619 103.661L67.1939 103.333C67.0259 103.503 66.8406 103.642 66.6379 103.749C66.4352 103.853 66.1966 103.905 65.9219 103.905C65.6979 103.905 65.4992 103.867 65.3259 103.793C65.1552 103.715 65.0112 103.607 64.8939 103.469C64.7766 103.33 64.6872 103.166 64.6259 102.977C64.5672 102.785 64.5379 102.574 64.5379 102.345V99.7368H65.5259V102.345C65.5259 102.595 65.5832 102.79 65.6979 102.929C65.8152 103.065 65.9899 103.133 66.2219 103.133C66.3926 103.133 66.5526 103.095 66.7019 103.021C66.8512 102.943 66.9926 102.838 67.1259 102.705V99.7368H68.1139ZM70.0935 97.8968V103.841H69.1055V97.8968H70.0935ZM73.6539 100.785C73.5419 100.649 73.4192 100.553 73.2859 100.497C73.1552 100.441 73.0139 100.413 72.8619 100.413C72.7126 100.413 72.5779 100.441 72.4579 100.497C72.3379 100.553 72.2352 100.638 72.1499 100.753C72.0646 100.865 71.9992 101.009 71.9539 101.185C71.9086 101.358 71.8859 101.563 71.8859 101.801C71.8859 102.041 71.9046 102.245 71.9419 102.413C71.9819 102.578 72.0379 102.714 72.1099 102.821C72.1819 102.925 72.2699 103.001 72.3739 103.049C72.4779 103.094 72.5939 103.117 72.7219 103.117C72.9272 103.117 73.1019 103.074 73.2459 102.989C73.3899 102.903 73.5259 102.782 73.6539 102.625V100.785ZM74.6419 97.8968V103.841H74.0379C73.9072 103.841 73.8246 103.781 73.7899 103.661L73.7059 103.265C73.5406 103.454 73.3499 103.607 73.1339 103.725C72.9206 103.842 72.6712 103.901 72.3859 103.901C72.1619 103.901 71.9566 103.854 71.7699 103.761C71.5832 103.667 71.4219 103.533 71.2859 103.357C71.1526 103.178 71.0486 102.958 70.9739 102.697C70.9019 102.435 70.8659 102.137 70.8659 101.801C70.8659 101.497 70.9072 101.214 70.9899 100.953C71.0726 100.691 71.1912 100.465 71.3459 100.273C71.5006 100.081 71.6859 99.9315 71.9019 99.8248C72.1179 99.7155 72.3606 99.6608 72.6299 99.6608C72.8592 99.6608 73.0552 99.6968 73.2179 99.7688C73.3806 99.8408 73.5259 99.9382 73.6539 100.061V97.8968H74.6419ZM78.5623 97.8968V103.841H77.5743V97.8968H78.5623ZM80.5706 99.7368V103.841H79.5786V99.7368H80.5706ZM80.7066 98.5408C80.7066 98.6262 80.6893 98.7062 80.6546 98.7808C80.62 98.8555 80.5733 98.9208 80.5146 98.9768C80.4586 99.0328 80.392 99.0782 80.3146 99.1128C80.2373 99.1448 80.1546 99.1608 80.0666 99.1608C79.9813 99.1608 79.9 99.1448 79.8226 99.1128C79.748 99.0782 79.6826 99.0328 79.6266 98.9768C79.5706 98.9208 79.5253 98.8555 79.4906 98.7808C79.4586 98.7062 79.4426 98.6262 79.4426 98.5408C79.4426 98.4528 79.4586 98.3702 79.4906 98.2928C79.5253 98.2155 79.5706 98.1488 79.6266 98.0928C79.6826 98.0368 79.748 97.9928 79.8226 97.9608C79.9 97.9262 79.9813 97.9088 80.0666 97.9088C80.1546 97.9088 80.2373 97.9262 80.3146 97.9608C80.392 97.9928 80.4586 98.0368 80.5146 98.0928C80.5733 98.1488 80.62 98.2155 80.6546 98.2928C80.6893 98.3702 80.7066 98.4528 80.7066 98.5408ZM82.5659 97.8968V101.301H82.7499C82.8166 101.301 82.8686 101.293 82.9059 101.277C82.9459 101.258 82.9859 101.222 83.0259 101.169L84.0459 99.9088C84.0886 99.8528 84.1352 99.8102 84.1859 99.7808C84.2392 99.7515 84.3072 99.7368 84.3899 99.7368H85.2939L84.0179 101.261C83.9272 101.381 83.8286 101.473 83.7219 101.537C83.7779 101.577 83.8272 101.623 83.8699 101.677C83.9152 101.73 83.9579 101.787 83.9979 101.849L85.3659 103.841H84.4739C84.3966 103.841 84.3299 103.829 84.2739 103.805C84.2179 103.778 84.1712 103.731 84.1339 103.665L83.0859 102.109C83.0486 102.047 83.0099 102.007 82.9699 101.989C82.9299 101.97 82.8699 101.961 82.7899 101.961H82.5659V103.841H81.5779V97.8968H82.5659ZM88.2844 101.317C88.2844 101.189 88.2657 101.069 88.2284 100.957C88.1937 100.842 88.1404 100.742 88.0684 100.657C87.9964 100.571 87.9044 100.505 87.7924 100.457C87.6831 100.406 87.5551 100.381 87.4084 100.381C87.1231 100.381 86.8977 100.462 86.7324 100.625C86.5697 100.787 86.4657 101.018 86.4204 101.317H88.2844ZM86.4004 101.913C86.4164 102.123 86.4537 102.306 86.5124 102.461C86.5711 102.613 86.6484 102.739 86.7444 102.841C86.8404 102.939 86.9537 103.014 87.0844 103.065C87.2177 103.113 87.3644 103.137 87.5244 103.137C87.6844 103.137 87.8217 103.118 87.9364 103.081C88.0537 103.043 88.1551 103.002 88.2404 102.957C88.3284 102.911 88.4044 102.87 88.4684 102.833C88.5351 102.795 88.5991 102.777 88.6604 102.777C88.7431 102.777 88.8044 102.807 88.8444 102.869L89.1284 103.229C89.0191 103.357 88.8964 103.465 88.7604 103.553C88.6244 103.638 88.4817 103.707 88.3324 103.761C88.1857 103.811 88.0351 103.847 87.8804 103.869C87.7284 103.89 87.5804 103.901 87.4364 103.901C87.1511 103.901 86.8857 103.854 86.6404 103.761C86.3951 103.665 86.1817 103.525 86.0004 103.341C85.8191 103.154 85.6764 102.925 85.5724 102.653C85.4684 102.378 85.4164 102.061 85.4164 101.701C85.4164 101.421 85.4617 101.158 85.5524 100.913C85.6431 100.665 85.7724 100.45 85.9404 100.269C86.1111 100.085 86.3177 99.9395 86.5604 99.8328C86.8057 99.7262 87.0817 99.6728 87.3884 99.6728C87.6471 99.6728 87.8857 99.7142 88.1044 99.7968C88.3231 99.8795 88.5111 100.001 88.6684 100.161C88.8257 100.318 88.9484 100.513 89.0364 100.745C89.1271 100.974 89.1724 101.237 89.1724 101.533C89.1724 101.682 89.1564 101.783 89.1244 101.837C89.0924 101.887 89.0311 101.913 88.9404 101.913H86.4004ZM93.2271 103.905C92.8698 103.905 92.5951 103.805 92.4031 103.605C92.2138 103.402 92.1191 103.123 92.1191 102.769V100.477H91.6991C91.6458 100.477 91.6005 100.459 91.5631 100.425C91.5258 100.39 91.5071 100.338 91.5071 100.269V99.8768L92.1671 99.7688L92.3751 98.6488C92.3885 98.5955 92.4138 98.5542 92.4511 98.5248C92.4885 98.4955 92.5365 98.4808 92.5951 98.4808H93.1071V99.7728H94.2031V100.477H93.1071V102.701C93.1071 102.829 93.1378 102.929 93.1991 103.001C93.2631 103.073 93.3498 103.109 93.4591 103.109C93.5205 103.109 93.5711 103.102 93.6111 103.089C93.6538 103.073 93.6898 103.057 93.7191 103.041C93.7511 103.025 93.7791 103.01 93.8031 102.997C93.8271 102.981 93.8511 102.973 93.8751 102.973C93.9045 102.973 93.9285 102.981 93.9471 102.997C93.9658 103.01 93.9858 103.031 94.0071 103.061L94.3031 103.541C94.1591 103.661 93.9938 103.751 93.8071 103.813C93.6205 103.874 93.4271 103.905 93.2271 103.905ZM96.6205 99.6728C96.9245 99.6728 97.2005 99.7222 97.4485 99.8208C97.6991 99.9195 97.9125 100.059 98.0885 100.241C98.2671 100.422 98.4045 100.643 98.5005 100.905C98.5965 101.166 98.6445 101.458 98.6445 101.781C98.6445 102.106 98.5965 102.399 98.5005 102.661C98.4045 102.922 98.2671 103.145 98.0885 103.329C97.9125 103.513 97.6991 103.654 97.4485 103.753C97.2005 103.851 96.9245 103.901 96.6205 103.901C96.3138 103.901 96.0351 103.851 95.7845 103.753C95.5338 103.654 95.3191 103.513 95.1405 103.329C94.9645 103.145 94.8271 102.922 94.7285 102.661C94.6325 102.399 94.5845 102.106 94.5845 101.781C94.5845 101.458 94.6325 101.166 94.7285 100.905C94.8271 100.643 94.9645 100.422 95.1405 100.241C95.3191 100.059 95.5338 99.9195 95.7845 99.8208C96.0351 99.7222 96.3138 99.6728 96.6205 99.6728ZM96.6205 103.141C96.9618 103.141 97.2138 103.026 97.3765 102.797C97.5418 102.567 97.6245 102.231 97.6245 101.789C97.6245 101.346 97.5418 101.009 97.3765 100.777C97.2138 100.545 96.9618 100.429 96.6205 100.429C96.2738 100.429 96.0165 100.546 95.8485 100.781C95.6831 101.013 95.6005 101.349 95.6005 101.789C95.6005 102.229 95.6831 102.565 95.8485 102.797C96.0165 103.026 96.2738 103.141 96.6205 103.141ZM104.284 100.605C104.254 100.642 104.225 100.671 104.196 100.693C104.169 100.714 104.129 100.725 104.076 100.725C104.025 100.725 103.976 100.71 103.928 100.681C103.88 100.649 103.822 100.614 103.756 100.577C103.689 100.537 103.609 100.502 103.516 100.473C103.425 100.441 103.312 100.425 103.176 100.425C103.002 100.425 102.85 100.457 102.72 100.521C102.589 100.582 102.48 100.671 102.392 100.789C102.306 100.906 102.242 101.049 102.2 101.217C102.157 101.382 102.136 101.57 102.136 101.781C102.136 101.999 102.158 102.194 102.204 102.365C102.252 102.535 102.32 102.679 102.408 102.797C102.496 102.911 102.602 102.999 102.728 103.061C102.853 103.119 102.994 103.149 103.152 103.149C103.309 103.149 103.436 103.13 103.532 103.093C103.63 103.053 103.713 103.01 103.78 102.965C103.846 102.917 103.904 102.874 103.952 102.837C104.002 102.797 104.058 102.777 104.12 102.777C104.2 102.777 104.26 102.807 104.3 102.869L104.584 103.229C104.474 103.357 104.356 103.465 104.228 103.553C104.1 103.638 103.966 103.707 103.828 103.761C103.692 103.811 103.55 103.847 103.404 103.869C103.26 103.89 103.116 103.901 102.972 103.901C102.718 103.901 102.48 103.854 102.256 103.761C102.032 103.665 101.836 103.526 101.668 103.345C101.5 103.163 101.366 102.942 101.268 102.681C101.172 102.417 101.124 102.117 101.124 101.781C101.124 101.479 101.166 101.201 101.252 100.945C101.34 100.686 101.468 100.463 101.636 100.277C101.804 100.087 102.012 99.9395 102.26 99.8328C102.508 99.7262 102.793 99.6728 103.116 99.6728C103.422 99.6728 103.69 99.7222 103.92 99.8208C104.152 99.9195 104.36 100.061 104.544 100.245L104.284 100.605ZM108.739 99.7368V103.841H108.135C108.004 103.841 107.922 103.781 107.887 103.661L107.819 103.333C107.651 103.503 107.466 103.642 107.263 103.749C107.06 103.853 106.822 103.905 106.547 103.905C106.323 103.905 106.124 103.867 105.951 103.793C105.78 103.715 105.636 103.607 105.519 103.469C105.402 103.33 105.312 103.166 105.251 102.977C105.192 102.785 105.163 102.574 105.163 102.345V99.7368H106.151V102.345C106.151 102.595 106.208 102.79 106.323 102.929C106.44 103.065 106.615 103.133 106.847 103.133C107.018 103.133 107.178 103.095 107.327 103.021C107.476 102.943 107.618 102.838 107.751 102.705V99.7368H108.739ZM112.223 100.537C112.196 100.579 112.168 100.61 112.139 100.629C112.109 100.645 112.072 100.653 112.027 100.653C111.979 100.653 111.927 100.639 111.871 100.613C111.817 100.586 111.755 100.557 111.683 100.525C111.611 100.49 111.528 100.459 111.435 100.433C111.344 100.406 111.236 100.393 111.111 100.393C110.916 100.393 110.763 100.434 110.651 100.517C110.541 100.599 110.487 100.707 110.487 100.841C110.487 100.929 110.515 101.003 110.571 101.065C110.629 101.123 110.705 101.175 110.799 101.221C110.895 101.266 111.003 101.307 111.123 101.345C111.243 101.379 111.364 101.418 111.487 101.461C111.612 101.503 111.735 101.553 111.855 101.609C111.975 101.662 112.081 101.731 112.175 101.817C112.271 101.899 112.347 101.999 112.403 102.117C112.461 102.234 112.491 102.375 112.491 102.541C112.491 102.738 112.455 102.921 112.383 103.089C112.313 103.254 112.209 103.398 112.071 103.521C111.932 103.641 111.76 103.735 111.555 103.805C111.352 103.871 111.117 103.905 110.851 103.905C110.709 103.905 110.571 103.891 110.435 103.865C110.301 103.841 110.172 103.806 110.047 103.761C109.924 103.715 109.809 103.662 109.703 103.601C109.599 103.539 109.507 103.473 109.427 103.401L109.655 103.025C109.684 102.979 109.719 102.945 109.759 102.921C109.799 102.897 109.849 102.885 109.911 102.885C109.972 102.885 110.029 102.902 110.083 102.937C110.139 102.971 110.203 103.009 110.275 103.049C110.347 103.089 110.431 103.126 110.527 103.161C110.625 103.195 110.749 103.213 110.899 103.213C111.016 103.213 111.116 103.199 111.199 103.173C111.284 103.143 111.353 103.106 111.407 103.061C111.463 103.015 111.503 102.963 111.527 102.905C111.553 102.843 111.567 102.781 111.567 102.717C111.567 102.621 111.537 102.542 111.479 102.481C111.423 102.419 111.347 102.366 111.251 102.321C111.157 102.275 111.049 102.235 110.927 102.201C110.807 102.163 110.683 102.123 110.555 102.081C110.429 102.038 110.305 101.989 110.183 101.933C110.063 101.874 109.955 101.801 109.859 101.713C109.765 101.625 109.689 101.517 109.631 101.389C109.575 101.261 109.547 101.106 109.547 100.925C109.547 100.757 109.58 100.597 109.647 100.445C109.713 100.293 109.811 100.161 109.939 100.049C110.069 99.9342 110.231 99.8435 110.423 99.7768C110.617 99.7075 110.841 99.6728 111.095 99.6728C111.377 99.6728 111.635 99.7195 111.867 99.8128C112.099 99.9062 112.292 100.029 112.447 100.181L112.223 100.537ZM114.602 103.905C114.245 103.905 113.97 103.805 113.778 103.605C113.589 103.402 113.494 103.123 113.494 102.769V100.477H113.074C113.021 100.477 112.975 100.459 112.938 100.425C112.901 100.39 112.882 100.338 112.882 100.269V99.8768L113.542 99.7688L113.75 98.6488C113.763 98.5955 113.789 98.5542 113.826 98.5248C113.863 98.4955 113.911 98.4808 113.97 98.4808H114.482V99.7728H115.578V100.477H114.482V102.701C114.482 102.829 114.513 102.929 114.574 103.001C114.638 103.073 114.725 103.109 114.834 103.109C114.895 103.109 114.946 103.102 114.986 103.089C115.029 103.073 115.065 103.057 115.094 103.041C115.126 103.025 115.154 103.01 115.178 102.997C115.202 102.981 115.226 102.973 115.25 102.973C115.279 102.973 115.303 102.981 115.322 102.997C115.341 103.01 115.361 103.031 115.382 103.061L115.678 103.541C115.534 103.661 115.369 103.751 115.182 103.813C114.995 103.874 114.802 103.905 114.602 103.905ZM117.995 99.6728C118.299 99.6728 118.575 99.7222 118.823 99.8208C119.074 99.9195 119.287 100.059 119.463 100.241C119.642 100.422 119.779 100.643 119.875 100.905C119.971 101.166 120.019 101.458 120.019 101.781C120.019 102.106 119.971 102.399 119.875 102.661C119.779 102.922 119.642 103.145 119.463 103.329C119.287 103.513 119.074 103.654 118.823 103.753C118.575 103.851 118.299 103.901 117.995 103.901C117.689 103.901 117.41 103.851 117.159 103.753C116.909 103.654 116.694 103.513 116.515 103.329C116.339 103.145 116.202 102.922 116.103 102.661C116.007 102.399 115.959 102.106 115.959 101.781C115.959 101.458 116.007 101.166 116.103 100.905C116.202 100.643 116.339 100.422 116.515 100.241C116.694 100.059 116.909 99.9195 117.159 99.8208C117.41 99.7222 117.689 99.6728 117.995 99.6728ZM117.995 103.141C118.337 103.141 118.589 103.026 118.751 102.797C118.917 102.567 118.999 102.231 118.999 101.789C118.999 101.346 118.917 101.009 118.751 100.777C118.589 100.545 118.337 100.429 117.995 100.429C117.649 100.429 117.391 100.546 117.223 100.781C117.058 101.013 116.975 101.349 116.975 101.789C116.975 102.229 117.058 102.565 117.223 102.797C117.391 103.026 117.649 103.141 117.995 103.141ZM120.773 103.841V99.7368H121.377C121.505 99.7368 121.589 99.7968 121.629 99.9168L121.693 100.221C121.765 100.141 121.84 100.067 121.917 100.001C121.997 99.9342 122.081 99.8768 122.169 99.8288C122.26 99.7808 122.356 99.7435 122.457 99.7168C122.561 99.6875 122.675 99.6728 122.797 99.6728C123.056 99.6728 123.268 99.7435 123.433 99.8848C123.601 100.023 123.727 100.209 123.809 100.441C123.873 100.305 123.953 100.189 124.049 100.093C124.145 99.9942 124.251 99.9142 124.365 99.8528C124.48 99.7915 124.601 99.7462 124.729 99.7168C124.86 99.6875 124.991 99.6728 125.121 99.6728C125.348 99.6728 125.549 99.7075 125.725 99.7768C125.901 99.8462 126.049 99.9475 126.169 100.081C126.289 100.214 126.38 100.377 126.441 100.569C126.505 100.761 126.537 100.981 126.537 101.229V103.841H125.549V101.229C125.549 100.967 125.492 100.771 125.377 100.641C125.263 100.507 125.095 100.441 124.873 100.441C124.772 100.441 124.677 100.458 124.589 100.493C124.504 100.527 124.428 100.578 124.361 100.645C124.297 100.709 124.247 100.79 124.209 100.889C124.172 100.987 124.153 101.101 124.153 101.229V103.841H123.161V101.229C123.161 100.954 123.105 100.754 122.993 100.629C122.884 100.503 122.723 100.441 122.509 100.441C122.365 100.441 122.231 100.477 122.105 100.549C121.983 100.618 121.868 100.714 121.761 100.837V103.841H120.773ZM128.5 99.7368V103.841H127.508V99.7368H128.5ZM128.636 98.5408C128.636 98.6262 128.619 98.7062 128.584 98.7808C128.55 98.8555 128.503 98.9208 128.444 98.9768C128.388 99.0328 128.322 99.0782 128.244 99.1128C128.167 99.1448 128.084 99.1608 127.996 99.1608C127.911 99.1608 127.83 99.1448 127.752 99.1128C127.678 99.0782 127.612 99.0328 127.556 98.9768C127.5 98.9208 127.455 98.8555 127.42 98.7808C127.388 98.7062 127.372 98.6262 127.372 98.5408C127.372 98.4528 127.388 98.3702 127.42 98.2928C127.455 98.2155 127.5 98.1488 127.556 98.0928C127.612 98.0368 127.678 97.9928 127.752 97.9608C127.83 97.9262 127.911 97.9088 127.996 97.9088C128.084 97.9088 128.167 97.9262 128.244 97.9608C128.322 97.9928 128.388 98.0368 128.444 98.0928C128.503 98.1488 128.55 98.2155 128.584 98.2928C128.619 98.3702 128.636 98.4528 128.636 98.5408ZM132.456 100.145C132.456 100.214 132.444 100.282 132.42 100.349C132.396 100.415 132.364 100.47 132.324 100.513L130.376 103.081H132.396V103.841H129.228V103.429C129.228 103.383 129.238 103.33 129.26 103.269C129.281 103.205 129.313 103.145 129.356 103.089L131.324 100.493H129.344V99.7368H132.456V100.145ZM135.761 101.317C135.761 101.189 135.742 101.069 135.705 100.957C135.67 100.842 135.617 100.742 135.545 100.657C135.473 100.571 135.381 100.505 135.269 100.457C135.16 100.406 135.032 100.381 134.885 100.381C134.6 100.381 134.374 100.462 134.209 100.625C134.046 100.787 133.942 101.018 133.897 101.317H135.761ZM133.877 101.913C133.893 102.123 133.93 102.306 133.989 102.461C134.048 102.613 134.125 102.739 134.221 102.841C134.317 102.939 134.43 103.014 134.561 103.065C134.694 103.113 134.841 103.137 135.001 103.137C135.161 103.137 135.298 103.118 135.413 103.081C135.53 103.043 135.632 103.002 135.717 102.957C135.805 102.911 135.881 102.87 135.945 102.833C136.012 102.795 136.076 102.777 136.137 102.777C136.22 102.777 136.281 102.807 136.321 102.869L136.605 103.229C136.496 103.357 136.373 103.465 136.237 103.553C136.101 103.638 135.958 103.707 135.809 103.761C135.662 103.811 135.512 103.847 135.357 103.869C135.205 103.89 135.057 103.901 134.913 103.901C134.628 103.901 134.362 103.854 134.117 103.761C133.872 103.665 133.658 103.525 133.477 103.341C133.296 103.154 133.153 102.925 133.049 102.653C132.945 102.378 132.893 102.061 132.893 101.701C132.893 101.421 132.938 101.158 133.029 100.913C133.12 100.665 133.249 100.45 133.417 100.269C133.588 100.085 133.794 99.9395 134.037 99.8328C134.282 99.7262 134.558 99.6728 134.865 99.6728C135.124 99.6728 135.362 99.7142 135.581 99.7968C135.8 99.8795 135.988 100.001 136.145 100.161C136.302 100.318 136.425 100.513 136.513 100.745C136.604 100.974 136.649 101.237 136.649 101.533C136.649 101.682 136.633 101.783 136.601 101.837C136.569 101.887 136.508 101.913 136.417 101.913H133.877Z" fill="white"/>
<path d="M126.295 113.977V102.886L134.336 110.927H129.623L129.345 110.996L126.295 113.977Z" fill="white"/>
<path d="M132.742 114.74L130.247 115.78L126.989 108.085L129.553 107.045L132.742 114.74Z" fill="white"/>
<path d="M129.653 108.588L128.375 109.125L130.522 114.238L131.8 113.702L129.653 108.588Z" fill="black"/>
<path d="M126.989 104.273V112.036L129.068 110.026L129.345 109.957H132.673L126.989 104.273Z" fill="black"/>
<rect x="155" y="91.8408" width="89.4204" height="17.3295" rx="8.66477" fill="#EAEBEE"/>
<path d="M160.429 103.841H159.349V98.0568H160.429V103.841ZM169.21 99.7368L167.906 103.841H167.114C167.023 103.841 166.96 103.782 166.926 103.665L166.19 101.293C166.166 101.213 166.143 101.134 166.122 101.057C166.103 100.977 166.087 100.897 166.074 100.817C166.058 100.897 166.039 100.978 166.018 101.061C165.999 101.141 165.978 101.221 165.954 101.301L165.206 103.665C165.174 103.782 165.103 103.841 164.994 103.841H164.234L162.934 99.7368H163.722C163.794 99.7368 163.855 99.7542 163.906 99.7888C163.956 99.8235 163.99 99.8675 164.006 99.9208L164.594 102.113C164.623 102.233 164.648 102.35 164.67 102.465C164.694 102.579 164.714 102.694 164.73 102.809C164.759 102.694 164.79 102.579 164.822 102.465C164.856 102.35 164.892 102.233 164.93 102.113L165.61 99.9128C165.626 99.8595 165.656 99.8155 165.702 99.7808C165.75 99.7462 165.807 99.7288 165.874 99.7288H166.31C166.379 99.7288 166.438 99.7462 166.486 99.7808C166.536 99.8155 166.57 99.8595 166.586 99.9128L167.246 102.113C167.28 102.233 167.312 102.351 167.342 102.469C167.374 102.583 167.404 102.698 167.434 102.813C167.468 102.586 167.518 102.353 167.582 102.113L168.186 99.9208C168.204 99.8675 168.238 99.8235 168.286 99.7888C168.334 99.7542 168.391 99.7368 168.458 99.7368H169.21ZM170.795 99.7368V103.841H169.803V99.7368H170.795ZM170.931 98.5408C170.931 98.6262 170.914 98.7062 170.879 98.7808C170.845 98.8555 170.798 98.9208 170.739 98.9768C170.683 99.0328 170.617 99.0782 170.539 99.1128C170.462 99.1448 170.379 99.1608 170.291 99.1608C170.206 99.1608 170.125 99.1448 170.047 99.1128C169.973 99.0782 169.907 99.0328 169.851 98.9768C169.795 98.9208 169.75 98.8555 169.715 98.7808C169.683 98.7062 169.667 98.6262 169.667 98.5408C169.667 98.4528 169.683 98.3702 169.715 98.2928C169.75 98.2155 169.795 98.1488 169.851 98.0928C169.907 98.0368 169.973 97.9928 170.047 97.9608C170.125 97.9262 170.206 97.9088 170.291 97.9088C170.379 97.9088 170.462 97.9262 170.539 97.9608C170.617 97.9928 170.683 98.0368 170.739 98.0928C170.798 98.1488 170.845 98.2155 170.879 98.2928C170.914 98.3702 170.931 98.4528 170.931 98.5408ZM172.803 97.8968V103.841H171.815V97.8968H172.803ZM174.787 97.8968V103.841H173.799V97.8968H174.787ZM179.885 102.089C179.599 102.102 179.359 102.127 179.165 102.165C178.97 102.199 178.814 102.245 178.697 102.301C178.579 102.357 178.495 102.422 178.445 102.497C178.394 102.571 178.369 102.653 178.369 102.741C178.369 102.914 178.419 103.038 178.521 103.113C178.625 103.187 178.759 103.225 178.925 103.225C179.127 103.225 179.302 103.189 179.449 103.117C179.598 103.042 179.743 102.93 179.885 102.781V102.089ZM177.621 100.309C178.093 99.8768 178.661 99.6608 179.325 99.6608C179.565 99.6608 179.779 99.7008 179.969 99.7808C180.158 99.8582 180.318 99.9675 180.449 100.109C180.579 100.247 180.678 100.414 180.745 100.609C180.814 100.803 180.849 101.017 180.849 101.249V103.841H180.401C180.307 103.841 180.235 103.827 180.185 103.801C180.134 103.771 180.094 103.714 180.065 103.629L179.977 103.333C179.873 103.426 179.771 103.509 179.673 103.581C179.574 103.65 179.471 103.709 179.365 103.757C179.258 103.805 179.143 103.841 179.021 103.865C178.901 103.891 178.767 103.905 178.621 103.905C178.447 103.905 178.287 103.882 178.141 103.837C177.994 103.789 177.867 103.718 177.761 103.625C177.654 103.531 177.571 103.415 177.513 103.277C177.454 103.138 177.425 102.977 177.425 102.793C177.425 102.689 177.442 102.586 177.477 102.485C177.511 102.381 177.567 102.282 177.645 102.189C177.725 102.095 177.827 102.007 177.953 101.925C178.078 101.842 178.231 101.77 178.413 101.709C178.597 101.647 178.81 101.598 179.053 101.561C179.295 101.521 179.573 101.497 179.885 101.489V101.249C179.885 100.974 179.826 100.771 179.709 100.641C179.591 100.507 179.422 100.441 179.201 100.441C179.041 100.441 178.907 100.459 178.801 100.497C178.697 100.534 178.605 100.577 178.525 100.625C178.445 100.67 178.371 100.711 178.305 100.749C178.241 100.786 178.169 100.805 178.089 100.805C178.019 100.805 177.961 100.787 177.913 100.753C177.865 100.715 177.826 100.673 177.797 100.625L177.621 100.309ZM184.719 100.605C184.69 100.642 184.661 100.671 184.631 100.693C184.605 100.714 184.565 100.725 184.511 100.725C184.461 100.725 184.411 100.71 184.363 100.681C184.315 100.649 184.258 100.614 184.191 100.577C184.125 100.537 184.045 100.502 183.951 100.473C183.861 100.441 183.747 100.425 183.611 100.425C183.438 100.425 183.286 100.457 183.155 100.521C183.025 100.582 182.915 100.671 182.827 100.789C182.742 100.906 182.678 101.049 182.635 101.217C182.593 101.382 182.571 101.57 182.571 101.781C182.571 101.999 182.594 102.194 182.639 102.365C182.687 102.535 182.755 102.679 182.843 102.797C182.931 102.911 183.038 102.999 183.163 103.061C183.289 103.119 183.43 103.149 183.587 103.149C183.745 103.149 183.871 103.13 183.967 103.093C184.066 103.053 184.149 103.01 184.215 102.965C184.282 102.917 184.339 102.874 184.387 102.837C184.438 102.797 184.494 102.777 184.555 102.777C184.635 102.777 184.695 102.807 184.735 102.869L185.019 103.229C184.91 103.357 184.791 103.465 184.663 103.553C184.535 103.638 184.402 103.707 184.263 103.761C184.127 103.811 183.986 103.847 183.839 103.869C183.695 103.89 183.551 103.901 183.407 103.901C183.154 103.901 182.915 103.854 182.691 103.761C182.467 103.665 182.271 103.526 182.103 103.345C181.935 103.163 181.802 102.942 181.703 102.681C181.607 102.417 181.559 102.117 181.559 101.781C181.559 101.479 181.602 101.201 181.687 100.945C181.775 100.686 181.903 100.463 182.071 100.277C182.239 100.087 182.447 99.9395 182.695 99.8328C182.943 99.7262 183.229 99.6728 183.551 99.6728C183.858 99.6728 184.126 99.7222 184.355 99.8208C184.587 99.9195 184.795 100.061 184.979 100.245L184.719 100.605ZM188.508 100.605C188.479 100.642 188.45 100.671 188.42 100.693C188.394 100.714 188.354 100.725 188.3 100.725C188.25 100.725 188.2 100.71 188.152 100.681C188.104 100.649 188.047 100.614 187.98 100.577C187.914 100.537 187.834 100.502 187.74 100.473C187.65 100.441 187.536 100.425 187.4 100.425C187.227 100.425 187.075 100.457 186.944 100.521C186.814 100.582 186.704 100.671 186.616 100.789C186.531 100.906 186.467 101.049 186.424 101.217C186.382 101.382 186.36 101.57 186.36 101.781C186.36 101.999 186.383 102.194 186.428 102.365C186.476 102.535 186.544 102.679 186.632 102.797C186.72 102.911 186.827 102.999 186.952 103.061C187.078 103.119 187.219 103.149 187.376 103.149C187.534 103.149 187.66 103.13 187.756 103.093C187.855 103.053 187.938 103.01 188.004 102.965C188.071 102.917 188.128 102.874 188.176 102.837C188.227 102.797 188.283 102.777 188.344 102.777C188.424 102.777 188.484 102.807 188.524 102.869L188.808 103.229C188.699 103.357 188.58 103.465 188.452 103.553C188.324 103.638 188.191 103.707 188.052 103.761C187.916 103.811 187.775 103.847 187.628 103.869C187.484 103.89 187.34 103.901 187.196 103.901C186.943 103.901 186.704 103.854 186.48 103.761C186.256 103.665 186.06 103.526 185.892 103.345C185.724 103.163 185.591 102.942 185.492 102.681C185.396 102.417 185.348 102.117 185.348 101.781C185.348 101.479 185.391 101.201 185.476 100.945C185.564 100.686 185.692 100.463 185.86 100.277C186.028 100.087 186.236 99.9395 186.484 99.8328C186.732 99.7262 187.018 99.6728 187.34 99.6728C187.647 99.6728 187.915 99.7222 188.144 99.8208C188.376 99.9195 188.584 100.061 188.768 100.245L188.508 100.605ZM192.001 101.317C192.001 101.189 191.983 101.069 191.945 100.957C191.911 100.842 191.857 100.742 191.785 100.657C191.713 100.571 191.621 100.505 191.509 100.457C191.4 100.406 191.272 100.381 191.125 100.381C190.84 100.381 190.615 100.462 190.449 100.625C190.287 100.787 190.183 101.018 190.137 101.317H192.001ZM190.117 101.913C190.133 102.123 190.171 102.306 190.229 102.461C190.288 102.613 190.365 102.739 190.461 102.841C190.557 102.939 190.671 103.014 190.801 103.065C190.935 103.113 191.081 103.137 191.241 103.137C191.401 103.137 191.539 103.118 191.653 103.081C191.771 103.043 191.872 103.002 191.957 102.957C192.045 102.911 192.121 102.87 192.185 102.833C192.252 102.795 192.316 102.777 192.377 102.777C192.46 102.777 192.521 102.807 192.561 102.869L192.845 103.229C192.736 103.357 192.613 103.465 192.477 103.553C192.341 103.638 192.199 103.707 192.049 103.761C191.903 103.811 191.752 103.847 191.597 103.869C191.445 103.89 191.297 103.901 191.153 103.901C190.868 103.901 190.603 103.854 190.357 103.761C190.112 103.665 189.899 103.525 189.717 103.341C189.536 103.154 189.393 102.925 189.289 102.653C189.185 102.378 189.133 102.061 189.133 101.701C189.133 101.421 189.179 101.158 189.269 100.913C189.36 100.665 189.489 100.45 189.657 100.269C189.828 100.085 190.035 99.9395 190.277 99.8328C190.523 99.7262 190.799 99.6728 191.105 99.6728C191.364 99.6728 191.603 99.7142 191.821 99.7968C192.04 99.8795 192.228 100.001 192.385 100.161C192.543 100.318 192.665 100.513 192.753 100.745C192.844 100.974 192.889 101.237 192.889 101.533C192.889 101.682 192.873 101.783 192.841 101.837C192.809 101.887 192.748 101.913 192.657 101.913H190.117ZM194.619 102.777C194.731 102.913 194.852 103.009 194.983 103.065C195.116 103.121 195.26 103.149 195.415 103.149C195.564 103.149 195.699 103.121 195.819 103.065C195.939 103.009 196.04 102.923 196.123 102.809C196.208 102.694 196.273 102.55 196.319 102.377C196.364 102.201 196.387 101.994 196.387 101.757C196.387 101.517 196.367 101.314 196.327 101.149C196.289 100.981 196.235 100.845 196.163 100.741C196.091 100.637 196.003 100.561 195.899 100.513C195.797 100.465 195.681 100.441 195.551 100.441C195.345 100.441 195.171 100.485 195.027 100.573C194.883 100.658 194.747 100.779 194.619 100.937V102.777ZM194.567 100.297C194.735 100.107 194.925 99.9542 195.139 99.8368C195.352 99.7195 195.603 99.6608 195.891 99.6608C196.115 99.6608 196.319 99.7075 196.503 99.8008C196.689 99.8942 196.849 100.03 196.983 100.209C197.119 100.385 197.223 100.603 197.295 100.865C197.369 101.123 197.407 101.421 197.407 101.757C197.407 102.063 197.365 102.347 197.283 102.609C197.2 102.87 197.081 103.097 196.927 103.289C196.775 103.481 196.589 103.631 196.371 103.741C196.155 103.847 195.912 103.901 195.643 103.901C195.413 103.901 195.217 103.866 195.055 103.797C194.892 103.725 194.747 103.626 194.619 103.501V105.181H193.631V99.7368H194.235C194.363 99.7368 194.447 99.7968 194.487 99.9168L194.567 100.297ZM199.491 103.905C199.134 103.905 198.859 103.805 198.667 103.605C198.478 103.402 198.383 103.123 198.383 102.769V100.477H197.963C197.91 100.477 197.864 100.459 197.827 100.425C197.79 100.39 197.771 100.338 197.771 100.269V99.8768L198.431 99.7688L198.639 98.6488C198.652 98.5955 198.678 98.5542 198.715 98.5248C198.752 98.4955 198.8 98.4808 198.859 98.4808H199.371V99.7728H200.467V100.477H199.371V102.701C199.371 102.829 199.402 102.929 199.463 103.001C199.527 103.073 199.614 103.109 199.723 103.109C199.784 103.109 199.835 103.102 199.875 103.089C199.918 103.073 199.954 103.057 199.983 103.041C200.015 103.025 200.043 103.01 200.067 102.997C200.091 102.981 200.115 102.973 200.139 102.973C200.168 102.973 200.192 102.981 200.211 102.997C200.23 103.01 200.25 103.031 200.271 103.061L200.567 103.541C200.423 103.661 200.258 103.751 200.071 103.813C199.884 103.874 199.691 103.905 199.491 103.905ZM204.413 103.905C204.055 103.905 203.781 103.805 203.589 103.605C203.399 103.402 203.305 103.123 203.305 102.769V100.477H202.885C202.831 100.477 202.786 100.459 202.749 100.425C202.711 100.39 202.693 100.338 202.693 100.269V99.8768L203.353 99.7688L203.561 98.6488C203.574 98.5955 203.599 98.5542 203.637 98.5248C203.674 98.4955 203.722 98.4808 203.781 98.4808H204.293V99.7728H205.389V100.477H204.293V102.701C204.293 102.829 204.323 102.929 204.385 103.001C204.449 103.073 204.535 103.109 204.645 103.109C204.706 103.109 204.757 103.102 204.797 103.089C204.839 103.073 204.875 103.057 204.905 103.041C204.937 103.025 204.965 103.01 204.989 102.997C205.013 102.981 205.037 102.973 205.061 102.973C205.09 102.973 205.114 102.981 205.133 102.997C205.151 103.01 205.171 103.031 205.193 103.061L205.489 103.541C205.345 103.661 205.179 103.751 204.993 103.813C204.806 103.874 204.613 103.905 204.413 103.905ZM207.009 100.177C207.169 100.027 207.345 99.9062 207.537 99.8128C207.729 99.7195 207.955 99.6728 208.213 99.6728C208.437 99.6728 208.636 99.7115 208.809 99.7888C208.983 99.8635 209.127 99.9702 209.241 100.109C209.359 100.245 209.447 100.409 209.505 100.601C209.567 100.79 209.597 100.999 209.597 101.229V103.841H208.609V101.229C208.609 100.978 208.552 100.785 208.437 100.649C208.323 100.51 208.148 100.441 207.913 100.441C207.743 100.441 207.583 100.479 207.433 100.557C207.284 100.634 207.143 100.739 207.009 100.873V103.841H206.021V97.8968H207.009V100.177ZM213.181 101.317C213.181 101.189 213.162 101.069 213.125 100.957C213.09 100.842 213.037 100.742 212.965 100.657C212.893 100.571 212.801 100.505 212.689 100.457C212.58 100.406 212.452 100.381 212.305 100.381C212.02 100.381 211.794 100.462 211.629 100.625C211.466 100.787 211.362 101.018 211.317 101.317H213.181ZM211.297 101.913C211.313 102.123 211.35 102.306 211.409 102.461C211.468 102.613 211.545 102.739 211.641 102.841C211.737 102.939 211.85 103.014 211.981 103.065C212.114 103.113 212.261 103.137 212.421 103.137C212.581 103.137 212.718 103.118 212.833 103.081C212.95 103.043 213.052 103.002 213.137 102.957C213.225 102.911 213.301 102.87 213.365 102.833C213.432 102.795 213.496 102.777 213.557 102.777C213.64 102.777 213.701 102.807 213.741 102.869L214.025 103.229C213.916 103.357 213.793 103.465 213.657 103.553C213.521 103.638 213.378 103.707 213.229 103.761C213.082 103.811 212.932 103.847 212.777 103.869C212.625 103.89 212.477 103.901 212.333 103.901C212.048 103.901 211.782 103.854 211.537 103.761C211.292 103.665 211.078 103.525 210.897 103.341C210.716 103.154 210.573 102.925 210.469 102.653C210.365 102.378 210.313 102.061 210.313 101.701C210.313 101.421 210.358 101.158 210.449 100.913C210.54 100.665 210.669 100.45 210.837 100.269C211.008 100.085 211.214 99.9395 211.457 99.8328C211.702 99.7262 211.978 99.6728 212.285 99.6728C212.544 99.6728 212.782 99.7142 213.001 99.7968C213.22 99.8795 213.408 100.001 213.565 100.161C213.722 100.318 213.845 100.513 213.933 100.745C214.024 100.974 214.069 101.237 214.069 101.533C214.069 101.682 214.053 101.783 214.021 101.837C213.989 101.887 213.928 101.913 213.837 101.913H211.297ZM219.332 100.785C219.22 100.649 219.097 100.553 218.964 100.497C218.833 100.441 218.692 100.413 218.54 100.413C218.39 100.413 218.256 100.441 218.136 100.497C218.016 100.553 217.913 100.638 217.828 100.753C217.742 100.865 217.677 101.009 217.632 101.185C217.586 101.358 217.564 101.563 217.564 101.801C217.564 102.041 217.582 102.245 217.62 102.413C217.66 102.578 217.716 102.714 217.788 102.821C217.86 102.925 217.948 103.001 218.052 103.049C218.156 103.094 218.272 103.117 218.4 103.117C218.605 103.117 218.78 103.074 218.924 102.989C219.068 102.903 219.204 102.782 219.332 102.625V100.785ZM220.32 97.8968V103.841H219.716C219.585 103.841 219.502 103.781 219.468 103.661L219.384 103.265C219.218 103.454 219.028 103.607 218.812 103.725C218.598 103.842 218.349 103.901 218.064 103.901C217.84 103.901 217.634 103.854 217.448 103.761C217.261 103.667 217.1 103.533 216.964 103.357C216.83 103.178 216.726 102.958 216.652 102.697C216.58 102.435 216.544 102.137 216.544 101.801C216.544 101.497 216.585 101.214 216.668 100.953C216.75 100.691 216.869 100.465 217.024 100.273C217.178 100.081 217.364 99.9315 217.58 99.8248C217.796 99.7155 218.038 99.6608 218.308 99.6608C218.537 99.6608 218.733 99.6968 218.896 99.7688C219.058 99.8408 219.204 99.9382 219.332 100.061V97.8968H220.32ZM223.939 101.317C223.939 101.189 223.92 101.069 223.883 100.957C223.848 100.842 223.795 100.742 223.723 100.657C223.651 100.571 223.559 100.505 223.447 100.457C223.337 100.406 223.209 100.381 223.063 100.381C222.777 100.381 222.552 100.462 222.387 100.625C222.224 100.787 222.12 101.018 222.075 101.317H223.939ZM222.055 101.913C222.071 102.123 222.108 102.306 222.167 102.461C222.225 102.613 222.303 102.739 222.399 102.841C222.495 102.939 222.608 103.014 222.739 103.065C222.872 103.113 223.019 103.137 223.179 103.137C223.339 103.137 223.476 103.118 223.591 103.081C223.708 103.043 223.809 103.002 223.895 102.957C223.983 102.911 224.059 102.87 224.123 102.833C224.189 102.795 224.253 102.777 224.315 102.777C224.397 102.777 224.459 102.807 224.499 102.869L224.783 103.229C224.673 103.357 224.551 103.465 224.415 103.553C224.279 103.638 224.136 103.707 223.987 103.761C223.84 103.811 223.689 103.847 223.535 103.869C223.383 103.89 223.235 103.901 223.091 103.901C222.805 103.901 222.54 103.854 222.295 103.761C222.049 103.665 221.836 103.525 221.655 103.341C221.473 103.154 221.331 102.925 221.227 102.653C221.123 102.378 221.071 102.061 221.071 101.701C221.071 101.421 221.116 101.158 221.207 100.913C221.297 100.665 221.427 100.45 221.595 100.269C221.765 100.085 221.972 99.9395 222.215 99.8328C222.46 99.7262 222.736 99.6728 223.043 99.6728C223.301 99.6728 223.54 99.7142 223.759 99.7968C223.977 99.8795 224.165 100.001 224.323 100.161C224.48 100.318 224.603 100.513 224.691 100.745C224.781 100.974 224.827 101.237 224.827 101.533C224.827 101.682 224.811 101.783 224.779 101.837C224.747 101.887 224.685 101.913 224.595 101.913H222.055ZM225.794 103.841V100.481L225.438 100.425C225.36 100.409 225.298 100.382 225.25 100.345C225.204 100.305 225.182 100.249 225.182 100.177V99.7728H225.794V99.4688C225.794 99.2342 225.828 99.0235 225.898 98.8368C225.97 98.6502 226.071 98.4915 226.202 98.3608C226.335 98.2302 226.496 98.1302 226.686 98.0608C226.875 97.9915 227.088 97.9568 227.326 97.9568C227.515 97.9568 227.691 97.9822 227.854 98.0328L227.834 98.5288C227.831 98.5662 227.82 98.5968 227.802 98.6208C227.783 98.6422 227.758 98.6595 227.726 98.6728C227.696 98.6835 227.662 98.6915 227.622 98.6968C227.582 98.6995 227.539 98.7008 227.494 98.7008C227.376 98.7008 227.271 98.7142 227.178 98.7408C227.087 98.7648 227.01 98.8088 226.946 98.8728C226.882 98.9342 226.832 99.0168 226.798 99.1208C226.766 99.2222 226.75 99.3488 226.75 99.5008V99.7728H227.818V100.477H226.782V103.841H225.794ZM230.525 102.089C230.24 102.102 230 102.127 229.805 102.165C229.611 102.199 229.455 102.245 229.337 102.301C229.22 102.357 229.136 102.422 229.085 102.497C229.035 102.571 229.009 102.653 229.009 102.741C229.009 102.914 229.06 103.038 229.161 103.113C229.265 103.187 229.4 103.225 229.565 103.225C229.768 103.225 229.943 103.189 230.089 103.117C230.239 103.042 230.384 102.93 230.525 102.781V102.089ZM228.261 100.309C228.733 99.8768 229.301 99.6608 229.965 99.6608C230.205 99.6608 230.42 99.7008 230.609 99.7808C230.799 99.8582 230.959 99.9675 231.089 100.109C231.22 100.247 231.319 100.414 231.385 100.609C231.455 100.803 231.489 101.017 231.489 101.249V103.841H231.041C230.948 103.841 230.876 103.827 230.825 103.801C230.775 103.771 230.735 103.714 230.705 103.629L230.617 103.333C230.513 103.426 230.412 103.509 230.313 103.581C230.215 103.65 230.112 103.709 230.005 103.757C229.899 103.805 229.784 103.841 229.661 103.865C229.541 103.891 229.408 103.905 229.261 103.905C229.088 103.905 228.928 103.882 228.781 103.837C228.635 103.789 228.508 103.718 228.401 103.625C228.295 103.531 228.212 103.415 228.153 103.277C228.095 103.138 228.065 102.977 228.065 102.793C228.065 102.689 228.083 102.586 228.117 102.485C228.152 102.381 228.208 102.282 228.285 102.189C228.365 102.095 228.468 102.007 228.593 101.925C228.719 101.842 228.872 101.77 229.053 101.709C229.237 101.647 229.451 101.598 229.693 101.561C229.936 101.521 230.213 101.497 230.525 101.489V101.249C230.525 100.974 230.467 100.771 230.349 100.641C230.232 100.507 230.063 100.441 229.841 100.441C229.681 100.441 229.548 100.459 229.441 100.497C229.337 100.534 229.245 100.577 229.165 100.625C229.085 100.67 229.012 100.711 228.945 100.749C228.881 100.786 228.809 100.805 228.729 100.805C228.66 100.805 228.601 100.787 228.553 100.753C228.505 100.715 228.467 100.673 228.437 100.625L228.261 100.309ZM235.956 99.7368V103.841H235.352C235.221 103.841 235.138 103.781 235.104 103.661L235.036 103.333C234.868 103.503 234.682 103.642 234.48 103.749C234.277 103.853 234.038 103.905 233.764 103.905C233.54 103.905 233.341 103.867 233.168 103.793C232.997 103.715 232.853 103.607 232.736 103.469C232.618 103.33 232.529 103.166 232.468 102.977C232.409 102.785 232.38 102.574 232.38 102.345V99.7368H233.368V102.345C233.368 102.595 233.425 102.79 233.54 102.929C233.657 103.065 233.832 103.133 234.064 103.133C234.234 103.133 234.394 103.095 234.544 103.021C234.693 102.943 234.834 102.838 234.968 102.705V99.7368H235.956ZM237.935 97.8968V103.841H236.947V97.8968H237.935ZM240.288 103.905C239.93 103.905 239.656 103.805 239.464 103.605C239.274 103.402 239.18 103.123 239.18 102.769V100.477H238.76C238.706 100.477 238.661 100.459 238.624 100.425C238.586 100.39 238.568 100.338 238.568 100.269V99.8768L239.228 99.7688L239.436 98.6488C239.449 98.5955 239.474 98.5542 239.512 98.5248C239.549 98.4955 239.597 98.4808 239.656 98.4808H240.168V99.7728H241.264V100.477H240.168V102.701C240.168 102.829 240.198 102.929 240.26 103.001C240.324 103.073 240.41 103.109 240.52 103.109C240.581 103.109 240.632 103.102 240.672 103.089C240.714 103.073 240.75 103.057 240.78 103.041C240.812 103.025 240.84 103.01 240.864 102.997C240.888 102.981 240.912 102.973 240.936 102.973C240.965 102.973 240.989 102.981 241.008 102.997C241.026 103.01 241.046 103.031 241.068 103.061L241.364 103.541C241.22 103.661 241.054 103.751 240.868 103.813C240.681 103.874 240.488 103.905 240.288 103.905Z" fill="#2A2A2A"/>
<rect x="22" y="39.8408" width="231" height="4" rx="2" fill="#AFDDDF"/>
<rect x="22" y="52.8408" width="231" height="4" rx="2" fill="#AFDDDF"/>
<rect x="22" y="65.8408" width="231" height="4" rx="2" fill="#AFDDDF"/>
<defs>
<filter id="filter0_d" x="0" y="0" width="272" height="141.682" filterUnits="userSpaceOnUse" color-interpolation-filters="sRGB">
<feFlood flood-opacity="0" result="BackgroundImageFix"/>
<feColorMatrix in="SourceAlpha" type="matrix" values="0 0 0 0 0 0 0 0 0 0 0 0 0 0 0 0 0 0 127 0"/>
<feOffset dy="4"/>
<feGaussianBlur stdDeviation="7"/>
<feColorMatrix type="matrix" values="0 0 0 0 0 0 0 0 0 0 0 0 0 0 0 0 0 0 0.15 0"/>
<feBlend mode="normal" in2="BackgroundImageFix" result="effect1_dropShadow"/>
<feBlend mode="normal" in="SourceGraphic" in2="effect1_dropShadow" result="shape"/>
</filter>
</defs>
</svg>
