<svg width="356" height="340" viewBox="0 0 356 340" fill="none" xmlns="http://www.w3.org/2000/svg">
<mask id="mask0" mask-type="alpha" maskUnits="userSpaceOnUse" x="0" y="0" width="356" height="341">
<rect x="0.539673" y="0.533447" width="355.237" height="339.467" fill="#C4C4C4"/>
</mask>
<g mask="url(#mask0)">
<path d="M68.838 497.033L91.3519 324.013C91.8528 321.032 92.9581 318.183 94.5997 315.644C96.2414 313.104 98.3849 310.927 100.899 309.245C103.413 307.563 106.244 306.412 109.218 305.863C112.193 305.314 115.249 305.378 118.198 306.051C121.147 306.725 123.927 307.994 126.368 309.78C128.809 311.566 130.859 313.831 132.392 316.438C133.926 319.044 134.91 321.936 135.286 324.936C135.661 327.936 135.419 330.982 134.574 333.885L89.8651 489.072L78.8206 537.581C78.2516 540.135 76.8009 542.408 74.723 543.999C72.6451 545.591 70.0728 546.4 67.4574 546.285C64.738 546.12 62.166 544.994 60.201 543.108C58.236 541.222 57.0062 538.698 56.7315 535.989L55.8819 528.665C53.8642 506.586 68.838 497.033 68.838 497.033Z" fill="#C48469"/>
<path d="M281.764 497.033L259.25 324.013C258.749 321.032 257.644 318.183 256.002 315.644C254.36 313.104 252.217 310.927 249.703 309.245C247.189 307.563 244.358 306.412 241.383 305.863C238.409 305.314 235.353 305.378 232.404 306.051C229.455 306.725 226.675 307.994 224.234 309.78C221.793 311.566 219.743 313.831 218.209 316.438C216.676 319.044 215.691 321.936 215.316 324.936C214.941 327.936 215.183 330.982 216.027 333.885L260.737 489.072L271.887 537.581C272.456 540.135 273.907 542.408 275.985 543.999C278.063 545.591 280.635 546.4 283.25 546.285C285.97 546.12 288.542 544.994 290.507 543.108C292.472 541.222 293.702 538.698 293.976 535.989L294.826 528.665C296.844 506.586 281.764 497.033 281.764 497.033Z" fill="#C48469"/>
<path d="M172.38 258.202H193.089C224.205 258.202 250.117 271.258 255.958 297.264C259.356 312.337 267.002 342.377 267.002 342.377H169.938L172.38 258.202Z" fill="#F1A71E"/>
<path d="M178.221 258.202H157.512C126.396 258.202 100.484 271.258 94.6433 297.264C91.2449 312.337 83.5987 342.377 83.5987 342.377H180.663L178.221 258.202Z" fill="#F1A71E"/>
<path d="M175.353 135.071C195.471 135.071 211.779 118.771 211.779 98.6628C211.779 78.555 195.471 62.2544 175.353 62.2544C155.236 62.2544 138.928 78.555 138.928 98.6628C138.928 118.771 155.236 135.071 175.353 135.071Z" fill="#A19EA9"/>
<path d="M155.389 258.202H196.593C213.373 274.973 234.931 280.493 234.931 307.985L247.674 461.474C247.674 461.474 206.045 476.547 168.239 476.547C130.432 476.547 102.927 467.843 102.927 467.843L116.945 307.985C116.945 280.493 135.636 277.839 155.389 258.202Z" fill="#F1A71E"/>
<path d="M132.981 185.173H217.727C221.107 185.173 224.348 186.515 226.738 188.903C229.128 191.292 230.471 194.532 230.471 197.91C230.471 201.289 229.128 204.528 226.738 206.917C224.348 209.306 221.107 210.648 217.727 210.648H132.981C129.602 210.648 126.36 209.306 123.97 206.917C121.58 204.528 120.238 201.289 120.238 197.91C120.238 194.532 121.58 191.292 123.97 188.903C126.36 186.515 129.602 185.173 132.981 185.173Z" fill="#B87C63"/>
<path d="M175.354 133.16C186.649 133.16 197.48 137.645 205.467 145.627C213.453 153.61 217.94 164.436 217.94 175.725V196.318C217.94 208.843 211.037 220.838 201.798 229.33C199.054 231.889 196.916 235.027 195.538 238.515C194.16 242.004 193.578 245.756 193.833 249.498L195.107 266.8L175.354 292.063L155.602 266.8L156.876 249.498C157.145 245.754 156.569 241.998 155.191 238.507C153.812 235.016 151.666 231.88 148.911 229.33C139.672 220.838 132.769 208.737 132.769 196.318V175.725C132.755 170.132 133.847 164.59 135.982 159.42C138.117 154.249 141.254 149.551 145.211 145.596C149.168 141.641 153.868 138.506 159.041 136.372C164.214 134.238 169.758 133.146 175.354 133.16Z" fill="#C48469"/>
<path d="M175.142 106.836H177.159C180.159 106.828 183.15 107.148 186.08 107.792C210.93 111.719 226.754 130.507 226.754 167.659C226.754 178.91 221.125 197.911 217.833 197.911L210.824 159.061C210.55 157.546 209.959 156.107 209.089 154.837C208.219 153.567 207.089 152.496 205.775 151.693C204.461 150.891 202.992 150.376 201.464 150.183C199.937 149.989 198.385 150.12 196.912 150.569L187.354 153.541C179.432 155.983 170.958 155.983 163.035 153.541L153.584 150.569C152.104 150.101 150.541 149.954 149 150.139C147.459 150.323 145.976 150.834 144.648 151.638C143.321 152.442 142.181 153.521 141.305 154.801C140.428 156.081 139.835 157.533 139.565 159.061L132.556 197.911C129.264 197.911 123.636 178.804 123.636 167.659C123.742 125.306 144.238 106.836 175.142 106.836Z" fill="#B3AFBB"/>
<g opacity="0.29">
<path opacity="0.29" d="M197.125 217.441C196.011 211.266 193.894 205.314 190.86 199.821" stroke="#B37860" stroke-width="4" stroke-linecap="round" stroke-linejoin="round"/>
<path opacity="0.29" d="M153.478 217.442C154.592 211.266 156.709 205.315 159.744 199.821" stroke="#B37860" stroke-width="4" stroke-linecap="round" stroke-linejoin="round"/>
</g>
<path fill-rule="evenodd" clip-rule="evenodd" d="M111.642 7V57.3345H138.285L111.642 7Z" fill="#FCCB6F"/>
<path fill-rule="evenodd" clip-rule="evenodd" d="M85 39.8958L111.643 90.2302V39.8958H85Z" fill="#FCCB6F"/>
<path d="M259.599 100.284L268.731 91.1459C269.874 90.0023 268.104 88.219 266.956 89.371L257.824 98.5113C256.681 99.6549 258.451 101.438 259.599 100.286V100.284Z" fill="#9DA3B3"/>
<path d="M280.152 89.0982L291.204 99.3423C292.367 100.42 294.143 98.7243 292.987 97.6443L281.934 87.4001C280.771 86.3221 278.995 88.0182 280.152 89.0982Z" fill="#9DA3B3"/>
<path d="M307.185 104.189L323.612 88.5343L325.972 86.2869C327.152 85.161 325.362 83.3732 324.181 84.4969L307.754 100.151L305.395 102.399C304.214 103.524 306.004 105.312 307.185 104.189Z" fill="#9DA3B3"/>
<path d="M261.336 105.031C261.361 107.486 260.39 109.849 258.642 111.585C256.895 113.322 254.518 114.287 252.046 114.262C246.971 114.186 242.897 110.076 242.897 105.032C242.897 99.9875 246.971 95.8772 252.046 95.8009C254.518 95.7764 256.895 96.7411 258.642 98.4777C260.39 100.214 261.361 102.577 261.336 105.033V105.031Z" fill="#87C987"/>
<path d="M283.656 82.5428C283.707 85.8737 281.961 88.9733 279.088 90.6535C276.215 92.3336 272.661 92.3336 269.788 90.6535C266.915 88.9733 265.169 85.8737 265.22 82.5428C265.296 77.4996 269.401 73.4513 274.438 73.4513C279.475 73.4513 283.58 77.4996 283.656 82.5428Z" fill="#F89C55"/>
<path d="M339.944 77.8238C339.868 82.9445 335.763 87.055 330.725 87.055C325.687 87.055 321.582 82.9445 321.505 77.8238C321.582 72.7031 325.687 68.5927 330.725 68.5927C335.763 68.5927 339.868 72.7031 339.944 77.8238Z" fill="#E566A1"/>
<path d="M306.948 106.975C306.948 112.073 302.821 116.206 297.729 116.206C292.637 116.206 288.51 112.073 288.51 106.975C288.51 101.877 292.637 97.7442 297.729 97.7442C300.181 97.7197 302.541 98.6844 304.275 100.421C306.009 102.157 306.973 104.52 306.948 106.975Z" fill="#A6DDE0"/>
<path d="M275.429 276.94C274.074 276.941 272.731 276.679 271.478 276.17C270.225 275.661 269.087 274.916 268.128 273.975C267.169 273.034 266.408 271.918 265.889 270.689C265.37 269.459 265.102 268.142 265.102 266.811V239.782C265.102 237.095 266.189 234.518 268.126 232.618C270.062 230.717 272.688 229.65 275.426 229.65C278.164 229.65 280.79 230.717 282.726 232.618C284.662 234.518 285.75 237.095 285.75 239.782V266.811C285.749 269.497 284.661 272.073 282.726 273.973C280.791 275.872 278.166 276.939 275.429 276.94Z" fill="#42C7BB"/>
<path d="M265.105 253.055V266.812C265.054 268.173 265.283 269.53 265.778 270.802C266.274 272.074 267.025 273.235 267.988 274.216C268.951 275.197 270.106 275.977 271.383 276.509C272.66 277.042 274.034 277.317 275.422 277.317C276.81 277.317 278.183 277.042 279.46 276.509C280.737 275.977 281.892 275.197 282.855 274.216C283.818 273.235 284.57 272.074 285.066 270.802C285.561 269.53 285.79 268.173 285.739 266.812V253.055H265.105Z" fill="#5171C0"/>
<path d="M322.46 255.546C323.466 256.439 324.283 257.517 324.864 258.719C325.446 259.921 325.78 261.224 325.848 262.553C325.917 263.882 325.717 265.212 325.262 266.465C324.807 267.719 324.104 268.872 323.195 269.859L304.729 289.904C303.819 290.891 302.721 291.693 301.496 292.263C300.271 292.834 298.943 293.162 297.589 293.229C296.235 293.296 294.88 293.1 293.603 292.653C292.326 292.206 291.15 291.517 290.145 290.624C289.139 289.732 288.322 288.654 287.74 287.452C287.159 286.249 286.825 284.946 286.757 283.617C286.688 282.288 286.888 280.959 287.343 279.705C287.798 278.452 288.501 277.299 289.41 276.312L307.876 256.267C308.786 255.28 309.884 254.478 311.109 253.907C312.334 253.337 313.662 253.009 315.016 252.942C316.37 252.875 317.725 253.07 319.002 253.517C320.279 253.964 321.454 254.654 322.46 255.546Z" fill="#42C7BB"/>
<path d="M313.798 280.057L323.195 269.856C325.032 267.862 325.986 265.235 325.849 262.55C325.711 259.866 324.492 257.346 322.461 255.543C320.43 253.741 317.752 252.804 315.017 252.939C312.282 253.075 309.713 254.271 307.877 256.264L298.48 266.468L313.798 280.057Z" fill="#5171C0"/>
</g>
<path d="M85.0465 269.462C84.0203 258.924 77.141 249.869 67.2591 246.189L64.3325 245.11L62.5462 244.455C61.71 244.147 60.7788 244.262 60.0567 244.783C59.3346 245.303 58.8975 246.131 58.8975 247.037V272.217C58.8975 273.739 60.1137 274.972 61.615 274.972H82.462C83.9633 274.972 85.1795 273.739 85.1795 272.217C85.1795 271.293 85.1415 270.368 85.0465 269.462Z" fill="#87C3C7"/>
<path d="M62.5465 244.436L58.5938 242.972L53.4818 241.064L50.4792 239.947L45.3672 238.059L38.4119 235.477C36.7015 234.842 34.8772 236.075 34.7822 237.905C34.4971 242.895 30.4113 246.806 25.4704 246.806C21.1375 246.806 17.4128 243.839 16.4056 239.581C15.7215 236.633 13.194 234.591 10.2674 234.591H10.1724C6.69475 234.591 3.86321 237.462 3.86321 240.987V252.855C3.86321 254.416 3.10306 253.221 23.76 274.163C24.2731 274.683 24.9573 274.972 25.6794 274.972H61.6153H64.3329C64.3329 273.739 64.3329 246.517 64.3329 245.13L62.5465 244.436Z" fill="#10847A"/>
<path d="M29.8792 274.375C3.25508 247.384 4.9084 248.867 3.8632 248.482V280.444H27.3897C30.5063 280.463 32.0836 276.629 29.8792 274.375Z" fill="#87C3C7"/>
<path d="M50.4787 239.966L45.5567 250.312C44.9106 251.68 43.2953 252.258 41.946 251.603C40.5968 250.948 40.0267 249.31 40.6728 247.942L45.3667 238.059L50.4787 239.966Z" fill="#EDEDED"/>
<path d="M85.0469 269.463H3.8632V283.295C3.8632 284.817 5.07943 286.051 6.58072 286.051H82.4814C83.9827 286.051 85.1989 284.817 85.1989 283.295V272.218C85.1799 271.293 85.1419 270.368 85.0469 269.463Z" fill="#4A5E81"/>
<path d="M58.5933 242.972L53.6714 253.318C53.0253 254.685 51.3909 255.263 50.0607 254.608C48.7114 253.953 48.1413 252.316 48.7874 250.948L53.4814 241.084L58.5933 242.972Z" fill="#EDEDED"/>
<path fill-rule="evenodd" clip-rule="evenodd" d="M60.7644 130.18H68.4005L56.7085 110L45.0165 130.18H52.6514C52.5412 157.72 50.8184 172.067 31 172.067V180.138C38.08 180.138 43.6994 178.625 48.1787 175.514C51.9246 172.911 54.7264 169.294 56.7085 164.486C58.6904 169.294 61.4919 172.912 65.2384 175.514C69.7177 178.625 75.3358 180.138 82.4158 180.138V172.067C62.5971 172.067 60.8746 157.72 60.7644 130.18Z" fill="#EB8231"/>
</svg>
