<svg width="401" height="319" viewBox="0 0 401 319" fill="none" xmlns="http://www.w3.org/2000/svg">
<path d="M158.371 302.394H352.871V10H158.371V302.394Z" fill="white"/>
<path d="M173.678 302.786H338.851V24.7104H173.678V302.786Z" fill="#CC3F45"/>
<path d="M297.035 174.202H317.943V154.339H297.035V174.202Z" fill="#E2950C"/>
<path d="M297.245 168.975H282.191C279.18 168.975 277.173 166.885 277.173 163.748C277.173 160.612 279.18 158.521 282.191 158.521H297.245C300.255 158.521 302.262 160.612 302.262 163.748C302.262 166.885 300.255 168.975 297.245 168.975Z" fill="#F5B33C"/>
<path d="M194.586 117.751H317.943V45.6182H194.586V117.751Z" fill="#7EC8CC"/>
<g opacity="0.17">
<path d="M225.362 50.8146C225.362 53.9059 223.301 55.9666 220.21 55.9666C217.118 55.9666 215.058 53.9059 215.058 50.8146C215.058 47.7233 217.118 45.6626 220.21 45.6626C223.301 45.6626 225.362 47.7233 225.362 50.8146Z" fill="#AFDDDF"/>
<path d="M256.274 50.8146C256.274 53.9059 254.213 55.9666 251.122 55.9666C248.03 55.9666 245.97 53.9059 245.97 50.8146C245.97 47.7233 248.03 45.6626 251.122 45.6626C254.213 45.6626 256.274 47.7233 256.274 50.8146Z" fill="#AFDDDF"/>
<path d="M287.186 50.8146C287.186 53.9059 285.125 55.9666 282.034 55.9666C278.943 55.9666 276.882 53.9059 276.882 50.8146C276.882 47.7233 278.943 45.6626 282.034 45.6626C285.125 45.6626 287.186 47.7233 287.186 50.8146Z" fill="#AFDDDF"/>
<path d="M318.098 50.8146C318.098 53.9059 316.037 55.9666 312.946 55.9666C309.855 55.9666 307.794 53.9059 307.794 50.8146C307.794 47.7233 309.855 45.6626 312.946 45.6626C316.037 45.6626 318.098 47.7233 318.098 50.8146Z" fill="#AFDDDF"/>
<path d="M209.906 66.2706C209.906 69.3619 207.845 71.4226 204.754 71.4226C201.662 71.4226 199.602 69.3619 199.602 66.2706C199.602 63.1792 201.662 61.1185 204.754 61.1185C207.845 61.1185 209.906 63.1792 209.906 66.2706Z" fill="#AFDDDF"/>
<path d="M240.818 66.2706C240.818 69.3619 238.757 71.4226 235.666 71.4226C232.574 71.4226 230.514 69.3619 230.514 66.2706C230.514 63.1792 232.574 61.1185 235.666 61.1185C238.757 61.1185 240.818 63.1792 240.818 66.2706Z" fill="#AFDDDF"/>
<path d="M209.906 97.1823C209.906 100.274 207.845 102.334 204.754 102.334C201.662 102.334 199.602 100.274 199.602 97.1823C199.602 94.091 201.662 92.0303 204.754 92.0303C207.845 92.0303 209.906 94.0916 209.906 97.1823Z" fill="#AFDDDF"/>
<path d="M240.818 97.1823C240.818 100.274 238.757 102.334 235.666 102.334C232.574 102.334 230.514 100.274 230.514 97.1823C230.514 94.091 232.574 92.0303 235.666 92.0303C238.757 92.0303 240.818 94.0916 240.818 97.1823Z" fill="#AFDDDF"/>
<path d="M225.362 81.7264C225.362 84.8177 223.301 86.8784 220.21 86.8784C217.118 86.8784 215.058 84.8177 215.058 81.7264C215.058 78.635 217.118 76.5743 220.21 76.5743C223.301 76.5749 225.362 78.6356 225.362 81.7264Z" fill="#AFDDDF"/>
<path d="M256.274 81.7264C256.274 84.8177 254.213 86.8784 251.122 86.8784C248.03 86.8784 245.97 84.8177 245.97 81.7264C245.97 78.635 248.03 76.5743 251.122 76.5743C254.213 76.5743 256.274 78.6356 256.274 81.7264Z" fill="#AFDDDF"/>
<path d="M225.362 112.638C225.362 115.73 223.301 117.79 220.21 117.79C217.118 117.79 215.058 115.73 215.058 112.638C215.058 109.547 217.118 107.486 220.21 107.486C223.301 107.486 225.362 109.547 225.362 112.638Z" fill="#AFDDDF"/>
<path d="M256.274 112.638C256.274 115.73 254.213 117.79 251.122 117.79C248.03 117.79 245.97 115.73 245.97 112.638C245.97 109.547 248.03 107.486 251.122 107.486C254.213 107.486 256.274 109.547 256.274 112.638Z" fill="#AFDDDF"/>
<path d="M271.73 66.2706C271.73 69.3619 269.669 71.4226 266.578 71.4226C263.486 71.4226 261.426 69.3619 261.426 66.2706C261.426 63.1792 263.486 61.1185 266.578 61.1185C269.669 61.1185 271.73 63.1792 271.73 66.2706Z" fill="#AFDDDF"/>
<path d="M302.642 66.2706C302.642 69.3619 300.581 71.4226 297.49 71.4226C294.399 71.4226 292.338 69.3619 292.338 66.2706C292.338 63.1792 294.399 61.1185 297.49 61.1185C300.581 61.1185 302.642 63.1792 302.642 66.2706Z" fill="#AFDDDF"/>
<path d="M271.73 97.1823C271.73 100.274 269.669 102.334 266.578 102.334C263.486 102.334 261.426 100.274 261.426 97.1823C261.426 94.091 263.486 92.0303 266.578 92.0303C269.669 92.0303 271.73 94.0916 271.73 97.1823Z" fill="#AFDDDF"/>
<path d="M302.642 97.1823C302.642 100.274 300.581 102.334 297.49 102.334C294.399 102.334 292.338 100.274 292.338 97.1823C292.338 94.091 294.399 92.0303 297.49 92.0303C300.581 92.0303 302.642 94.0916 302.642 97.1823Z" fill="#AFDDDF"/>
<path d="M287.186 81.7264C287.186 84.8177 285.125 86.8784 282.034 86.8784C278.943 86.8784 276.882 84.8177 276.882 81.7264C276.882 78.635 278.943 76.5743 282.034 76.5743C285.125 76.5743 287.186 78.6356 287.186 81.7264Z" fill="#AFDDDF"/>
<path d="M318.098 81.7264C318.098 84.8177 316.037 86.8784 312.946 86.8784C309.855 86.8784 307.794 84.8177 307.794 81.7264C307.794 78.635 309.855 76.5743 312.946 76.5743C316.037 76.5749 318.098 78.6356 318.098 81.7264Z" fill="#AFDDDF"/>
<path d="M287.186 112.638C287.186 115.73 285.125 117.79 282.034 117.79C278.943 117.79 276.882 115.73 276.882 112.638C276.882 109.547 278.943 107.486 282.034 107.486C285.125 107.486 287.186 109.547 287.186 112.638Z" fill="#AFDDDF"/>
<path d="M318.098 112.638C318.098 115.73 316.037 117.79 312.946 117.79C309.855 117.79 307.794 115.73 307.794 112.638C307.794 109.547 309.855 107.486 312.946 107.486C316.037 107.486 318.098 109.547 318.098 112.638Z" fill="#AFDDDF"/>
</g>
<path d="M395.377 308.013H117.152C114.061 308.013 112 306.131 112 303.309C112 300.486 114.061 298.604 117.152 298.604H395.377C398.469 298.604 400.53 300.486 400.53 303.309C400.53 306.131 398.469 308.013 395.377 308.013Z" fill="#681C1F"/>
<path fill-rule="evenodd" clip-rule="evenodd" d="M83.8955 159.834V178.507H83.8944H71V159.834C71 140.075 87.2132 124 107.141 124V136.786C94.3228 136.786 83.8955 147.124 83.8955 159.834Z" fill="#4A5E81"/>
<path fill-rule="evenodd" clip-rule="evenodd" d="M130.386 178.508V159.834C130.386 147.125 119.959 136.786 107.141 136.786V124C127.069 124 143.282 140.075 143.282 159.834V178.507H143.281L130.386 178.508Z" fill="#4A5E81"/>
<path d="M160 264C187.614 264 210 241.614 210 214C210 186.386 187.614 164 160 164C132.386 164 110 186.386 110 214C110 241.614 132.386 264 160 264Z" fill="#24334F"/>
<path d="M160.07 229.099C155.632 229.099 152 225.6 152 221.324V205.775C152 201.499 155.632 198 160.07 198C164.509 198 168.14 201.499 168.14 205.775V221.324C168.14 225.6 164.509 229.099 160.07 229.099Z" fill="#6279A1"/>
</svg>
