<svg width="302" height="232" viewBox="0 0 302 232" fill="none" xmlns="http://www.w3.org/2000/svg">
<path d="M36 227H187V0H36V227Z" fill="white"/>
<path d="M47.8841 227.304H176.116V11.4203H47.8841V227.304Z" fill="#CC3F45"/>
<path d="M143.652 127.478H159.884V112.058H143.652V127.478Z" fill="#E2950C"/>
<path d="M143.815 123.42H132.128C129.79 123.42 128.232 121.797 128.232 119.362C128.232 116.927 129.79 115.304 132.128 115.304H143.815C146.152 115.304 147.71 116.927 147.71 119.362C147.71 121.797 146.152 123.42 143.815 123.42Z" fill="#F5B33C"/>
<path d="M64.1159 83.6522H159.884V27.6522H64.1159V83.6522Z" fill="#7EC8CC"/>
<g opacity="0.17">
<path d="M88.0083 31.6863C88.0083 34.0862 86.4084 35.6861 84.0085 35.6861C81.6085 35.6861 80.0087 34.0862 80.0087 31.6863C80.0087 29.2863 81.6085 27.6865 84.0085 27.6865C86.4084 27.6865 88.0083 29.2863 88.0083 31.6863Z" fill="#AFDDDF"/>
<path d="M112.007 31.6863C112.007 34.0862 110.407 35.6861 108.007 35.6861C105.607 35.6861 104.007 34.0862 104.007 31.6863C104.007 29.2863 105.607 27.6865 108.007 27.6865C110.407 27.6865 112.007 29.2863 112.007 31.6863Z" fill="#AFDDDF"/>
<path d="M136.005 31.6863C136.005 34.0862 134.406 35.6861 132.006 35.6861C129.606 35.6861 128.006 34.0862 128.006 31.6863C128.006 29.2863 129.606 27.6865 132.006 27.6865C134.406 27.6865 136.005 29.2863 136.005 31.6863Z" fill="#AFDDDF"/>
<path d="M160.004 31.6863C160.004 34.0862 158.404 35.6861 156.004 35.6861C153.604 35.6861 152.005 34.0862 152.005 31.6863C152.005 29.2863 153.604 27.6865 156.004 27.6865C158.404 27.6865 160.004 29.2863 160.004 31.6863Z" fill="#AFDDDF"/>
<path d="M76.0089 43.6856C76.0089 46.0855 74.4091 47.6853 72.0092 47.6853C69.6092 47.6853 68.0094 46.0855 68.0094 43.6856C68.0094 41.2856 69.6092 39.6858 72.0092 39.6858C74.4091 39.6858 76.0089 41.2856 76.0089 43.6856Z" fill="#AFDDDF"/>
<path d="M100.008 43.6856C100.008 46.0855 98.4077 47.6853 96.0078 47.6853C93.6078 47.6853 92.008 46.0855 92.008 43.6856C92.008 41.2856 93.6078 39.6858 96.0078 39.6858C98.4077 39.6858 100.008 41.2856 100.008 43.6856Z" fill="#AFDDDF"/>
<path d="M76.0089 67.6837C76.0089 70.0837 74.4091 71.6835 72.0092 71.6835C69.6092 71.6835 68.0094 70.0837 68.0094 67.6837C68.0094 65.2838 69.6092 63.684 72.0092 63.684C74.4091 63.684 76.0089 65.2842 76.0089 67.6837Z" fill="#AFDDDF"/>
<path d="M100.008 67.6837C100.008 70.0837 98.4077 71.6835 96.0078 71.6835C93.6078 71.6835 92.008 70.0837 92.008 67.6837C92.008 65.2838 93.6078 63.684 96.0078 63.684C98.4077 63.684 100.008 65.2842 100.008 67.6837Z" fill="#AFDDDF"/>
<path d="M88.0083 55.6845C88.0083 58.0844 86.4084 59.6842 84.0085 59.6842C81.6085 59.6842 80.0087 58.0844 80.0087 55.6845C80.0087 53.2845 81.6085 51.6847 84.0085 51.6847C86.4084 51.6852 88.0083 53.285 88.0083 55.6845Z" fill="#AFDDDF"/>
<path d="M112.007 55.6845C112.007 58.0844 110.407 59.6842 108.007 59.6842C105.607 59.6842 104.007 58.0844 104.007 55.6845C104.007 53.2845 105.607 51.6847 108.007 51.6847C110.407 51.6847 112.007 53.285 112.007 55.6845Z" fill="#AFDDDF"/>
<path d="M88.0083 79.6831C88.0083 82.0831 86.4084 83.6829 84.0085 83.6829C81.6085 83.6829 80.0087 82.0831 80.0087 79.6831C80.0087 77.2832 81.6085 75.6833 84.0085 75.6833C86.4084 75.6833 88.0083 77.2836 88.0083 79.6831Z" fill="#AFDDDF"/>
<path d="M112.007 79.6831C112.007 82.0831 110.407 83.6829 108.007 83.6829C105.607 83.6829 104.007 82.0831 104.007 79.6831C104.007 77.2832 105.607 75.6833 108.007 75.6833C110.407 75.6833 112.007 77.2836 112.007 79.6831Z" fill="#AFDDDF"/>
<path d="M124.006 43.6856C124.006 46.0855 122.406 47.6853 120.006 47.6853C117.606 47.6853 116.007 46.0855 116.007 43.6856C116.007 41.2856 117.606 39.6858 120.006 39.6858C122.406 39.6858 124.006 41.2856 124.006 43.6856Z" fill="#AFDDDF"/>
<path d="M148.005 43.6856C148.005 46.0855 146.405 47.6853 144.005 47.6853C141.605 47.6853 140.005 46.0855 140.005 43.6856C140.005 41.2856 141.605 39.6858 144.005 39.6858C146.405 39.6858 148.005 41.2856 148.005 43.6856Z" fill="#AFDDDF"/>
<path d="M124.006 67.6837C124.006 70.0837 122.406 71.6835 120.006 71.6835C117.606 71.6835 116.007 70.0837 116.007 67.6837C116.007 65.2838 117.606 63.684 120.006 63.684C122.406 63.684 124.006 65.2842 124.006 67.6837Z" fill="#AFDDDF"/>
<path d="M148.005 67.6837C148.005 70.0837 146.405 71.6835 144.005 71.6835C141.605 71.6835 140.005 70.0837 140.005 67.6837C140.005 65.2838 141.605 63.684 144.005 63.684C146.405 63.684 148.005 65.2842 148.005 67.6837Z" fill="#AFDDDF"/>
<path d="M136.005 55.6845C136.005 58.0844 134.406 59.6842 132.006 59.6842C129.606 59.6842 128.006 58.0844 128.006 55.6845C128.006 53.2845 129.606 51.6847 132.006 51.6847C134.406 51.6847 136.005 53.285 136.005 55.6845Z" fill="#AFDDDF"/>
<path d="M160.004 55.6845C160.004 58.0844 158.404 59.6842 156.004 59.6842C153.604 59.6842 152.005 58.0844 152.005 55.6845C152.005 53.2845 153.604 51.6847 156.004 51.6847C158.404 51.6852 160.004 53.285 160.004 55.6845Z" fill="#AFDDDF"/>
<path d="M136.005 79.6831C136.005 82.0831 134.406 83.6829 132.006 83.6829C129.606 83.6829 128.006 82.0831 128.006 79.6831C128.006 77.2832 129.606 75.6833 132.006 75.6833C134.406 75.6833 136.005 77.2836 136.005 79.6831Z" fill="#AFDDDF"/>
<path d="M160.004 79.6831C160.004 82.0831 158.404 83.6829 156.004 83.6829C153.604 83.6829 152.005 82.0831 152.005 79.6831C152.005 77.2832 153.604 75.6833 156.004 75.6833C158.404 75.6833 160.004 77.2836 160.004 79.6831Z" fill="#AFDDDF"/>
</g>
<path d="M220 231.362H4.00002C1.59991 231.362 0 229.902 0 227.71C0 225.519 1.59991 224.058 4.00002 224.058H220C222.4 224.058 224 225.519 224 227.71C224 229.902 222.4 231.362 220 231.362Z" fill="#681C1F"/>
<path d="M177.456 79.9157L192.444 64.7483C194.321 62.8502 191.415 59.8903 189.532 61.8023L174.543 76.9732C172.667 78.8712 175.572 81.8312 177.456 79.9192V79.9157Z" fill="#777F95"/>
<path d="M251.989 85.7678L278.461 60.5278L282.263 56.9041C284.165 55.0888 281.281 52.2062 279.378 54.0181L252.906 79.2581L249.104 82.8817C247.202 84.697 250.086 87.5796 251.989 85.7678Z" fill="#777F95"/>
<path d="M205.681 57.7457L230.855 84.2875L234.469 88.0997C236.279 90.0074 239.154 87.1151 237.347 85.2074L212.174 58.6655L208.56 54.8534C206.749 52.9456 203.874 55.8379 205.681 57.7457Z" fill="#777F95"/>
<path d="M179.67 85.3739C179.709 89.2355 178.199 92.9501 175.482 95.6808C172.765 98.4115 169.068 99.9285 165.226 99.89C157.335 99.77 151 93.307 151 85.3755C151 77.4441 157.335 70.981 165.226 70.8611C169.068 70.8225 172.765 72.3395 175.482 75.0702C178.199 77.8009 179.709 81.5156 179.67 85.3772V85.3739Z" fill="#7692D9"/>
<path d="M214.956 54.3718C215.035 59.6093 212.32 64.4832 207.853 67.1251C203.386 69.767 197.86 69.767 193.392 67.1251C188.925 64.4832 186.211 59.6093 186.289 54.3718C186.407 46.4418 192.79 40.0762 200.623 40.0762C208.455 40.0762 214.838 46.4418 214.956 54.3718V54.3718Z" fill="#EFA0C5"/>
<path d="M302 47.5152C301.882 55.5669 295.498 62.0303 287.665 62.0303C279.831 62.0303 273.448 55.5669 273.329 47.5152C273.448 39.4634 279.831 33 287.665 33C295.498 33 301.882 39.4634 302 47.5152Z" fill="#9ACCAB"/>
<path d="M252.303 89.2466C252.303 97.2629 245.885 103.761 237.968 103.761C230.051 103.761 223.633 97.2629 223.633 89.2466C223.633 81.2303 230.051 74.7318 237.968 74.7318C241.781 74.6932 245.45 76.2101 248.146 78.9406C250.843 81.671 252.341 85.3854 252.303 89.2466Z" fill="#75E2D8"/>
</svg>
