<svg width="401" height="319" viewBox="0 0 401 319" fill="none" xmlns="http://www.w3.org/2000/svg">
<g clip-path="url(#clip0)">
<path d="M283.396 52.6235L293.819 42.0767C295.124 40.7568 293.103 38.6986 291.793 40.0281L281.371 50.5774C280.066 51.8973 282.087 53.9555 283.396 52.626V52.6235Z" fill="#9DA3B3"/>
<path d="M335.224 56.6928L353.632 39.1418L356.275 36.622C357.598 35.3597 355.593 33.3553 354.27 34.6151L335.862 52.1661L333.218 54.6859C331.895 55.9482 333.901 57.9527 335.224 56.6928Z" fill="#9DA3B3"/>
<path d="M303.023 37.2073L320.528 55.6635L323.041 58.3143C324.3 59.6409 326.299 57.6297 325.043 56.3031L307.538 37.8469L305.025 35.1961C303.766 33.8695 301.767 35.8807 303.023 37.2073Z" fill="#9DA3B3"/>
<path d="M284.936 56.4188C284.963 59.1041 283.913 61.6871 282.024 63.5859C280.134 65.4848 277.564 66.5396 274.892 66.5128C269.405 66.4294 265 61.9352 265 56.42C265 50.9048 269.405 46.4106 274.892 46.3272C277.564 46.3004 280.134 47.3552 282.024 49.254C283.913 51.1529 284.963 53.7359 284.936 56.4211V56.4188Z" fill="#E566A1"/>
<path d="M309.473 34.8611C309.527 38.5031 307.64 41.8922 304.533 43.7293C301.427 45.5663 297.584 45.5663 294.478 43.7293C291.372 41.8922 289.484 38.5031 289.539 34.8611C289.621 29.3469 294.059 24.9204 299.506 24.9204C304.952 24.9204 309.391 29.3469 309.473 34.8611Z" fill="#7B67B3"/>
<path d="M370 30.0933C369.918 35.6922 365.479 40.1867 360.032 40.1867C354.584 40.1867 350.146 35.6922 350.063 30.0933C350.146 24.4944 354.584 20 360.032 20C365.479 20 369.918 24.4944 370 30.0933Z" fill="#6DB585"/>
<path d="M335.443 59.1119C335.443 64.6861 330.98 69.205 325.474 69.205C319.969 69.205 315.506 64.6861 315.506 59.1119C315.506 53.5376 319.969 49.0188 325.474 49.0188C328.126 48.992 330.677 50.0468 332.552 51.9454C334.427 53.8441 335.469 56.4269 335.443 59.1119Z" fill="#24AB9F"/>
<path fill-rule="evenodd" clip-rule="evenodd" d="M307.63 93.4423C313.926 99.8419 320.222 106.241 326.518 112.641C330.203 116.386 335.922 110.576 332.236 106.829C325.94 100.43 319.644 94.03 313.347 87.6304C309.663 83.8851 303.943 89.6956 307.63 93.4423Z" fill="#181F2B"/>
<path opacity="0.5" fill-rule="evenodd" clip-rule="evenodd" d="M324.974 54.987C324.974 67.2701 320.188 78.8189 311.504 87.5095H311.498C308.083 90.9246 304.173 93.7705 299.883 95.9615C293.378 99.2909 286.347 100.974 278.985 100.974C261.622 100.974 245.919 91.3652 238.012 75.8873C236.348 72.6314 235.094 69.2531 234.255 65.7585C233.422 62.2638 233 58.6652 233 54.987C233 50.7396 233.581 46.5228 234.739 42.4406C236.513 36.1736 239.537 30.4634 243.734 25.4571C252.504 14.9978 265.355 9 278.985 9C286.34 9 293.371 10.6892 299.883 14.0185C313.756 21.1118 323.034 34.5578 324.699 49.9807V49.9929C324.883 51.6576 324.974 53.3406 324.974 54.987Z" fill="white"/>
<path d="M324.974 54.987C324.974 67.2701 320.188 78.8189 311.504 87.5095H311.498C308.083 90.9246 304.173 93.7705 299.883 95.9615C293.378 99.2909 286.347 100.974 278.985 100.974C261.622 100.974 245.919 91.3652 238.012 75.8873C236.348 72.6314 235.094 69.2531 234.255 65.7585C233.422 62.2638 233 58.6652 233 54.987C233 50.7396 233.581 46.5228 234.739 42.4406C236.513 36.1736 239.537 30.4634 243.734 25.4571C252.504 14.9978 265.355 9 278.985 9C286.34 9 293.371 10.6892 299.883 14.0185C313.756 21.1118 323.034 34.5578 324.699 49.9807V49.9929C324.883 51.6576 324.974 53.3406 324.974 54.987" stroke="#313F56" stroke-width="7"/>
<path fill-rule="evenodd" clip-rule="evenodd" d="M383 144.412L364.568 162.982L321.505 119.609L330.556 110.499L339.943 101.045L383 144.412Z" fill="#F1A86F"/>
<path d="M269.595 327.255C269.595 362.82 228.455 292.106 177.708 292.106C126.961 292.106 85.8213 362.82 85.8213 327.255C85.807 18 126.946 18 177.694 18C228.442 18 269.595 18 269.595 328.061" fill="#3A3E47"/>
<path d="M177.408 123.972C150.627 123.972 128.428 141.671 115.332 172.557C127.743 211.916 150.232 246.04 177.408 246.04C204.585 246.04 227.673 211.438 240.084 172.085C226.993 141.194 204.194 123.972 177.408 123.972" fill="#2B2C2E"/>
<path d="M269.595 291.398C269.595 315.289 228.434 334.574 177.66 334.574C126.886 334.574 92.5284 284.985 92.5284 261.094C92.5284 237.203 126.871 228.602 177.641 228.602C228.409 228.602 262.752 235.253 262.752 259.14" fill="#FCFCFC"/>
<path d="M152.892 229.943C152.892 229.943 177.706 246.071 205.207 229.943L182.461 334.498C182.461 334.498 179.731 337.686 175.733 334.498C171.736 331.309 152.892 229.943 152.892 229.943Z" fill="#8EC9D8"/>
<path d="M152.892 199.091H205.207V244.699H152.892V199.091Z" fill="url(#paint0_linear)"/>
<path d="M97.1523 247.382C97.1523 247.382 -2.86985 511.64 179.098 511.64C361.067 511.64 260.834 247.382 260.834 247.382L179.098 348.037L97.1523 247.382Z" fill="#FCFCFC"/>
<path d="M257.522 144.093C257.522 156.702 250.916 166.897 242.767 166.897C234.617 166.897 228.011 156.678 228.011 144.093C228.011 131.508 234.617 121.289 242.767 121.289C250.916 121.289 257.522 131.508 257.522 144.093Z" fill="#63493D"/>
<path d="M127.405 144.093C127.405 156.702 120.799 166.897 112.65 166.897C104.5 166.897 97.894 156.678 97.894 144.093C97.894 131.508 104.5 121.289 112.65 121.289C120.799 121.289 127.405 131.508 127.405 144.093Z" fill="#63493D"/>
<path d="M177.72 217.871C141.935 217.871 112.65 181.428 112.65 148.107V93.3397C112.65 60.018 141.93 32.7556 177.72 32.7556C213.51 32.7556 242.767 60.018 242.767 93.3397V148.131C242.767 181.447 213.505 217.871 177.72 217.871Z" fill="#7A5849"/>
<path d="M179.951 65.8726C209.319 106.775 250.875 114.582 250.875 114.582C250.875 114.582 267.628 18 179.951 18C92.2739 18 108.461 114.582 108.461 114.582C137.364 114.582 179.951 65.8726 179.951 65.8726Z" fill="#3A3E47"/>
<path d="M96.2854 241.502C105.101 233.903 118.408 234.89 126.006 243.705L142.279 262.584C149.877 271.399 148.891 284.706 140.075 292.305L29.7521 387.399C20.9368 394.997 7.62987 394.011 0.0310998 385.195L-16.2412 366.317C-23.84 357.501 -22.8531 344.194 -14.0378 336.596L96.2854 241.502Z" fill="#FCFCFC"/>
<path d="M364.099 336.603C372.915 344.202 373.901 357.508 366.302 366.324L350.03 385.202C342.431 394.018 329.125 395.004 320.309 387.406L209.986 292.311C201.171 284.713 200.184 271.406 207.782 262.59L224.055 243.712C231.654 234.896 244.96 233.91 253.776 241.509L364.099 336.603Z" fill="#FCFCFC"/>
<path d="M153.063 227.851L178.305 331.84C178.497 332.483 178.205 333.171 177.606 333.487C177.006 333.803 176.265 333.661 175.829 333.147L135.603 290.324C135.143 289.843 135.082 289.113 135.455 288.564L141.713 279.128C141.946 278.789 142.019 278.366 141.911 277.969C141.804 277.573 141.527 277.242 141.154 277.062L118.803 265.942C118.161 265.631 117.849 264.901 118.072 264.23L128.508 231.677C128.594 231.405 128.76 231.165 128.986 230.988C131.08 229.379 142.282 221.416 152.374 226.903C152.726 227.111 152.976 227.454 153.063 227.851Z" fill="#DCDBDB"/>
<path d="M205.011 227.429L179.779 331.418C179.587 332.061 179.879 332.749 180.478 333.065C181.077 333.381 181.818 333.239 182.254 332.725L222.488 289.901C222.947 289.421 223.009 288.691 222.636 288.142L216.38 278.706C216.147 278.366 216.075 277.943 216.182 277.547C216.289 277.151 216.566 276.819 216.939 276.64L239.281 265.52C239.923 265.209 240.235 264.478 240.012 263.807L229.58 231.255C229.494 230.983 229.327 230.743 229.102 230.566C227.008 228.957 215.812 220.994 205.723 226.48C205.362 226.684 205.104 227.028 205.011 227.429Z" fill="#DCDBDB"/>
<mask id="mask0" mask-type="alpha" maskUnits="userSpaceOnUse" x="11" y="-7" width="372" height="358">
<rect width="372" height="358" transform="translate(11 -7)" fill="white"/>
</mask>
<g mask="url(#mask0)">
</g>
</g>
<defs>
<linearGradient id="paint0_linear" x1="179.05" y1="254.789" x2="179.05" y2="221.895" gradientUnits="userSpaceOnUse">
<stop stop-color="#7A5849"/>
<stop offset="1" stop-color="#574137"/>
</linearGradient>
<clipPath id="clip0">
<rect width="401" height="319" fill="white"/>
</clipPath>
</defs>
</svg>
