<svg width="444" height="443" viewBox="0 0 444 443" fill="none" xmlns="http://www.w3.org/2000/svg">
<mask id="mask0" mask-type="alpha" maskUnits="userSpaceOnUse" x="6" y="46" width="415" height="397">
<rect x="6" y="46" width="414.884" height="396.467" fill="#C4C4C4"/>
</mask>
<g mask="url(#mask0)">
<path d="M85.7664 625.867L112.061 423.796C112.646 420.313 113.936 416.987 115.854 414.021C117.771 411.055 120.274 408.512 123.21 406.547C126.146 404.583 129.453 403.239 132.927 402.597C136.401 401.956 139.97 402.031 143.414 402.818C146.858 403.604 150.105 405.086 152.956 407.172C155.807 409.258 158.201 411.904 159.992 414.948C161.783 417.992 162.933 421.369 163.371 424.873C163.809 428.378 163.527 431.934 162.54 435.325L110.324 616.57L97.4251 673.224C96.7606 676.207 95.0663 678.861 92.6395 680.72C90.2127 682.578 87.2085 683.524 84.154 683.39C80.978 683.197 77.974 681.881 75.6791 679.678C73.3842 677.475 71.9479 674.529 71.6271 671.364L70.6348 662.81C68.2783 637.025 85.7664 625.867 85.7664 625.867Z" fill="#C48469"/>
<path d="M334.444 625.867L308.15 423.796C307.565 420.313 306.274 416.987 304.357 414.021C302.44 411.055 299.936 408.512 297 406.547C294.065 404.583 290.758 403.239 287.284 402.597C283.81 401.956 280.241 402.031 276.797 402.818C273.352 403.604 270.105 405.086 267.255 407.172C264.404 409.258 262.01 411.904 260.219 414.948C258.428 417.992 257.278 421.369 256.84 424.873C256.401 428.378 256.684 431.934 257.67 435.325L309.887 616.57L322.91 673.224C323.574 676.207 325.269 678.861 327.695 680.72C330.122 682.578 333.126 683.524 336.181 683.39C339.357 683.197 342.361 681.881 344.656 679.678C346.951 677.475 348.387 674.529 348.708 671.364L349.7 662.81C352.057 637.025 334.444 625.867 334.444 625.867Z" fill="#C48469"/>
<path d="M206.694 346.934H230.88C267.221 346.934 297.484 362.182 304.305 392.555C308.274 410.159 317.204 445.243 317.204 445.243H203.842L206.694 346.934Z" fill="#F1A71E"/>
<path d="M213.516 346.934H189.33C152.989 346.934 122.726 362.182 115.905 392.555C111.936 410.159 103.006 445.243 103.006 445.243H216.368L213.516 346.934Z" fill="#F1A71E"/>
<path d="M210.167 203.128C233.662 203.128 252.709 184.091 252.709 160.607C252.709 137.122 233.662 118.085 210.167 118.085C186.672 118.085 167.625 137.122 167.625 160.607C167.625 184.091 186.672 203.128 210.167 203.128Z" fill="#A19EA9"/>
<path d="M186.85 346.934H234.973C254.57 366.521 279.748 372.968 279.748 405.076L294.631 584.337C294.631 584.337 246.012 601.941 201.857 601.941C157.703 601.941 125.579 591.775 125.579 591.775L141.951 405.076C141.951 372.968 163.78 369.869 186.85 346.934Z" fill="#F1A71E"/>
<path d="M160.68 261.642H259.655C263.603 261.642 267.388 263.209 270.18 265.999C272.971 268.789 274.539 272.573 274.539 276.519C274.539 280.464 272.971 284.248 270.18 287.038C267.388 289.828 263.603 291.395 259.655 291.395H160.68C156.733 291.395 152.947 289.828 150.156 287.038C147.365 284.248 145.797 280.464 145.797 276.519C145.797 272.573 147.365 268.789 150.156 265.999C152.947 263.209 156.733 261.642 160.68 261.642Z" fill="#B87C63"/>
<path d="M210.168 200.896C223.359 200.896 236.009 206.134 245.336 215.457C254.664 224.78 259.904 237.424 259.904 250.608V274.659C259.904 289.287 251.842 303.296 241.051 313.213C237.847 316.202 235.35 319.867 233.741 323.941C232.132 328.016 231.451 332.398 231.749 336.768L233.237 356.975L210.168 386.48L187.099 356.975L188.587 336.768C188.901 332.396 188.229 328.009 186.619 323.932C185.009 319.855 182.502 316.192 179.285 313.213C168.494 303.296 160.432 289.163 160.432 274.659V250.608C160.416 244.076 161.691 237.604 164.185 231.565C166.678 225.526 170.341 220.04 174.963 215.42C179.585 210.801 185.074 207.14 191.116 204.647C197.157 202.155 203.632 200.88 210.168 200.896Z" fill="#C48469"/>
<path d="M209.919 170.153H212.276C215.779 170.143 219.273 170.517 222.694 171.269C251.717 175.855 270.198 197.798 270.198 241.188C270.198 254.329 263.624 276.519 259.779 276.519L251.593 231.146C251.274 229.377 250.583 227.696 249.567 226.213C248.551 224.73 247.232 223.479 245.697 222.542C244.162 221.605 242.446 221.003 240.662 220.777C238.878 220.551 237.066 220.705 235.345 221.229L224.183 224.7C214.93 227.551 205.033 227.551 195.78 224.7L184.742 221.229C183.013 220.682 181.189 220.511 179.389 220.726C177.589 220.941 175.856 221.538 174.306 222.477C172.756 223.416 171.425 224.676 170.401 226.171C169.377 227.666 168.684 229.362 168.37 231.146L160.184 276.519C156.339 276.519 149.765 254.205 149.765 241.188C149.889 191.724 173.827 170.153 209.919 170.153Z" fill="#B3AFBB"/>
<g opacity="0.29">
<path opacity="0.29" d="M235.594 299.329C234.293 292.117 231.821 285.166 228.277 278.75" stroke="#B37860" stroke-width="4" stroke-linecap="round" stroke-linejoin="round"/>
<path opacity="0.29" d="M184.618 299.33C185.92 292.117 188.392 285.166 191.936 278.75" stroke="#B37860" stroke-width="4" stroke-linecap="round" stroke-linejoin="round"/>
</g>
</g>
<path d="M429.11 66.9501C433.202 61.1048 435.407 54.156 435.407 46.8806C435.407 27.5495 419.703 11.8232 400.4 11.8232C394.061 11.8232 387.853 13.5582 382.458 16.7812C372.332 6.05629 358.396 0 343.478 0C313.844 0 289.736 24.1442 289.736 53.8213C289.736 58.6775 290.382 63.4623 291.661 68.1049C279.112 74.588 271 87.6321 271 102.071C271 123.148 288.121 140.293 309.165 140.293C314.197 140.293 319.179 139.292 323.8 137.37C330.97 145.01 341.071 149.46 351.639 149.46C358.31 149.46 364.754 147.746 370.484 144.474C377.918 148.799 386.32 151.068 394.999 151.068C421.977 151.068 443.924 129.088 443.924 102.071C443.924 88.6577 438.587 76.1421 429.11 66.9501Z" fill="#4DB3B9"/>
<path d="M297.603 180.013C299.426 176.692 303.6 175.476 306.926 177.296C310.252 179.117 311.469 183.285 309.646 186.606C307.823 189.927 303.648 191.143 300.323 189.323C296.997 187.502 295.779 183.334 297.603 180.013Z" fill="#4DB3B9"/>
<path d="M287.327 197.28C288.73 194.726 291.94 193.79 294.499 195.19C297.057 196.591 297.994 199.797 296.591 202.351C295.188 204.906 291.978 205.842 289.419 204.441C286.861 203.041 285.924 199.835 287.327 197.28Z" fill="#4DB3B9"/>
<path d="M308.132 156.073C310.762 151.285 316.795 149.538 321.608 152.173C326.421 154.808 328.192 160.826 325.562 165.615C322.933 170.403 316.899 172.15 312.086 169.515C307.273 166.88 305.503 160.862 308.132 156.073Z" fill="#4DB3B9"/>
<path d="M10.4311 217.14C7.54964 213.024 5.99689 208.131 5.99689 203.009C5.99689 189.398 17.0542 178.325 30.6454 178.325C35.1091 178.325 39.4798 179.546 43.2784 181.816C50.4081 174.264 60.2206 170 70.7248 170C91.5898 170 108.565 187 108.565 207.896C108.565 211.315 108.11 214.684 107.209 217.953C116.045 222.518 121.757 231.702 121.757 241.869C121.757 256.708 109.702 268.781 94.8847 268.781C91.3417 268.781 87.8336 268.076 84.58 266.722C79.5318 272.102 72.4191 275.235 64.9786 275.235C60.2817 275.235 55.7443 274.029 51.7097 271.725C46.4751 274.77 40.5597 276.367 34.4484 276.367C15.4534 276.367 7.62939e-06 260.891 7.62939e-06 241.869C0.000267029 232.424 3.7581 223.612 10.4311 217.14Z" fill="#4DB3B9"/>
<path d="M103.026 296.748C101.742 294.41 98.8026 293.553 96.461 294.835C94.1194 296.117 93.2619 299.051 94.5458 301.39C95.8296 303.728 98.7687 304.584 101.11 303.303C103.452 302.021 104.309 299.086 103.026 296.748Z" fill="#4DB3B9"/>
<path d="M110.261 308.906C109.273 307.107 107.012 306.448 105.211 307.434C103.41 308.42 102.75 310.678 103.738 312.476C104.725 314.275 106.986 314.934 108.787 313.948C110.589 312.962 111.248 310.704 110.261 308.906Z" fill="#4DB3B9"/>
<path d="M95.6115 279.892C93.7602 276.52 89.5121 275.291 86.1232 277.146C82.7343 279.001 81.4879 283.238 83.3392 286.61C85.1905 289.982 89.4386 291.211 92.8275 289.356C96.2164 287.501 97.4629 283.264 95.6115 279.892Z" fill="#4DB3B9"/>
<path d="M46.601 213.698L51.0682 209.177C51.6275 208.612 50.7614 207.729 50.2001 208.299L45.7329 212.821C45.1736 213.387 46.0396 214.269 46.601 213.699V213.698Z" fill="#9DA3B3"/>
<path d="M68.8154 215.442L76.7052 207.919L77.8384 206.839C78.4055 206.298 77.5457 205.439 76.9786 205.979L69.0888 213.502L67.9556 214.582C67.3885 215.123 68.2483 215.982 68.8154 215.442Z" fill="#9DA3B3"/>
<path d="M55.0135 207.09L62.5163 215.001L63.5935 216.137C64.1331 216.706 64.99 215.844 64.4514 215.275L56.9486 207.364L55.8714 206.228C55.3318 205.659 54.4749 206.521 55.0135 207.09Z" fill="#9DA3B3"/>
<path d="M47.2609 215.325C47.2724 216.476 46.8225 217.583 46.0126 218.397C45.2028 219.211 44.1011 219.663 42.9558 219.651C40.6039 219.615 38.7159 217.689 38.7159 215.325C38.7159 212.961 40.6039 211.035 42.9558 210.999C44.1011 210.988 45.2028 211.44 46.0126 212.254C46.8225 213.068 47.2724 214.175 47.2609 215.326V215.325Z" fill="#C7E3D0"/>
<path d="M57.7779 206.085C57.8012 207.646 56.9921 209.098 55.6607 209.886C54.3293 210.673 52.6822 210.673 51.3508 209.886C50.0194 209.098 49.2103 207.646 49.2336 206.085C49.2689 203.721 51.1712 201.824 53.5058 201.824C55.8403 201.824 57.7426 203.721 57.7779 206.085Z" fill="#F9DAE8"/>
<path d="M83.721 204.041C83.6857 206.441 81.7832 208.367 79.4484 208.367C77.1136 208.367 75.2111 206.441 75.1758 204.041C75.2111 201.641 77.1136 199.715 79.4484 199.715C81.7832 199.715 83.6857 201.641 83.721 204.041Z" fill="#E0E7F7"/>
<path d="M68.909 216.479C68.909 218.868 66.9961 220.805 64.6365 220.805C62.2768 220.805 60.3639 218.868 60.3639 216.479C60.3639 214.09 62.2768 212.153 64.6365 212.153C65.773 212.141 66.8664 212.593 67.6701 213.407C68.4738 214.221 68.9203 215.328 68.909 216.479Z" fill="#FCE5BD"/>
<path fill-rule="evenodd" clip-rule="evenodd" d="M56.9877 231.194C59.6864 233.937 62.385 236.68 65.0837 239.423C66.6631 241.028 69.1145 238.538 67.5348 236.932C64.8359 234.189 62.1372 231.446 59.4386 228.703C57.8595 227.098 55.4078 229.588 56.9877 231.194Z" fill="#181F2B"/>
<path opacity="0.5" fill-rule="evenodd" clip-rule="evenodd" d="M64.4219 214.711C64.4219 219.976 62.3707 224.926 58.6486 228.651H58.6459C57.1823 230.115 55.5061 231.334 53.6674 232.273C50.8791 233.701 47.8654 234.422 44.7099 234.422C37.268 234.422 30.5373 230.303 27.1483 223.669C26.4351 222.274 25.8973 220.826 25.5377 219.328C25.181 217.83 25 216.288 25 214.711C25 212.89 25.2492 211.083 25.7452 209.333C26.5056 206.647 27.8017 204.2 29.6008 202.054C33.3597 197.571 38.8681 195 44.7099 195C47.8625 195 50.8764 195.724 53.6674 197.151C59.6138 200.191 63.5904 205.955 64.3041 212.565V212.57C64.3828 213.284 64.4219 214.005 64.4219 214.711Z" fill="white"/>
<path d="M64.4219 214.711C64.4219 219.976 62.3707 224.926 58.6486 228.651H58.6459C57.1823 230.115 55.5061 231.334 53.6674 232.273C50.8791 233.701 47.8654 234.422 44.7099 234.422C37.268 234.422 30.5373 230.303 27.1483 223.669C26.4351 222.274 25.8973 220.826 25.5377 219.328C25.181 217.83 25 216.288 25 214.711C25 212.89 25.2492 211.083 25.7452 209.333C26.5056 206.647 27.8017 204.2 29.6008 202.054C33.3597 197.571 38.8681 195 44.7099 195C47.8625 195 50.8764 195.724 53.6674 197.151C59.6138 200.191 63.5904 205.955 64.3041 212.565V212.57C64.3828 213.284 64.4219 214.005 64.4219 214.711" stroke="#313F56" stroke-width="3"/>
<path fill-rule="evenodd" clip-rule="evenodd" d="M89.2931 253.041L81.3929 261L62.9353 242.41L66.8143 238.505L70.8379 234.453L89.2931 253.041Z" fill="#F1A86F"/>
<path d="M375.285 55.7517C375.285 39.7276 362.224 26.7884 346.218 27.0026C330.468 27.2168 317.706 40.4131 318.005 56.223C318.133 62.9497 320.523 69.0766 324.493 73.9181C330.084 80.7305 333.2 89.2567 333.2 98.0828V98.9397H360.133V98.0828C360.133 89.2138 363.334 80.6876 368.883 73.8324C372.895 68.9052 375.285 62.607 375.285 55.7517Z" fill="#F8CC7D"/>
<path d="M359.551 114.926H333.735C332.423 114.926 331.322 113.834 331.322 112.436V101.429C331.322 100.075 332.38 98.9395 333.735 98.9395H359.551C360.863 98.9395 361.963 100.031 361.963 101.429V112.436C361.963 113.834 360.905 114.926 359.551 114.926Z" fill="#DFF2F2"/>
<path d="M333.987 114.926C336.153 119.623 340.994 122.92 346.643 122.92C352.291 122.92 357.133 119.623 359.299 114.926H333.987Z" fill="#AFDDDF"/>
<path fill-rule="evenodd" clip-rule="evenodd" d="M399.462 91.7837C396.998 76.0428 380.324 74.8357 374.536 89.4C368.391 74.8357 352 75.5123 349.452 91.7837C346.904 108.055 374.536 126 374.536 126C374.536 126 401.926 107.525 399.462 91.7837Z" fill="#EFA0C5"/>
<path d="M345 108.424H353.2C353.2 108.424 357.47 105.064 359.202 105.043C360.913 105.022 362.397 106.501 363.561 108.224C363.603 108.287 363.772 108.424 363.884 108.424C366.868 108.424 369.71 108.424 369.71 108.424L371.864 112.404L373.903 79L375.982 116.515L378.136 108.424H386.154C386.154 108.424 390.572 102.621 392.819 103.016C395.066 103.411 396.457 108.424 396.74 108.424C401.569 108.424 405 108.424 405 108.424" stroke="white" stroke-width="2" stroke-linecap="round"/>
</svg>
