<svg width="13" height="14" viewBox="0 0 13 14" fill="none" xmlns="http://www.w3.org/2000/svg">
<path d="M7.21885 7.77415L11.9834 7.77414C12.3804 7.77418 12.7022 7.42755 12.7022 7C12.7022 6.57251 12.3804 6.22588 11.9834 6.22585L7.21885 6.22585L7.21886 1.09482C7.21888 0.667296 6.89707 0.32073 6.5 0.320664C6.10302 0.32063 5.78115 0.667257 5.78115 1.09481L5.78114 6.22585L1.01661 6.22586C0.619625 6.22582 0.297758 6.57245 0.297759 7C0.297761 7.42755 0.619602 7.77415 1.01661 7.77415L5.78115 7.77414L5.78114 12.9052C5.78112 13.3326 6.1029 13.6793 6.5 13.6793C6.89698 13.6794 7.21885 13.3327 7.21885 12.9052L7.21885 7.77415Z" fill="#2A2A2A"/>
</svg>
