<svg width="42" height="42" viewBox="0 0 42 42" fill="none" xmlns="http://www.w3.org/2000/svg">
<path d="M25.6449 21L41.038 5.60685C42.3207 4.3244 42.3207 2.24464 41.038 0.961987C39.7555 -0.32047 37.6758 -0.32047 36.3931 0.961987L21 16.3551L5.60691 0.961987C4.32444 -0.320663 2.24504 -0.320663 0.961997 0.961987C-0.320664 2.24444 -0.320664 4.3242 0.961997 5.60685L16.3551 21L0.961997 36.3931C-0.320664 37.6756 -0.320664 39.7554 0.961997 41.038C2.24466 42.3207 4.32425 42.3207 5.60691 41.038L21 25.6449L36.3931 41.038C37.6754 42.3205 39.755 42.3209 41.038 41.038C42.3207 39.7556 42.3207 37.6758 41.038 36.3931L25.6449 21Z" fill="#4A5E81"/>
</svg>
