<svg width="50" height="50" viewBox="0 0 50 50" fill="none" xmlns="http://www.w3.org/2000/svg">
<circle cx="25" cy="25" r="25" fill="#FCE5BD"/>
<path d="M26.0838 23.2036L21.2861 28.4345L19.5306 26.5205C19.2073 26.1677 18.6829 26.1677 18.3596 26.5205C18.0359 26.873 18.0359 27.4447 18.3596 27.7972L20.7008 30.3497C20.8625 30.5259 21.0747 30.6144 21.2865 30.6144C21.4984 30.6144 21.7102 30.5263 21.8718 30.3497L27.2552 24.4806C27.5785 24.1278 27.5785 23.5564 27.2552 23.2036C26.9315 22.8511 26.4075 22.8511 26.0838 23.2036Z" fill="#F5B33C"/>
<mask id="path-3-inside-1" fill="white">
<rect x="13" y="15.264" width="18.7617" height="24.7043" rx="1"/>
</mask>
<rect x="13" y="15.264" width="18.7617" height="24.7043" rx="1" stroke="#F5B33C" stroke-width="3" mask="url(#path-3-inside-1)"/>
<path d="M15 13.5585H32.7617C33.314 13.5585 33.7617 14.0062 33.7617 14.5585V38.2628" stroke="#F5B33C" stroke-width="1.5" stroke-linecap="round"/>
<path d="M17.5584 11H35.3201C35.8724 11 36.3201 11.4477 36.3201 12V35.7043" stroke="#F5B33C" stroke-width="1.5" stroke-linecap="round"/>
</svg>
