<svg width="50" height="52" viewBox="0 0 50 52" fill="none" xmlns="http://www.w3.org/2000/svg">
<g id="Group 2.9">
<g id="Group 2">
<g id="Group 2_2">
<rect id="Rectangle" x="0.75" y="4.75" width="45.5323" height="45.75" rx="1.25" stroke="#3C4A62" stroke-width="1.5" stroke-linecap="round" stroke-linejoin="round"/>
<path id="Vector" d="M2 28H24V49" stroke="#3C4A62" stroke-width="1.5" stroke-linecap="round" stroke-linejoin="round"/>
</g>
<g id="Group">
<path id="Vector 2" d="M39.2332 22.6691C39.2388 23.4975 39.9149 24.1645 40.7433 24.1589C41.5718 24.1533 42.2388 23.4771 42.2331 22.6487L39.2332 22.6691ZM40.6488 10.2265L42.1488 10.2163C42.1432 9.39432 41.4771 8.72995 40.6552 8.72648L40.6488 10.2265ZM28.2548 8.67422C27.4264 8.67072 26.752 9.33946 26.7485 10.1679C26.745 10.9963 27.4137 11.6707 28.2421 11.6742L28.2548 8.67422ZM42.2331 22.6487L42.1488 10.2163L39.1489 10.2366L39.2332 22.6691L42.2331 22.6487ZM40.6552 8.72648L28.2548 8.67422L28.2421 11.6742L40.6425 11.7265L40.6552 8.72648Z" fill="#3C4A62"/>
<path id="Line" d="M40.4004 10.4746L28.2258 22.6492" stroke="#3C4A62" stroke-width="1.5" stroke-linecap="round" stroke-linejoin="round"/>
</g>
</g>
</g>
</svg>
