<?xml version="1.0" encoding="UTF-8"?>
<svg width="50px" height="50px" viewBox="0 0 50 50" version="1.1" xmlns="http://www.w3.org/2000/svg" xmlns:xlink="http://www.w3.org/1999/xlink">
    <!-- Generator: Sketch 49.2 (51160) - http://www.bohemiancoding.com/sketch -->
    <title>Group 2</title>
    <desc>Created with Sketch.</desc>
    <defs></defs>
    <g id="Page-1" stroke="none" stroke-width="1" fill="none" fill-rule="evenodd">
        <g id="Artboard" transform="translate(-1224.000000, -888.000000)">
            <g id="Group-2" transform="translate(1224.000000, 888.000000)">
                <g id="Ellipse-2.8" fill="#FCE5BD" fill-rule="nonzero">
                    <circle id="Oval" cx="25" cy="25" r="25"></circle>
                </g>
                <g id="Asset-1.1" transform="translate(8.000000, 9.000000)" fill="#F5B33C">
                    <path d="M17,8.7972e-07 C13.1997,-0.00125455 9.52303,1.34122 6.62825,3.78706 C3.73347,6.2329 1.809611,9.6224 1.201131,13.3487 C0.592651,17.075 1.339279,20.8948 3.30734,24.1242 C5.2754,27.3535 8.33638,29.7816 11.9422,30.9737 C12.7371,31.1211 13.0338,30.6289 13.0338,30.2078 C13.0338,29.8289 13.0206,28.5787 13.0126,27.2497 C8.56155,28.2103 7.62364,25.3758 7.62364,25.3758 C6.89505,23.5336 5.84587,23.0493 5.84587,23.0493 C4.39397,22.0624 5.95449,22.0835 5.95449,22.0835 C7.56271,22.1966 8.40788,23.7204 8.40788,23.7204 C9.83593,26.1496 12.1515,25.4495 13.063,25.0363 C13.2087,24.0099 13.622,23.3099 14.0803,22.9125 C10.53803,22.5151 6.78907,21.1518 6.78907,15.0618 C6.76529,13.48 7.35651,11.9501 8.43967,10.7904 C8.27276,10.3904 7.72432,8.77443 8.59334,6.57951 C8.59334,6.57951 9.93661,6.15316 12.9941,8.20859 C15.6175,7.49624 18.3852,7.49624 21.0086,8.20859 C24.0502,6.16368 25.4041,6.57951 25.4041,6.57951 C26.2731,8.76917 25.7273,10.3851 25.5604,10.7904 C26.6406,11.9494 27.2298,13.4773 27.2057,15.0565 C27.2057,21.1623 23.4647,22.5045 19.9012,22.8993 C20.4735,23.3915 20.9848,24.36 20.9848,25.8417 C20.9848,27.9682 20.9689,29.6815 20.9689,30.2026 C20.9689,30.6263 21.255,31.1211 22.0658,30.9658 C25.6664,29.7692 28.7213,27.3397 30.6845,24.1115 C32.6478,20.8833 33.3913,17.0669 32.7823,13.3442 C32.1733,9.6215 30.2515,6.23526 27.3602,3.79067 C24.469,1.34609 20.7968,0.0024861 17,8.7972e-07 Z" id="Shape"></path>
                    <path d="M7.05927,22.8177 C7.02483,22.8967 6.9003,22.9203 6.79433,22.8677 C6.68835,22.8151 6.61151,22.7072 6.64861,22.6282 C6.6857,22.5493 6.81022,22.5256 6.91355,22.5782 C7.01688,22.6308 7.09636,22.7387 7.05662,22.8177 L7.05927,22.8177 Z" id="Shape" fill-rule="nonzero"></path>
                    <path d="M7.70847,23.5362 C7.63163,23.6072 7.48326,23.573 7.37993,23.4625 C7.33164,23.4237 7.30008,23.368 7.29171,23.3068 C7.28334,23.2457 7.29879,23.1837 7.33489,23.1335 C7.41438,23.0624 7.55745,23.0966 7.66343,23.2072 C7.7694,23.3177 7.78795,23.4704 7.70847,23.5362 Z" id="Shape" fill-rule="nonzero"></path>
                    <path d="M8.33895,24.4522 C8.24092,24.5206 8.07401,24.4522 7.98128,24.3153 C7.88855,24.1784 7.88325,24.0047 7.98128,23.9363 C8.07931,23.8679 8.24622,23.9363 8.33895,24.0705 C8.43168,24.2048 8.43698,24.3837 8.33895,24.4522 Z" id="Shape" fill-rule="nonzero"></path>
                    <path d="M9.21326,25.3365 C9.18104,25.3597 9.14448,25.3762 9.10574,25.3852 C9.067,25.3942 9.02684,25.3954 8.98762,25.3888 C8.9484,25.3822 8.9109,25.3678 8.87732,25.3467 C8.84373,25.3255 8.81472,25.2979 8.792,25.2654 C8.65158,25.1365 8.61184,24.9549 8.70192,24.8602 C8.792,24.7654 8.96686,24.7891 9.11523,24.9207 C9.2636,25.0523 9.2954,25.2312 9.20267,25.326 L9.21326,25.3365 Z" id="Shape" fill-rule="nonzero"></path>
                    <path d="M10.39494,25.8496 C10.3552,25.9733 10.17769,26.0312 9.99488,25.9786 C9.81206,25.9259 9.69549,25.7786 9.72993,25.6522 C9.76437,25.5259 9.94719,25.468 10.13,25.5233 C10.31281,25.5785 10.42938,25.7233 10.39494,25.8496 Z" id="Shape" fill-rule="nonzero"></path>
                    <path d="M11.7038,25.9444 C11.7038,26.076 11.5554,26.1839 11.3647,26.1865 C11.1739,26.1892 11.0202,26.0865 11.0176,25.9549 C11.0149,25.8234 11.166,25.7154 11.3594,25.7128 C11.5528,25.7102 11.7038,25.8155 11.7038,25.9444 Z" id="Shape" fill-rule="nonzero"></path>
                    <path d="M12.9225,25.7392 C12.9463,25.8681 12.8139,26.0023 12.6258,26.0339 C12.4377,26.0655 12.2681,25.9892 12.2442,25.8602 C12.2204,25.7313 12.3555,25.597 12.541,25.5655 C12.7264,25.5339 12.8987,25.6102 12.9225,25.7392 Z" id="Shape" fill-rule="nonzero"></path>
                </g>
            </g>
        </g>
    </g>
</svg>