<svg width="50" height="50" viewBox="0 0 50 50" fill="none" xmlns="http://www.w3.org/2000/svg">
<circle cx="25" cy="25" r="25" fill="#FCE5BD"/>
<path d="M39.4211 11H10.8427C10.3773 11 10 11.3773 10 11.8427V37.1573C10 37.6227 10.3773 38 10.8427 38H39.4211C39.8866 38 40.2639 37.6227 40.2639 37.1573V11.8427C40.2639 11.3773 39.8866 11 39.4211 11Z" fill="#F5B33C"/>
<path d="M11.946 12.6523H14.4581V15.2822H11.946V12.6523Z" fill="#FCE5BD"/>
<path d="M16.8102 12.6523H19.3224V15.2822H16.8102V12.6523Z" fill="#FCE5BD"/>
<path d="M21.6745 12.6523H24.1866V15.2822H21.6745V12.6523Z" fill="#FCE5BD"/>
<path d="M26.5387 12.6523H29.0509V15.2822H26.5387V12.6523Z" fill="#FCE5BD"/>
<path d="M31.403 12.6523H33.9151V15.2822H31.403V12.6523Z" fill="#FCE5BD"/>
<path d="M36.2673 12.6523H38.7794V15.2822H36.2673V12.6523Z" fill="#FCE5BD"/>
<path d="M11.946 33.7174H14.4581V36.3473H11.946V33.7174Z" fill="#FCE5BD"/>
<path d="M16.8102 33.7174H19.3224V36.3473H16.8102V33.7174Z" fill="#FCE5BD"/>
<path d="M21.6745 33.7174H24.1866V36.3473H21.6745V33.7174Z" fill="#FCE5BD"/>
<path d="M26.5387 33.7174H29.0509V36.3473H26.5387V33.7174Z" fill="#FCE5BD"/>
<path d="M31.403 33.7174H33.9151V36.3473H31.403V33.7174Z" fill="#FCE5BD"/>
<path d="M36.2673 33.7174H38.7794V36.3473H36.2673V33.7174Z" fill="#FCE5BD"/>
<path d="M11.7153 17.1832H38.5487V31.8166H11.7153V17.1832Z" fill="#FCE5BD"/>
<path d="M29.7796 23.8393L23.9959 19.9864C23.4683 19.6349 22.762 20.0131 22.762 20.647V28.3529C22.762 28.9868 23.4683 29.365 23.9959 29.0135L29.7796 25.1606C30.2512 24.8464 30.2512 24.1535 29.7796 23.8393Z" fill="#F5B33C"/>
</svg>
