<svg width="50" height="50" viewBox="0 0 50 50" fill="none" xmlns="http://www.w3.org/2000/svg">
<circle cx="25" cy="25" r="25" fill="#FCE5BD"/>
<path d="M17.4841 18.5659H32.6153C33.0551 18.5659 33.4117 18.2093 33.4117 17.7695C33.4117 17.3297 33.0551 16.9731 32.6153 16.9731H17.4841C17.0443 16.9731 16.6877 17.3297 16.6877 17.7695C16.6877 18.2093 17.0443 18.5659 17.4841 18.5659Z" fill="#F5B33C"/>
<path d="M17.484 21.7511H32.6152C33.055 21.7511 33.4116 21.3945 33.4116 20.9547C33.4116 20.5149 33.055 20.1583 32.6152 20.1583H17.484C17.0442 20.1583 16.6876 20.5149 16.6876 20.9547C16.6876 21.3945 17.0442 21.7511 17.484 21.7511Z" fill="#F5B33C"/>
<path d="M17.484 24.9369H32.6152C33.055 24.9369 33.4116 24.5803 33.4116 24.1405C33.4116 23.7007 33.055 23.3441 32.6152 23.3441H17.484C17.0442 23.3441 16.6876 23.7007 16.6876 24.1405C16.6876 24.5803 17.0442 24.9369 17.484 24.9369Z" fill="#F5B33C"/>
<path d="M17.484 28.1221H32.6152C33.055 28.1221 33.4116 27.7655 33.4116 27.3257C33.4116 26.8859 33.055 26.5293 32.6152 26.5293H17.484C17.0442 26.5293 16.6876 26.8859 16.6876 27.3257C16.6876 27.7655 17.0442 28.1221 17.484 28.1221Z" fill="#F5B33C"/>
<path d="M17.484 31.3078H27.0406C27.4804 31.3078 27.8369 30.9513 27.8369 30.5115C27.8369 30.0717 27.4804 29.7151 27.0406 29.7151H17.484C17.0442 29.7151 16.6876 30.0717 16.6876 30.5115C16.6876 30.9513 17.0442 31.3078 17.484 31.3078Z" fill="#F5B33C"/>
<mask id="path-7-inside-1" fill="white">
<rect x="14" y="11" width="22" height="28.9683" rx="1"/>
</mask>
<rect x="14" y="11" width="22" height="28.9683" rx="1" stroke="#F5B33C" stroke-width="3" mask="url(#path-7-inside-1)"/>
</svg>
