<?xml version="1.0" encoding="UTF-8"?>
<svg width="358px" height="317px" viewBox="0 0 358 317" version="1.1" xmlns="http://www.w3.org/2000/svg" xmlns:xlink="http://www.w3.org/1999/xlink">
    <!-- Generator: Sketch 49.2 (51160) - http://www.bohemiancoding.com/sketch -->
    <title>Group 2</title>
    <desc>Created with Sketch.</desc>
    <defs>
        <rect id="path-1" x="0" y="0" width="358" height="319"></rect>
        <filter x="-3.7%" y="-4.2%" width="107.4%" height="111.7%" filterUnits="objectBoundingBox" id="filter-3">
            <feOffset dx="0" dy="2" in="SourceAlpha" result="shadowOffsetOuter1"></feOffset>
            <feGaussianBlur stdDeviation="2" in="shadowOffsetOuter1" result="shadowBlurOuter1"></feGaussianBlur>
            <feColorMatrix values="0 0 0 0 0   0 0 0 0 0   0 0 0 0 0  0 0 0 0.174026268 0" type="matrix" in="shadowBlurOuter1" result="shadowMatrixOuter1"></feColorMatrix>
            <feMerge>
                <feMergeNode in="shadowMatrixOuter1"></feMergeNode>
                <feMergeNode in="SourceGraphic"></feMergeNode>
            </feMerge>
        </filter>
    </defs>
    <g id="Page-1" stroke="none" stroke-width="1" fill="none" fill-rule="evenodd">
        <g id="Group-2" transform="translate(0.000000, -2.000000)">
            <g id="Header-image">
                <mask id="mask-2" fill="white">
                    <use xlink:href="#path-1"></use>
                </mask>
                <g id="Rectangle-path"></g>
                <g id="Group" mask="url(#mask-2)">
                    <g transform="translate(97.000000, 19.000000)">
                        <polygon id="Shape" stroke="none" fill="#C48468" fill-rule="nonzero" points="83.286 207.344 313.64 437.557 313.64 314.083 145.048 145.639"></polygon>
                        <path d="M177.073,241.568 L185.779,241.724 C202.932,241.978 204.63,208.786 207.206,192.42 C208.804,182.146 210.451,171.781 212.05,161.488 C212.769,156.754 212.811,152.995 212.925,148.17 C213.077,137.001 196.182,131.046 187.837,130.928 L179.135,130.776 C170.737,130.62 155.923,134.376 155.748,145.544 L162.187,221.035 C161.981,232.203 168.728,241.465 177.073,241.568 Z" id="Shape" stroke="none" fill="#C48468" fill-rule="nonzero"></path>
                        <path d="M182.312,147.717 C182.693,132.842 182.312,132.496 182.312,107.42 C182.312,87.504 193.233,73.6605 203.484,72.2184 L206.285,72.2184 C207.081,72.124 207.888,72.1897 208.658,72.4115 C209.429,72.6334 210.147,73.007 210.771,73.5104 C211.395,74.0138 211.912,74.6368 212.291,75.3428 C212.671,76.0488 212.906,76.8236 212.982,77.6217 L212.982,147.717" id="Shape" stroke="none" fill="#C48468" fill-rule="nonzero"></path>
                        <path d="M54.112,282.306 L166.11,282.306 C170.409,282.293 174.529,280.579 177.569,277.539 C180.609,274.499 182.322,270.38 182.335,266.08 L182.335,16.21 C182.322,11.9149 180.61,7.7994 177.573,4.7622 C174.536,1.7251 170.42,0.013 166.125,0 L54.128,0 C49.828,0.012 45.707,1.7252 42.667,4.7653 C39.626,7.8055 37.912,11.9254 37.899,16.2253 L37.899,266.096 C37.912,270.391 39.624,274.508 42.662,277.545 C45.7,280.582 49.817,282.294 54.112,282.306 Z" id="Shape" stroke="none" fill="#C9CDD8" fill-rule="nonzero"></path>
                        <polygon id="Shape" stroke="none" fill="#AFDDDF" fill-rule="nonzero" points="172.487 27.3555 47.746 27.3555 47.746 250.574 172.487 250.574"></polygon>
                        <path d="M96.833,8.7517 L123.8,8.7517 C124.708,8.7386 125.601,8.9843 126.375,9.46 C127.148,9.9358 127.771,10.6219 128.169,11.4382 C128.546,12.1919 128.724,13.0296 128.687,13.8718 C128.65,14.7139 128.398,15.5325 127.955,16.25 C127.513,16.9674 126.894,17.5598 126.158,17.971 C125.422,18.3822 124.594,18.5986 123.751,18.5995 L96.784,18.5995 C95.877,18.6154 94.985,18.3735 94.211,17.9019 C93.437,17.4303 92.813,16.7485 92.411,15.9359 C92.029,15.181 91.846,14.3405 91.881,13.4948 C91.916,12.6491 92.167,11.8265 92.61,11.1056 C93.054,10.3848 93.675,9.7898 94.415,9.3777 C95.154,8.9656 95.987,8.75 96.833,8.7517 Z" id="Shape" stroke="none" fill="#9DA3B3" fill-rule="nonzero"></path>
                        <path d="M110.315,274.969 C108.514,274.965 106.755,274.427 105.26,273.423 C103.765,272.419 102.601,270.995 101.915,269.33 C101.229,267.665 101.052,265.834 101.406,264.068 C101.76,262.303 102.629,260.682 103.904,259.41 C105.179,258.138 106.802,257.273 108.569,256.923 C110.335,256.574 112.166,256.755 113.829,257.446 C115.492,258.136 116.914,259.303 117.914,260.801 C118.914,262.299 119.447,264.059 119.447,265.86 C119.447,267.058 119.211,268.244 118.752,269.351 C118.292,270.458 117.619,271.463 116.771,272.309 C115.923,273.155 114.916,273.826 113.808,274.282 C112.7,274.739 111.513,274.972 110.315,274.969 Z" id="Shape" stroke="none" fill="#9DA3B3" fill-rule="nonzero"></path>
                        <path d="M121.483,110.864 L132.723,120.738 C133.25,121.2 133.926,121.455 134.626,121.457 L147.685,121.457 C148.069,121.458 148.449,121.535 148.803,121.683 C149.157,121.83 149.479,122.047 149.749,122.319 C150.02,122.591 150.235,122.913 150.38,123.268 C150.526,123.623 150.601,124.003 150.6,124.387 L150.6,145.883 C150.601,146.266 150.526,146.647 150.38,147.002 C150.235,147.357 150.02,147.679 149.749,147.951 C149.479,148.223 149.157,148.439 148.803,148.587 C148.449,148.735 148.069,148.812 147.685,148.813 L134.611,148.813 C133.909,148.806 133.23,149.062 132.708,149.532 L121.468,159.406 C121.047,159.774 120.529,160.013 119.975,160.093 C119.422,160.173 118.858,160.091 118.35,159.857 C117.842,159.623 117.413,159.248 117.114,158.775 C116.815,158.303 116.659,157.754 116.665,157.195 L116.665,113.128 C116.651,112.564 116.802,112.007 117.098,111.527 C117.394,111.047 117.824,110.663 118.335,110.423 C118.846,110.183 119.416,110.097 119.974,110.175 C120.533,110.253 121.058,110.493 121.483,110.864 Z" id="Shape" stroke="none" fill="#4DB3B9" fill-rule="nonzero"></path>
                        <path d="M103.671,117.23 C99.02,121.887 96.407,128.199 96.407,134.781 C96.407,141.363 99.02,147.676 103.671,152.332" id="Shape" stroke="#4DB3B9" stroke-width="10" fill="none" stroke-linecap="round" stroke-linejoin="round"></path>
                        <path d="M94.143,107.709 C86.968,114.891 82.938,124.628 82.938,134.779 C82.938,144.931 86.968,154.667 94.143,161.849" id="Shape" stroke="#4DB3B9" stroke-width="10" fill="none" stroke-linecap="round" stroke-linejoin="round"></path>
                        <path d="M84.972,98.6 C80.209,103.35 76.43,108.993 73.852,115.206 C71.274,121.419 69.946,128.079 69.946,134.806 C69.946,141.533 71.274,148.193 73.852,154.406 C76.43,160.619 80.209,166.262 84.972,171.012" id="Shape" stroke="#4DB3B9" stroke-width="10" fill="none" stroke-linecap="round" stroke-linejoin="round"></path>
                        <path d="M226.163,227.549 L193.728,195.3 L212.08,159.018 L210.657,167.77 C207.449,187.826 212.307,208.337 224.169,224.825 L226.163,227.549 Z" id="Shape" stroke="none" fill="#C48468" fill-rule="nonzero"></path>
                        <path d="M493.195,462.709 C493.195,462.709 236.346,230.974 222.647,224.125 L204.675,275.072 L173.298,285.769 C173.298,285.769 296.882,477.23 317.091,466.134 L380.04,465.099 L493.195,462.709 Z" id="Shape" stroke="none" fill="#C48468" fill-rule="nonzero"></path>
                        <polygon id="Shape" stroke="none" fill="#C48468" fill-rule="nonzero" points="87.092 207.344 317.445 437.557 317.445 314.083 148.853 145.639"></polygon>
                        <path d="M180.878,241.568 L189.584,241.724 C206.738,241.978 208.435,208.786 211.011,192.42 C212.609,182.146 214.257,171.781 215.855,161.488 C216.574,156.754 216.616,152.995 216.73,148.17 C216.882,137.001 199.987,131.046 191.643,130.928 L182.94,130.776 C174.542,130.62 159.729,134.376 159.554,145.544 L165.992,221.035 C165.786,232.203 172.533,241.465 180.878,241.568 Z" id="Shape" stroke="none" fill="#C48468" fill-rule="nonzero"></path>
                        <path d="M186.118,147.717 C186.498,132.842 186.118,132.496 186.118,107.42 C186.118,87.504 197.038,73.6605 207.29,72.2184 L210.09,72.2184 C210.886,72.124 211.693,72.1897 212.463,72.4115 C213.234,72.6334 213.952,73.007 214.576,73.5104 C215.2,74.0138 215.717,74.6368 216.097,75.3428 C216.476,76.0488 216.711,76.8236 216.787,77.6217 L216.787,147.717" id="Shape" stroke="none" fill="#C48468" fill-rule="nonzero"></path>
                        <path d="M57.918,282.306 L169.915,282.306 C174.214,282.293 178.334,280.579 181.374,277.539 C184.414,274.499 186.127,270.38 186.14,266.08 L186.14,16.21 C186.127,11.9149 184.415,7.7994 181.378,4.7622 C178.341,1.7251 174.226,0.013 169.93,0 L57.933,0 C53.633,0.012 49.513,1.7252 46.472,4.7653 C43.431,7.8055 41.717,11.9254 41.704,16.2253 L41.704,266.096 C41.717,270.391 43.429,274.508 46.467,277.545 C49.505,280.582 53.622,282.294 57.918,282.306 Z" id="Shape" stroke="none" fill="#FFFFFF" fill-rule="nonzero"></path>
                        <polygon id="Shape" stroke="none" fill="#AFDDDF" fill-rule="nonzero" points="176.153 27.3555 51.412 27.3555 51.412 250.574 176.153 250.574"></polygon>
                        <path d="M100.638,8.7517 L127.605,8.7517 C128.513,8.7386 129.407,8.9843 130.18,9.46 C130.954,9.9358 131.576,10.6219 131.974,11.4382 C132.351,12.1919 132.53,13.0296 132.492,13.8718 C132.455,14.7139 132.203,15.5325 131.761,16.25 C131.318,16.9674 130.699,17.5598 129.964,17.971 C129.228,18.3822 128.399,18.5986 127.556,18.5995 L100.589,18.5995 C99.682,18.6154 98.79,18.3735 98.016,17.9019 C97.242,17.4303 96.618,16.7485 96.217,15.9359 C95.834,15.181 95.651,14.3405 95.686,13.4948 C95.721,12.6491 95.972,11.8265 96.416,11.1056 C96.859,10.3848 97.48,9.7898 98.22,9.3777 C98.959,8.9656 99.792,8.75 100.638,8.7517 Z" id="Shape" stroke="none" fill="#9DA3B3" fill-rule="nonzero"></path>
                        <path d="M114.12,274.969 C112.319,274.965 110.56,274.427 109.065,273.423 C107.57,272.419 106.406,270.995 105.72,269.33 C105.034,267.665 104.857,265.834 105.211,264.068 C105.565,262.303 106.434,260.682 107.709,259.41 C108.984,258.138 110.607,257.273 112.374,256.923 C114.14,256.574 115.971,256.755 117.634,257.446 C119.297,258.136 120.719,259.303 121.719,260.801 C122.719,262.299 123.252,264.059 123.252,265.86 C123.252,267.058 123.016,268.244 122.557,269.351 C122.097,270.458 121.424,271.463 120.576,272.309 C119.728,273.155 118.721,273.826 117.613,274.282 C116.505,274.739 115.318,274.972 114.12,274.969 Z" id="Shape" stroke="none" fill="#9DA3B3" fill-rule="nonzero"></path>
                        <path d="M229.968,227.549 L197.533,195.3 L215.885,159.018 L214.462,167.77 C211.255,187.826 216.112,208.337 227.974,224.825 L229.968,227.549 Z" id="Shape" stroke="none" fill="#C48468" fill-rule="nonzero"></path>
                        <path d="M497,462.709 C497,462.709 240.151,230.974 226.452,224.125 L208.48,275.072 L177.103,285.769 C177.103,285.769 300.687,477.23 320.897,466.134 L383.846,465.099 L497,462.709 Z" id="Shape" stroke="none" fill="#C48468" fill-rule="nonzero"></path>
                        <rect id="Rectangle-path" stroke="none" fill="#4168CA" fill-rule="nonzero" x="59.482" y="223.198" width="107.794" height="17.7544" rx="8.87718"></rect>
                        <rect id="Rectangle-path" stroke="none" fill="#4DB3B9" fill-rule="nonzero" x="59.482" y="57.0676" width="106.526" height="6.34084" rx="3.17042"></rect>
                        <rect id="Rectangle-path" stroke="none" fill="#4DB3B9" fill-rule="nonzero" x="59.482" y="98.917" width="65.9448" height="6.34084" rx="3.17042"></rect>
                        <rect id="Rectangle-path" stroke="none" fill="#4DB3B9" fill-rule="nonzero" x="59.482" y="117.94" width="65.9448" height="6.34084" rx="3.17042"></rect>
                        <rect id="Rectangle-path" stroke="none" fill="#4DB3B9" fill-rule="nonzero" x="59.482" y="136.962" width="65.9448" height="6.34084" rx="3.17042"></rect>
                        <rect id="Rectangle-path" stroke="none" fill="#4DB3B9" fill-rule="nonzero" x="59.482" y="157.253" width="65.9448" height="6.34084" rx="3.17042"></rect>
                        <rect id="Rectangle-path" stroke="none" fill="#4DB3B9" fill-rule="nonzero" x="59.482" y="176.275" width="65.9448" height="6.34084" rx="3.17042"></rect>
                        <path d="M3.271,176.107 C2.5799,173.468 2.4988,170.705 3.034,168.03 C3.57,165.354 4.707,162.836 6.361,160.666 C7.509,159.135 8.055,157.235 7.893,155.328 C7.732,153.421 6.875,151.64 5.486,150.323 C3.182,148.083 1.5149,145.269 0.657,142.171 C-0.2009,139.074 -0.219,135.804 0.6046,132.697 C1.4281,129.59 3.064,126.758 5.343,124.492 C7.623,122.226 10.464,120.607 13.576,119.802 L36.289,113.885 C40.375,112.806 44.709,113.19 48.541,114.97 C52.374,116.751 55.462,119.816 57.273,123.635 C59.083,127.453 59.5,131.784 58.452,135.878 C57.405,139.972 54.958,143.571 51.536,146.05 C55.154,146.476 58.559,147.984 61.307,150.377 C64.054,152.769 66.015,155.936 66.933,159.461 C67.852,162.986 67.685,166.707 66.454,170.136 C65.224,173.565 62.987,176.542 60.037,178.679 C63.81,179.129 67.346,180.754 70.145,183.324 C72.944,185.894 74.863,189.279 75.632,193 C76.401,196.721 75.98,200.59 74.429,204.059 C72.878,207.528 70.275,210.421 66.989,212.329 C71.053,212.638 74.875,214.38 77.774,217.244 C80.673,220.108 82.462,223.909 82.82,227.968 C83.179,232.028 82.085,236.083 79.732,239.411 C77.38,242.74 73.923,245.125 69.976,246.141 L48.751,251.655 C44.326,252.796 39.63,252.136 35.691,249.821 C31.752,247.506 28.891,243.724 27.735,239.303 C26.97,236.381 27.005,233.307 27.838,230.403 C28.361,228.532 28.165,226.533 27.288,224.799 C26.411,223.065 24.917,221.723 23.1,221.035 C20.363,220.023 17.91,218.367 15.946,216.208 C13.983,214.05 12.567,211.45 11.818,208.63 C10.733,204.481 11.172,200.082 13.055,196.229 C14.755,192.728 13.777,188.508 10.581,186.335 C6.972,183.939 4.37,180.298 3.271,176.107 Z" id="Shape" stroke="none" fill="#C48468" fill-rule="nonzero"></path>
                    </g>
                </g>
            </g>
            <g id="Group-2.7" filter="url(#filter-3)" transform="translate(4.000000, 4.000000)">
                <path d="M0.26846,14 C0.26846,6.268 6.5365,0 14.2685,0 L174,0 C181.732,0 188,6.268 188,14 L188,105.235 C188,112.967 181.732,119.235 174,119.235 L14.2685,119.235 C6.5365,119.235 0.26846,112.967 0.26846,105.235 L0.26846,14 Z" id="Shape" fill="#FCFCFC"></path>
                <path d="M23.3969,87.6168 C23.3969,88.2608 23.2949,88.8468 23.0909,89.3748 C22.8869,89.9028 22.5989,90.3548 22.2269,90.7308 C21.8549,91.1068 21.4089,91.3988 20.8889,91.6068 C20.3689,91.8108 19.7929,91.9128 19.1609,91.9128 L15.9449,91.9128 L15.9449,83.3148 L19.1609,83.3148 C19.7929,83.3148 20.3689,83.4188 20.8889,83.6268 C21.4089,83.8308 21.8549,84.1228 22.2269,84.5028 C22.5989,84.8788 22.8869,85.3308 23.0909,85.8588 C23.2949,86.3868 23.3969,86.9728 23.3969,87.6168 Z M22.2029,87.6168 C22.2029,87.0888 22.1309,86.6168 21.9869,86.2008 C21.8429,85.7848 21.6389,85.4328 21.3749,85.1448 C21.1109,84.8568 20.7909,84.6368 20.4149,84.4848 C20.0389,84.3328 19.6209,84.2568 19.1609,84.2568 L17.1149,84.2568 L17.1149,90.9708 L19.1609,90.9708 C19.6209,90.9708 20.0389,90.8948 20.4149,90.7428 C20.7909,90.5908 21.1109,90.3728 21.3749,90.0888 C21.6389,89.8008 21.8429,89.4488 21.9869,89.0328 C22.1309,88.6168 22.2029,88.1448 22.2029,87.6168 Z M27.2721,85.7388 C27.7161,85.7388 28.1161,85.8128 28.4721,85.9608 C28.8321,86.1088 29.1361,86.3188 29.3841,86.5908 C29.6361,86.8628 29.8281,87.1928 29.9601,87.5808 C30.0961,87.9648 30.1641,88.3948 30.1641,88.8708 C30.1641,89.3508 30.0961,89.7828 29.9601,90.1668 C29.8281,90.5508 29.6361,90.8788 29.3841,91.1508 C29.1361,91.4228 28.8321,91.6328 28.4721,91.7808 C28.1161,91.9248 27.7161,91.9968 27.2721,91.9968 C26.8281,91.9968 26.4261,91.9248 26.0661,91.7808 C25.7101,91.6328 25.4061,91.4228 25.1541,91.1508 C24.9021,90.8788 24.7081,90.5508 24.5721,90.1668 C24.4361,89.7828 24.3681,89.3508 24.3681,88.8708 C24.3681,88.3948 24.4361,87.9648 24.5721,87.5808 C24.7081,87.1928 24.9021,86.8628 25.1541,86.5908 C25.4061,86.3188 25.7101,86.1088 26.0661,85.9608 C26.4261,85.8128 26.8281,85.7388 27.2721,85.7388 Z M27.2721,91.1628 C27.8721,91.1628 28.3201,90.9628 28.6161,90.5628 C28.9121,90.1588 29.0601,89.5968 29.0601,88.8768 C29.0601,88.1528 28.9121,87.5888 28.6161,87.1848 C28.3201,86.7808 27.8721,86.5788 27.2721,86.5788 C26.9681,86.5788 26.7041,86.6308 26.4801,86.7348 C26.2561,86.8388 26.0681,86.9888 25.9161,87.1848 C25.7681,87.3808 25.6561,87.6228 25.5801,87.9108 C25.5081,88.1948 25.4721,88.5168 25.4721,88.8768 C25.4721,89.2368 25.5081,89.5588 25.5801,89.8428 C25.6561,90.1268 25.7681,90.3668 25.9161,90.5628 C26.0681,90.7548 26.2561,90.9028 26.4801,91.0068 C26.7041,91.1108 26.9681,91.1628 27.2721,91.1628 Z M31.4801,91.9128 L31.4801,85.8348 L32.1161,85.8348 C32.2681,85.8348 32.3641,85.9088 32.4041,86.0568 L32.4881,86.7168 C32.7521,86.4248 33.0461,86.1888 33.3701,86.0088 C33.6981,85.8288 34.0761,85.7388 34.5041,85.7388 C34.8361,85.7388 35.1281,85.7948 35.3801,85.9068 C35.6361,86.0148 35.8481,86.1708 36.0161,86.3748 C36.1881,86.5748 36.3181,86.8168 36.4061,87.1008 C36.4941,87.3848 36.5381,87.6988 36.5381,88.0428 L36.5381,91.9128 L35.4701,91.9128 L35.4701,88.0428 C35.4701,87.5828 35.3641,87.2268 35.1521,86.9748 C34.9441,86.7188 34.6241,86.5908 34.1921,86.5908 C33.8761,86.5908 33.5801,86.6668 33.3041,86.8188 C33.0321,86.9708 32.7801,87.1768 32.5481,87.4368 L32.5481,91.9128 L31.4801,91.9128 Z M38.4644,82.8648 C38.5804,83.0568 38.6644,83.2488 38.7164,83.4408 C38.7684,83.6328 38.7944,83.8248 38.7944,84.0168 C38.7944,84.3808 38.7044,84.7288 38.5244,85.0608 C38.3484,85.3888 38.1024,85.6908 37.7864,85.9668 L37.4564,85.7628 C37.4244,85.7428 37.4024,85.7208 37.3904,85.6968 C37.3824,85.6728 37.3784,85.6488 37.3784,85.6248 C37.3784,85.5688 37.3984,85.5208 37.4384,85.4808 C37.5024,85.4048 37.5644,85.3228 37.6244,85.2348 C37.6844,85.1428 37.7384,85.0488 37.7864,84.9528 C37.8344,84.8528 37.8724,84.7488 37.9004,84.6408 C37.9284,84.5328 37.9424,84.4188 37.9424,84.2988 C37.9424,84.1708 37.9224,84.0388 37.8824,83.9028 C37.8464,83.7668 37.7824,83.6228 37.6904,83.4708 C37.6624,83.4268 37.6484,83.3828 37.6484,83.3388 C37.6484,83.2428 37.7024,83.1728 37.8104,83.1288 L38.4644,82.8648 Z M42.0994,92.0088 C41.6194,92.0088 41.2494,91.8748 40.9894,91.6068 C40.7334,91.3388 40.6054,90.9528 40.6054,90.4488 L40.6054,86.7288 L39.8734,86.7288 C39.8094,86.7288 39.7554,86.7108 39.7114,86.6748 C39.6674,86.6348 39.6454,86.5748 39.6454,86.4948 L39.6454,86.0688 L40.6414,85.9428 L40.8874,84.0648 C40.8954,84.0048 40.9214,83.9568 40.9654,83.9208 C41.0094,83.8808 41.0654,83.8608 41.1334,83.8608 L41.6734,83.8608 L41.6734,85.9548 L43.4134,85.9548 L43.4134,86.7288 L41.6734,86.7288 L41.6734,90.3768 C41.6734,90.6328 41.7354,90.8228 41.8594,90.9468 C41.9834,91.0708 42.1434,91.1328 42.3394,91.1328 C42.4514,91.1328 42.5474,91.1188 42.6274,91.0908 C42.7114,91.0588 42.7834,91.0248 42.8434,90.9888 C42.9034,90.9528 42.9534,90.9208 42.9934,90.8928 C43.0374,90.8608 43.0754,90.8448 43.1074,90.8448 C43.1634,90.8448 43.2134,90.8788 43.2574,90.9468 L43.5694,91.4568 C43.3854,91.6288 43.1634,91.7648 42.9034,91.8648 C42.6434,91.9608 42.3754,92.0088 42.0994,92.0088 Z M54.2963,91.9128 L53.3963,91.9128 C53.2923,91.9128 53.2083,91.8868 53.1443,91.8348 C53.0803,91.7828 53.0323,91.7168 53.0003,91.6368 L52.1963,89.5608 L48.3383,89.5608 L47.5343,91.6368 C47.5063,91.7088 47.4583,91.7728 47.3903,91.8288 C47.3223,91.8848 47.2383,91.9128 47.1383,91.9128 L46.2383,91.9128 L49.6763,83.3148 L50.8583,83.3148 L54.2963,91.9128 Z M48.6623,88.7208 L51.8723,88.7208 L50.5223,85.2228 C50.4343,85.0068 50.3483,84.7368 50.2643,84.4128 C50.2203,84.5768 50.1763,84.7288 50.1323,84.8688 C50.0923,85.0048 50.0523,85.1248 50.0123,85.2288 L48.6623,88.7208 Z M56.3985,83.0748 L56.3985,91.9128 L55.3305,91.9128 L55.3305,83.0748 L56.3985,83.0748 Z M59.4688,83.0748 L59.4688,91.9128 L58.4008,91.9128 L58.4008,83.0748 L59.4688,83.0748 Z M63.8111,85.7388 C64.2551,85.7388 64.6551,85.8128 65.0111,85.9608 C65.3711,86.1088 65.6751,86.3188 65.9231,86.5908 C66.1751,86.8628 66.3671,87.1928 66.4991,87.5808 C66.6351,87.9648 66.7031,88.3948 66.7031,88.8708 C66.7031,89.3508 66.6351,89.7828 66.4991,90.1668 C66.3671,90.5508 66.1751,90.8788 65.9231,91.1508 C65.6751,91.4228 65.3711,91.6328 65.0111,91.7808 C64.6551,91.9248 64.2551,91.9968 63.8111,91.9968 C63.3671,91.9968 62.9651,91.9248 62.6051,91.7808 C62.2491,91.6328 61.9451,91.4228 61.6931,91.1508 C61.4411,90.8788 61.2471,90.5508 61.1111,90.1668 C60.9751,89.7828 60.9071,89.3508 60.9071,88.8708 C60.9071,88.3948 60.9751,87.9648 61.1111,87.5808 C61.2471,87.1928 61.4411,86.8628 61.6931,86.5908 C61.9451,86.3188 62.2491,86.1088 62.6051,85.9608 C62.9651,85.8128 63.3671,85.7388 63.8111,85.7388 Z M63.8111,91.1628 C64.4111,91.1628 64.8591,90.9628 65.1551,90.5628 C65.4511,90.1588 65.5991,89.5968 65.5991,88.8768 C65.5991,88.1528 65.4511,87.5888 65.1551,87.1848 C64.8591,86.7808 64.4111,86.5788 63.8111,86.5788 C63.5071,86.5788 63.2431,86.6308 63.0191,86.7348 C62.7951,86.8388 62.6071,86.9888 62.4551,87.1848 C62.3071,87.3808 62.1951,87.6228 62.1191,87.9108 C62.0471,88.1948 62.0111,88.5168 62.0111,88.8768 C62.0111,89.2368 62.0471,89.5588 62.1191,89.8428 C62.1951,90.1268 62.3071,90.3668 62.4551,90.5628 C62.6071,90.7548 62.7951,90.9028 63.0191,91.0068 C63.2431,91.1108 63.5071,91.1628 63.8111,91.1628 Z M67.2271,85.8348 L68.0671,85.8348 C68.1551,85.8348 68.2271,85.8568 68.2831,85.9008 C68.3391,85.9448 68.3771,85.9968 68.3971,86.0568 L69.5611,89.9688 C69.5931,90.1128 69.6231,90.2528 69.6511,90.3888 C69.6791,90.5208 69.7031,90.6548 69.7231,90.7908 C69.7551,90.6548 69.7911,90.5208 69.8311,90.3888 C69.8711,90.2528 69.9131,90.1128 69.9571,89.9688 L71.2411,86.0328 C71.2611,85.9728 71.2951,85.9228 71.3431,85.8828 C71.3951,85.8428 71.4591,85.8228 71.5351,85.8228 L71.9971,85.8228 C72.0771,85.8228 72.1431,85.8428 72.1951,85.8828 C72.2471,85.9228 72.2831,85.9728 72.3031,86.0328 L73.5571,89.9688 C73.6011,90.1088 73.6391,90.2468 73.6711,90.3828 C73.7071,90.5188 73.7411,90.6528 73.7731,90.7848 C73.7931,90.6528 73.8191,90.5148 73.8511,90.3708 C73.8831,90.2268 73.9171,90.0928 73.9531,89.9688 L75.1411,86.0568 C75.1611,85.9928 75.1991,85.9408 75.2551,85.9008 C75.3111,85.8568 75.3771,85.8348 75.4531,85.8348 L76.2571,85.8348 L74.2891,91.9128 L73.4431,91.9128 C73.3391,91.9128 73.2671,91.8448 73.2271,91.7088 L71.8831,87.5868 C71.8511,87.4948 71.8251,87.4028 71.8051,87.3108 C71.7851,87.2148 71.7651,87.1208 71.7451,87.0288 C71.7251,87.1208 71.7051,87.2148 71.6851,87.3108 C71.6651,87.4068 71.6391,87.5008 71.6071,87.5928 L70.2451,91.7088 C70.2011,91.8448 70.1191,91.9128 69.9991,91.9128 L69.1951,91.9128 L67.2271,85.8348 Z" id="Shape" fill="#5B95BA" fill-rule="nonzero"></path>
                <path d="M18.5704,27.2214 L18.5704,21.1434 L19.2064,21.1434 C19.3584,21.1434 19.4544,21.2174 19.4944,21.3654 L19.5724,21.9894 C19.7964,21.7134 20.0464,21.4874 20.3224,21.3114 C20.6024,21.1354 20.9264,21.0474 21.2944,21.0474 C21.7064,21.0474 22.0384,21.1614 22.2904,21.3894 C22.5464,21.6174 22.7304,21.9254 22.8424,22.3134 C22.9264,22.0934 23.0364,21.9034 23.1724,21.7434 C23.3124,21.5834 23.4684,21.4514 23.6404,21.3474 C23.8124,21.2434 23.9944,21.1674 24.1864,21.1194 C24.3824,21.0714 24.5804,21.0474 24.7804,21.0474 C25.1004,21.0474 25.3844,21.0994 25.6324,21.2034 C25.8844,21.3034 26.0964,21.4514 26.2684,21.6474 C26.4444,21.8434 26.5784,22.0854 26.6704,22.3734 C26.7624,22.6574 26.8084,22.9834 26.8084,23.3514 L26.8084,27.2214 L25.7404,27.2214 L25.7404,23.3514 C25.7404,22.8754 25.6364,22.5154 25.4284,22.2714 C25.2204,22.0234 24.9184,21.8994 24.5224,21.8994 C24.3464,21.8994 24.1784,21.9314 24.0184,21.9954 C23.8624,22.0554 23.7244,22.1454 23.6044,22.2654 C23.4844,22.3854 23.3884,22.5374 23.3164,22.7214 C23.2484,22.9014 23.2144,23.1114 23.2144,23.3514 L23.2144,27.2214 L22.1464,27.2214 L22.1464,23.3514 C22.1464,22.8634 22.0484,22.4994 21.8524,22.2594 C21.6564,22.0194 21.3704,21.8994 20.9944,21.8994 C20.7304,21.8994 20.4844,21.9714 20.2564,22.1154 C20.0324,22.2554 19.8264,22.4474 19.6384,22.6914 L19.6384,27.2214 L18.5704,27.2214 Z M29.8719,24.0054 L29.8719,27.2214 L28.7139,27.2214 L28.7139,18.6234 L31.2519,18.6234 C31.7959,18.6234 32.2679,18.6874 32.6679,18.8154 C33.0719,18.9394 33.4059,19.1174 33.6699,19.3494 C33.9339,19.5814 34.1299,19.8614 34.2579,20.1894 C34.3899,20.5174 34.4559,20.8834 34.4559,21.2874 C34.4559,21.6874 34.3859,22.0534 34.2459,22.3854 C34.1059,22.7174 33.8999,23.0034 33.6279,23.2434 C33.3599,23.4834 33.0259,23.6714 32.6259,23.8074 C32.2259,23.9394 31.7679,24.0054 31.2519,24.0054 L29.8719,24.0054 Z M29.8719,23.0814 L31.2519,23.0814 C31.5839,23.0814 31.8759,23.0374 32.1279,22.9494 C32.3839,22.8614 32.5979,22.7394 32.7699,22.5834 C32.9419,22.4234 33.0719,22.2334 33.1599,22.0134 C33.2479,21.7934 33.2919,21.5514 33.2919,21.2874 C33.2919,20.7394 33.1219,20.3114 32.7819,20.0034 C32.4459,19.6954 31.9359,19.5414 31.2519,19.5414 L29.8719,19.5414 L29.8719,23.0814 Z M38.0461,21.0474 C38.4901,21.0474 38.8901,21.1214 39.2461,21.2694 C39.6061,21.4174 39.9101,21.6274 40.1581,21.8994 C40.4101,22.1714 40.6021,22.5014 40.7341,22.8894 C40.8701,23.2734 40.9381,23.7034 40.9381,24.1794 C40.9381,24.6594 40.8701,25.0914 40.7341,25.4754 C40.6021,25.8594 40.4101,26.1874 40.1581,26.4594 C39.9101,26.7314 39.6061,26.9414 39.2461,27.0894 C38.8901,27.2334 38.4901,27.3054 38.0461,27.3054 C37.6021,27.3054 37.2001,27.2334 36.8401,27.0894 C36.4841,26.9414 36.1801,26.7314 35.9281,26.4594 C35.6761,26.1874 35.4821,25.8594 35.3461,25.4754 C35.2101,25.0914 35.1421,24.6594 35.1421,24.1794 C35.1421,23.7034 35.2101,23.2734 35.3461,22.8894 C35.4821,22.5014 35.6761,22.1714 35.9281,21.8994 C36.1801,21.6274 36.4841,21.4174 36.8401,21.2694 C37.2001,21.1214 37.6021,21.0474 38.0461,21.0474 Z M38.0461,26.4714 C38.6461,26.4714 39.0941,26.2714 39.3901,25.8714 C39.6861,25.4674 39.8341,24.9054 39.8341,24.1854 C39.8341,23.4614 39.6861,22.8974 39.3901,22.4934 C39.0941,22.0894 38.6461,21.8874 38.0461,21.8874 C37.7421,21.8874 37.4781,21.9394 37.2541,22.0434 C37.0301,22.1474 36.8421,22.2974 36.6901,22.4934 C36.5421,22.6894 36.4301,22.9314 36.3541,23.2194 C36.2821,23.5034 36.2461,23.8254 36.2461,24.1854 C36.2461,24.5454 36.2821,24.8674 36.3541,25.1514 C36.4301,25.4354 36.5421,25.6754 36.6901,25.8714 C36.8421,26.0634 37.0301,26.2114 37.2541,26.3154 C37.4781,26.4194 37.7421,26.4714 38.0461,26.4714 Z M41.462,21.1434 L42.302,21.1434 C42.39,21.1434 42.462,21.1654 42.518,21.2094 C42.574,21.2534 42.612,21.3054 42.632,21.3654 L43.796,25.2774 C43.828,25.4214 43.858,25.5614 43.886,25.6974 C43.914,25.8294 43.938,25.9634 43.958,26.0994 C43.99,25.9634 44.026,25.8294 44.066,25.6974 C44.106,25.5614 44.148,25.4214 44.192,25.2774 L45.476,21.3414 C45.496,21.2814 45.53,21.2314 45.578,21.1914 C45.63,21.1514 45.694,21.1314 45.77,21.1314 L46.232,21.1314 C46.312,21.1314 46.378,21.1514 46.43,21.1914 C46.482,21.2314 46.518,21.2814 46.538,21.3414 L47.792,25.2774 C47.836,25.4174 47.874,25.5554 47.906,25.6914 C47.942,25.8274 47.976,25.9614 48.008,26.0934 C48.028,25.9614 48.054,25.8234 48.086,25.6794 C48.118,25.5354 48.152,25.4014 48.188,25.2774 L49.376,21.3654 C49.396,21.3014 49.434,21.2494 49.49,21.2094 C49.546,21.1654 49.612,21.1434 49.688,21.1434 L50.492,21.1434 L48.524,27.2214 L47.678,27.2214 C47.574,27.2214 47.502,27.1534 47.462,27.0174 L46.118,22.8954 C46.086,22.8034 46.06,22.7114 46.04,22.6194 C46.02,22.5234 46,22.4294 45.98,22.3374 C45.96,22.4294 45.94,22.5234 45.92,22.6194 C45.9,22.7154 45.874,22.8094 45.842,22.9014 L44.48,27.0174 C44.436,27.1534 44.354,27.2214 44.234,27.2214 L43.43,27.2214 L41.462,21.1434 Z M53.8475,21.0474 C54.2115,21.0474 54.5475,21.1094 54.8555,21.2334 C55.1635,21.3534 55.4295,21.5294 55.6535,21.7614 C55.8775,21.9894 56.0515,22.2734 56.1755,22.6134 C56.3035,22.9494 56.3675,23.3334 56.3675,23.7654 C56.3675,23.9334 56.3495,24.0454 56.3135,24.1014 C56.2775,24.1574 56.2095,24.1854 56.1095,24.1854 L52.0655,24.1854 C52.0735,24.5694 52.1255,24.9034 52.2215,25.1874 C52.3175,25.4714 52.4495,25.7094 52.6175,25.9014 C52.7855,26.0894 52.9855,26.2314 53.2175,26.3274 C53.4495,26.4194 53.7095,26.4654 53.9975,26.4654 C54.2655,26.4654 54.4955,26.4354 54.6875,26.3754 C54.8835,26.3114 55.0515,26.2434 55.1915,26.1714 C55.3315,26.0994 55.4475,26.0334 55.5395,25.9734 C55.6355,25.9094 55.7175,25.8774 55.7855,25.8774 C55.8735,25.8774 55.9415,25.9114 55.9895,25.9794 L56.2895,26.3694 C56.1575,26.5294 55.9995,26.6694 55.8155,26.7894 C55.6315,26.9054 55.4335,27.0014 55.2215,27.0774 C55.0135,27.1534 54.7975,27.2094 54.5735,27.2454 C54.3495,27.2854 54.1275,27.3054 53.9075,27.3054 C53.4875,27.3054 53.0995,27.2354 52.7435,27.0954 C52.3915,26.9514 52.0855,26.7434 51.8255,26.4714 C51.5695,26.1954 51.3695,25.8554 51.2255,25.4514 C51.0815,25.0474 51.0095,24.5834 51.0095,24.0594 C51.0095,23.6354 51.0735,23.2394 51.2015,22.8714 C51.3335,22.5034 51.5215,22.1854 51.7655,21.9174 C52.0095,21.6454 52.3075,21.4334 52.6595,21.2814 C53.0115,21.1254 53.4075,21.0474 53.8475,21.0474 Z M53.8715,21.8334 C53.3555,21.8334 52.9495,21.9834 52.6535,22.2834 C52.3575,22.5794 52.1735,22.9914 52.1015,23.5194 L55.4075,23.5194 C55.4075,23.2714 55.3735,23.0454 55.3055,22.8414 C55.2375,22.6334 55.1375,22.4554 55.0055,22.3074 C54.8735,22.1554 54.7115,22.0394 54.5195,21.9594 C54.3315,21.8754 54.1155,21.8334 53.8715,21.8334 Z M57.7345,27.2214 L57.7345,21.1434 L58.3465,21.1434 C58.4625,21.1434 58.5425,21.1654 58.5865,21.2094 C58.6305,21.2534 58.6605,21.3294 58.6765,21.4374 L58.7485,22.3854 C58.9565,21.9614 59.2125,21.6314 59.5165,21.3954 C59.8245,21.1554 60.1845,21.0354 60.5965,21.0354 C60.7645,21.0354 60.9165,21.0554 61.0525,21.0954 C61.1885,21.1314 61.3145,21.1834 61.4305,21.2514 L61.2925,22.0494 C61.2645,22.1494 61.2025,22.1994 61.1065,22.1994 C61.0505,22.1994 60.9645,22.1814 60.8485,22.1454 C60.7325,22.1054 60.5705,22.0854 60.3625,22.0854 C59.9905,22.0854 59.6785,22.1934 59.4265,22.4094 C59.1785,22.6254 58.9705,22.9394 58.8025,23.3514 L58.8025,27.2214 L57.7345,27.2214 Z M64.1027,21.1434 L64.9427,21.1434 C65.0307,21.1434 65.1027,21.1654 65.1587,21.2094 C65.2147,21.2534 65.2527,21.3054 65.2727,21.3654 L66.4367,25.2774 C66.4687,25.4214 66.4987,25.5614 66.5267,25.6974 C66.5547,25.8294 66.5787,25.9634 66.5987,26.0994 C66.6307,25.9634 66.6667,25.8294 66.7067,25.6974 C66.7467,25.5614 66.7887,25.4214 66.8327,25.2774 L68.1167,21.3414 C68.1367,21.2814 68.1707,21.2314 68.2187,21.1914 C68.2707,21.1514 68.3347,21.1314 68.4107,21.1314 L68.8727,21.1314 C68.9527,21.1314 69.0187,21.1514 69.0707,21.1914 C69.1227,21.2314 69.1587,21.2814 69.1787,21.3414 L70.4327,25.2774 C70.4767,25.4174 70.5147,25.5554 70.5467,25.6914 C70.5827,25.8274 70.6167,25.9614 70.6487,26.0934 C70.6687,25.9614 70.6947,25.8234 70.7267,25.6794 C70.7587,25.5354 70.7927,25.4014 70.8287,25.2774 L72.0167,21.3654 C72.0367,21.3014 72.0747,21.2494 72.1307,21.2094 C72.1867,21.1654 72.2527,21.1434 72.3287,21.1434 L73.1327,21.1434 L71.1647,27.2214 L70.3187,27.2214 C70.2147,27.2214 70.1427,27.1534 70.1027,27.0174 L68.7587,22.8954 C68.7267,22.8034 68.7007,22.7114 68.6807,22.6194 C68.6607,22.5234 68.6407,22.4294 68.6207,22.3374 C68.6007,22.4294 68.5807,22.5234 68.5607,22.6194 C68.5407,22.7154 68.5147,22.8094 68.4827,22.9014 L67.1207,27.0174 C67.0767,27.1534 66.9947,27.2214 66.8747,27.2214 L66.0707,27.2214 L64.1027,21.1434 Z M76.5422,21.0474 C76.9862,21.0474 77.3862,21.1214 77.7422,21.2694 C78.1022,21.4174 78.4062,21.6274 78.6542,21.8994 C78.9062,22.1714 79.0982,22.5014 79.2302,22.8894 C79.3662,23.2734 79.4342,23.7034 79.4342,24.1794 C79.4342,24.6594 79.3662,25.0914 79.2302,25.4754 C79.0982,25.8594 78.9062,26.1874 78.6542,26.4594 C78.4062,26.7314 78.1022,26.9414 77.7422,27.0894 C77.3862,27.2334 76.9862,27.3054 76.5422,27.3054 C76.0982,27.3054 75.6962,27.2334 75.3362,27.0894 C74.9802,26.9414 74.6762,26.7314 74.4242,26.4594 C74.1722,26.1874 73.9782,25.8594 73.8422,25.4754 C73.7062,25.0914 73.6382,24.6594 73.6382,24.1794 C73.6382,23.7034 73.7062,23.2734 73.8422,22.8894 C73.9782,22.5014 74.1722,22.1714 74.4242,21.8994 C74.6762,21.6274 74.9802,21.4174 75.3362,21.2694 C75.6962,21.1214 76.0982,21.0474 76.5422,21.0474 Z M76.5422,26.4714 C77.1422,26.4714 77.5902,26.2714 77.8862,25.8714 C78.1822,25.4674 78.3302,24.9054 78.3302,24.1854 C78.3302,23.4614 78.1822,22.8974 77.8862,22.4934 C77.5902,22.0894 77.1422,21.8874 76.5422,21.8874 C76.2382,21.8874 75.9742,21.9394 75.7502,22.0434 C75.5262,22.1474 75.3382,22.2974 75.1862,22.4934 C75.0382,22.6894 74.9262,22.9314 74.8502,23.2194 C74.7782,23.5034 74.7422,23.8254 74.7422,24.1854 C74.7422,24.5454 74.7782,24.8674 74.8502,25.1514 C74.9262,25.4354 75.0382,25.6754 75.1862,25.8714 C75.3382,26.0634 75.5262,26.2114 75.7502,26.3154 C75.9742,26.4194 76.2382,26.4714 76.5422,26.4714 Z M81.6741,21.1434 L81.6741,25.0194 C81.6741,25.4794 81.7801,25.8354 81.9921,26.0874 C82.2041,26.3394 82.5241,26.4654 82.9521,26.4654 C83.2641,26.4654 83.5581,26.3914 83.8341,26.2434 C84.1101,26.0954 84.3641,25.8894 84.5961,25.6254 L84.5961,21.1434 L85.6641,21.1434 L85.6641,27.2214 L85.0281,27.2214 C84.8761,27.2214 84.7801,27.1474 84.7401,26.9994 L84.6561,26.3454 C84.3921,26.6374 84.0961,26.8734 83.7681,27.0534 C83.4401,27.2294 83.0641,27.3174 82.6401,27.3174 C82.3081,27.3174 82.0141,27.2634 81.7581,27.1554 C81.5061,27.0434 81.2941,26.8874 81.1221,26.6874 C80.9501,26.4874 80.8201,26.2454 80.7321,25.9614 C80.6481,25.6774 80.6061,25.3634 80.6061,25.0194 L80.6061,21.1434 L81.6741,21.1434 Z M88.6061,18.3834 L88.6061,27.2214 L87.5381,27.2214 L87.5381,18.3834 L88.6061,18.3834 Z M94.7664,27.2214 C94.6144,27.2214 94.5184,27.1474 94.4784,26.9994 L94.3824,26.2614 C94.1224,26.5774 93.8244,26.8314 93.4884,27.0234 C93.1564,27.2114 92.7744,27.3054 92.3424,27.3054 C91.9944,27.3054 91.6784,27.2394 91.3944,27.1074 C91.1104,26.9714 90.8684,26.7734 90.6684,26.5134 C90.4684,26.2534 90.3144,25.9294 90.2064,25.5414 C90.0984,25.1534 90.0444,24.7074 90.0444,24.2034 C90.0444,23.7554 90.1044,23.3394 90.2244,22.9554 C90.3444,22.5674 90.5164,22.2314 90.7404,21.9474 C90.9684,21.6634 91.2444,21.4414 91.5684,21.2814 C91.8924,21.1174 92.2604,21.0354 92.6724,21.0354 C93.0444,21.0354 93.3624,21.0994 93.6264,21.2274 C93.8904,21.3514 94.1264,21.5274 94.3344,21.7554 L94.3344,18.3834 L95.4024,18.3834 L95.4024,27.2214 L94.7664,27.2214 Z M92.6964,26.4414 C93.0444,26.4414 93.3484,26.3614 93.6084,26.2014 C93.8724,26.0414 94.1144,25.8154 94.3344,25.5234 L94.3344,22.5834 C94.1384,22.3194 93.9224,22.1354 93.6864,22.0314 C93.4544,21.9234 93.1964,21.8694 92.9124,21.8694 C92.3444,21.8694 91.9084,22.0714 91.6044,22.4754 C91.3004,22.8794 91.1484,23.4554 91.1484,24.2034 C91.1484,24.5994 91.1824,24.9394 91.2504,25.2234 C91.3184,25.5034 91.4184,25.7354 91.5504,25.9194 C91.6824,26.0994 91.8444,26.2314 92.0364,26.3154 C92.2284,26.3994 92.4484,26.4414 92.6964,26.4414 Z M100.7,18.3834 L100.7,27.2214 L99.632,27.2214 L99.632,18.3834 L100.7,18.3834 Z M103.77,21.1434 L103.77,27.2214 L102.702,27.2214 L102.702,21.1434 L103.77,21.1434 Z M104.01,19.2354 C104.01,19.3394 103.988,19.4374 103.944,19.5294 C103.904,19.6174 103.848,19.6974 103.776,19.7694 C103.708,19.8374 103.628,19.8914 103.536,19.9314 C103.444,19.9714 103.346,19.9914 103.242,19.9914 C103.138,19.9914 103.04,19.9714 102.948,19.9314 C102.86,19.8914 102.78,19.8374 102.708,19.7694 C102.64,19.6974 102.586,19.6174 102.546,19.5294 C102.506,19.4374 102.486,19.3394 102.486,19.2354 C102.486,19.1314 102.506,19.0334 102.546,18.9414 C102.586,18.8454 102.64,18.7634 102.708,18.6954 C102.78,18.6234 102.86,18.5674 102.948,18.5274 C103.04,18.4874 103.138,18.4674 103.242,18.4674 C103.346,18.4674 103.444,18.4874 103.536,18.5274 C103.628,18.5674 103.708,18.6234 103.776,18.6954 C103.848,18.7634 103.904,18.8454 103.944,18.9414 C103.988,19.0334 104.01,19.1314 104.01,19.2354 Z M106.762,18.3834 L106.762,23.5854 L107.038,23.5854 C107.118,23.5854 107.184,23.5754 107.236,23.5554 C107.288,23.5314 107.346,23.4854 107.41,23.4174 L109.33,21.3594 C109.39,21.2954 109.45,21.2434 109.51,21.2034 C109.57,21.1634 109.65,21.1434 109.75,21.1434 L110.722,21.1434 L108.484,23.5254 C108.428,23.5934 108.372,23.6534 108.316,23.7054 C108.264,23.7574 108.204,23.8034 108.136,23.8434 C108.208,23.8914 108.272,23.9474 108.328,24.0114 C108.388,24.0714 108.444,24.1414 108.496,24.2214 L110.872,27.2214 L109.912,27.2214 C109.824,27.2214 109.748,27.2054 109.684,27.1734 C109.624,27.1374 109.566,27.0834 109.51,27.0114 L107.512,24.5214 C107.452,24.4374 107.392,24.3834 107.332,24.3594 C107.272,24.3314 107.182,24.3174 107.062,24.3174 L106.762,24.3174 L106.762,27.2214 L105.688,27.2214 L105.688,18.3834 L106.762,18.3834 Z M113.988,21.0474 C114.352,21.0474 114.688,21.1094 114.996,21.2334 C115.304,21.3534 115.57,21.5294 115.794,21.7614 C116.018,21.9894 116.192,22.2734 116.316,22.6134 C116.444,22.9494 116.508,23.3334 116.508,23.7654 C116.508,23.9334 116.49,24.0454 116.454,24.1014 C116.418,24.1574 116.35,24.1854 116.25,24.1854 L112.206,24.1854 C112.214,24.5694 112.266,24.9034 112.362,25.1874 C112.458,25.4714 112.59,25.7094 112.758,25.9014 C112.926,26.0894 113.126,26.2314 113.358,26.3274 C113.59,26.4194 113.85,26.4654 114.138,26.4654 C114.406,26.4654 114.636,26.4354 114.828,26.3754 C115.024,26.3114 115.192,26.2434 115.332,26.1714 C115.472,26.0994 115.588,26.0334 115.68,25.9734 C115.776,25.9094 115.858,25.8774 115.926,25.8774 C116.014,25.8774 116.082,25.9114 116.13,25.9794 L116.43,26.3694 C116.298,26.5294 116.14,26.6694 115.956,26.7894 C115.772,26.9054 115.574,27.0014 115.362,27.0774 C115.154,27.1534 114.938,27.2094 114.714,27.2454 C114.49,27.2854 114.268,27.3054 114.048,27.3054 C113.628,27.3054 113.24,27.2354 112.884,27.0954 C112.532,26.9514 112.226,26.7434 111.966,26.4714 C111.71,26.1954 111.51,25.8554 111.366,25.4514 C111.222,25.0474 111.15,24.5834 111.15,24.0594 C111.15,23.6354 111.214,23.2394 111.342,22.8714 C111.474,22.5034 111.662,22.1854 111.906,21.9174 C112.15,21.6454 112.448,21.4334 112.8,21.2814 C113.152,21.1254 113.548,21.0474 113.988,21.0474 Z M114.012,21.8334 C113.496,21.8334 113.09,21.9834 112.794,22.2834 C112.498,22.5794 112.314,22.9914 112.242,23.5194 L115.548,23.5194 C115.548,23.2714 115.514,23.0454 115.446,22.8414 C115.378,22.6334 115.278,22.4554 115.146,22.3074 C115.014,22.1554 114.852,22.0394 114.66,21.9594 C114.472,21.8754 114.256,21.8334 114.012,21.8334 Z M122.037,27.3174 C121.557,27.3174 121.187,27.1834 120.927,26.9154 C120.671,26.6474 120.543,26.2614 120.543,25.7574 L120.543,22.0374 L119.811,22.0374 C119.747,22.0374 119.693,22.0194 119.649,21.9834 C119.605,21.9434 119.583,21.8834 119.583,21.8034 L119.583,21.3774 L120.579,21.2514 L120.825,19.3734 C120.833,19.3134 120.859,19.2654 120.903,19.2294 C120.947,19.1894 121.003,19.1694 121.071,19.1694 L121.611,19.1694 L121.611,21.2634 L123.351,21.2634 L123.351,22.0374 L121.611,22.0374 L121.611,25.6854 C121.611,25.9414 121.673,26.1314 121.797,26.2554 C121.921,26.3794 122.081,26.4414 122.277,26.4414 C122.389,26.4414 122.485,26.4274 122.565,26.3994 C122.649,26.3674 122.721,26.3334 122.781,26.2974 C122.841,26.2614 122.891,26.2294 122.931,26.2014 C122.975,26.1694 123.013,26.1534 123.045,26.1534 C123.101,26.1534 123.151,26.1874 123.195,26.2554 L123.507,26.7654 C123.323,26.9374 123.101,27.0734 122.841,27.1734 C122.581,27.2694 122.313,27.3174 122.037,27.3174 Z M127.132,21.0474 C127.576,21.0474 127.976,21.1214 128.332,21.2694 C128.692,21.4174 128.996,21.6274 129.244,21.8994 C129.496,22.1714 129.688,22.5014 129.82,22.8894 C129.956,23.2734 130.024,23.7034 130.024,24.1794 C130.024,24.6594 129.956,25.0914 129.82,25.4754 C129.688,25.8594 129.496,26.1874 129.244,26.4594 C128.996,26.7314 128.692,26.9414 128.332,27.0894 C127.976,27.2334 127.576,27.3054 127.132,27.3054 C126.688,27.3054 126.286,27.2334 125.926,27.0894 C125.57,26.9414 125.266,26.7314 125.014,26.4594 C124.762,26.1874 124.568,25.8594 124.432,25.4754 C124.296,25.0914 124.228,24.6594 124.228,24.1794 C124.228,23.7034 124.296,23.2734 124.432,22.8894 C124.568,22.5014 124.762,22.1714 125.014,21.8994 C125.266,21.6274 125.57,21.4174 125.926,21.2694 C126.286,21.1214 126.688,21.0474 127.132,21.0474 Z M127.132,26.4714 C127.732,26.4714 128.18,26.2714 128.476,25.8714 C128.772,25.4674 128.92,24.9054 128.92,24.1854 C128.92,23.4614 128.772,22.8974 128.476,22.4934 C128.18,22.0894 127.732,21.8874 127.132,21.8874 C126.828,21.8874 126.564,21.9394 126.34,22.0434 C126.116,22.1474 125.928,22.2974 125.776,22.4934 C125.628,22.6894 125.516,22.9314 125.44,23.2194 C125.368,23.5034 125.332,23.8254 125.332,24.1854 C125.332,24.5454 125.368,24.8674 125.44,25.1514 C125.516,25.4354 125.628,25.6754 125.776,25.8714 C125.928,26.0634 126.116,26.2114 126.34,26.3154 C126.564,26.4194 126.828,26.4714 127.132,26.4714 Z M138.124,27.2214 L137.65,27.2214 C137.546,27.2214 137.462,27.2054 137.398,27.1734 C137.334,27.1414 137.292,27.0734 137.272,26.9694 L137.152,26.4054 C136.992,26.5494 136.836,26.6794 136.684,26.7954 C136.532,26.9074 136.372,27.0034 136.204,27.0834 C136.036,27.1594 135.856,27.2174 135.664,27.2574 C135.476,27.2974 135.266,27.3174 135.034,27.3174 C134.798,27.3174 134.576,27.2854 134.368,27.2214 C134.164,27.1534 133.986,27.0534 133.834,26.9214 C133.682,26.7894 133.56,26.6234 133.468,26.4234 C133.38,26.2194 133.336,25.9794 133.336,25.7034 C133.336,25.4634 133.402,25.2334 133.534,25.0134 C133.666,24.7894 133.878,24.5914 134.17,24.4194 C134.466,24.2474 134.852,24.1074 135.328,23.9994 C135.804,23.8874 136.386,23.8234 137.074,23.8074 L137.074,23.3334 C137.074,22.8614 136.972,22.5054 136.768,22.2654 C136.568,22.0214 136.27,21.8994 135.874,21.8994 C135.614,21.8994 135.394,21.9334 135.214,22.0014 C135.038,22.0654 134.884,22.1394 134.752,22.2234 C134.624,22.3034 134.512,22.3774 134.416,22.4454 C134.324,22.5094 134.232,22.5414 134.14,22.5414 C134.068,22.5414 134.004,22.5234 133.948,22.4874 C133.896,22.4474 133.854,22.3994 133.822,22.3434 L133.63,22.0014 C133.966,21.6774 134.328,21.4354 134.716,21.2754 C135.104,21.1154 135.534,21.0354 136.006,21.0354 C136.346,21.0354 136.648,21.0914 136.912,21.2034 C137.176,21.3154 137.398,21.4714 137.578,21.6714 C137.758,21.8714 137.894,22.1134 137.986,22.3974 C138.078,22.6814 138.124,22.9934 138.124,23.3334 L138.124,27.2214 Z M135.352,26.5674 C135.54,26.5674 135.712,26.5494 135.868,26.5134 C136.024,26.4734 136.17,26.4194 136.306,26.3514 C136.446,26.2794 136.578,26.1934 136.702,26.0934 C136.83,25.9934 136.954,25.8794 137.074,25.7514 L137.074,24.4854 C136.582,24.5014 136.164,24.5414 135.82,24.6054 C135.476,24.6654 135.196,24.7454 134.98,24.8454 C134.764,24.9454 134.606,25.0634 134.506,25.1994 C134.41,25.3354 134.362,25.4874 134.362,25.6554 C134.362,25.8154 134.388,25.9534 134.44,26.0694 C134.492,26.1854 134.562,26.2814 134.65,26.3574 C134.738,26.4294 134.842,26.4834 134.962,26.5194 C135.082,26.5514 135.212,26.5674 135.352,26.5674 Z M143.888,22.2234 C143.856,22.2674 143.824,22.3014 143.792,22.3254 C143.76,22.3494 143.714,22.3614 143.654,22.3614 C143.594,22.3614 143.528,22.3374 143.456,22.2894 C143.388,22.2374 143.3,22.1814 143.192,22.1214 C143.084,22.0614 142.952,22.0074 142.796,21.9594 C142.644,21.9074 142.456,21.8814 142.232,21.8814 C141.936,21.8814 141.674,21.9354 141.446,22.0434 C141.218,22.1474 141.026,22.2994 140.87,22.4994 C140.718,22.6994 140.602,22.9414 140.522,23.2254 C140.446,23.5094 140.408,23.8274 140.408,24.1794 C140.408,24.5474 140.45,24.8754 140.534,25.1634 C140.618,25.4474 140.736,25.6874 140.888,25.8834 C141.04,26.0754 141.224,26.2234 141.44,26.3274 C141.66,26.4274 141.906,26.4774 142.178,26.4774 C142.438,26.4774 142.652,26.4474 142.82,26.3874 C142.988,26.3234 143.128,26.2534 143.24,26.1774 C143.352,26.1014 143.444,26.0334 143.516,25.9734 C143.588,25.9094 143.66,25.8774 143.732,25.8774 C143.824,25.8774 143.892,25.9114 143.936,25.9794 L144.236,26.3694 C143.972,26.6934 143.642,26.9314 143.246,27.0834 C142.85,27.2314 142.432,27.3054 141.992,27.3054 C141.612,27.3054 141.258,27.2354 140.93,27.0954 C140.606,26.9554 140.324,26.7534 140.084,26.4894 C139.844,26.2214 139.654,25.8934 139.514,25.5054 C139.378,25.1174 139.31,24.6754 139.31,24.1794 C139.31,23.7274 139.372,23.3094 139.496,22.9254 C139.624,22.5414 139.808,22.2114 140.048,21.9354 C140.292,21.6554 140.592,21.4374 140.948,21.2814 C141.304,21.1254 141.712,21.0474 142.172,21.0474 C142.596,21.0474 142.972,21.1174 143.3,21.2574 C143.628,21.3934 143.918,21.5874 144.17,21.8394 L143.888,22.2234 Z M149.49,22.2234 C149.458,22.2674 149.426,22.3014 149.394,22.3254 C149.362,22.3494 149.316,22.3614 149.256,22.3614 C149.196,22.3614 149.13,22.3374 149.058,22.2894 C148.99,22.2374 148.902,22.1814 148.794,22.1214 C148.686,22.0614 148.554,22.0074 148.398,21.9594 C148.246,21.9074 148.058,21.8814 147.834,21.8814 C147.538,21.8814 147.276,21.9354 147.048,22.0434 C146.82,22.1474 146.628,22.2994 146.472,22.4994 C146.32,22.6994 146.204,22.9414 146.124,23.2254 C146.048,23.5094 146.01,23.8274 146.01,24.1794 C146.01,24.5474 146.052,24.8754 146.136,25.1634 C146.22,25.4474 146.338,25.6874 146.49,25.8834 C146.642,26.0754 146.826,26.2234 147.042,26.3274 C147.262,26.4274 147.508,26.4774 147.78,26.4774 C148.04,26.4774 148.254,26.4474 148.422,26.3874 C148.59,26.3234 148.73,26.2534 148.842,26.1774 C148.954,26.1014 149.046,26.0334 149.118,25.9734 C149.19,25.9094 149.262,25.8774 149.334,25.8774 C149.426,25.8774 149.494,25.9114 149.538,25.9794 L149.838,26.3694 C149.574,26.6934 149.244,26.9314 148.848,27.0834 C148.452,27.2314 148.034,27.3054 147.594,27.3054 C147.214,27.3054 146.86,27.2354 146.532,27.0954 C146.208,26.9554 145.926,26.7534 145.686,26.4894 C145.446,26.2214 145.256,25.8934 145.116,25.5054 C144.98,25.1174 144.912,24.6754 144.912,24.1794 C144.912,23.7274 144.974,23.3094 145.098,22.9254 C145.226,22.5414 145.41,22.2114 145.65,21.9354 C145.894,21.6554 146.194,21.4374 146.55,21.2814 C146.906,21.1254 147.314,21.0474 147.774,21.0474 C148.198,21.0474 148.574,21.1174 148.902,21.2574 C149.23,21.3934 149.52,21.5874 149.772,21.8394 L149.49,22.2234 Z M153.351,21.0474 C153.715,21.0474 154.051,21.1094 154.359,21.2334 C154.667,21.3534 154.933,21.5294 155.157,21.7614 C155.381,21.9894 155.555,22.2734 155.679,22.6134 C155.807,22.9494 155.871,23.3334 155.871,23.7654 C155.871,23.9334 155.853,24.0454 155.817,24.1014 C155.781,24.1574 155.713,24.1854 155.613,24.1854 L151.569,24.1854 C151.577,24.5694 151.629,24.9034 151.725,25.1874 C151.821,25.4714 151.953,25.7094 152.121,25.9014 C152.289,26.0894 152.489,26.2314 152.721,26.3274 C152.953,26.4194 153.213,26.4654 153.501,26.4654 C153.769,26.4654 153.999,26.4354 154.191,26.3754 C154.387,26.3114 154.555,26.2434 154.695,26.1714 C154.835,26.0994 154.951,26.0334 155.043,25.9734 C155.139,25.9094 155.221,25.8774 155.289,25.8774 C155.377,25.8774 155.445,25.9114 155.493,25.9794 L155.793,26.3694 C155.661,26.5294 155.503,26.6694 155.319,26.7894 C155.135,26.9054 154.937,27.0014 154.725,27.0774 C154.517,27.1534 154.301,27.2094 154.077,27.2454 C153.853,27.2854 153.631,27.3054 153.411,27.3054 C152.991,27.3054 152.603,27.2354 152.247,27.0954 C151.895,26.9514 151.589,26.7434 151.329,26.4714 C151.073,26.1954 150.873,25.8554 150.729,25.4514 C150.585,25.0474 150.513,24.5834 150.513,24.0594 C150.513,23.6354 150.577,23.2394 150.705,22.8714 C150.837,22.5034 151.025,22.1854 151.269,21.9174 C151.513,21.6454 151.811,21.4334 152.163,21.2814 C152.515,21.1254 152.911,21.0474 153.351,21.0474 Z M153.375,21.8334 C152.859,21.8334 152.453,21.9834 152.157,22.2834 C151.861,22.5794 151.677,22.9914 151.605,23.5194 L154.911,23.5194 C154.911,23.2714 154.877,23.0454 154.809,22.8414 C154.741,22.6334 154.641,22.4554 154.509,22.3074 C154.377,22.1554 154.215,22.0394 154.023,21.9594 C153.835,21.8754 153.619,21.8334 153.375,21.8334 Z M160.718,22.1454 C160.67,22.2334 160.596,22.2774 160.496,22.2774 C160.436,22.2774 160.368,22.2554 160.292,22.2114 C160.216,22.1674 160.122,22.1194 160.01,22.0674 C159.902,22.0114 159.772,21.9614 159.62,21.9174 C159.468,21.8694 159.288,21.8454 159.08,21.8454 C158.9,21.8454 158.738,21.8694 158.594,21.9174 C158.45,21.9614 158.326,22.0234 158.222,22.1034 C158.122,22.1834 158.044,22.2774 157.988,22.3854 C157.936,22.4894 157.91,22.6034 157.91,22.7274 C157.91,22.8834 157.954,23.0134 158.042,23.1174 C158.134,23.2214 158.254,23.3114 158.402,23.3874 C158.55,23.4634 158.718,23.5314 158.906,23.5914 C159.094,23.6474 159.286,23.7094 159.482,23.7774 C159.682,23.8414 159.876,23.9134 160.064,23.9934 C160.252,24.0734 160.42,24.1734 160.568,24.2934 C160.716,24.4134 160.834,24.5614 160.922,24.7374 C161.014,24.9094 161.06,25.1174 161.06,25.3614 C161.06,25.6414 161.01,25.9014 160.91,26.1414 C160.81,26.3774 160.662,26.5834 160.466,26.7594 C160.27,26.9314 160.03,27.0674 159.746,27.1674 C159.462,27.2674 159.134,27.3174 158.762,27.3174 C158.338,27.3174 157.954,27.2494 157.61,27.1134 C157.266,26.9734 156.974,26.7954 156.734,26.5794 L156.986,26.1714 C157.018,26.1194 157.056,26.0794 157.1,26.0514 C157.144,26.0234 157.202,26.0094 157.274,26.0094 C157.346,26.0094 157.422,26.0374 157.502,26.0934 C157.582,26.1494 157.678,26.2114 157.79,26.2794 C157.906,26.3474 158.044,26.4094 158.204,26.4654 C158.368,26.5214 158.572,26.5494 158.816,26.5494 C159.024,26.5494 159.206,26.5234 159.362,26.4714 C159.518,26.4154 159.648,26.3414 159.752,26.2494 C159.856,26.1574 159.932,26.0514 159.98,25.9314 C160.032,25.8114 160.058,25.6834 160.058,25.5474 C160.058,25.3794 160.012,25.2414 159.92,25.1334 C159.832,25.0214 159.714,24.9274 159.566,24.8514 C159.418,24.7714 159.248,24.7034 159.056,24.6474 C158.868,24.5874 158.674,24.5254 158.474,24.4614 C158.278,24.3974 158.084,24.3254 157.892,24.2454 C157.704,24.1614 157.536,24.0574 157.388,23.9334 C157.24,23.8094 157.12,23.6574 157.028,23.4774 C156.94,23.2934 156.896,23.0714 156.896,22.8114 C156.896,22.5794 156.944,22.3574 157.04,22.1454 C157.136,21.9294 157.276,21.7414 157.46,21.5814 C157.644,21.4174 157.87,21.2874 158.138,21.1914 C158.406,21.0954 158.712,21.0474 159.056,21.0474 C159.456,21.0474 159.814,21.1114 160.13,21.2394 C160.45,21.3634 160.726,21.5354 160.958,21.7554 L160.718,22.1454 Z M165.922,22.1454 C165.874,22.2334 165.8,22.2774 165.7,22.2774 C165.64,22.2774 165.572,22.2554 165.496,22.2114 C165.42,22.1674 165.326,22.1194 165.214,22.0674 C165.106,22.0114 164.976,21.9614 164.824,21.9174 C164.672,21.8694 164.492,21.8454 164.284,21.8454 C164.104,21.8454 163.942,21.8694 163.798,21.9174 C163.654,21.9614 163.53,22.0234 163.426,22.1034 C163.326,22.1834 163.248,22.2774 163.192,22.3854 C163.14,22.4894 163.114,22.6034 163.114,22.7274 C163.114,22.8834 163.158,23.0134 163.246,23.1174 C163.338,23.2214 163.458,23.3114 163.606,23.3874 C163.754,23.4634 163.922,23.5314 164.11,23.5914 C164.298,23.6474 164.49,23.7094 164.686,23.7774 C164.886,23.8414 165.08,23.9134 165.268,23.9934 C165.456,24.0734 165.624,24.1734 165.772,24.2934 C165.92,24.4134 166.038,24.5614 166.126,24.7374 C166.218,24.9094 166.264,25.1174 166.264,25.3614 C166.264,25.6414 166.214,25.9014 166.114,26.1414 C166.014,26.3774 165.866,26.5834 165.67,26.7594 C165.474,26.9314 165.234,27.0674 164.95,27.1674 C164.666,27.2674 164.338,27.3174 163.966,27.3174 C163.542,27.3174 163.158,27.2494 162.814,27.1134 C162.47,26.9734 162.178,26.7954 161.938,26.5794 L162.19,26.1714 C162.222,26.1194 162.26,26.0794 162.304,26.0514 C162.348,26.0234 162.406,26.0094 162.478,26.0094 C162.55,26.0094 162.626,26.0374 162.706,26.0934 C162.786,26.1494 162.882,26.2114 162.994,26.2794 C163.11,26.3474 163.248,26.4094 163.408,26.4654 C163.572,26.5214 163.776,26.5494 164.02,26.5494 C164.228,26.5494 164.41,26.5234 164.566,26.4714 C164.722,26.4154 164.852,26.3414 164.956,26.2494 C165.06,26.1574 165.136,26.0514 165.184,25.9314 C165.236,25.8114 165.262,25.6834 165.262,25.5474 C165.262,25.3794 165.216,25.2414 165.124,25.1334 C165.036,25.0214 164.918,24.9274 164.77,24.8514 C164.622,24.7714 164.452,24.7034 164.26,24.6474 C164.072,24.5874 163.878,24.5254 163.678,24.4614 C163.482,24.3974 163.288,24.3254 163.096,24.2454 C162.908,24.1614 162.74,24.0574 162.592,23.9334 C162.444,23.8094 162.324,23.6574 162.232,23.4774 C162.144,23.2934 162.1,23.0714 162.1,22.8114 C162.1,22.5794 162.148,22.3574 162.244,22.1454 C162.34,21.9294 162.48,21.7414 162.664,21.5814 C162.848,21.4174 163.074,21.2874 163.342,21.1914 C163.61,21.0954 163.916,21.0474 164.26,21.0474 C164.66,21.0474 165.018,21.1114 165.334,21.2394 C165.654,21.3634 165.93,21.5354 166.162,21.7554 L165.922,22.1454 Z M43.4735,43.0154 C43.4375,43.0954 43.3915,43.1594 43.3355,43.2074 C43.2835,43.2554 43.2015,43.2794 43.0895,43.2794 L42.2975,43.2794 L43.4075,40.8674 L40.8995,35.1434 L41.8235,35.1434 C41.9155,35.1434 41.9875,35.1674 42.0395,35.2154 C42.0915,35.2594 42.1295,35.3094 42.1535,35.3654 L43.7795,39.1934 C43.8155,39.2814 43.8455,39.3694 43.8695,39.4574 C43.8975,39.5454 43.9215,39.6354 43.9415,39.7274 C43.9695,39.6354 43.9975,39.5454 44.0255,39.4574 C44.0535,39.3694 44.0855,39.2794 44.1215,39.1874 L45.6995,35.3654 C45.7235,35.3014 45.7635,35.2494 45.8195,35.2094 C45.8795,35.1654 45.9435,35.1434 46.0115,35.1434 L46.8635,35.1434 L43.4735,43.0154 Z M50.1398,35.0474 C50.5838,35.0474 50.9838,35.1214 51.3398,35.2694 C51.6998,35.4174 52.0038,35.6274 52.2518,35.8994 C52.5038,36.1714 52.6958,36.5014 52.8278,36.8894 C52.9638,37.2734 53.0318,37.7034 53.0318,38.1794 C53.0318,38.6594 52.9638,39.0914 52.8278,39.4754 C52.6958,39.8594 52.5038,40.1874 52.2518,40.4594 C52.0038,40.7314 51.6998,40.9414 51.3398,41.0894 C50.9838,41.2334 50.5838,41.3054 50.1398,41.3054 C49.6958,41.3054 49.2938,41.2334 48.9338,41.0894 C48.5778,40.9414 48.2738,40.7314 48.0218,40.4594 C47.7698,40.1874 47.5758,39.8594 47.4398,39.4754 C47.3038,39.0914 47.2358,38.6594 47.2358,38.1794 C47.2358,37.7034 47.3038,37.2734 47.4398,36.8894 C47.5758,36.5014 47.7698,36.1714 48.0218,35.8994 C48.2738,35.6274 48.5778,35.4174 48.9338,35.2694 C49.2938,35.1214 49.6958,35.0474 50.1398,35.0474 Z M50.1398,40.4714 C50.7398,40.4714 51.1878,40.2714 51.4838,39.8714 C51.7798,39.4674 51.9278,38.9054 51.9278,38.1854 C51.9278,37.4614 51.7798,36.8974 51.4838,36.4934 C51.1878,36.0894 50.7398,35.8874 50.1398,35.8874 C49.8358,35.8874 49.5718,35.9394 49.3478,36.0434 C49.1238,36.1474 48.9358,36.2974 48.7838,36.4934 C48.6358,36.6894 48.5238,36.9314 48.4478,37.2194 C48.3758,37.5034 48.3398,37.8254 48.3398,38.1854 C48.3398,38.5454 48.3758,38.8674 48.4478,39.1514 C48.5238,39.4354 48.6358,39.6754 48.7838,39.8714 C48.9358,40.0634 49.1238,40.2114 49.3478,40.3154 C49.5718,40.4194 49.8358,40.4714 50.1398,40.4714 Z M55.2718,35.1434 L55.2718,39.0194 C55.2718,39.4794 55.3778,39.8354 55.5898,40.0874 C55.8018,40.3394 56.1218,40.4654 56.5498,40.4654 C56.8618,40.4654 57.1558,40.3914 57.4318,40.2434 C57.7078,40.0954 57.9618,39.8894 58.1938,39.6254 L58.1938,35.1434 L59.2618,35.1434 L59.2618,41.2214 L58.6258,41.2214 C58.4738,41.2214 58.3778,41.1474 58.3378,40.9994 L58.2538,40.3454 C57.9898,40.6374 57.6938,40.8734 57.3658,41.0534 C57.0378,41.2294 56.6618,41.3174 56.2378,41.3174 C55.9058,41.3174 55.6118,41.2634 55.3558,41.1554 C55.1038,41.0434 54.8918,40.8874 54.7198,40.6874 C54.5478,40.4874 54.4178,40.2454 54.3298,39.9614 C54.2458,39.6774 54.2038,39.3634 54.2038,39.0194 L54.2038,35.1434 L55.2718,35.1434 Z M61.0158,41.2214 L61.0158,35.1434 L61.6278,35.1434 C61.7438,35.1434 61.8238,35.1654 61.8678,35.2094 C61.9118,35.2534 61.9418,35.3294 61.9578,35.4374 L62.0298,36.3854 C62.2378,35.9614 62.4938,35.6314 62.7978,35.3954 C63.1058,35.1554 63.4658,35.0354 63.8778,35.0354 C64.0458,35.0354 64.1978,35.0554 64.3338,35.0954 C64.4698,35.1314 64.5958,35.1834 64.7118,35.2514 L64.5738,36.0494 C64.5458,36.1494 64.4838,36.1994 64.3878,36.1994 C64.3318,36.1994 64.2458,36.1814 64.1298,36.1454 C64.0138,36.1054 63.8518,36.0854 63.6438,36.0854 C63.2718,36.0854 62.9598,36.1934 62.7078,36.4094 C62.4598,36.6254 62.2518,36.9394 62.0838,37.3514 L62.0838,41.2214 L61.0158,41.2214 Z M68.1759,41.2214 L68.1759,35.1434 L68.8119,35.1434 C68.9639,35.1434 69.0599,35.2174 69.0999,35.3654 L69.1779,35.9894 C69.4019,35.7134 69.6519,35.4874 69.9279,35.3114 C70.2079,35.1354 70.5319,35.0474 70.8999,35.0474 C71.3119,35.0474 71.6439,35.1614 71.8959,35.3894 C72.1519,35.6174 72.3359,35.9254 72.4479,36.3134 C72.5319,36.0934 72.6419,35.9034 72.7779,35.7434 C72.9179,35.5834 73.0739,35.4514 73.2459,35.3474 C73.4179,35.2434 73.5999,35.1674 73.7919,35.1194 C73.9879,35.0714 74.1859,35.0474 74.3859,35.0474 C74.7059,35.0474 74.9899,35.0994 75.2379,35.2034 C75.4899,35.3034 75.7019,35.4514 75.8739,35.6474 C76.0499,35.8434 76.1839,36.0854 76.2759,36.3734 C76.3679,36.6574 76.4139,36.9834 76.4139,37.3514 L76.4139,41.2214 L75.3459,41.2214 L75.3459,37.3514 C75.3459,36.8754 75.2419,36.5154 75.0339,36.2714 C74.8259,36.0234 74.5239,35.8994 74.1279,35.8994 C73.9519,35.8994 73.7839,35.9314 73.6239,35.9954 C73.4679,36.0554 73.3299,36.1454 73.2099,36.2654 C73.0899,36.3854 72.9939,36.5374 72.9219,36.7214 C72.8539,36.9014 72.8199,37.1114 72.8199,37.3514 L72.8199,41.2214 L71.7519,41.2214 L71.7519,37.3514 C71.7519,36.8634 71.6539,36.4994 71.4579,36.2594 C71.2619,36.0194 70.9759,35.8994 70.5999,35.8994 C70.3359,35.8994 70.0899,35.9714 69.8619,36.1154 C69.6379,36.2554 69.4319,36.4474 69.2439,36.6914 L69.2439,41.2214 L68.1759,41.2214 Z M80.4914,35.0474 C80.9354,35.0474 81.3354,35.1214 81.6914,35.2694 C82.0514,35.4174 82.3554,35.6274 82.6034,35.8994 C82.8554,36.1714 83.0474,36.5014 83.1794,36.8894 C83.3154,37.2734 83.3834,37.7034 83.3834,38.1794 C83.3834,38.6594 83.3154,39.0914 83.1794,39.4754 C83.0474,39.8594 82.8554,40.1874 82.6034,40.4594 C82.3554,40.7314 82.0514,40.9414 81.6914,41.0894 C81.3354,41.2334 80.9354,41.3054 80.4914,41.3054 C80.0474,41.3054 79.6454,41.2334 79.2854,41.0894 C78.9294,40.9414 78.6254,40.7314 78.3734,40.4594 C78.1214,40.1874 77.9274,39.8594 77.7914,39.4754 C77.6554,39.0914 77.5874,38.6594 77.5874,38.1794 C77.5874,37.7034 77.6554,37.2734 77.7914,36.8894 C77.9274,36.5014 78.1214,36.1714 78.3734,35.8994 C78.6254,35.6274 78.9294,35.4174 79.2854,35.2694 C79.6454,35.1214 80.0474,35.0474 80.4914,35.0474 Z M80.4914,40.4714 C81.0914,40.4714 81.5394,40.2714 81.8354,39.8714 C82.1314,39.4674 82.2794,38.9054 82.2794,38.1854 C82.2794,37.4614 82.1314,36.8974 81.8354,36.4934 C81.5394,36.0894 81.0914,35.8874 80.4914,35.8874 C80.1874,35.8874 79.9234,35.9394 79.6994,36.0434 C79.4754,36.1474 79.2874,36.2974 79.1354,36.4934 C78.9874,36.6894 78.8754,36.9314 78.7994,37.2194 C78.7274,37.5034 78.6914,37.8254 78.6914,38.1854 C78.6914,38.5454 78.7274,38.8674 78.7994,39.1514 C78.8754,39.4354 78.9874,39.6754 79.1354,39.8714 C79.2874,40.0634 79.4754,40.2114 79.6994,40.3154 C79.9234,40.4194 80.1874,40.4714 80.4914,40.4714 Z M86.5413,41.3174 C86.0613,41.3174 85.6913,41.1834 85.4313,40.9154 C85.1753,40.6474 85.0473,40.2614 85.0473,39.7574 L85.0473,36.0374 L84.3153,36.0374 C84.2513,36.0374 84.1973,36.0194 84.1533,35.9834 C84.1093,35.9434 84.0873,35.8834 84.0873,35.8034 L84.0873,35.3774 L85.0833,35.2514 L85.3293,33.3734 C85.3373,33.3134 85.3633,33.2654 85.4073,33.2294 C85.4513,33.1894 85.5073,33.1694 85.5753,33.1694 L86.1153,33.1694 L86.1153,35.2634 L87.8553,35.2634 L87.8553,36.0374 L86.1153,36.0374 L86.1153,39.6854 C86.1153,39.9414 86.1773,40.1314 86.3013,40.2554 C86.4253,40.3794 86.5853,40.4414 86.7813,40.4414 C86.8933,40.4414 86.9893,40.4274 87.0693,40.3994 C87.1533,40.3674 87.2253,40.3334 87.2853,40.2974 C87.3453,40.2614 87.3953,40.2294 87.4353,40.2014 C87.4793,40.1694 87.5173,40.1534 87.5493,40.1534 C87.6053,40.1534 87.6553,40.1874 87.6993,40.2554 L88.0113,40.7654 C87.8273,40.9374 87.6053,41.0734 87.3453,41.1734 C87.0853,41.2694 86.8173,41.3174 86.5413,41.3174 Z M90.3639,35.1434 L90.3639,41.2214 L89.2959,41.2214 L89.2959,35.1434 L90.3639,35.1434 Z M90.6039,33.2354 C90.6039,33.3394 90.5819,33.4374 90.5379,33.5294 C90.4979,33.6174 90.4419,33.6974 90.3699,33.7694 C90.3019,33.8374 90.2219,33.8914 90.1299,33.9314 C90.0379,33.9714 89.9399,33.9914 89.8359,33.9914 C89.7319,33.9914 89.6339,33.9714 89.5419,33.9314 C89.4539,33.8914 89.3739,33.8374 89.3019,33.7694 C89.2339,33.6974 89.1799,33.6174 89.1399,33.5294 C89.0999,33.4374 89.0799,33.3394 89.0799,33.2354 C89.0799,33.1314 89.0999,33.0334 89.1399,32.9414 C89.1799,32.8454 89.2339,32.7634 89.3019,32.6954 C89.3739,32.6234 89.4539,32.5674 89.5419,32.5274 C89.6339,32.4874 89.7319,32.4674 89.8359,32.4674 C89.9399,32.4674 90.0379,32.4874 90.1299,32.5274 C90.2219,32.5674 90.3019,32.6234 90.3699,32.6954 C90.4419,32.7634 90.4979,32.8454 90.5379,32.9414 C90.5819,33.0334 90.6039,33.1314 90.6039,33.2354 Z M94.7062,35.0474 C95.1502,35.0474 95.5502,35.1214 95.9062,35.2694 C96.266,35.4174 96.57,35.6274 96.818,35.8994 C97.07,36.1714 97.262,36.5014 97.394,36.8894 C97.53,37.2734 97.598,37.7034 97.598,38.1794 C97.598,38.6594 97.53,39.0914 97.394,39.4754 C97.262,39.8594 97.07,40.1874 96.818,40.4594 C96.57,40.7314 96.266,40.9414 95.9062,41.0894 C95.5502,41.2334 95.1502,41.3054 94.7062,41.3054 C94.2622,41.3054 93.8602,41.2334 93.5002,41.0894 C93.1442,40.9414 92.8402,40.7314 92.5882,40.4594 C92.3362,40.1874 92.1422,39.8594 92.0062,39.4754 C91.8702,39.0914 91.8022,38.6594 91.8022,38.1794 C91.8022,37.7034 91.8702,37.2734 92.0062,36.8894 C92.1422,36.5014 92.3362,36.1714 92.5882,35.8994 C92.8402,35.6274 93.1442,35.4174 93.5002,35.2694 C93.8602,35.1214 94.2622,35.0474 94.7062,35.0474 Z M94.7062,40.4714 C95.3062,40.4714 95.7542,40.2714 96.05,39.8714 C96.346,39.4674 96.494,38.9054 96.494,38.1854 C96.494,37.4614 96.346,36.8974 96.05,36.4934 C95.7542,36.0894 95.3062,35.8874 94.7062,35.8874 C94.4022,35.8874 94.1382,35.9394 93.9142,36.0434 C93.6902,36.1474 93.5022,36.2974 93.3502,36.4934 C93.2022,36.6894 93.0902,36.9314 93.0142,37.2194 C92.9422,37.5034 92.9062,37.8254 92.9062,38.1854 C92.9062,38.5454 92.9422,38.8674 93.0142,39.1514 C93.0902,39.4354 93.2022,39.6754 93.3502,39.8714 C93.5022,40.0634 93.6902,40.2114 93.9142,40.3154 C94.1382,40.4194 94.4022,40.4714 94.7062,40.4714 Z M98.914,41.2214 L98.914,35.1434 L99.55,35.1434 C99.702,35.1434 99.798,35.2174 99.838,35.3654 L99.922,36.0254 C100.186,35.7334 100.48,35.4974 100.804,35.3174 C101.132,35.1374 101.51,35.0474 101.938,35.0474 C102.27,35.0474 102.562,35.1034 102.814,35.2154 C103.07,35.3234 103.282,35.4794 103.45,35.6834 C103.622,35.8834 103.752,36.1254 103.84,36.4094 C103.928,36.6934 103.972,37.0074 103.972,37.3514 L103.972,41.2214 L102.904,41.2214 L102.904,37.3514 C102.904,36.8914 102.798,36.5354 102.586,36.2834 C102.378,36.0274 102.058,35.8994 101.626,35.8994 C101.31,35.8994 101.014,35.9754 100.738,36.1274 C100.466,36.2794 100.214,36.4854 99.982,36.7454 L99.982,41.2214 L98.914,41.2214 Z M111.382,36.1454 C111.334,36.2334 111.26,36.2774 111.16,36.2774 C111.1,36.2774 111.032,36.2554 110.956,36.2114 C110.88,36.1674 110.786,36.1194 110.674,36.0674 C110.566,36.0114 110.436,35.9614 110.284,35.9174 C110.132,35.8694 109.952,35.8454 109.744,35.8454 C109.564,35.8454 109.402,35.8694 109.258,35.9174 C109.114,35.9614 108.99,36.0234 108.886,36.1034 C108.786,36.1834 108.708,36.2774 108.652,36.3854 C108.6,36.4894 108.574,36.6034 108.574,36.7274 C108.574,36.8834 108.618,37.0134 108.706,37.1174 C108.798,37.2214 108.918,37.3114 109.066,37.3874 C109.214,37.4634 109.382,37.5314 109.57,37.5914 C109.758,37.6474 109.95,37.7094 110.146,37.7774 C110.346,37.8414 110.54,37.9134 110.728,37.9934 C110.916,38.0734 111.084,38.1734 111.232,38.2934 C111.38,38.4134 111.498,38.5614 111.586,38.7374 C111.678,38.9094 111.724,39.1174 111.724,39.3614 C111.724,39.6414 111.674,39.9014 111.574,40.1414 C111.474,40.3774 111.326,40.5834 111.13,40.7594 C110.934,40.9314 110.694,41.0674 110.41,41.1674 C110.126,41.2674 109.798,41.3174 109.426,41.3174 C109.002,41.3174 108.618,41.2494 108.274,41.1134 C107.93,40.9734 107.638,40.7954 107.398,40.5794 L107.65,40.1714 C107.682,40.1194 107.72,40.0794 107.764,40.0514 C107.808,40.0234 107.866,40.0094 107.938,40.0094 C108.01,40.0094 108.086,40.0374 108.166,40.0934 C108.246,40.1494 108.342,40.2114 108.454,40.2794 C108.57,40.3474 108.708,40.4094 108.868,40.4654 C109.032,40.5214 109.236,40.5494 109.48,40.5494 C109.688,40.5494 109.87,40.5234 110.026,40.4714 C110.182,40.4154 110.312,40.3414 110.416,40.2494 C110.52,40.1574 110.596,40.0514 110.644,39.9314 C110.696,39.8114 110.722,39.6834 110.722,39.5474 C110.722,39.3794 110.676,39.2414 110.584,39.1334 C110.496,39.0214 110.378,38.9274 110.23,38.8514 C110.082,38.7714 109.912,38.7034 109.72,38.6474 C109.532,38.5874 109.338,38.5254 109.138,38.4614 C108.942,38.3974 108.748,38.3254 108.556,38.2454 C108.368,38.1614 108.2,38.0574 108.052,37.9334 C107.904,37.8094 107.784,37.6574 107.692,37.4774 C107.604,37.2934 107.56,37.0714 107.56,36.8114 C107.56,36.5794 107.608,36.3574 107.704,36.1454 C107.8,35.9294 107.94,35.7414 108.124,35.5814 C108.308,35.4174 108.534,35.2874 108.802,35.1914 C109.07,35.0954 109.376,35.0474 109.72,35.0474 C110.12,35.0474 110.478,35.1114 110.794,35.2394 C111.114,35.3634 111.39,35.5354 111.622,35.7554 L111.382,36.1454 Z M115.512,35.0474 C115.876,35.0474 116.212,35.1094 116.52,35.2334 C116.828,35.3534 117.094,35.5294 117.318,35.7614 C117.542,35.9894 117.716,36.2734 117.84,36.6134 C117.968,36.9494 118.032,37.3334 118.032,37.7654 C118.032,37.9334 118.014,38.0454 117.978,38.1014 C117.942,38.1574 117.874,38.1854 117.774,38.1854 L113.73,38.1854 C113.738,38.5694 113.79,38.9034 113.886,39.1874 C113.982,39.4714 114.114,39.7094 114.282,39.9014 C114.45,40.0894 114.65,40.2314 114.882,40.3274 C115.114,40.4194 115.374,40.4654 115.662,40.4654 C115.93,40.4654 116.16,40.4354 116.352,40.3754 C116.548,40.3114 116.716,40.2434 116.856,40.1714 C116.996,40.0994 117.112,40.0334 117.204,39.9734 C117.3,39.9094 117.382,39.8774 117.45,39.8774 C117.538,39.8774 117.606,39.9114 117.654,39.9794 L117.954,40.3694 C117.822,40.5294 117.664,40.6694 117.48,40.7894 C117.296,40.9054 117.098,41.0014 116.886,41.0774 C116.678,41.1534 116.462,41.2094 116.238,41.2454 C116.014,41.2854 115.792,41.3054 115.572,41.3054 C115.152,41.3054 114.764,41.2354 114.408,41.0954 C114.056,40.9514 113.75,40.7434 113.49,40.4714 C113.234,40.1954 113.034,39.8554 112.89,39.4514 C112.746,39.0474 112.674,38.5834 112.674,38.0594 C112.674,37.6354 112.738,37.2394 112.866,36.8714 C112.998,36.5034 113.186,36.1854 113.43,35.9174 C113.674,35.6454 113.972,35.4334 114.324,35.2814 C114.676,35.1254 115.072,35.0474 115.512,35.0474 Z M115.536,35.8334 C115.02,35.8334 114.614,35.9834 114.318,36.2834 C114.022,36.5794 113.838,36.9914 113.766,37.5194 L117.072,37.5194 C117.072,37.2714 117.038,37.0454 116.97,36.8414 C116.902,36.6334 116.802,36.4554 116.67,36.3074 C116.538,36.1554 116.376,36.0394 116.184,35.9594 C115.996,35.8754 115.78,35.8334 115.536,35.8334 Z M119.399,41.2214 L119.399,35.1434 L120.035,35.1434 C120.187,35.1434 120.283,35.2174 120.323,35.3654 L120.407,36.0254 C120.671,35.7334 120.965,35.4974 121.289,35.3174 C121.617,35.1374 121.995,35.0474 122.423,35.0474 C122.755,35.0474 123.047,35.1034 123.299,35.2154 C123.555,35.3234 123.767,35.4794 123.935,35.6834 C124.107,35.8834 124.237,36.1254 124.325,36.4094 C124.413,36.6934 124.457,37.0074 124.457,37.3514 L124.457,41.2214 L123.389,41.2214 L123.389,37.3514 C123.389,36.8914 123.283,36.5354 123.071,36.2834 C122.863,36.0274 122.543,35.8994 122.111,35.8994 C121.795,35.8994 121.499,35.9754 121.223,36.1274 C120.951,36.2794 120.699,36.4854 120.467,36.7454 L120.467,41.2214 L119.399,41.2214 Z M129.547,36.1454 C129.499,36.2334 129.425,36.2774 129.325,36.2774 C129.265,36.2774 129.197,36.2554 129.121,36.2114 C129.045,36.1674 128.951,36.1194 128.839,36.0674 C128.731,36.0114 128.601,35.9614 128.449,35.9174 C128.297,35.8694 128.117,35.8454 127.909,35.8454 C127.729,35.8454 127.567,35.8694 127.423,35.9174 C127.279,35.9614 127.155,36.0234 127.051,36.1034 C126.951,36.1834 126.873,36.2774 126.817,36.3854 C126.765,36.4894 126.739,36.6034 126.739,36.7274 C126.739,36.8834 126.783,37.0134 126.871,37.1174 C126.963,37.2214 127.083,37.3114 127.231,37.3874 C127.379,37.4634 127.547,37.5314 127.735,37.5914 C127.923,37.6474 128.115,37.7094 128.311,37.7774 C128.511,37.8414 128.705,37.9134 128.893,37.9934 C129.081,38.0734 129.249,38.1734 129.397,38.2934 C129.545,38.4134 129.663,38.5614 129.751,38.7374 C129.843,38.9094 129.889,39.1174 129.889,39.3614 C129.889,39.6414 129.839,39.9014 129.739,40.1414 C129.639,40.3774 129.491,40.5834 129.295,40.7594 C129.099,40.9314 128.859,41.0674 128.575,41.1674 C128.291,41.2674 127.963,41.3174 127.591,41.3174 C127.167,41.3174 126.783,41.2494 126.439,41.1134 C126.095,40.9734 125.803,40.7954 125.563,40.5794 L125.815,40.1714 C125.847,40.1194 125.885,40.0794 125.929,40.0514 C125.973,40.0234 126.031,40.0094 126.103,40.0094 C126.175,40.0094 126.251,40.0374 126.331,40.0934 C126.411,40.1494 126.507,40.2114 126.619,40.2794 C126.735,40.3474 126.873,40.4094 127.033,40.4654 C127.197,40.5214 127.401,40.5494 127.645,40.5494 C127.853,40.5494 128.035,40.5234 128.191,40.4714 C128.347,40.4154 128.477,40.3414 128.581,40.2494 C128.685,40.1574 128.761,40.0514 128.809,39.9314 C128.861,39.8114 128.887,39.6834 128.887,39.5474 C128.887,39.3794 128.841,39.2414 128.749,39.1334 C128.661,39.0214 128.543,38.9274 128.395,38.8514 C128.247,38.7714 128.077,38.7034 127.885,38.6474 C127.697,38.5874 127.503,38.5254 127.303,38.4614 C127.107,38.3974 126.913,38.3254 126.721,38.2454 C126.533,38.1614 126.365,38.0574 126.217,37.9334 C126.069,37.8094 125.949,37.6574 125.857,37.4774 C125.769,37.2934 125.725,37.0714 125.725,36.8114 C125.725,36.5794 125.773,36.3574 125.869,36.1454 C125.965,35.9294 126.105,35.7414 126.289,35.5814 C126.473,35.4174 126.699,35.2874 126.967,35.1914 C127.235,35.0954 127.541,35.0474 127.885,35.0474 C128.285,35.0474 128.643,35.1114 128.959,35.2394 C129.279,35.3634 129.555,35.5354 129.787,35.7554 L129.547,36.1454 Z M133.73,35.0474 C134.174,35.0474 134.574,35.1214 134.93,35.2694 C135.29,35.4174 135.594,35.6274 135.842,35.8994 C136.094,36.1714 136.286,36.5014 136.418,36.8894 C136.554,37.2734 136.622,37.7034 136.622,38.1794 C136.622,38.6594 136.554,39.0914 136.418,39.4754 C136.286,39.8594 136.094,40.1874 135.842,40.4594 C135.594,40.7314 135.29,40.9414 134.93,41.0894 C134.574,41.2334 134.174,41.3054 133.73,41.3054 C133.286,41.3054 132.884,41.2334 132.524,41.0894 C132.168,40.9414 131.864,40.7314 131.612,40.4594 C131.36,40.1874 131.166,39.8594 131.03,39.4754 C130.894,39.0914 130.826,38.6594 130.826,38.1794 C130.826,37.7034 130.894,37.2734 131.03,36.8894 C131.166,36.5014 131.36,36.1714 131.612,35.8994 C131.864,35.6274 132.168,35.4174 132.524,35.2694 C132.884,35.1214 133.286,35.0474 133.73,35.0474 Z M133.73,40.4714 C134.33,40.4714 134.778,40.2714 135.074,39.8714 C135.37,39.4674 135.518,38.9054 135.518,38.1854 C135.518,37.4614 135.37,36.8974 135.074,36.4934 C134.778,36.0894 134.33,35.8874 133.73,35.8874 C133.426,35.8874 133.162,35.9394 132.938,36.0434 C132.714,36.1474 132.526,36.2974 132.374,36.4934 C132.226,36.6894 132.114,36.9314 132.038,37.2194 C131.966,37.5034 131.93,37.8254 131.93,38.1854 C131.93,38.5454 131.966,38.8674 132.038,39.1514 C132.114,39.4354 132.226,39.6754 132.374,39.8714 C132.526,40.0634 132.714,40.2114 132.938,40.3154 C133.162,40.4194 133.426,40.4714 133.73,40.4714 Z M137.938,41.2214 L137.938,35.1434 L138.55,35.1434 C138.666,35.1434 138.746,35.1654 138.79,35.2094 C138.834,35.2534 138.864,35.3294 138.88,35.4374 L138.952,36.3854 C139.16,35.9614 139.416,35.6314 139.72,35.3954 C140.028,35.1554 140.388,35.0354 140.8,35.0354 C140.968,35.0354 141.12,35.0554 141.256,35.0954 C141.392,35.1314 141.518,35.1834 141.634,35.2514 L141.496,36.0494 C141.468,36.1494 141.406,36.1994 141.31,36.1994 C141.254,36.1994 141.168,36.1814 141.052,36.1454 C140.936,36.1054 140.774,36.0854 140.566,36.0854 C140.194,36.0854 139.882,36.1934 139.63,36.4094 C139.382,36.6254 139.174,36.9394 139.006,37.3514 L139.006,41.2214 L137.938,41.2214 Z M141.633,40.5614 C141.633,40.4574 141.651,40.3594 141.687,40.2674 C141.727,40.1754 141.779,40.0954 141.843,40.0274 C141.911,39.9594 141.991,39.9054 142.083,39.8654 C142.175,39.8254 142.273,39.8054 142.377,39.8054 C142.481,39.8054 142.579,39.8254 142.671,39.8654 C142.763,39.9054 142.843,39.9594 142.911,40.0274 C142.979,40.0954 143.031,40.1754 143.067,40.2674 C143.107,40.3594 143.127,40.4574 143.127,40.5614 C143.127,40.6694 143.107,40.7694 143.067,40.8614 C143.031,40.9494 142.979,41.0274 142.911,41.0954 C142.843,41.1634 142.763,41.2154 142.671,41.2514 C142.579,41.2914 142.481,41.3114 142.377,41.3114 C142.273,41.3114 142.175,41.2914 142.083,41.2514 C141.991,41.2154 141.911,41.1634 141.843,41.0954 C141.779,41.0274 141.727,40.9494 141.687,40.8614 C141.651,40.7694 141.633,40.6694 141.633,40.5614 Z" id="Shape" fill="#575E71" fill-rule="nonzero"></path>
                <path d="M142.481,87.6168 C142.481,88.2608 142.379,88.8528 142.175,89.3928 C141.971,89.9288 141.683,90.3908 141.311,90.7788 C140.939,91.1668 140.491,91.4688 139.967,91.6848 C139.447,91.8968 138.871,92.0028 138.239,92.0028 C137.607,92.0028 137.031,91.8968 136.511,91.6848 C135.991,91.4688 135.545,91.1668 135.173,90.7788 C134.801,90.3908 134.513,89.9288 134.309,89.3928 C134.105,88.8528 134.003,88.2608 134.003,87.6168 C134.003,86.9728 134.105,86.3828 134.309,85.8468 C134.513,85.3068 134.801,84.8428 135.173,84.4548 C135.545,84.0628 135.991,83.7588 136.511,83.5428 C137.031,83.3268 137.607,83.2188 138.239,83.2188 C138.871,83.2188 139.447,83.3268 139.967,83.5428 C140.491,83.7588 140.939,84.0628 141.311,84.4548 C141.683,84.8428 141.971,85.3068 142.175,85.8468 C142.379,86.3828 142.481,86.9728 142.481,87.6168 Z M141.287,87.6168 C141.287,87.0888 141.215,86.6148 141.071,86.1948 C140.927,85.7748 140.723,85.4208 140.459,85.1328 C140.195,84.8408 139.875,84.6168 139.499,84.4608 C139.123,84.3048 138.703,84.2268 138.239,84.2268 C137.779,84.2268 137.361,84.3048 136.985,84.4608 C136.609,84.6168 136.287,84.8408 136.019,85.1328 C135.755,85.4208 135.551,85.7748 135.407,86.1948 C135.263,86.6148 135.191,87.0888 135.191,87.6168 C135.191,88.1448 135.263,88.6188 135.407,89.0388 C135.551,89.4548 135.755,89.8088 136.019,90.1008 C136.287,90.3888 136.609,90.6108 136.985,90.7668 C137.361,90.9188 137.779,90.9948 138.239,90.9948 C138.703,90.9948 139.123,90.9188 139.499,90.7668 C139.875,90.6108 140.195,90.3888 140.459,90.1008 C140.723,89.8088 140.927,89.4548 141.071,89.0388 C141.215,88.6188 141.287,88.1448 141.287,87.6168 Z M145.011,83.0748 L145.011,88.2768 L145.287,88.2768 C145.367,88.2768 145.433,88.2668 145.485,88.2468 C145.537,88.2228 145.595,88.1768 145.659,88.1088 L147.579,86.0508 C147.639,85.9868 147.699,85.9348 147.759,85.8948 C147.819,85.8548 147.899,85.8348 147.999,85.8348 L148.971,85.8348 L146.733,88.2168 C146.677,88.2848 146.621,88.3448 146.565,88.3968 C146.513,88.4488 146.453,88.4948 146.385,88.5348 C146.457,88.5828 146.521,88.6388 146.577,88.7028 C146.637,88.7628 146.693,88.8328 146.745,88.9128 L149.121,91.9128 L148.161,91.9128 C148.073,91.9128 147.997,91.8968 147.933,91.8648 C147.873,91.8288 147.815,91.7748 147.759,91.7028 L145.761,89.2128 C145.701,89.1288 145.641,89.0748 145.581,89.0508 C145.521,89.0228 145.431,89.0088 145.311,89.0088 L145.011,89.0088 L145.011,91.9128 L143.937,91.9128 L143.937,83.0748 L145.011,83.0748 Z" id="Shape" fill="#5B95BA" fill-rule="nonzero"></path>
            </g>
        </g>
    </g>
</svg>