<svg width="116" height="116" viewBox="0 0 116 116" fill="none" xmlns="http://www.w3.org/2000/svg">
<path d="M34.7087 81.2905C34.7087 68.3067 45.1286 57.7808 57.9818 57.7808C70.835 57.7808 81.2549 68.3067 81.2549 81.2913L34.7087 81.2905Z" fill="#F47E6C"/>
<path d="M58.338 54.931C64.1745 54.931 68.9059 50.1996 68.9059 44.3632C68.9059 38.5267 64.1745 33.7953 58.338 33.7953C52.5015 33.7953 47.7701 38.5267 47.7701 44.3632C47.7701 50.1996 52.5015 54.931 58.338 54.931Z" fill="#F47E6C"/>
<path d="M37.1221 94.2215C30.7791 90.5812 25.4593 85.3463 21.7379 79.0828C18.5419 73.7046 16.6087 67.6712 16.0539 61.4475L19.298 64.6656C19.965 65.3287 20.8394 65.6589 21.713 65.6589C22.5892 65.6589 23.4655 65.3261 24.1334 64.6612C25.4682 63.3323 25.4655 61.1802 24.1289 59.8531L14.9818 50.7787C14.3005 50.1032 13.4047 49.7748 12.5133 49.7881C12.4964 49.7881 12.4804 49.7854 12.4634 49.7854C11.2693 49.7854 10.2185 50.3954 9.60764 51.3187L1.0037 59.8531C-0.332932 61.1802 -0.334712 63.3323 0.999245 64.6612C2.3332 65.99 4.49799 65.9927 5.83462 64.6665L9.1802 61.3475C9.73854 68.8248 12.0146 76.0869 15.8491 82.5408C20.168 89.8101 26.3418 95.885 33.7026 100.111C34.2413 100.42 34.8291 100.567 35.4088 100.567C36.5913 100.567 37.741 99.9565 38.3741 98.8658C39.318 97.2395 38.7579 95.1608 37.1221 94.2215Z" fill="#3DD6C8"/>
<path d="M115.013 50.8411C113.696 49.5113 111.558 49.5095 110.238 50.8358L106.942 54.1479C106.39 46.6737 104.144 39.4137 100.358 32.9621C96.0939 25.6933 89.9991 19.6179 82.7312 15.3921C81.1167 14.4527 79.0511 15.0105 78.1181 16.636C77.1859 18.2624 77.7391 20.3413 79.3544 21.2806C85.6163 24.9212 90.8688 30.1573 94.5436 36.4203C97.7005 41.8006 99.6087 47.837 100.156 54.0629L96.9434 50.8358C95.6234 49.5086 93.4857 49.5113 92.1684 50.8402C90.8512 52.17 90.8529 54.3223 92.1728 55.6486L101.206 64.7235C101.865 65.3858 102.728 65.7169 103.591 65.7169C103.61 65.7169 103.629 65.7151 103.648 65.7143C103.665 65.7143 103.683 65.7169 103.7 65.7169C104.888 65.7169 105.931 65.098 106.533 64.164L115.009 55.6486C116.329 54.3223 116.331 52.17 115.013 50.8411Z" fill="#3DD6C8"/>
<path d="M99.3724 77.6298C97.7509 76.6814 95.6752 77.2381 94.735 78.8752C91.0943 85.2157 85.8586 90.5329 79.5952 94.2531C74.2128 97.4505 68.173 99.3856 61.9441 99.9396L65.15 96.7101C66.4764 95.3727 66.4791 93.2039 65.1553 91.8648C63.8316 90.5257 61.6825 90.523 60.3562 91.8595L51.2801 101.005C50.6421 101.647 50.2833 102.52 50.2833 103.43C50.2833 103.448 50.286 103.465 50.286 103.483C50.286 103.501 50.2833 103.518 50.2833 103.536C50.2833 104.739 50.8992 105.796 51.8288 106.407L60.3562 114.999C61.0189 115.666 61.8858 116 62.7535 116C63.6231 116 64.4926 115.665 65.1553 114.994C66.4791 113.655 66.4773 111.486 65.15 110.149L61.8504 106.824C69.3253 106.266 76.5855 103.991 83.0371 100.159C90.3052 95.8411 96.3812 89.6702 100.606 82.3118C101.546 80.6756 100.994 78.579 99.3724 77.6298Z" fill="#3DD6C8"/>
<path d="M16.6409 37.8812C17.1805 38.1885 17.7709 38.3348 18.3524 38.3348C19.5323 38.3348 20.6802 37.7341 21.3142 36.6589C24.9839 30.436 30.261 25.2165 36.5737 21.5652C42.0289 18.4095 48.1537 16.5086 54.4736 15.978L51.0042 19.3815C49.6676 20.6931 49.6658 22.8217 50.9998 24.136C51.6676 24.7944 52.5439 25.1237 53.4201 25.1237C54.2937 25.1237 55.1682 24.7962 55.8351 24.1412L65.2112 14.9413C65.8541 14.3109 66.2148 13.4545 66.2148 12.5614C66.2148 12.5439 66.213 12.5264 66.2121 12.5089C66.213 12.4913 66.2148 12.4747 66.2148 12.4563C66.2148 11.276 65.595 10.2393 64.6591 9.63951L55.8351 0.982428C54.4985 -0.329225 52.3337 -0.327474 50.9998 0.987682C49.6658 2.30196 49.6676 4.43055 51.0042 5.7422L54.5511 9.22185C46.9854 9.75772 39.6353 11.9931 33.1061 15.7696C25.78 20.0066 19.657 26.0632 15.3978 33.286C14.4503 34.8919 15.0068 36.9496 16.6409 37.8812Z" fill="#3DD6C8"/>
</svg>
