<svg width="288" height="66" viewBox="0 0 288 66" fill="none" xmlns="http://www.w3.org/2000/svg">
<path d="M31.2637 19.0686L21.9033 21.5747L21.2793 30.9725L21.9033 35.3582L22.5273 40.9969L25.6475 48.5152L30.0157 54.1539L36.8799 61.0457L42.4962 65.4313L54.9767 55.407L59.3449 48.5152L63.089 41.6234L63.713 33.4786V21.5747L57.4728 20.3216L48.7364 16.5625L42.4962 11.5503L40.6241 13.4299L31.2637 19.0686Z" fill="#8BB4CE"/>
<g opacity="0.35">
<path d="M24.6867 32.2083L33.9076 36.7621C33.9076 36.7621 40.7109 34.5744 41.7698 34.9164C41.8727 34.9496 42.0464 35.0181 42.2744 35.1132L42.2752 35.1138C44.3886 35.9982 51.2315 39.2457 51.2315 39.2457L49.2811 39.1219C50.0746 40.1346 51.1796 41.4601 51.8074 41.8465C52.8645 42.4969 50.3471 44.3478 48.2333 42.9969C46.119 41.6463 45.5651 39.9956 45.5651 39.9956L44.5196 40.1029L51.8522 46.7935L53.017 48.1808C54.0248 49.3811 52.7734 51.1147 51.1275 50.5863C51.1538 50.606 51.0606 50.579 51.0853 50.6454C51.1794 50.8972 51.3696 51.5019 51.1981 51.7969C50.5955 52.8349 49.688 53.6337 47.7657 52.1789C48.2315 52.5313 48.5169 53.3608 48.1937 53.8431C47.7541 54.4994 47.2694 54.7955 46.7392 54.956C46.1804 55.1252 45.3379 54.5947 44.8727 54.2425C45.3382 54.5947 45.56 55.43 45.2497 55.9218C44.8678 56.5272 43.6548 57.4168 42.8858 56.8344L40.4694 55.0058C40.4694 55.0058 34.5876 49.3467 32.7702 47.8406C30.9523 46.3339 28.4817 43.2684 28.4817 43.2684L21.0359 37.224L24.6873 32.208L24.6867 32.2083Z" fill="#5B95BA"/>
<path d="M61.197 32.2089L52.1894 36.7751C51.4694 37.1401 48.8824 35.4113 46.754 35.1478C45.2129 34.9571 43.3511 35.5667 43.4619 35.6253L48.2871 37.9002C48.2871 37.9002 50.6392 41.2218 51.6719 41.8734C52.7045 42.5253 50.2454 44.3814 48.1804 43.0268C46.1151 41.6725 45.574 40.0174 45.574 40.0174L41.3049 40.4662L33.0745 47.8844C31.9352 48.9113 32.2836 49.4472 33.0498 50.4489C33.4001 50.9076 34.6876 50.7531 35.2273 50.5427C33.9809 51.5097 35.7781 54.0004 37.5401 52.6305C36.4745 53.4586 38.0029 56.3785 40.1369 54.72C39.0723 56.1836 41.242 57.2481 42.1543 56.9835L42.8151 56.792L42.6464 56.6609C42.5918 56.6609 40.8635 54.8533 40.7589 54.6341C40.1677 53.3964 41.7257 51.7204 43.1224 52.9187L44.3246 53.8602L43.6281 52.9594C42.7397 51.772 43.4235 50.546 44.2745 50.1743C44.8981 49.9023 45.5436 50.2044 46.0698 50.7338L47.3976 51.8189L46.2663 50.4707C46.2663 50.4707 45.1813 49.2207 46.1772 48.1044C47.1731 46.9884 48.5227 48.3264 48.5227 48.3264L50.1112 49.6658L48.744 48.0507C48.744 48.0507 47.5599 46.7811 48.3568 45.9316C49.4639 44.7515 50.8336 45.9137 51.9151 47.076C52.2258 47.4101 52.5459 47.9234 52.7888 48.1602C53.9823 46.7901 54.7854 45.305 54.7854 45.305L64.685 38.544L61.1973 32.208L61.197 32.2089Z" fill="#5B95BA"/>
<path d="M63.3705 42.24L60.1771 44.88L51.8008 33.8407L61.2669 23.76L61.7928 23.76C62.3187 23.76 64.1593 24.024 64.1593 26.928C64.6852 29.04 63.8964 30.096 64.1593 32.208C65.1938 34.3952 63.1538 39.6636 63.3705 42.24Z" fill="#5B95BA"/>
<path d="M22.3822 42.768L25.5756 45.408L33.9519 34.3686L24.4858 24.288L23.9599 24.288C23.434 24.288 21.5934 24.552 21.5934 27.456C21.0675 29.568 21.8563 30.624 21.5934 32.736C20.5588 34.9232 22.5989 40.1915 22.3822 42.768Z" fill="#5B95BA"/>
</g>
<path d="M24.4238 29.5683L33.6446 34.1221C33.6446 34.1221 40.4479 31.9343 41.5068 32.2764C41.6097 32.3096 41.7835 32.3781 42.0114 32.4732L42.0123 32.4738C44.1257 33.3582 50.9686 36.6056 50.9686 36.6056L49.0181 36.4819C49.8116 37.4946 50.9167 38.82 51.5445 39.2065C52.6016 39.8569 50.0842 41.7078 47.9704 40.3568C45.8561 39.0063 45.3022 37.3556 45.3022 37.3556L44.2567 37.4629L51.5892 44.1535L52.7541 45.5408C53.7619 46.7411 52.5105 48.4747 50.8646 47.9462C50.8909 47.966 50.7977 47.9389 50.8223 48.0054C50.9165 48.2572 51.1067 48.8619 50.9352 49.1569C50.3325 50.1949 49.425 50.9936 47.5027 49.5389C47.9685 49.8913 48.2539 50.7208 47.9308 51.203C47.4911 51.8594 47.0064 52.1555 46.4762 52.316C45.9175 52.4852 45.0749 51.9546 44.6098 51.6025C45.0752 51.9546 45.297 52.79 44.9867 53.2818C44.6049 53.8872 43.3919 54.7767 42.6228 54.1944L40.2065 52.3658C40.2065 52.3658 34.3246 46.7067 32.5072 45.2006C30.6893 43.6939 28.2187 40.6284 28.2187 40.6284L20.7729 34.584L24.4243 29.568L24.4238 29.5683Z" fill="#ECCA9E"/>
<path d="M60.9341 29.5689L51.9265 34.1351C51.2065 34.5001 48.6195 32.7713 46.4911 32.5078C44.95 32.3171 43.0882 32.9266 43.199 32.9853L48.0241 35.2602C48.0241 35.2602 50.3762 38.5818 51.409 39.2333C52.4416 39.8852 49.9824 41.7414 47.9175 40.3868C45.8521 39.0325 45.311 37.3774 45.311 37.3774L41.042 37.8262L32.8116 45.2444C31.6723 46.2713 32.0207 46.8072 32.7868 47.8089C33.1371 48.2676 34.4246 48.1131 34.9643 47.9027C33.7179 48.8697 35.5151 51.3604 37.2772 49.9905C36.2116 50.8186 37.7399 53.7385 39.8739 52.08C38.8094 53.5436 40.9791 54.6081 41.8914 54.3435L42.5521 54.152L42.3834 54.0209C42.3289 54.0209 40.6006 52.2133 40.496 51.9941C39.9047 50.7564 41.4627 49.0803 42.8595 50.2787L44.0617 51.2202L43.3652 50.3194C42.4768 49.132 43.1606 47.906 44.0115 47.5343C44.6352 47.2623 45.2806 47.5644 45.8068 48.0938L47.1346 49.1789L46.0034 47.8307C46.0034 47.8307 44.9184 46.5807 45.9143 45.4643C46.9102 44.3484 48.2598 45.6864 48.2598 45.6864L49.8483 47.0258L48.4811 45.4107C48.4811 45.4107 47.2969 44.1411 48.0939 43.2916C49.201 42.1115 50.5707 43.2737 51.6521 44.436C51.9628 44.7701 52.2829 45.2833 52.5259 45.5202C53.7194 44.1501 54.5225 42.665 54.5225 42.665L64.4221 35.904L60.9344 29.568L60.9341 29.5689Z" fill="#A98A66"/>
<path d="M63.1073 39.6L59.9139 42.24L51.5376 31.2007L61.0037 21.12L61.5296 21.12C62.0555 21.12 63.8961 21.384 63.8961 24.288C64.422 26.4 63.6332 27.456 63.8961 29.568C64.9307 31.7552 62.8906 37.0236 63.1073 39.6Z" fill="#F5B33C"/>
<path d="M22.1193 40.128L25.3127 42.768L33.689 31.7286L24.2229 21.6479L23.697 21.6479C23.1711 21.6479 21.3304 21.9119 21.3304 24.8159C20.8046 26.9279 21.5934 27.9839 21.3304 30.096C20.2959 32.2831 22.336 37.5515 22.1193 40.128Z" fill="#EB8231"/>
<path d="M41.7854 65.7622C33.0592 60.0733 27.2134 54.1707 23.7898 47.0859C20.3663 40.0002 19.3948 31.7853 20.4174 21.4719C20.4991 20.6478 21.107 20.087 21.9014 19.9768C30.2904 18.8817 35.4517 16.9344 41.5257 10.8506C42.1669 10.2052 43.2311 10.2052 43.8722 10.8506C49.9463 16.9344 55.1076 18.8817 63.4966 19.9768C64.291 20.087 64.8989 20.6478 64.9806 21.4719C66.0032 31.7853 65.0317 40.0002 61.6081 47.0859C58.1846 54.1707 52.3388 60.0733 43.6126 65.7622C43.1256 66.0793 42.2724 66.0793 41.7854 65.7622ZM42.699 12.7304C36.4981 18.8262 31.0252 20.929 22.5255 22.0754C21.606 31.7973 22.5349 39.5267 25.7328 46.1439C28.9384 52.7782 34.4539 58.3577 42.699 63.7747C50.9441 58.3577 56.4596 52.7782 59.6652 46.1439C62.8631 39.5267 63.792 31.7973 62.8725 22.0754C54.3728 20.929 48.8999 18.8262 42.699 12.7304Z" fill="#5B95BA"/>
<path d="M3.47485 9.84725C3.47485 12.1782 3.47485 14.5091 3.47485 16.84C3.47485 17.7582 4.8812 17.7582 4.8812 16.84C4.8812 14.5091 4.8812 12.1782 4.8812 9.84725C4.8812 8.92901 3.47485 8.92901 3.47485 9.84725Z" fill="#F5B33C"/>
<path d="M7.64701 12.6255C5.32654 12.6255 3.00607 12.6255 0.685594 12.6255C-0.228531 12.6255 -0.228531 14.0382 0.685594 14.0382C3.00607 14.0382 5.32654 14.0382 7.64701 14.0382C8.56113 14.0382 8.56113 12.6255 7.64701 12.6255Z" fill="#F5B33C"/>
<path d="M14.8445 14.9448C14.8445 16.122 14.8445 17.2757 14.8445 18.4529C14.8445 19.3712 16.2508 19.3712 16.2508 18.4529C16.2508 17.2757 16.2508 16.122 16.2508 14.9448C16.2508 14.0265 14.8445 14.0265 14.8445 14.9448Z" fill="#3DD6C8"/>
<path d="M17.3055 15.9807C16.1335 15.9807 14.985 15.9807 13.813 15.9807C12.8989 15.9807 12.8989 17.3934 13.813 17.3934C14.985 17.3934 16.1335 17.3934 17.3055 17.3934C18.1961 17.3934 18.1961 15.9807 17.3055 15.9807Z" fill="#3DD6C8"/>
<path d="M13.3323 0.804758C13.3323 2.18041 13.3323 3.52855 13.3323 4.90421C13.3323 5.97722 14.748 5.97722 14.748 4.90421C14.748 3.52855 14.748 2.18041 14.748 0.804758C14.748 -0.268252 13.3323 -0.268252 13.3323 0.804758Z" fill="#EB8231"/>
<path d="M16.2082 2.01538C14.8387 2.01538 13.4966 2.01538 12.1271 2.01538C11.0589 2.01538 11.0589 3.43676 12.1271 3.43676C13.4966 3.43676 14.8387 3.43676 16.2082 3.43676C17.249 3.43676 17.249 2.01538 16.2082 2.01538Z" fill="#EB8231"/>
<path d="M24.7371 6.37422C24.7371 7.66917 24.7371 8.98767 24.7371 10.2826C24.7371 11.2009 26.1434 11.2009 26.1434 10.2826C26.1434 8.98767 26.1434 7.66917 26.1434 6.37422C26.1434 5.45599 24.7371 5.45599 24.7371 6.37422Z" fill="#7692D9"/>
<path d="M27.4092 7.62207C26.1201 7.62207 24.8075 7.62207 23.5184 7.62207C22.6042 7.62207 22.6042 9.03474 23.5184 9.03474C24.8075 9.03474 26.1201 9.03474 27.4092 9.03474C28.2999 9.03474 28.2999 7.62207 27.4092 7.62207Z" fill="#7692D9"/>
<path d="M10.0862 24.5157C10.0862 25.8107 10.0862 27.1291 10.0862 28.4241C10.0862 29.3423 11.4925 29.3423 11.4925 28.4241C11.4925 27.1291 11.4925 25.8107 11.4925 24.5157C11.4925 23.5975 10.0862 23.5975 10.0862 24.5157Z" fill="#E566A1"/>
<path d="M12.7349 25.7636C11.4458 25.7636 10.1332 25.7636 8.84404 25.7636C7.92992 25.7636 7.92992 27.1762 8.84404 27.1762C10.1332 27.1762 11.4458 27.1762 12.7349 27.1762C13.6491 27.1762 13.6491 25.7636 12.7349 25.7636Z" fill="#E566A1"/>
<path d="M83.5028 40.3397V49.2878H80.2937V25.365H87.3272C88.8348 25.365 90.1428 25.543 91.2513 25.8992C92.3709 26.2442 93.2965 26.7395 94.0282 27.385C94.7598 28.0305 95.3029 28.8095 95.6577 29.7222C96.0235 30.6348 96.2064 31.6531 96.2064 32.7772C96.2064 33.8902 96.0124 34.9085 95.6244 35.8322C95.2364 36.756 94.6656 37.5518 93.9118 38.2195C93.1691 38.8873 92.2435 39.4104 91.1349 39.7888C90.0264 40.1561 88.7572 40.3397 87.3272 40.3397H83.5028ZM83.5028 37.7688H87.3272C88.2473 37.7688 89.0565 37.6464 89.7548 37.4015C90.4643 37.1567 91.0573 36.8172 91.534 36.3832C92.0107 35.938 92.3709 35.4093 92.6148 34.7972C92.8587 34.1851 92.9806 33.5117 92.9806 32.7772C92.9806 31.2525 92.5095 30.0616 91.5673 29.2046C90.6361 28.3477 89.2228 27.9192 87.3272 27.9192H83.5028V37.7688Z" fill="#5B95BA"/>
<path d="M100.353 49.2878V32.3765H102.049C102.371 32.3765 102.593 32.4378 102.714 32.5602C102.836 32.6826 102.92 32.8941 102.964 33.1946L103.163 35.8322C103.74 34.6525 104.449 33.7343 105.292 33.0777C106.145 32.4099 107.143 32.076 108.285 32.076C108.75 32.076 109.172 32.1317 109.548 32.243C109.925 32.3432 110.275 32.4878 110.596 32.677L110.214 34.8974C110.136 35.1756 109.964 35.3147 109.698 35.3147C109.543 35.3147 109.305 35.2646 108.983 35.1645C108.662 35.0532 108.213 34.9975 107.636 34.9975C106.605 34.9975 105.741 35.298 105.042 35.899C104.355 36.5 103.779 37.3737 103.313 38.52V49.2878H100.353Z" fill="#5B95BA"/>
<path d="M117.586 32.3765V49.2878H114.626V32.3765H117.586ZM118.251 27.0678C118.251 27.3571 118.19 27.6298 118.068 27.8858C117.957 28.1306 117.802 28.3532 117.603 28.5536C117.414 28.7428 117.193 28.893 116.938 29.0043C116.683 29.1156 116.411 29.1712 116.123 29.1712C115.835 29.1712 115.563 29.1156 115.308 29.0043C115.064 28.893 114.842 28.7428 114.643 28.5536C114.455 28.3532 114.305 28.1306 114.194 27.8858C114.083 27.6298 114.028 27.3571 114.028 27.0678C114.028 26.7784 114.083 26.5057 114.194 26.2498C114.305 25.9826 114.455 25.7545 114.643 25.5653C114.842 25.365 115.064 25.2091 115.308 25.0979C115.563 24.9866 115.835 24.9309 116.123 24.9309C116.411 24.9309 116.683 24.9866 116.938 25.0979C117.193 25.2091 117.414 25.365 117.603 25.5653C117.802 25.7545 117.957 25.9826 118.068 26.2498C118.19 26.5057 118.251 26.7784 118.251 27.0678Z" fill="#5B95BA"/>
<path d="M121.202 32.3765H123.63C123.862 32.3765 124.056 32.4378 124.212 32.5602C124.367 32.6826 124.478 32.8273 124.544 32.9942L128.817 43.8789C128.973 44.2795 129.095 44.6802 129.183 45.0809C129.272 45.4815 129.355 45.8766 129.433 46.2661C129.521 45.8766 129.616 45.4815 129.715 45.0809C129.815 44.6802 129.943 44.2795 130.098 43.8789L134.421 32.9942C134.488 32.8162 134.593 32.6715 134.737 32.5602C134.892 32.4378 135.081 32.3765 135.302 32.3765H137.614L130.746 49.2878H128.069L121.202 32.3765Z" fill="#5B95BA"/>
<path d="M153.247 49.2878H151.933C151.645 49.2878 151.412 49.2433 151.235 49.1543C151.057 49.0652 150.941 48.876 150.885 48.5866L150.553 47.0174C150.109 47.4181 149.677 47.7798 149.256 48.1025C148.835 48.4141 148.391 48.6812 147.926 48.9038C147.46 49.1153 146.961 49.2767 146.429 49.388C145.908 49.4993 145.326 49.5549 144.683 49.5549C144.029 49.5549 143.414 49.4659 142.838 49.2878C142.272 49.0986 141.779 48.8204 141.358 48.4531C140.937 48.0858 140.598 47.6239 140.343 47.0675C140.1 46.4999 139.978 45.8321 139.978 45.0642C139.978 44.3964 140.161 43.7564 140.526 43.1443C140.892 42.5211 141.48 41.9702 142.289 41.4916C143.109 41.013 144.179 40.6235 145.498 40.323C146.817 40.0114 148.43 39.8333 150.337 39.7888V38.4699C150.337 37.1567 150.054 36.1661 149.489 35.4984C148.934 34.8195 148.109 34.48 147.011 34.48C146.291 34.48 145.681 34.5746 145.182 34.7638C144.694 34.9419 144.268 35.1478 143.902 35.3815C143.547 35.6041 143.237 35.81 142.971 35.9992C142.716 36.1773 142.461 36.2663 142.206 36.2663C142.006 36.2663 141.829 36.2162 141.674 36.1161C141.53 36.0048 141.413 35.8712 141.325 35.7154L140.792 34.7638C141.724 33.8623 142.727 33.189 143.802 32.7438C144.877 32.2986 146.069 32.076 147.377 32.076C148.319 32.076 149.156 32.2319 149.888 32.5435C150.619 32.8551 151.235 33.2892 151.733 33.8456C152.232 34.4021 152.609 35.0754 152.864 35.8656C153.119 36.6558 153.247 37.5239 153.247 38.4699V49.2878ZM145.565 47.4681C146.086 47.4681 146.562 47.4181 146.995 47.3179C147.427 47.2066 147.831 47.0563 148.208 46.8671C148.596 46.6668 148.962 46.4275 149.306 46.1493C149.661 45.8711 150.004 45.5539 150.337 45.1977V41.6752C148.973 41.7197 147.815 41.831 146.862 42.0091C145.908 42.1761 145.132 42.3987 144.534 42.6769C143.935 42.9551 143.497 43.2834 143.22 43.6618C142.954 44.0403 142.821 44.4632 142.821 44.9306C142.821 45.3758 142.893 45.7598 143.037 46.0825C143.181 46.4053 143.375 46.6724 143.619 46.8838C143.863 47.0842 144.151 47.2344 144.484 47.3346C144.816 47.4236 145.177 47.4681 145.565 47.4681Z" fill="#5B95BA"/>
<path d="M169.748 35.3815C169.659 35.5039 169.571 35.5985 169.482 35.6653C169.393 35.7321 169.266 35.7655 169.1 35.7655C168.933 35.7655 168.751 35.6987 168.551 35.5651C168.363 35.4205 168.119 35.2646 167.819 35.0977C167.52 34.9308 167.154 34.7805 166.722 34.647C166.301 34.5023 165.78 34.4299 165.159 34.4299C164.339 34.4299 163.613 34.5802 162.981 34.8807C162.349 35.17 161.817 35.593 161.384 36.1494C160.963 36.7059 160.642 37.3792 160.42 38.1694C160.209 38.9596 160.104 39.8444 160.104 40.8238C160.104 41.8477 160.221 42.7604 160.453 43.5617C160.686 44.3519 161.013 45.0196 161.434 45.565C161.856 46.0992 162.365 46.511 162.964 46.8004C163.574 47.0786 164.256 47.2177 165.009 47.2177C165.73 47.2177 166.323 47.1342 166.788 46.9673C167.254 46.7892 167.642 46.5945 167.952 46.383C168.263 46.1715 168.518 45.9823 168.717 45.8154C168.917 45.6373 169.116 45.5483 169.316 45.5483C169.571 45.5483 169.759 45.6429 169.881 45.8321L170.713 46.9172C169.981 47.8187 169.066 48.4809 167.969 48.9038C166.872 49.3156 165.713 49.5215 164.494 49.5215C163.441 49.5215 162.46 49.3268 161.551 48.9372C160.653 48.5477 159.871 47.9857 159.206 47.2511C158.541 46.5054 158.015 45.5928 157.627 44.5133C157.25 43.4337 157.061 42.2039 157.061 40.8238C157.061 39.5662 157.233 38.4032 157.577 37.3347C157.931 36.2663 158.441 35.3481 159.106 34.5802C159.783 33.8011 160.614 33.1946 161.601 32.7605C162.587 32.3265 163.718 32.1094 164.993 32.1094C166.168 32.1094 167.21 32.3042 168.119 32.6937C169.028 33.0721 169.831 33.6119 170.53 34.3131L169.748 35.3815Z" fill="#5B95BA"/>
<path d="M179.248 54.2794C179.148 54.502 179.021 54.68 178.866 54.8136C178.722 54.9472 178.494 55.0139 178.184 55.0139H175.989L179.065 48.3028L172.115 32.3765H174.676C174.931 32.3765 175.13 32.4433 175.274 32.5769C175.418 32.6993 175.524 32.8384 175.59 32.9942L180.096 43.6452C180.196 43.89 180.279 44.1349 180.346 44.3797C180.423 44.6245 180.49 44.875 180.545 45.1309C180.623 44.875 180.7 44.6245 180.778 44.3797C180.856 44.1349 180.944 43.8844 181.044 43.6285L185.417 32.9942C185.484 32.8162 185.594 32.6715 185.75 32.5602C185.916 32.4378 186.093 32.3765 186.282 32.3765H188.643L179.248 54.2794Z" fill="#5B95BA"/>
<path d="M208.832 25.5766V27.029H200.568V49.1989H198.872V27.029H190.558V25.5766H208.832Z" fill="#575E71"/>
<path d="M215.381 32.3211C216.567 32.3211 217.625 32.527 218.556 32.9387C219.499 33.3394 220.291 33.9126 220.934 34.6582C221.577 35.4039 222.065 36.3054 222.397 37.3627C222.741 38.4089 222.913 39.5831 222.913 40.8852C222.913 42.1874 222.741 43.3615 222.397 44.4077C222.065 45.4539 221.577 46.3498 220.934 47.0955C220.291 47.8411 219.499 48.4143 218.556 48.815C217.625 49.2156 216.567 49.416 215.381 49.416C214.194 49.416 213.13 49.2156 212.188 48.815C211.257 48.4143 210.464 47.8411 209.81 47.0955C209.167 46.3498 208.674 45.4539 208.33 44.4077C207.998 43.3615 207.832 42.1874 207.832 40.8852C207.832 39.5831 207.998 38.4089 208.33 37.3627C208.674 36.3054 209.167 35.4039 209.81 34.6582C210.464 33.9126 211.257 33.3394 212.188 32.9387C213.13 32.527 214.194 32.3211 215.381 32.3211ZM215.381 48.1639C216.367 48.1639 217.226 47.9969 217.958 47.6631C218.701 47.3181 219.316 46.8284 219.804 46.194C220.302 45.5596 220.674 44.7972 220.918 43.9069C221.161 43.0054 221.283 41.9982 221.283 40.8852C221.283 39.7834 221.161 38.7817 220.918 37.8802C220.674 36.9787 220.302 36.2108 219.804 35.5764C219.316 34.9309 218.701 34.4357 217.958 34.0906C217.226 33.7456 216.367 33.5731 215.381 33.5731C214.394 33.5731 213.529 33.7456 212.787 34.0906C212.055 34.4357 211.44 34.9309 210.941 35.5764C210.453 36.2108 210.082 36.9787 209.827 37.8802C209.583 38.7817 209.461 39.7834 209.461 40.8852C209.461 41.9982 209.583 43.0054 209.827 43.9069C210.082 44.7972 210.453 45.5596 210.941 46.194C211.44 46.8284 212.055 47.3181 212.787 47.6631C213.529 47.9969 214.394 48.1639 215.381 48.1639Z" fill="#575E71"/>
<path d="M233.9 32.3211C235.086 32.3211 236.145 32.527 237.076 32.9387C238.018 33.3394 238.811 33.9126 239.454 34.6582C240.097 35.4039 240.584 36.3054 240.917 37.3627C241.261 38.4089 241.432 39.5831 241.432 40.8852C241.432 42.1874 241.261 43.3615 240.917 44.4077C240.584 45.4539 240.097 46.3498 239.454 47.0955C238.811 47.8411 238.018 48.4143 237.076 48.815C236.145 49.2156 235.086 49.416 233.9 49.416C232.714 49.416 231.65 49.2156 230.708 48.815C229.776 48.4143 228.984 47.8411 228.33 47.0955C227.687 46.3498 227.194 45.4539 226.85 44.4077C226.517 43.3615 226.351 42.1874 226.351 40.8852C226.351 39.5831 226.517 38.4089 226.85 37.3627C227.194 36.3054 227.687 35.4039 228.33 34.6582C228.984 33.9126 229.776 33.3394 230.708 32.9387C231.65 32.527 232.714 32.3211 233.9 32.3211ZM233.9 48.1639C234.887 48.1639 235.746 47.9969 236.477 47.6631C237.22 47.3181 237.835 46.8284 238.323 46.194C238.822 45.5596 239.193 44.7972 239.437 43.9069C239.681 43.0054 239.803 41.9982 239.803 40.8852C239.803 39.7834 239.681 38.7817 239.437 37.8802C239.193 36.9787 238.822 36.2108 238.323 35.5764C237.835 34.9309 237.22 34.4357 236.477 34.0906C235.746 33.7456 234.887 33.5731 233.9 33.5731C232.913 33.5731 232.049 33.7456 231.306 34.0906C230.575 34.4357 229.959 34.9309 229.46 35.5764C228.973 36.2108 228.601 36.9787 228.346 37.8802C228.103 38.7817 227.981 39.7834 227.981 40.8852C227.981 41.9982 228.103 43.0054 228.346 43.9069C228.601 44.7972 228.973 45.5596 229.46 46.194C229.959 46.8284 230.575 47.3181 231.306 47.6631C232.049 47.9969 232.913 48.1639 233.9 48.1639Z" fill="#575E71"/>
<path d="M248.163 24.9088V49.1989H246.583V24.9088H248.163Z" fill="#575E71"/>
<path d="M256.3 24.9088V39.7166H257.065C257.22 39.7166 257.364 39.6943 257.497 39.6498C257.641 39.6053 257.796 39.4996 257.963 39.3326L264.597 33.0055C264.719 32.8831 264.841 32.7829 264.963 32.705C265.096 32.6271 265.262 32.5882 265.462 32.5882H266.858L259.559 39.5497C259.448 39.661 259.343 39.7667 259.243 39.8669C259.143 39.9559 259.032 40.0338 258.91 40.1006C259.088 40.1896 259.237 40.2953 259.359 40.4178C259.481 40.5402 259.609 40.6737 259.742 40.8184L267.407 49.1989H266.027C265.872 49.1989 265.733 49.1711 265.611 49.1155C265.489 49.0487 265.367 48.9485 265.245 48.815L258.295 41.3359C258.107 41.1356 257.935 41.0021 257.78 40.9353C257.624 40.8574 257.381 40.8184 257.048 40.8184H256.3V49.1989H254.703V24.9088H256.3Z" fill="#575E71"/>
<path d="M273.478 32.5882V49.1989H271.898V32.5882H273.478ZM274.176 26.862C274.176 27.0624 274.132 27.2516 274.043 27.4296C273.966 27.5966 273.861 27.7468 273.728 27.8804C273.595 28.0139 273.439 28.1197 273.262 28.1976C273.085 28.2755 272.896 28.3144 272.697 28.3144C272.497 28.3144 272.309 28.2755 272.131 28.1976C271.954 28.1197 271.799 28.0139 271.666 27.8804C271.533 27.7468 271.427 27.5966 271.35 27.4296C271.272 27.2516 271.233 27.0624 271.233 26.862C271.233 26.6617 271.272 26.4725 271.35 26.2944C271.427 26.1052 271.533 25.9439 271.666 25.8103C271.799 25.6767 271.954 25.571 272.131 25.4931C272.309 25.4152 272.497 25.3763 272.697 25.3763C272.896 25.3763 273.085 25.4152 273.262 25.4931C273.439 25.571 273.595 25.6767 273.728 25.8103C273.861 25.9439 273.966 26.1052 274.043 26.2944C274.132 26.4725 274.176 26.6617 274.176 26.862Z" fill="#575E71"/>
<path d="M284.375 49.466C283.256 49.466 282.38 49.1544 281.748 48.5312C281.127 47.9079 280.817 46.9452 280.817 45.6431V34.291H278.439C278.317 34.291 278.217 34.2576 278.14 34.1908C278.062 34.124 278.023 34.0294 278.023 33.907V33.2893L280.85 33.089L281.249 27.1458C281.26 27.0457 281.299 26.9566 281.366 26.8787C281.443 26.8008 281.543 26.7619 281.665 26.7619H282.413V33.1057H287.618V34.291H282.413V45.5596C282.413 46.0159 282.469 46.411 282.579 46.7449C282.701 47.0676 282.862 47.3347 283.062 47.5462C283.272 47.7577 283.516 47.9135 283.793 48.0136C284.07 48.1138 284.37 48.1639 284.691 48.1639C285.09 48.1639 285.434 48.1082 285.722 47.9969C286.01 47.8745 286.26 47.7465 286.47 47.613C286.681 47.4683 286.853 47.3403 286.986 47.229C287.119 47.1066 287.224 47.0454 287.302 47.0454C287.39 47.0454 287.479 47.101 287.568 47.2123L288 47.9135C287.579 48.3809 287.041 48.7593 286.387 49.0487C285.744 49.3269 285.074 49.466 284.375 49.466Z" fill="#575E71"/>
</svg>
