<svg width="270" height="114" viewBox="0 0 270 114" fill="none" xmlns="http://www.w3.org/2000/svg">
<path d="M190.324 23.0636V24.4432H182.443V45.5013H180.825V24.4432H172.897V23.0636H190.324Z" fill="#575E71"/>
<path d="M196.065 29.4698C197.196 29.4698 198.206 29.6654 199.094 30.0566C199.992 30.4371 200.748 30.9815 201.361 31.6898C201.974 32.3981 202.44 33.2544 202.757 34.2587C203.084 35.2524 203.248 36.3677 203.248 37.6045C203.248 38.8413 203.084 39.9566 202.757 40.9503C202.44 41.944 201.974 42.795 201.361 43.5033C200.748 44.2116 199.992 44.756 199.094 45.1366C198.206 45.5172 197.196 45.7074 196.065 45.7074C194.934 45.7074 193.919 45.5172 193.021 45.1366C192.133 44.756 191.377 44.2116 190.753 43.5033C190.14 42.795 189.669 41.944 189.342 40.9503C189.025 39.9566 188.866 38.8413 188.866 37.6045C188.866 36.3677 189.025 35.2524 189.342 34.2587C189.669 33.2544 190.14 32.3981 190.753 31.6898C191.377 30.9815 192.133 30.4371 193.021 30.0566C193.919 29.6654 194.934 29.4698 196.065 29.4698ZM196.065 44.5182C197.006 44.5182 197.825 44.3596 198.523 44.0425C199.231 43.7147 199.818 43.2496 200.283 42.647C200.759 42.0445 201.113 41.3203 201.345 40.4746C201.578 39.6183 201.694 38.6616 201.694 37.6045C201.694 36.5579 201.578 35.6065 201.345 34.7502C201.113 33.894 200.759 33.1645 200.283 32.562C199.818 31.9488 199.231 31.4784 198.523 31.1507C197.825 30.823 197.006 30.6591 196.065 30.6591C195.124 30.6591 194.3 30.823 193.591 31.1507C192.894 31.4784 192.307 31.9488 191.831 32.562C191.366 33.1645 191.012 33.894 190.769 34.7502C190.536 35.6065 190.42 36.5579 190.42 37.6045C190.42 38.6616 190.536 39.6183 190.769 40.4746C191.012 41.3203 191.366 42.0445 191.831 42.647C192.307 43.2496 192.894 43.7147 193.591 44.0425C194.3 44.3596 195.124 44.5182 196.065 44.5182Z" fill="#575E71"/>
<path d="M213.223 29.4698C214.354 29.4698 215.364 29.6654 216.252 30.0566C217.15 30.4371 217.906 30.9815 218.519 31.6898C219.132 32.3981 219.597 33.2544 219.915 34.2587C220.242 35.2524 220.406 36.3677 220.406 37.6045C220.406 38.8413 220.242 39.9566 219.915 40.9503C219.597 41.944 219.132 42.795 218.519 43.5033C217.906 44.2116 217.15 44.756 216.252 45.1366C215.364 45.5172 214.354 45.7074 213.223 45.7074C212.092 45.7074 211.077 45.5172 210.178 45.1366C209.29 44.756 208.535 44.2116 207.911 43.5033C207.298 42.795 206.827 41.944 206.5 40.9503C206.182 39.9566 206.024 38.8413 206.024 37.6045C206.024 36.3677 206.182 35.2524 206.5 34.2587C206.827 33.2544 207.298 32.3981 207.911 31.6898C208.535 30.9815 209.29 30.4371 210.178 30.0566C211.077 29.6654 212.092 29.4698 213.223 29.4698ZM213.223 44.5182C214.164 44.5182 214.983 44.3596 215.681 44.0425C216.389 43.7147 216.976 43.2496 217.441 42.647C217.917 42.0445 218.271 41.3203 218.503 40.4746C218.736 39.6183 218.852 38.6616 218.852 37.6045C218.852 36.5579 218.736 35.6065 218.503 34.7502C218.271 33.894 217.917 33.1645 217.441 32.562C216.976 31.9488 216.389 31.4784 215.681 31.1507C214.983 30.823 214.164 30.6591 213.223 30.6591C212.282 30.6591 211.457 30.823 210.749 31.1507C210.051 31.4784 209.465 31.9488 208.989 32.562C208.524 33.1645 208.17 33.894 207.927 34.7502C207.694 35.6065 207.578 36.5579 207.578 37.6045C207.578 38.6616 207.694 39.6183 207.927 40.4746C208.17 41.3203 208.524 42.0445 208.989 42.647C209.465 43.2496 210.051 43.7147 210.749 44.0425C211.457 44.3596 212.282 44.5182 213.223 44.5182Z" fill="#575E71"/>
<path d="M226.321 22.4293V45.5013H224.815V22.4293H226.321Z" fill="#575E71"/>
<path d="M240.586 31.674C240.512 31.822 240.396 31.896 240.238 31.896C240.121 31.896 239.968 31.8325 239.778 31.7057C239.598 31.5683 239.355 31.4203 239.048 31.2617C238.752 31.0925 238.382 30.9445 237.938 30.8177C237.505 30.6803 236.971 30.6116 236.337 30.6116C235.766 30.6116 235.243 30.6961 234.767 30.8653C234.302 31.0238 233.9 31.2405 233.562 31.5154C233.234 31.7903 232.975 32.1127 232.785 32.4827C232.605 32.8421 232.515 33.2227 232.515 33.6244C232.515 34.1212 232.642 34.5335 232.896 34.8612C233.149 35.1889 233.482 35.4691 233.895 35.7017C234.307 35.9342 234.772 36.1351 235.29 36.3042C235.819 36.4734 236.358 36.6425 236.908 36.8117C237.457 36.9808 237.991 37.1711 238.509 37.3825C239.038 37.5834 239.508 37.8371 239.92 38.1436C240.333 38.4502 240.666 38.8255 240.919 39.2695C241.173 39.7135 241.3 40.2526 241.3 40.8869C241.3 41.574 241.173 42.2136 240.919 42.8056C240.676 43.3976 240.317 43.9103 239.841 44.3437C239.376 44.7772 238.8 45.1207 238.113 45.3744C237.426 45.6282 236.643 45.755 235.766 45.755C234.656 45.755 233.699 45.5806 232.896 45.2317C232.092 44.8723 231.374 44.4072 230.739 43.8363L231.104 43.2972C231.157 43.2126 231.215 43.1492 231.278 43.1069C231.342 43.0646 231.432 43.0435 231.548 43.0435C231.685 43.0435 231.854 43.128 232.055 43.2972C232.256 43.4663 232.515 43.6513 232.832 43.8522C233.16 44.0425 233.562 44.2222 234.037 44.3913C234.524 44.5605 235.121 44.645 235.829 44.645C236.495 44.645 237.082 44.5552 237.589 44.3755C238.097 44.1852 238.52 43.9315 238.858 43.6143C239.196 43.2972 239.45 42.9272 239.619 42.5043C239.799 42.0709 239.889 41.6163 239.889 41.1406C239.889 40.6121 239.762 40.1733 239.508 39.8245C239.254 39.4756 238.921 39.1796 238.509 38.9365C238.097 38.6934 237.626 38.4872 237.098 38.3181C236.58 38.1489 236.041 37.9798 235.48 37.8106C234.931 37.6415 234.392 37.4565 233.863 37.2556C233.345 37.0548 232.88 36.8011 232.468 36.4945C232.055 36.1879 231.722 35.8179 231.469 35.3845C231.215 34.9405 231.088 34.3908 231.088 33.7354C231.088 33.1751 231.21 32.636 231.453 32.118C231.696 31.6 232.04 31.1454 232.483 30.7543C232.938 30.3631 233.488 30.0513 234.133 29.8187C234.777 29.5861 235.502 29.4698 236.305 29.4698C237.267 29.4698 238.118 29.6073 238.858 29.8821C239.609 30.157 240.296 30.5798 240.919 31.1507L240.586 31.674Z" fill="#575E71"/>
<path d="M251.47 29.4698C252.358 29.4698 253.178 29.6231 253.928 29.9297C254.689 30.2363 255.345 30.6855 255.894 31.2775C256.455 31.859 256.888 32.5778 257.195 33.4341C257.512 34.2904 257.67 35.2735 257.67 36.3835C257.67 36.6161 257.633 36.7747 257.559 36.8592C257.496 36.9438 257.39 36.9861 257.242 36.9861H245.841V37.2874C245.841 38.4714 245.979 39.5126 246.253 40.4112C246.528 41.3098 246.919 42.0656 247.427 42.6788C247.934 43.2813 248.547 43.7359 249.266 44.0425C249.985 44.349 250.788 44.5023 251.676 44.5023C252.469 44.5023 253.156 44.4177 253.738 44.2486C254.319 44.0689 254.806 43.8733 255.197 43.6619C255.598 43.4399 255.916 43.2443 256.148 43.0752C256.381 42.8955 256.55 42.8056 256.656 42.8056C256.793 42.8056 256.899 42.8585 256.973 42.9642L257.385 43.4716C257.131 43.7887 256.793 44.0847 256.37 44.3596C255.958 44.6345 255.493 44.8723 254.975 45.0732C254.467 45.2634 253.918 45.4167 253.326 45.533C252.744 45.6493 252.157 45.7074 251.565 45.7074C250.487 45.7074 249.504 45.5224 248.616 45.1524C247.728 44.7719 246.967 44.2222 246.333 43.5033C245.698 42.7845 245.207 41.907 244.858 40.871C244.52 39.8245 244.351 38.6299 244.351 37.2874C244.351 36.1562 244.509 35.1149 244.826 34.1635C245.154 33.2015 245.619 32.377 246.222 31.6898C246.835 30.9921 247.58 30.4477 248.457 30.0566C249.345 29.6654 250.35 29.4698 251.47 29.4698ZM251.486 30.5957C250.672 30.5957 249.943 30.7225 249.298 30.9763C248.653 31.23 248.093 31.5947 247.617 32.0704C247.152 32.5461 246.771 33.117 246.475 33.783C246.19 34.449 246 35.1942 245.905 36.0188H256.307C256.307 35.1731 256.19 34.4172 255.958 33.7512C255.725 33.0747 255.398 32.5038 254.975 32.0387C254.552 31.5735 254.044 31.2194 253.452 30.9763C252.86 30.7225 252.205 30.5957 251.486 30.5957Z" fill="#575E71"/>
<path d="M266.035 45.755C264.967 45.755 264.132 45.459 263.529 44.867C262.937 44.275 262.641 43.3606 262.641 42.1238V31.341H260.374C260.258 31.341 260.162 31.3093 260.088 31.2458C260.014 31.1824 259.977 31.0925 259.977 30.9763V30.3896L262.673 30.1993L263.054 24.5542C263.064 24.459 263.101 24.3745 263.165 24.3005C263.239 24.2265 263.334 24.1895 263.45 24.1895H264.164V30.2151H269.127V31.341H264.164V42.0445C264.164 42.4779 264.216 42.8532 264.322 43.1703C264.438 43.4769 264.592 43.7306 264.782 43.9315C264.983 44.1323 265.215 44.2803 265.48 44.3755C265.744 44.4706 266.029 44.5182 266.336 44.5182C266.717 44.5182 267.044 44.4653 267.319 44.3596C267.594 44.2433 267.832 44.1217 268.033 43.9949C268.234 43.8575 268.397 43.7359 268.524 43.6302C268.651 43.5139 268.752 43.4557 268.826 43.4557C268.91 43.4557 268.995 43.5086 269.079 43.6143L269.492 44.2803C269.09 44.7243 268.577 45.0837 267.953 45.3586C267.34 45.6229 266.701 45.755 266.035 45.755Z" fill="#575E71"/>
<path d="M74.8502 37.002V45.5014H71.7898V22.7783H78.4973C79.935 22.7783 81.1824 22.9474 82.2396 23.2857C83.3073 23.6134 84.19 24.0838 84.8877 24.697C85.5854 25.3101 86.1034 26.0501 86.4417 26.9169C86.7906 27.7838 86.965 28.7511 86.965 29.8188C86.965 30.8759 86.78 31.8432 86.41 32.7206C86.04 33.598 85.4956 34.3539 84.7767 34.9882C84.0684 35.6224 83.1857 36.1193 82.1286 36.4787C81.0714 36.8276 79.861 37.002 78.4973 37.002H74.8502ZM74.8502 34.56H78.4973C79.3747 34.56 80.1465 34.4437 80.8124 34.2112C81.489 33.9786 82.0546 33.6562 82.5092 33.2439C82.9637 32.821 83.3073 32.3189 83.5399 31.7375C83.7724 31.156 83.8887 30.5165 83.8887 29.8188C83.8887 28.3705 83.4394 27.2394 82.5409 26.4254C81.6529 25.6114 80.305 25.2044 78.4973 25.2044H74.8502V34.56Z" fill="#5B95BA"/>
<path d="M90.4164 45.5014V29.4382H92.0338C92.3403 29.4382 92.5518 29.4963 92.6681 29.6126C92.7843 29.7289 92.8636 29.9298 92.9059 30.2152L93.0962 32.7206C93.6459 31.6 94.3225 30.7279 95.1259 30.1042C95.9399 29.4699 96.8913 29.1528 97.9802 29.1528C98.4242 29.1528 98.8259 29.2056 99.1853 29.3113C99.5447 29.4065 99.8777 29.5439 100.184 29.7236L99.8196 31.8326C99.7456 32.0969 99.5817 32.229 99.328 32.229C99.18 32.229 98.9527 32.1815 98.6462 32.0863C98.3396 31.9806 97.9115 31.9278 97.3617 31.9278C96.3786 31.9278 95.554 32.2132 94.888 32.784C94.2326 33.3549 93.6829 34.1847 93.2389 35.2736V45.5014H90.4164Z" fill="#5B95BA"/>
<path d="M106.347 29.4382V45.5014H103.524V29.4382H106.347ZM106.981 24.3957C106.981 24.6705 106.923 24.9295 106.807 25.1727C106.701 25.4052 106.553 25.6167 106.363 25.8069C106.183 25.9867 105.972 26.1294 105.729 26.2351C105.485 26.3408 105.226 26.3937 104.952 26.3937C104.677 26.3937 104.418 26.3408 104.175 26.2351C103.942 26.1294 103.731 25.9867 103.54 25.8069C103.361 25.6167 103.218 25.4052 103.112 25.1727C103.006 24.9295 102.954 24.6705 102.954 24.3957C102.954 24.1208 103.006 23.8618 103.112 23.6187C103.218 23.365 103.361 23.1482 103.54 22.9685C103.731 22.7783 103.942 22.6303 104.175 22.5245C104.418 22.4188 104.677 22.366 104.952 22.366C105.226 22.366 105.485 22.4188 105.729 22.5245C105.972 22.6303 106.183 22.7783 106.363 22.9685C106.553 23.1482 106.701 23.365 106.807 23.6187C106.923 23.8618 106.981 24.1208 106.981 24.3957Z" fill="#5B95BA"/>
<path d="M109.292 29.4382H111.607C111.829 29.4382 112.014 29.4963 112.162 29.6126C112.31 29.7289 112.416 29.8663 112.479 30.0249L116.554 40.3637C116.702 40.7443 116.819 41.1248 116.903 41.5054C116.988 41.886 117.067 42.2613 117.141 42.6313C117.226 42.2613 117.316 41.886 117.411 41.5054C117.506 41.1248 117.627 40.7443 117.775 40.3637L121.898 30.0249C121.962 29.8558 122.062 29.7183 122.2 29.6126C122.348 29.4963 122.527 29.4382 122.739 29.4382H124.943L118.394 45.5014H115.841L109.292 29.4382Z" fill="#5B95BA"/>
<path d="M139.348 45.5014H138.095C137.82 45.5014 137.598 45.4591 137.429 45.3745C137.26 45.29 137.149 45.1102 137.096 44.8354L136.779 43.3448C136.356 43.7254 135.944 44.069 135.542 44.3755C135.141 44.6715 134.718 44.9252 134.274 45.1367C133.83 45.3375 133.354 45.4908 132.847 45.5965C132.35 45.7022 131.795 45.7551 131.182 45.7551C130.558 45.7551 129.971 45.6705 129.421 45.5014C128.882 45.3217 128.412 45.0574 128.01 44.7085C127.608 44.3597 127.286 43.921 127.043 43.3924C126.81 42.8533 126.694 42.219 126.694 41.4895C126.694 40.8553 126.868 40.2474 127.217 39.666C127.566 39.074 128.126 38.5507 128.898 38.0961C129.68 37.6416 130.701 37.2716 131.959 36.9862C133.217 36.6902 134.755 36.521 136.573 36.4787V35.226C136.573 33.9786 136.303 33.0378 135.764 32.4035C135.236 31.7586 134.448 31.4362 133.402 31.4362C132.714 31.4362 132.133 31.526 131.657 31.7058C131.192 31.8749 130.785 32.0705 130.436 32.2925C130.098 32.5039 129.802 32.6995 129.548 32.8792C129.305 33.0483 129.062 33.1329 128.819 33.1329C128.629 33.1329 128.459 33.0853 128.311 32.9902C128.174 32.8845 128.063 32.7576 127.978 32.6096L127.471 31.7058C128.359 30.8495 129.316 30.2099 130.341 29.7871C131.367 29.3642 132.503 29.1528 133.75 29.1528C134.649 29.1528 135.447 29.3008 136.145 29.5968C136.843 29.8928 137.429 30.3051 137.905 30.8336C138.381 31.3622 138.74 32.0018 138.983 32.7523C139.226 33.5029 139.348 34.3275 139.348 35.226V45.5014ZM132.022 43.773C132.519 43.773 132.973 43.7254 133.386 43.6302C133.798 43.5245 134.184 43.3818 134.543 43.2021C134.913 43.0118 135.262 42.7845 135.59 42.5203C135.928 42.256 136.256 41.9547 136.573 41.6164V38.2706C135.273 38.3129 134.168 38.4186 133.259 38.5877C132.35 38.7463 131.61 38.9577 131.039 39.222C130.468 39.4863 130.05 39.7981 129.786 40.1576C129.532 40.517 129.406 40.9187 129.406 41.3627C129.406 41.7855 129.474 42.1503 129.612 42.4568C129.749 42.7634 129.934 43.0171 130.167 43.218C130.399 43.4083 130.674 43.551 130.991 43.6461C131.308 43.7307 131.652 43.773 132.022 43.773Z" fill="#5B95BA"/>
<path d="M154.581 32.2925C154.497 32.4088 154.412 32.4986 154.328 32.562C154.243 32.6255 154.122 32.6572 153.963 32.6572C153.804 32.6572 153.63 32.5938 153.44 32.4669C153.26 32.3295 153.027 32.1815 152.742 32.0229C152.457 31.8643 152.108 31.7216 151.695 31.5948C151.294 31.4573 150.797 31.3886 150.205 31.3886C149.423 31.3886 148.73 31.5313 148.128 31.8168C147.525 32.0916 147.018 32.4933 146.605 33.0219C146.204 33.5505 145.897 34.19 145.686 34.9406C145.485 35.6912 145.384 36.5316 145.384 37.4619C145.384 38.4344 145.495 39.3013 145.717 40.0624C145.939 40.813 146.251 41.4473 146.653 41.9653C147.055 42.4727 147.541 42.8638 148.112 43.1387C148.693 43.403 149.343 43.5351 150.062 43.5351C150.749 43.5351 151.315 43.4558 151.759 43.2973C152.203 43.1281 152.573 42.9431 152.869 42.7423C153.165 42.5414 153.408 42.3617 153.598 42.2031C153.789 42.034 153.979 41.9494 154.169 41.9494C154.412 41.9494 154.592 42.0393 154.708 42.219L155.501 43.2497C154.803 44.106 153.931 44.735 152.885 45.1367C151.838 45.5278 150.733 45.7234 149.571 45.7234C148.566 45.7234 147.631 45.5384 146.764 45.1684C145.908 44.7984 145.162 44.2645 144.528 43.5668C143.894 42.8585 143.392 41.9917 143.022 40.9663C142.662 39.9408 142.482 38.7727 142.482 37.4619C142.482 36.2673 142.646 35.1626 142.974 34.1477C143.312 33.1329 143.799 32.2608 144.433 31.5313C145.078 30.7913 145.871 30.2152 146.811 29.8029C147.752 29.3906 148.831 29.1845 150.046 29.1845C151.167 29.1845 152.161 29.3695 153.027 29.7395C153.894 30.0989 154.661 30.6116 155.327 31.2776L154.581 32.2925Z" fill="#5B95BA"/>
<path d="M163.138 50.2426C163.043 50.4541 162.921 50.6232 162.773 50.7501C162.636 50.8769 162.419 50.9403 162.123 50.9403H160.03L162.963 44.5658L156.335 29.4382H158.777C159.02 29.4382 159.21 29.5016 159.348 29.6285C159.485 29.7448 159.586 29.8769 159.649 30.0249L163.946 40.1417C164.042 40.3743 164.121 40.6068 164.184 40.8394C164.258 41.072 164.322 41.3098 164.375 41.553C164.449 41.3098 164.523 41.072 164.597 40.8394C164.671 40.6068 164.755 40.369 164.85 40.1258L169.021 30.0249C169.084 29.8558 169.19 29.7183 169.338 29.6126C169.496 29.4963 169.666 29.4382 169.845 29.4382H172.097L163.138 50.2426Z" fill="#5B95BA"/>
<path d="M29.3128 21.0084L20.5189 23.493L19.9326 32.8105L20.5189 37.1586L21.1051 42.7491L24.0364 50.203L28.1403 55.7935L34.5891 62.6263L39.8654 66.9744L51.5906 57.0358L55.6945 50.203L59.212 43.3702L59.7983 35.2951V23.493L53.9357 22.2507L45.728 18.5237L39.8654 13.5544L38.1067 15.4179L29.3128 21.0084Z" fill="#8BB4CE"/>
<g opacity="0.35">
<path d="M23.0422 33.7995L31.6489 38.2617C31.6489 38.2617 37.999 36.1179 38.9874 36.4531C39.0835 36.4856 39.2457 36.5527 39.4584 36.646L39.4592 36.6465C41.4318 37.5131 47.8189 40.6952 47.8189 40.6952L45.9984 40.574C46.7391 41.5663 47.7705 42.8651 48.3565 43.2438C49.3432 43.881 46.9935 45.6947 45.0204 44.371C43.047 43.0475 42.53 41.4301 42.53 41.4301L41.5541 41.5353L48.3983 48.0912L49.4855 49.4506C50.4262 50.6267 49.2581 52.3255 47.7219 51.8077C47.7464 51.827 47.6595 51.8005 47.6824 51.8656C47.7703 52.1124 47.9479 52.7049 47.7878 52.994C47.2253 54.0111 46.3782 54.7937 44.5839 53.3683C45.0187 53.7136 45.2851 54.5264 44.9835 54.9989C44.5731 55.6421 44.1207 55.9322 43.6258 56.0895C43.1043 56.2553 42.3178 55.7354 41.8837 55.3904C42.3181 55.7354 42.5251 56.554 42.2355 57.0359C41.8791 57.629 40.7469 58.5007 40.0291 57.9301L37.7737 56.1383C37.7737 56.1383 32.2836 50.593 30.5872 49.1173C28.8904 47.6408 26.5844 44.6371 26.5844 44.6371L19.6345 38.7143L23.0427 33.7992L23.0422 33.7995Z" fill="#5B95BA"/>
<path d="M57.1206 33.8L48.713 38.2744C48.0409 38.632 45.6262 36.938 43.6396 36.6798C42.2011 36.4929 40.4633 37.0903 40.5668 37.1478L45.0705 39.3768C45.0705 39.3768 47.266 42.6316 48.2299 43.2701C49.1938 43.9088 46.8984 45.7277 44.971 44.4003C43.0432 43.0733 42.5382 41.4514 42.5382 41.4514L38.5534 41.8912L30.8712 49.1601C29.8078 50.1664 30.133 50.6916 30.8481 51.673C31.1751 52.1225 32.3768 51.9711 32.8806 51.7649C31.7172 52.7126 33.3947 55.1531 35.0394 53.8107C34.0448 54.6222 35.4713 57.4833 37.4632 55.8582C36.4696 57.2924 38.4947 58.3355 39.3462 58.0762L39.963 57.8885L39.8055 57.7601C39.7546 57.7601 38.1414 55.9889 38.0438 55.774C37.4919 54.5613 38.9461 52.9189 40.2499 54.0932L41.372 55.0157L40.7219 54.1331C39.8927 52.9696 40.5309 51.7682 41.3252 51.404C41.9073 51.1375 42.5098 51.4335 43.0009 51.9522L44.2403 53.0155L43.1844 51.6945C43.1844 51.6945 42.1717 50.4696 43.1012 49.3757C44.0308 48.2822 45.2905 49.5933 45.2905 49.5933L46.7732 50.9058L45.497 49.3232C45.497 49.3232 44.3918 48.079 45.1357 47.2467C46.169 46.0903 47.4475 47.2291 48.4569 48.368C48.7469 48.6955 49.0457 49.1983 49.2724 49.4305C50.3865 48.0879 51.1361 46.6327 51.1361 46.6327L60.3763 40.0077L57.1209 33.7992L57.1206 33.8Z" fill="#5B95BA"/>
<path d="M59.1494 43.6293L56.1687 46.2162L48.3503 35.3989L57.1859 25.5211L57.6768 25.5211C58.1677 25.5211 59.8857 25.7798 59.8857 28.6254C60.3766 30.6949 59.6403 31.7296 59.8857 33.7991C60.8514 35.9423 58.9471 41.1047 59.1494 43.6293Z" fill="#5B95BA"/>
<path d="M20.8911 44.1466L23.8718 46.7335L31.6902 35.9163L22.8546 26.0385L22.3637 26.0385C21.8728 26.0385 20.1548 26.2971 20.1548 29.1427C19.6639 31.2122 20.4002 32.247 20.1548 34.3165C19.1892 36.4596 21.0934 41.622 20.8911 44.1466Z" fill="#5B95BA"/>
</g>
<path d="M22.7966 31.2126L31.4033 35.6748C31.4033 35.6748 37.7534 33.531 38.7418 33.8662C38.8378 33.8987 39.0001 33.9658 39.2128 34.059L39.2136 34.0596C41.1862 34.9262 47.5733 38.1083 47.5733 38.1083L45.7528 37.9871C46.4934 38.9794 47.5249 40.2782 48.1109 40.6569C49.0976 41.2941 46.7479 43.1078 44.7748 41.7841C42.8014 40.4606 42.2844 38.8432 42.2844 38.8432L41.3085 38.9483L48.1527 45.5043L49.2399 46.8637C50.1806 48.0398 49.0125 49.7386 47.4763 49.2207C47.5008 49.2401 47.4138 49.2136 47.4368 49.2787C47.5247 49.5255 47.7022 50.118 47.5422 50.4071C46.9797 51.4242 46.1326 52.2068 44.3383 50.7813C44.7731 51.1267 45.0395 51.9394 44.7379 52.412C44.3275 53.0552 43.8751 53.3453 43.3802 53.5026C42.8587 53.6684 42.0722 53.1485 41.6381 52.8035C42.0725 53.1485 42.2795 53.967 41.9899 54.449C41.6335 55.0421 40.5013 55.9138 39.7835 55.3432L37.5281 53.5514C37.5281 53.5514 32.038 48.0061 30.3416 46.5303C28.6448 45.0539 26.3388 42.0502 26.3388 42.0502L19.3889 36.1274L22.7971 31.2123L22.7966 31.2126Z" fill="#ECCA9E"/>
<path d="M56.875 31.2131L48.4674 35.6875C47.7953 36.0451 45.3806 34.3511 43.394 34.0929C41.9555 33.906 40.2177 34.5033 40.3212 34.5609L44.8249 36.7899C44.8249 36.7899 47.0204 40.0447 47.9843 40.6832C48.9482 41.3219 46.6528 43.1408 44.7254 41.8134C42.7976 40.4864 42.2925 38.8645 42.2925 38.8645L38.3078 39.3043L30.6256 46.5732C29.5622 47.5795 29.8874 48.1046 30.6025 49.0861C30.9295 49.5356 32.1312 49.3842 32.635 49.178C31.4716 50.1256 33.1491 52.5662 34.7938 51.2238C33.7992 52.0353 35.2257 54.8964 37.2176 53.2713C36.2239 54.7054 38.2491 55.7486 39.1006 55.4893L39.7174 55.3016L39.5599 55.1732C39.509 55.1732 37.8958 53.4019 37.7982 53.1871C37.2463 51.9743 38.7005 50.332 40.0043 51.5063L41.1264 52.4288L40.4763 51.5462C39.647 50.3827 40.2853 49.1813 41.0796 48.8171C41.6617 48.5505 42.2642 48.8466 42.7553 49.3653L43.9947 50.4286L42.9388 49.1075C42.9388 49.1075 41.9261 47.8826 42.8556 46.7888C43.7852 45.6952 45.0449 47.0064 45.0449 47.0064L46.5276 48.3188L45.2514 46.7362C45.2514 46.7362 44.1462 45.4921 44.8901 44.6597C45.9234 43.5034 47.2019 44.6422 48.2113 45.7811C48.5013 46.1085 48.8001 46.6114 49.0268 46.8435C50.1408 45.501 50.8905 44.0458 50.8905 44.0458L60.1307 37.4208L56.8753 31.2123L56.875 31.2131Z" fill="#A98A66"/>
<path d="M58.9036 41.0424L55.9229 43.6293L48.1045 32.812L56.9401 22.9342L57.431 22.9342C57.9218 22.9342 59.6399 23.1929 59.6399 26.0385C60.1307 28.108 59.3944 29.1427 59.6399 31.2122C60.6055 33.3554 58.7013 38.5178 58.9036 41.0424Z" fill="#F5B33C"/>
<path d="M20.6455 41.5597L23.6262 44.1466L31.4446 33.3294L22.609 23.4515L22.1181 23.4515C21.6272 23.4515 19.9092 23.7102 19.9092 26.5558C19.4183 28.6253 20.1546 29.6601 19.9092 31.7296C18.9436 33.8727 20.8478 39.0351 20.6455 41.5597Z" fill="#EB8231"/>
<path d="M39.002 66.6781C30.857 61.1037 25.4006 55.3199 22.205 48.3776C19.0095 41.4345 18.1028 33.3849 19.0572 23.2789C19.1335 22.4715 19.7009 21.922 20.4424 21.8139C28.2726 20.7409 33.0902 18.8328 38.7596 12.8714C39.358 12.239 40.3514 12.239 40.9499 12.8714C46.6193 18.8328 51.4368 20.7409 59.2671 21.8139C60.0086 21.922 60.576 22.4715 60.6523 23.2789C61.6067 33.3849 60.7 41.4345 57.5044 48.3776C54.3089 55.3199 48.8524 61.1037 40.7075 66.6781C40.2529 66.9888 39.4566 66.9888 39.002 66.6781ZM39.8547 14.7133C34.0669 20.6865 28.9585 22.747 21.0249 23.8703C20.1666 33.3966 21.0336 40.9705 24.0186 47.4545C27.0107 53.9554 32.1588 59.4226 39.8547 64.7306C47.5507 59.4226 52.6988 53.9554 55.6909 47.4545C58.6758 40.9705 59.5429 33.3966 58.6846 23.8703C50.751 22.747 45.6426 20.6865 39.8547 14.7133Z" fill="#5B95BA"/>
<path d="M3.24341 9.15465C3.24341 11.3216 3.24341 13.4886 3.24341 15.6556C3.24341 16.5093 4.55608 16.5093 4.55608 15.6556C4.55608 13.4886 4.55608 11.3216 4.55608 9.15465C4.55608 8.30099 3.24341 8.30099 3.24341 9.15465Z" fill="#F5B33C"/>
<path d="M7.13767 11.7375C4.97176 11.7375 2.80584 11.7375 0.639929 11.7375C-0.21331 11.7375 -0.21331 13.0509 0.639929 13.0509C2.80584 13.0509 4.97176 13.0509 7.13767 13.0509C7.99091 13.0509 7.99091 11.7375 7.13767 11.7375Z" fill="#F5B33C"/>
<path d="M13.856 13.8937C13.856 14.9881 13.856 16.0606 13.856 17.1551C13.856 18.0087 15.1686 18.0087 15.1686 17.1551C15.1686 16.0606 15.1686 14.9881 15.1686 13.8937C15.1686 13.04 13.856 13.04 13.856 13.8937Z" fill="#3DD6C8"/>
<path d="M16.1529 14.8568C15.059 14.8568 13.987 14.8568 12.8931 14.8568C12.0399 14.8568 12.0399 16.1701 12.8931 16.1701C13.987 16.1701 15.059 16.1701 16.1529 16.1701C16.9843 16.1701 16.9843 14.8568 16.1529 14.8568Z" fill="#3DD6C8"/>
<path d="M12.4441 0.748161C12.4441 2.02707 12.4441 3.2804 12.4441 4.5593C12.4441 5.55685 13.7655 5.55685 13.7655 4.5593C13.7655 3.2804 13.7655 2.02707 13.7655 0.748161C13.7655 -0.249386 12.4441 -0.249386 12.4441 0.748161Z" fill="#EB8231"/>
<path d="M15.1286 1.87353C13.8503 1.87353 12.5976 1.87353 11.3193 1.87353C10.3223 1.87353 10.3223 3.19496 11.3193 3.19496C12.5976 3.19496 13.8503 3.19496 15.1286 3.19496C16.1001 3.19496 16.1001 1.87353 15.1286 1.87353Z" fill="#EB8231"/>
<path d="M23.0896 5.92589C23.0896 7.12977 23.0896 8.35553 23.0896 9.55941C23.0896 10.4131 24.4023 10.4131 24.4023 9.55941C24.4023 8.35553 24.4023 7.12977 24.4023 5.92589C24.4023 5.07223 23.0896 5.07223 23.0896 5.92589Z" fill="#7692D9"/>
<path d="M25.5837 7.08594C24.3804 7.08594 23.1552 7.08594 21.9519 7.08594C21.0987 7.08594 21.0987 8.39926 21.9519 8.39926C23.1552 8.39926 24.3804 8.39926 25.5837 8.39926C26.415 8.39926 26.415 7.08594 25.5837 7.08594Z" fill="#7692D9"/>
<path d="M9.41455 22.7916C9.41455 23.9955 9.41455 25.2213 9.41455 26.4251C9.41455 27.2788 10.7272 27.2788 10.7272 26.4251C10.7272 25.2213 10.7272 23.9955 10.7272 22.7916C10.7272 21.938 9.41455 21.938 9.41455 22.7916Z" fill="#E566A1"/>
<path d="M11.8867 23.9518C10.6834 23.9518 9.45821 23.9518 8.25492 23.9518C7.40168 23.9518 7.40168 25.2651 8.25492 25.2651C9.45821 25.2651 10.6834 25.2651 11.8867 25.2651C12.7399 25.2651 12.7399 23.9518 11.8867 23.9518Z" fill="#E566A1"/>
</svg>
