<svg width="174" height="136" viewBox="0 0 174 136" fill="none" xmlns="http://www.w3.org/2000/svg">
<rect width="174" height="136" fill="#E566A1"/>
<path fill-rule="evenodd" clip-rule="evenodd" d="M103.629 44.2393V57.3922H103.63H112.712V44.2393C112.712 30.3225 101.292 19 87.2556 19V28.0056C96.2843 28.0056 103.629 35.2873 103.629 44.2393Z" fill="#313F56"/>
<path fill-rule="evenodd" clip-rule="evenodd" d="M70.8829 57.3924V44.2396C70.8829 35.2877 78.2276 28.0058 87.2559 28.0058V19C73.2198 19 61.8 30.3225 61.8 44.2393V57.3922H61.8008H70.8829V57.3924Z" fill="#313F56"/>
<path d="M87 115.963C106.882 115.963 123 100.436 123 81.2816C123 62.1274 106.882 46.5999 87 46.5999C67.1178 46.5999 51 62.1274 51 81.2816C51 100.436 67.1178 115.963 87 115.963Z" fill="#4A5E81"/>
<path fill-rule="evenodd" clip-rule="evenodd" d="M107.275 72.918C105.307 60.4592 91.9896 59.5038 87.367 71.0313C82.4588 59.5038 69.3674 60.0393 67.3325 72.918C65.2976 85.7966 87.367 99.9998 87.367 99.9998C87.367 99.9998 109.243 85.3767 107.275 72.918Z" fill="#F8CC7D"/>
</svg>
