<svg width="270" height="114" viewBox="0 0 270 114" fill="none" xmlns="http://www.w3.org/2000/svg">
<path d="M29.3096 17.8768L20.5342 20.2262L19.9492 29.0367L20.5342 33.1483L21.1193 38.4346L24.0444 45.483L28.1396 50.7693L34.5748 57.2303L39.84 61.3419L51.5405 51.944L55.6357 45.483L59.1458 39.0219L59.7308 31.3862V20.2262L53.8806 19.0515L45.6903 15.5273L39.84 10.8284L38.085 12.5905L29.3096 17.8768Z" fill="#8BB4CE"/>
<g opacity="0.35">
<path d="M23.1439 30.1954L31.7884 34.4646C31.7884 34.4646 38.1665 32.4135 39.1592 32.7342C39.2557 32.7653 39.4186 32.8295 39.6323 32.9187L39.6331 32.9192C41.6144 33.7484 48.0296 36.7929 48.0296 36.7929L46.2011 36.6769C46.9449 37.6262 47.9809 38.8689 48.5695 39.2312C49.5605 39.8409 47.2005 41.5761 45.2188 40.3096C43.2366 39.0434 42.7174 37.496 42.7174 37.496L41.7372 37.5965L48.6115 43.869L49.7035 45.1696C50.6483 46.2948 49.4751 47.9201 47.9321 47.4247C47.9567 47.4432 47.8694 47.4178 47.8925 47.4801C47.9807 47.7162 48.1591 48.2831 47.9983 48.5597C47.4333 49.5328 46.5825 50.2816 44.7803 48.9178C45.217 49.2482 45.4846 50.0258 45.1817 50.4779C44.7695 51.0932 44.3151 51.3708 43.818 51.5213C43.2942 51.68 42.5043 51.1825 42.0682 50.8524C42.5046 51.1825 42.7125 51.9657 42.4216 52.4268C42.0637 52.9943 40.9264 53.8283 40.2054 53.2823L37.9401 51.568C37.9401 51.568 32.4259 46.2626 30.7221 44.8506C29.0178 43.4381 26.7016 40.5642 26.7016 40.5642L19.7212 34.8976L23.1444 30.1951L23.1439 30.1954Z" fill="#5B95BA"/>
<path d="M57.3724 30.1959L48.9278 34.4768C48.2527 34.8189 45.8274 33.1981 43.832 32.9511C42.3873 32.7723 40.6418 33.3438 40.7457 33.3988L45.2693 35.5315C45.2693 35.5315 47.4744 38.6455 48.4426 39.2563C49.4107 39.8675 47.1052 41.6077 45.1693 40.3377C43.233 39.0681 42.7258 37.5164 42.7258 37.5164L38.7235 37.9371L31.0075 44.8917C29.9394 45.8544 30.2661 46.3568 30.9843 47.2959C31.3127 47.7259 32.5198 47.5811 33.0257 47.3838C31.8572 48.2904 33.5421 50.6254 35.194 49.3411C34.1951 50.1175 35.6278 52.8549 37.6285 51.3001C36.6305 52.6722 38.6646 53.6702 39.5198 53.4221L40.1393 53.2425L39.9811 53.1197C39.93 53.1197 38.3097 51.425 38.2116 51.2195C37.6574 50.0592 39.118 48.4879 40.4274 49.6114L41.5545 50.494L40.9015 49.6495C40.0686 48.5364 40.7097 47.3869 41.5075 47.0385C42.0921 46.7835 42.6973 47.0667 43.1906 47.563L44.4354 48.5803L43.3749 47.3164C43.3749 47.3164 42.3577 46.1444 43.2913 45.0979C44.225 44.0517 45.4902 45.3061 45.4902 45.3061L46.9794 46.5618L45.6977 45.0476C45.6977 45.0476 44.5875 43.8573 45.3347 43.0609C46.3726 41.9546 47.6567 43.0442 48.6705 44.1338C48.9618 44.4471 49.2619 44.9282 49.4897 45.1503C50.6086 43.8658 51.3615 42.4735 51.3615 42.4735L60.6424 36.1351L57.3727 30.1951L57.3724 30.1959Z" fill="#5B95BA"/>
<path d="M59.4098 39.6L56.416 42.075L48.5632 31.7256L57.4377 22.275L57.9307 22.275C58.4238 22.275 60.1493 22.5225 60.1493 25.245C60.6424 27.225 59.9028 28.215 60.1493 30.195C61.1192 32.2455 59.2066 37.1846 59.4098 39.6Z" fill="#5B95BA"/>
<path d="M20.9835 40.095L23.9773 42.57L31.8301 32.2206L22.9556 22.77L22.4626 22.77C21.9696 22.77 20.244 23.0175 20.244 25.74C19.7509 27.72 20.4905 28.71 20.244 30.69C19.2741 32.7405 21.1867 37.6796 20.9835 40.095Z" fill="#5B95BA"/>
</g>
<path d="M22.8973 27.7204L31.5418 31.9896C31.5418 31.9896 37.9199 29.9386 38.9126 30.2592C39.0091 30.2903 39.172 30.3545 39.3857 30.4437L39.3865 30.4442C41.3678 31.2734 47.783 34.3179 47.783 34.3179L45.9545 34.2019C46.6984 35.1513 47.7344 36.3939 48.3229 36.7562C49.3139 37.3659 46.9539 39.1011 44.9722 37.8346C42.9901 36.5685 42.4708 35.021 42.4708 35.021L41.4906 35.1216L48.3649 41.394L49.4569 42.6946C50.4017 43.8198 49.2285 45.4451 47.6855 44.9497C47.7101 44.9682 47.6228 44.9429 47.6459 45.0052C47.7342 45.2413 47.9125 45.8082 47.7517 46.0847C47.1867 47.0578 46.3359 47.8066 44.5338 46.4428C44.9705 46.7732 45.238 47.5508 44.9351 48.003C44.5229 48.6183 44.0685 48.8958 43.5714 49.0463C43.0476 49.205 42.2577 48.7076 41.8216 48.3775C42.258 48.7076 42.4659 49.4907 42.175 49.9518C41.8171 50.5193 40.6799 51.3533 39.9589 50.8073L37.6935 49.0931C37.6935 49.0931 32.1793 43.7876 30.4755 42.3757C28.7712 40.9631 26.455 38.0892 26.455 38.0892L19.4746 32.4226L22.8978 27.7201L22.8973 27.7204Z" fill="#ECCA9E"/>
<path d="M57.1258 27.7209L48.6812 32.0018C48.0062 32.3439 45.5808 30.7232 43.5855 30.4761C42.1407 30.2973 40.3952 30.8688 40.4992 30.9238L45.0227 33.0565C45.0227 33.0565 47.2278 36.1705 48.196 36.7814C49.1641 37.3925 46.8586 39.1327 44.9227 37.8627C42.9865 36.5931 42.4792 35.0414 42.4792 35.0414L38.477 35.4621L30.7609 42.4167C29.6929 43.3794 30.0195 43.8819 30.7378 44.8209C31.0662 45.251 32.2732 45.1061 32.7792 44.9088C31.6106 45.8155 33.2955 48.1504 34.9474 46.8662C33.9485 47.6426 35.3813 50.3799 37.3819 48.8251C36.3839 50.1972 38.418 51.1952 39.2732 50.9472L39.8927 50.7676L39.7346 50.6447C39.6834 50.6447 38.0631 48.9501 37.9651 48.7445C37.4108 47.5842 38.8714 46.0129 40.1809 47.1364L41.3079 48.019L40.655 47.1746C39.8221 46.0614 40.4631 44.912 41.2609 44.5635C41.8455 44.3085 42.4507 44.5918 42.944 45.088L44.1888 46.1053L43.1283 44.8414C43.1283 44.8414 42.1111 43.6695 43.0447 42.6229C43.9784 41.5767 45.2436 42.8311 45.2436 42.8311L46.7328 44.0868L45.4511 42.5726C45.4511 42.5726 44.341 41.3824 45.0881 40.586C46.126 39.4796 47.4101 40.5692 48.4239 41.6589C48.7152 41.9721 49.0153 42.4532 49.2431 42.6753C50.362 41.3908 51.1149 39.9985 51.1149 39.9985L60.3958 33.6601L57.1261 27.7201L57.1258 27.7209Z" fill="#A98A66"/>
<path d="M59.163 37.125L56.1692 39.6L48.3164 29.2507L57.1909 19.8L57.6839 19.8C58.1769 19.8 59.9025 20.0475 59.9025 22.77C60.3955 24.75 59.656 25.74 59.9025 27.72C60.8724 29.7705 58.9598 34.7097 59.163 37.125Z" fill="#F5B33C"/>
<path d="M20.7369 37.62L23.7307 40.095L31.5835 29.7457L22.709 20.295L22.216 20.295C21.723 20.295 19.9974 20.5425 19.9974 23.265C19.5044 25.245 20.2439 26.235 19.9974 28.215C19.0275 30.2655 20.9401 35.2046 20.7369 37.62Z" fill="#EB8231"/>
<path d="M39.1738 61.652C30.993 56.3187 25.5126 50.785 22.303 44.143C19.0934 37.5002 18.1827 29.7987 19.1413 20.1298C19.2179 19.3573 19.7879 18.8316 20.5326 18.7282C28.3973 17.7016 33.236 15.876 38.9304 10.1724C39.5314 9.56736 40.5292 9.56736 41.1302 10.1724C46.8246 15.876 51.6634 17.7016 59.5281 18.7282C60.2728 18.8316 60.8427 19.3573 60.9193 20.1298C61.878 29.7987 60.9672 37.5002 57.7576 44.143C54.5481 50.785 49.0676 56.3187 40.8868 61.652C40.4302 61.9493 39.6304 61.9493 39.1738 61.652V61.652ZM40.0303 11.9347C34.217 17.6495 29.0861 19.6209 21.1177 20.6956C20.2556 29.8099 21.1264 37.0562 24.1245 43.2599C27.1297 49.4795 32.3005 54.7103 40.0303 59.7887C47.7601 54.7103 52.9309 49.4795 55.9361 43.2599C58.9342 37.0562 59.805 29.8099 58.943 20.6956C50.9745 19.6209 45.8436 17.6495 40.0303 11.9347V11.9347Z" fill="#5B95BA"/>
<path d="M3.25757 9.2317C3.25757 11.4169 3.25757 13.6021 3.25757 15.7874C3.25757 16.6482 4.57602 16.6482 4.57602 15.7874C4.57602 13.6021 4.57602 11.4169 4.57602 9.2317C4.57602 8.37085 3.25757 8.37085 3.25757 9.2317Z" fill="#F5B33C"/>
<path d="M7.16907 11.8363C4.99363 11.8363 2.81819 11.8363 0.642744 11.8363C-0.214248 11.8363 -0.214248 13.1607 0.642744 13.1607C2.81819 13.1607 4.99363 13.1607 7.16907 13.1607C8.02606 13.1607 8.02606 11.8363 7.16907 11.8363Z" fill="#F5B33C"/>
<path d="M13.9167 14.0107C13.9167 15.1144 13.9167 16.196 13.9167 17.2996C13.9167 18.1605 15.2352 18.1605 15.2352 17.2996C15.2352 16.196 15.2352 15.1144 15.2352 14.0107C15.2352 13.1499 13.9167 13.1499 13.9167 14.0107Z" fill="#3DD6C8"/>
<path d="M16.224 14.9819C15.1253 14.9819 14.0486 14.9819 12.9499 14.9819C12.0929 14.9819 12.0929 16.3063 12.9499 16.3063C14.0486 16.3063 15.1253 16.3063 16.224 16.3063C17.059 16.3063 17.059 14.9819 16.224 14.9819Z" fill="#3DD6C8"/>
<path d="M12.4988 0.754461C12.4988 2.04414 12.4988 3.30802 12.4988 4.59769C12.4988 5.60364 13.826 5.60364 13.826 4.59769C13.826 3.30802 13.826 2.04414 13.826 0.754461C13.826 -0.251486 12.4988 -0.251486 12.4988 0.754461Z" fill="#EB8231"/>
<path d="M15.195 1.8894C13.9111 1.8894 12.6529 1.8894 11.369 1.8894C10.3676 1.8894 10.3676 3.22195 11.369 3.22195C12.6529 3.22195 13.9111 3.22195 15.195 3.22195C16.1708 3.22195 16.1708 1.8894 15.195 1.8894Z" fill="#EB8231"/>
<path d="M23.1912 5.97584C23.1912 7.18985 23.1912 8.42594 23.1912 9.63995C23.1912 10.5008 24.5096 10.5008 24.5096 9.63995C24.5096 8.42594 24.5096 7.18985 24.5096 5.97584C24.5096 5.11499 23.1912 5.11499 23.1912 5.97584Z" fill="#7692D9"/>
<path d="M25.6962 7.14563C24.4876 7.14563 23.2571 7.14563 22.0485 7.14563C21.1915 7.14563 21.1915 8.47001 22.0485 8.47001C23.2571 8.47001 24.4876 8.47001 25.6962 8.47001C26.5312 8.47001 26.5312 7.14563 25.6962 7.14563Z" fill="#7692D9"/>
<path d="M9.45581 22.9835C9.45581 24.1975 9.45581 25.4336 9.45581 26.6476C9.45581 27.5085 10.7743 27.5085 10.7743 26.6476C10.7743 25.4336 10.7743 24.1975 10.7743 22.9835C10.7743 22.1227 9.45581 22.1227 9.45581 22.9835Z" fill="#E566A1"/>
<path d="M11.9389 24.1534C10.7303 24.1534 9.49976 24.1534 8.29118 24.1534C7.43419 24.1534 7.43419 25.4778 8.29118 25.4778C9.49976 25.4778 10.7303 25.4778 11.9389 25.4778C12.7959 25.4778 12.7959 24.1534 11.9389 24.1534Z" fill="#E566A1"/>
<path d="M78.284 37.8184V46.2073H75.2754V23.7796H81.8693C83.2827 23.7796 84.5089 23.9465 85.5482 24.2804C86.5978 24.6039 87.4656 25.0682 88.1514 25.6734C88.8373 26.2785 89.3466 27.0089 89.6791 27.8645C90.0221 28.7201 90.1935 29.6748 90.1935 30.7286C90.1935 31.772 90.0117 32.7267 89.6479 33.5927C89.2842 34.4587 88.749 35.2047 88.0423 35.8308C87.346 36.4568 86.4783 36.9472 85.4391 37.3019C84.3998 37.6463 83.2099 37.8184 81.8693 37.8184H78.284ZM78.284 35.4082H81.8693C82.7319 35.4082 83.4905 35.2934 84.1452 35.0639C84.8103 34.8343 85.3663 34.5161 85.8132 34.1092C86.26 33.6918 86.5978 33.1962 86.8264 32.6223C87.0551 32.0485 87.1694 31.4172 87.1694 30.7286C87.1694 29.2991 86.7277 28.1827 85.8444 27.3793C84.9714 26.5759 83.6464 26.1742 81.8693 26.1742H78.284V35.4082Z" fill="#5B95BA"/>
<path d="M94.0813 46.2073V30.353H95.6713C95.9727 30.353 96.1806 30.4103 96.2949 30.5251C96.4092 30.6399 96.4871 30.8381 96.5287 31.1199L96.7158 33.5927C97.2562 32.4867 97.9213 31.6259 98.7111 31.0103C99.5113 30.3843 100.447 30.0712 101.517 30.0712C101.953 30.0712 102.348 30.1234 102.702 30.2278C103.055 30.3217 103.382 30.4573 103.684 30.6347L103.325 32.7162C103.253 32.9771 103.091 33.1075 102.842 33.1075C102.697 33.1075 102.473 33.0606 102.172 32.9667C101.87 32.8623 101.449 32.8101 100.909 32.8101C99.9426 32.8101 99.132 33.0919 98.4773 33.6553C97.8329 34.2187 97.2925 35.0378 96.8561 36.1125V46.2073H94.0813Z" fill="#5B95BA"/>
<path d="M110.237 30.353V46.2073H107.462V30.353H110.237ZM110.861 25.376C110.861 25.6473 110.803 25.9029 110.689 26.1429C110.585 26.3724 110.44 26.5811 110.253 26.7689C110.076 26.9463 109.868 27.0872 109.629 27.1915C109.39 27.2958 109.135 27.348 108.865 27.348C108.595 27.348 108.34 27.2958 108.101 27.1915C107.873 27.0872 107.665 26.9463 107.478 26.7689C107.301 26.5811 107.161 26.3724 107.057 26.1429C106.953 25.9029 106.901 25.6473 106.901 25.376C106.901 25.1047 106.953 24.8491 107.057 24.6091C107.161 24.3587 107.301 24.1448 107.478 23.9674C107.665 23.7796 107.873 23.6335 108.101 23.5292C108.34 23.4249 108.595 23.3727 108.865 23.3727C109.135 23.3727 109.39 23.4249 109.629 23.5292C109.868 23.6335 110.076 23.7796 110.253 23.9674C110.44 24.1448 110.585 24.3587 110.689 24.6091C110.803 24.8491 110.861 25.1047 110.861 25.376Z" fill="#5B95BA"/>
<path d="M113.627 30.353H115.903C116.121 30.353 116.303 30.4103 116.448 30.5251C116.594 30.6399 116.698 30.7755 116.76 30.932L120.766 41.1364C120.912 41.512 121.026 41.8876 121.109 42.2633C121.193 42.6389 121.27 43.0093 121.343 43.3745C121.426 43.0093 121.515 42.6389 121.608 42.2633C121.702 41.8876 121.821 41.512 121.967 41.1364L126.02 30.932C126.082 30.7651 126.181 30.6295 126.316 30.5251C126.461 30.4103 126.638 30.353 126.846 30.353H129.013L122.575 46.2073H120.065L113.627 30.353Z" fill="#5B95BA"/>
<path d="M143.669 46.2073H142.437C142.167 46.2073 141.949 46.1655 141.782 46.0821C141.616 45.9986 141.507 45.8212 141.455 45.5499L141.143 44.0788C140.728 44.4544 140.322 44.7935 139.927 45.0961C139.533 45.3882 139.117 45.6386 138.68 45.8473C138.244 46.0455 137.776 46.1968 137.277 46.3012C136.789 46.4055 136.243 46.4577 135.641 46.4577C135.028 46.4577 134.451 46.3742 133.91 46.2073C133.38 46.0299 132.918 45.769 132.523 45.4247C132.128 45.0804 131.811 44.6474 131.572 44.1257C131.343 43.5936 131.229 42.9675 131.229 42.2476C131.229 41.6216 131.401 41.0216 131.744 40.4478C132.086 39.8635 132.637 39.347 133.396 38.8983C134.165 38.4497 135.168 38.0845 136.404 37.8028C137.641 37.5106 139.153 37.3437 140.941 37.3019V36.0655C140.941 34.8343 140.676 33.9057 140.146 33.2797C139.626 32.6432 138.852 32.325 137.823 32.325C137.148 32.325 136.576 32.4137 136.108 32.591C135.651 32.758 135.251 32.951 134.908 33.1701C134.575 33.3788 134.284 33.5718 134.035 33.7492C133.796 33.9161 133.557 33.9996 133.318 33.9996C133.131 33.9996 132.965 33.9527 132.819 33.8588C132.684 33.7544 132.575 33.6292 132.492 33.4831L131.993 32.591C132.866 31.7459 133.806 31.1146 134.814 30.6973C135.823 30.2799 136.94 30.0712 138.166 30.0712C139.049 30.0712 139.834 30.2173 140.52 30.5095C141.206 30.8016 141.782 31.2085 142.25 31.7302C142.718 32.2519 143.071 32.8832 143.31 33.624C143.549 34.3648 143.669 35.1786 143.669 36.0655V46.2073ZM136.467 44.5013C136.955 44.5013 137.402 44.4544 137.807 44.3605C138.213 44.2561 138.592 44.1153 138.945 43.9379C139.309 43.7501 139.652 43.5258 139.974 43.2649C140.307 43.0041 140.629 42.7067 140.941 42.3728V39.0705C139.662 39.1122 138.576 39.2166 137.683 39.3835C136.789 39.54 136.062 39.7487 135.5 40.0095C134.939 40.2704 134.529 40.5782 134.269 40.9329C134.019 41.2877 133.895 41.6842 133.895 42.1224C133.895 42.5398 133.962 42.8997 134.097 43.2023C134.232 43.5049 134.414 43.7553 134.643 43.9536C134.872 44.1414 135.142 44.2822 135.454 44.3761C135.765 44.4596 136.103 44.5013 136.467 44.5013Z" fill="#5B95BA"/>
<path d="M159.139 33.1701C159.056 33.2849 158.973 33.3736 158.89 33.4362C158.806 33.4988 158.687 33.5301 158.531 33.5301C158.375 33.5301 158.204 33.4675 158.017 33.3423C157.84 33.2066 157.611 33.0606 157.331 32.904C157.05 32.7475 156.707 32.6067 156.302 32.4815C155.907 32.3458 155.419 32.278 154.837 32.278C154.068 32.278 153.387 32.4189 152.794 32.7006C152.202 32.9719 151.703 33.3684 151.298 33.8901C150.903 34.4117 150.602 35.043 150.394 35.7838C150.196 36.5246 150.098 37.3541 150.098 38.2723C150.098 39.2322 150.207 40.0878 150.425 40.839C150.643 41.5798 150.95 42.2059 151.345 42.7171C151.74 43.218 152.218 43.604 152.779 43.8753C153.35 44.1361 153.99 44.2666 154.696 44.2666C155.372 44.2666 155.928 44.1883 156.364 44.0318C156.801 43.8649 157.164 43.6823 157.455 43.484C157.746 43.2858 157.985 43.1084 158.172 42.9519C158.36 42.785 158.547 42.7015 158.734 42.7015C158.973 42.7015 159.149 42.7902 159.264 42.9675L160.043 43.9849C159.357 44.83 158.5 45.4508 157.471 45.8473C156.442 46.2334 155.356 46.4264 154.213 46.4264C153.226 46.4264 152.306 46.2438 151.454 45.8786C150.612 45.5134 149.879 44.9865 149.256 44.2979C148.632 43.5988 148.139 42.7432 147.775 41.7311C147.422 40.719 147.245 39.5661 147.245 38.2723C147.245 37.0933 147.406 36.0029 147.728 35.0013C148.061 33.9996 148.539 33.1388 149.162 32.4189C149.796 31.6885 150.576 31.1199 151.501 30.7129C152.426 30.306 153.486 30.1025 154.681 30.1025C155.782 30.1025 156.759 30.2851 157.611 30.6503C158.463 31.0051 159.217 31.5111 159.872 32.1685L159.139 33.1701Z" fill="#5B95BA"/>
<path d="M168.045 50.8869C167.952 51.0956 167.832 51.2625 167.687 51.3877C167.552 51.5129 167.339 51.5755 167.048 51.5755H164.99L167.874 45.2839L161.358 30.353H163.758C163.997 30.353 164.185 30.4156 164.32 30.5408C164.455 30.6555 164.553 30.786 164.616 30.932L168.84 40.9173C168.934 41.1468 169.012 41.3764 169.074 41.6059C169.147 41.8355 169.209 42.0702 169.261 42.3102C169.334 42.0702 169.407 41.8355 169.479 41.6059C169.552 41.3764 169.635 41.1416 169.729 40.9016L173.829 30.932C173.891 30.7651 173.995 30.6295 174.14 30.5251C174.296 30.4103 174.462 30.353 174.639 30.353H176.853L168.045 50.8869Z" fill="#5B95BA"/>
<path d="M195.78 23.9781V25.3397H188.033V46.124H186.443V25.3397H178.648V23.9781H195.78Z" fill="#575E71"/>
<path d="M201.919 30.301C203.031 30.301 204.024 30.4941 204.897 30.8801C205.78 31.2557 206.523 31.7931 207.126 32.4921C207.729 33.1912 208.186 34.0364 208.498 35.0276C208.82 36.0084 208.981 37.1091 208.981 38.3299C208.981 39.5507 208.82 40.6515 208.498 41.6322C208.186 42.613 207.729 43.453 207.126 44.152C206.523 44.8511 205.78 45.3884 204.897 45.7641C204.024 46.1397 203.031 46.3275 201.919 46.3275C200.807 46.3275 199.81 46.1397 198.926 45.7641C198.053 45.3884 197.31 44.8511 196.697 44.152C196.094 43.453 195.632 42.613 195.31 41.6322C194.998 40.6515 194.842 39.5507 194.842 38.3299C194.842 37.1091 194.998 36.0084 195.31 35.0276C195.632 34.0364 196.094 33.1912 196.697 32.4921C197.31 31.7931 198.053 31.2557 198.926 30.8801C199.81 30.4941 200.807 30.301 201.919 30.301ZM201.919 45.1537C202.844 45.1537 203.65 44.9972 204.335 44.6842C205.032 44.3607 205.609 43.9016 206.066 43.3069C206.533 42.7122 206.882 41.9974 207.11 41.1627C207.339 40.3176 207.453 39.3733 207.453 38.3299C207.453 37.297 207.339 36.3579 207.11 35.5128C206.882 34.6676 206.533 33.9477 206.066 33.3529C205.609 32.7478 205.032 32.2835 204.335 31.96C203.65 31.6366 202.844 31.4748 201.919 31.4748C200.994 31.4748 200.184 31.6366 199.487 31.96C198.802 32.2835 198.225 32.7478 197.757 33.3529C197.3 33.9477 196.952 34.6676 196.713 35.5128C196.484 36.3579 196.37 37.297 196.37 38.3299C196.37 39.3733 196.484 40.3176 196.713 41.1627C196.952 41.9974 197.3 42.7122 197.757 43.3069C198.225 43.9016 198.802 44.3607 199.487 44.6842C200.184 44.9972 200.994 45.1537 201.919 45.1537Z" fill="#575E71"/>
<path d="M219.281 30.301C220.393 30.301 221.386 30.4941 222.259 30.8801C223.142 31.2557 223.885 31.7931 224.488 32.4921C225.091 33.1912 225.548 34.0364 225.86 35.0276C226.182 36.0084 226.343 37.1091 226.343 38.3299C226.343 39.5507 226.182 40.6515 225.86 41.6322C225.548 42.613 225.091 43.453 224.488 44.152C223.885 44.8511 223.142 45.3884 222.259 45.7641C221.386 46.1397 220.393 46.3275 219.281 46.3275C218.169 46.3275 217.172 46.1397 216.288 45.7641C215.415 45.3884 214.672 44.8511 214.059 44.152C213.456 43.453 212.994 42.613 212.672 41.6322C212.36 40.6515 212.204 39.5507 212.204 38.3299C212.204 37.1091 212.36 36.0084 212.672 35.0276C212.994 34.0364 213.456 33.1912 214.059 32.4921C214.672 31.7931 215.415 31.2557 216.288 30.8801C217.172 30.4941 218.169 30.301 219.281 30.301ZM219.281 45.1537C220.206 45.1537 221.012 44.9972 221.698 44.6842C222.394 44.3607 222.971 43.9016 223.428 43.3069C223.895 42.7122 224.244 41.9974 224.472 41.1627C224.701 40.3176 224.815 39.3733 224.815 38.3299C224.815 37.297 224.701 36.3579 224.472 35.5128C224.244 34.6676 223.895 33.9477 223.428 33.3529C222.971 32.7478 222.394 32.2835 221.698 31.96C221.012 31.6366 220.206 31.4748 219.281 31.4748C218.356 31.4748 217.546 31.6366 216.85 31.96C216.164 32.2835 215.587 32.7478 215.119 33.3529C214.662 33.9477 214.314 34.6676 214.075 35.5128C213.846 36.3579 213.732 37.297 213.732 38.3299C213.732 39.3733 213.846 40.3176 214.075 41.1627C214.314 41.9974 214.662 42.7122 215.119 43.3069C215.587 43.9016 216.164 44.3607 216.85 44.6842C217.546 44.9972 218.356 45.1537 219.281 45.1537Z" fill="#575E71"/>
<path d="M232.653 23.3521V46.124H231.172V23.3521H232.653Z" fill="#575E71"/>
<path d="M240.281 23.3521V37.2344H240.998C241.144 37.2344 241.279 37.2135 241.403 37.1718C241.538 37.13 241.684 37.0309 241.84 36.8744L248.06 30.9427C248.174 30.8279 248.288 30.734 248.403 30.661C248.527 30.588 248.683 30.5514 248.87 30.5514H250.18L243.336 37.0778C243.232 37.1822 243.134 37.2813 243.04 37.3752C242.947 37.4587 242.843 37.5317 242.728 37.5943C242.895 37.6778 243.035 37.7769 243.149 37.8917C243.264 38.0065 243.383 38.1317 243.508 38.2673L250.694 46.124H249.4C249.255 46.124 249.125 46.098 249.011 46.0458C248.896 45.9832 248.782 45.8893 248.668 45.7641L242.152 38.7525C241.975 38.5647 241.814 38.4395 241.668 38.3769C241.523 38.3038 241.294 38.2673 240.982 38.2673H240.281V46.124H238.785V23.3521H240.281Z" fill="#575E71"/>
<path d="M256.386 30.5514V46.124H254.905V30.5514H256.386ZM257.04 25.1832C257.04 25.371 256.999 25.5484 256.916 25.7153C256.843 25.8718 256.744 26.0127 256.62 26.1379C256.495 26.2631 256.349 26.3622 256.183 26.4353C256.017 26.5083 255.84 26.5448 255.653 26.5448C255.466 26.5448 255.289 26.5083 255.123 26.4353C254.957 26.3622 254.811 26.2631 254.687 26.1379C254.562 26.0127 254.463 25.8718 254.39 25.7153C254.318 25.5484 254.281 25.371 254.281 25.1832C254.281 24.9954 254.318 24.818 254.39 24.6511C254.463 24.4737 254.562 24.3224 254.687 24.1972C254.811 24.072 254.957 23.9729 255.123 23.8998C255.289 23.8268 255.466 23.7903 255.653 23.7903C255.84 23.7903 256.017 23.8268 256.183 23.8998C256.349 23.9729 256.495 24.072 256.62 24.1972C256.744 24.3224 256.843 24.4737 256.916 24.6511C256.999 24.818 257.04 24.9954 257.04 25.1832Z" fill="#575E71"/>
<path d="M266.602 46.3745C265.552 46.3745 264.731 46.0823 264.139 45.498C263.557 44.9137 263.266 44.0112 263.266 42.7904V32.1478H261.037C260.922 32.1478 260.829 32.1165 260.756 32.0539C260.683 31.9913 260.647 31.9026 260.647 31.7879V31.2088L263.297 31.021L263.671 25.4493C263.681 25.3554 263.718 25.2719 263.78 25.1989C263.853 25.1258 263.946 25.0893 264.061 25.0893H264.762V31.0366H269.641V32.1478H264.762V42.7122C264.762 43.1399 264.814 43.5103 264.918 43.8234C265.032 44.1259 265.183 44.3764 265.37 44.5746C265.568 44.7728 265.796 44.9189 266.056 45.0128C266.316 45.1067 266.597 45.1537 266.898 45.1537C267.272 45.1537 267.594 45.1015 267.864 44.9972C268.135 44.8824 268.368 44.7624 268.566 44.6372C268.763 44.5016 268.924 44.3816 269.049 44.2772C269.174 44.1625 269.273 44.1051 269.345 44.1051C269.428 44.1051 269.512 44.1572 269.595 44.2616L270 44.9189C269.605 45.3571 269.101 45.7119 268.488 45.9832C267.885 46.244 267.256 46.3745 266.602 46.3745Z" fill="#575E71"/>
</svg>
