<svg width="174" height="136" viewBox="0 0 174 136" fill="none" xmlns="http://www.w3.org/2000/svg">
<rect width="174" height="136" fill="#3DD6C8"/>
<rect x="37" y="29" width="82.6268" height="65.4328" fill="white"/>
<rect x="41.2983" y="48.1045" width="74.5074" height="41.0746" fill="#EAEBEE"/>
<path d="M119.627 29H111.365H78.314H61.7886H37.0006H37V43.3284H37.0006H119.627V29Z" fill="#37878B"/>
<circle cx="42.014" cy="35.9256" r="2.14925" fill="#F27277"/>
<circle cx="47.7459" cy="35.9256" r="2.14925" fill="#FCCB6F"/>
<circle cx="53.4776" cy="35.9256" r="2.14925" fill="#87C987"/>
<path fill-rule="evenodd" clip-rule="evenodd" d="M110.555 87.8035C112.542 89.8003 114.528 91.797 116.515 93.7938C117.677 94.9624 119.481 93.1494 118.319 91.9804C116.332 89.9836 114.346 87.9869 112.359 85.9901C111.197 84.8215 109.392 86.6345 110.555 87.8035Z" fill="#164B6E"/>
<path fill-rule="evenodd" clip-rule="evenodd" d="M115.219 74.7553C115.219 85.5698 106.498 94.337 95.7394 94.337C84.9809 94.337 76.2595 85.5698 76.2595 74.7553C76.2595 63.9405 84.9809 55.1736 95.7394 55.1736C106.498 55.1736 115.219 63.9405 115.219 74.7553Z" fill="#2B688F"/>
<path fill-rule="evenodd" clip-rule="evenodd" d="M136.659 105.43L129.896 112.23L114.095 96.3467L117.415 93.0106L120.86 89.5483L136.659 105.43Z" fill="#F8CC7D"/>
<path fill-rule="evenodd" clip-rule="evenodd" d="M112.708 74.758C112.708 79.2624 110.953 83.4975 107.768 86.6845H107.766C106.514 87.9368 105.08 88.9804 103.507 89.7839C101.121 91.0048 98.5426 91.622 95.8428 91.622C89.4758 91.622 83.7172 88.0984 80.8177 82.4225C80.2075 81.2285 79.7475 79.9896 79.4398 78.7081C79.1346 77.4265 78.9797 76.1069 78.9797 74.758C78.9797 73.2005 79.1929 71.6541 79.6173 70.1571C80.2679 67.8589 81.3768 65.7649 82.916 63.9291C86.132 60.0935 90.8448 57.894 95.8428 57.894C98.5401 57.894 101.119 58.5135 103.507 59.7344C108.594 62.3356 111.996 67.2664 112.607 72.9222V72.9266C112.674 73.5371 112.708 74.1543 112.708 74.758Z" fill="#DFF2F2"/>
</svg>
