<svg width="89" height="106" viewBox="0 0 89 106" fill="none" xmlns="http://www.w3.org/2000/svg">
<path fill-rule="evenodd" clip-rule="evenodd" d="M54.3609 0L44.4714 8.34653L34.5818 0L29.2713 11.8101L16.7475 8.59683L17.0819 21.5546L4.39088 24.1004L10.3078 35.5977L0 43.4225L10.3078 51.2263L4.39088 62.7443L17.0819 65.2902L16.7475 78.227L29.2713 75.0344L34.5818 86.845L44.4714 78.4982L54.3609 86.845L59.6714 75.0344L72.1953 78.227L71.8609 65.2902L84.5521 62.7443L78.635 51.2263L88.9425 43.4227V43.4225L78.635 35.5977L84.5521 24.1004L71.8609 21.5546L72.1953 8.61775L59.6714 11.8101L54.3609 0Z" fill="#FCE5BD"/>
<path fill-rule="evenodd" clip-rule="evenodd" d="M14.5727 70.9031L1.04517 94.795L16.496 90.5173L20.7823 106L31.8425 86.4901L33.2645 83.9445L29.2711 75.0346L16.7473 78.227L17.0398 66.5212L14.5727 70.9031Z" fill="#7692D9"/>
<path fill-rule="evenodd" clip-rule="evenodd" d="M72.1954 78.2271L59.6716 75.0345L55.8455 83.5272L57.2881 86.0728L68.5787 106L72.8645 90.5174L88.3156 94.7949L74.3491 70.1311L71.882 65.7493L72.1954 78.2271Z" fill="#7692D9"/>
<path fill-rule="evenodd" clip-rule="evenodd" d="M44.4714 15.7747C59.7253 15.7747 72.0907 28.153 72.0907 43.4223C72.0907 58.6917 59.7253 71.07 44.4714 71.07C29.2175 71.07 16.8521 58.6917 16.8521 43.4223C16.8521 28.153 29.2175 15.7747 44.4714 15.7747Z" fill="#F8CC7D"/>
<path fill-rule="evenodd" clip-rule="evenodd" d="M29.8437 46.6627C33.138 50.0927 36.4318 53.5227 39.7261 56.9528C40.4193 57.6747 41.5037 57.4071 42.0229 56.6575L57.1703 34.7774C57.8895 33.7385 58.609 32.6996 59.328 31.6607C60.4005 30.1114 57.8669 28.6502 56.8025 30.1873L41.6551 52.0674C40.9358 53.1063 40.2168 54.1452 39.4973 55.1841C40.2631 55.0856 41.0287 54.9873 41.7942 54.8888C38.5002 51.4588 35.2061 48.0288 31.9118 44.5987C30.6071 43.24 28.5404 45.3056 29.8437 46.6627Z" fill="white"/>
</svg>
