<svg width="176" height="136" viewBox="0 0 176 136" fill="none" xmlns="http://www.w3.org/2000/svg">
<rect width="176" height="136" fill="#7692D9"/>
<path d="M101.03 25H70.8704C64.9864 25 62 27.8377 62 33.4289V102.546C62 108.137 64.9864 110.974 70.8704 110.974H101.03C106.914 110.974 109.9 108.137 109.9 102.546V33.4289C109.9 27.8658 106.914 25 101.03 25Z" fill="#AFDDDF"/>
<path d="M90.5334 30.3381H81.3674C80.8056 30.3381 80.3325 30.7877 80.3325 31.3215C80.3325 31.8554 80.8056 32.3049 81.3674 32.3049H90.5334C91.0952 32.3049 91.5683 31.8554 91.5683 31.3215C91.5683 30.7877 91.1248 30.3381 90.5334 30.3381Z" fill="white"/>
<path d="M105.081 35.7607H66.5247V98.5558H105.081V35.7607Z" fill="#4DB3B9"/>
</svg>
